<?xml version="1.0" encoding="UTF-8"?>
<svg width="38px" height="30px" viewBox="0 0 38 30" version="1.1" xmlns="http://www.w3.org/2000/svg" xmlns:xlink="http://www.w3.org/1999/xlink">
    <!-- Generator: Sketch 46.2 (44496) - http://www.bohemiancoding.com/sketch -->
    <title>suitcase</title>
    <desc>Created with Sketch.</desc>
    <defs></defs>
    <g id="website---desktop" stroke="none" stroke-width="1" fill="none" fill-rule="evenodd">
        <g id="M---D7---Jet-Details" transform="translate(-230.000000, -1991.000000)" fill-rule="nonzero" fill="#B6CADA">
            <g id="Group-15" transform="translate(230.000000, 1973.000000)">
                <g id="suitcase" transform="translate(0.000000, 18.857107)">
                    <path d="M35.0306794,4.66686899 L25.6546511,4.66686899 L25.6546511,3.03034271 C25.6546511,1.36895706 24.3029779,0.0172838828 22.6415922,0.0172838828 L15.0152077,0.0172838828 C13.353822,0.0172838828 12.0021488,1.36895706 12.0021488,3.03034271 L12.0021488,4.66686899 L2.6261205,4.66686899 C1.17809887,4.66686899 0,5.84496786 0,7.29291595 L0,25.7462189 C0,27.1943141 1.17809887,28.3723394 2.6261205,28.3723394 L35.0306059,28.3723394 C36.478701,28.3723394 37.6567264,27.1942405 37.6567264,25.7462189 L37.6567264,7.29291595 C37.6567999,5.84496786 36.478701,4.66686899 35.0306794,4.66686899 Z M13.5024634,3.03034271 C13.5024634,2.19615634 14.1810948,1.51752491 15.0152812,1.51752491 L22.6415922,1.51752491 C23.4757051,1.51752491 24.15441,2.19615634 24.15441,3.03034271 L24.15441,4.66686899 L13.5024634,4.66686899 L13.5024634,3.03034271 Z M36.1565589,25.7462924 C36.1565589,26.3671148 35.6515018,26.8721719 35.0306794,26.8721719 L2.6261205,26.8721719 C2.00529814,26.8721719 1.50024102,26.3671883 1.50024102,25.7462924 L1.50024102,11.2711509 L13.017485,16.8573018 C13.2509278,18.2809054 14.4893363,19.3707461 15.9778832,19.3707461 L21.6789167,19.3707461 C23.1674636,19.3707461 24.4058722,18.2809054 24.6393149,16.8573018 L31.833014,13.3680169 C32.2057575,13.1872348 32.3613124,12.7385158 32.1805304,12.3657723 C31.9998219,11.9929553 31.5511028,11.8373268 31.1782858,12.0182559 L24.4703006,15.2718917 C24.0309222,14.159251 22.945715,13.3697085 21.6789167,13.3697085 L15.9778832,13.3697085 C14.7110849,13.3697085 13.6258041,14.1593245 13.1864993,15.2718917 L1.50024102,9.6037343 L1.50024102,7.29291595 C1.50024102,6.67216714 2.00529814,6.16711002 2.6261205,6.16711002 L35.0306059,6.16711002 C35.6513547,6.16711002 36.1564853,6.67209359 36.1564853,7.29291595 L36.1564853,25.7462924 L36.1565589,25.7462924 Z M14.4776421,16.3702641 C14.4776421,15.5429913 15.1506839,14.8700231 15.9778832,14.8700231 L21.6789167,14.8700231 C22.5061896,14.8700231 23.1791578,15.5430648 23.1791578,16.3702641 C23.1791578,17.1974634 22.506116,17.8705051 21.6789167,17.8705051 L15.9778832,17.8705051 C15.1506103,17.8705051 14.4776421,17.1974634 14.4776421,16.3702641 Z" id="Shape"></path>
                    <path d="M35.1162898,10.9420217 C34.9355813,10.5691311 34.4867887,10.4137232 34.1140452,10.5943582 L33.6537791,10.8175777 C33.2809621,10.9983598 33.1254071,11.4471523 33.3061156,11.8198223 C33.4357815,12.0871708 33.7032037,12.2427993 33.9815845,12.2427993 C34.0913923,12.2427993 34.2029653,12.2186754 34.3083602,12.1674857 L34.7686263,11.9442662 C35.1414434,11.7634842 35.2969983,11.3146916 35.1162898,10.9420217 Z" id="Shape"></path>
                </g>
            </g>
        </g>
    </g>
</svg>