
<svg width="150px" height="601px" viewBox="0 0 130 601" version="1.1" xmlns="http://www.w3.org/2000/svg" xmlns:xlink="http://www.w3.org/1999/xlink">
    <!-- Generator: Sketch 48.1 (47250) - http://www.bohemiancoding.com/sketch -->
    <desc>Created with Sketch.</desc>

    <g id="Page-1" stroke="none" stroke-width="1" fill="none" fill-rule="evenodd">
        <g id="D---D30---Jet-comparator" transform="translate(0, 0)">
            <g id="Group-8" transform="translate(0, 0)">
                <g id="Group-2" transform="translate(0, 0.000000)">

                    <g id="man" transform="translate(0, 0)" fill="#757372" fill-rule="nonzero">
                        <path d="M45.6317575,26.0415606 C45.5149405,24.5346223 45.4098053,23.0627292 45.269625,21.5908361 C44.6565412,16.6200271 45.7346353,11.5875499 48.3302282,7.30412717 C50.1380994,4.55915153 52.8165977,2.50193315 55.9350095,1.46328134 C60.6400004,-0.314770176 65.8321332,-0.314770176 70.5371241,1.46328134 C72.6281469,2.17586453 77.359232,5.86727909 78.457311,8.92788231 C79.00634,10.4551907 79.3405157,12.0513711 79.4502548,13.6706491 C79.6722069,17.1050665 79.6605252,20.5394838 79.7539788,23.9855828 C79.7539788,24.1724899 79.7539788,24.3477153 79.7539788,24.5346223 C81.599686,24.4061237 82.1604072,25.0953435 81.6464128,26.8709607 C81.2141902,28.3778989 80.6885141,29.849792 80.2095647,31.3450486 C79.099804,34.8495561 78.1302236,38.3540636 76.8452375,41.7067091 C76.2417603,43.2477252 75.8260155,44.8557948 75.6069782,46.4962026 C75.4200712,48.0031409 75.4434345,49.4049439 76.7751474,50.4562961 C78.8606842,52.314064 81.0612015,54.0385829 83.3636215,55.6196038 C85.2218988,56.5572415 87.1816782,57.2784403 89.2044673,57.7690351 C91.4823972,58.5166633 93.7836904,59.1825198 96.0616203,59.9184663 C99.9282602,61.1567257 103.759855,62.5118019 107.649858,63.6332443 C109.810971,64.2523739 111.154366,65.2453177 111.551543,67.6517462 C111.948721,70.0581747 112.813166,72.090789 113.408932,74.3219921 C114.764009,79.4152097 116.119085,84.5084273 117.380708,89.6250082 C118.245153,93.1295157 119.062871,96.6340232 119.717046,100.220303 C120.452992,104.332258 120.955305,108.49094 121.597798,112.614577 C122.041703,115.46491 122.64915,118.280198 123.034646,121.142212 C123.572004,125.149032 123.992545,129.167534 124.436449,133.174355 C124.599993,134.646248 124.705128,136.118141 124.7869,137.590034 C125.067261,142.566435 124.074317,147.414337 123.396779,152.297284 C123.12541,155.113921 122.680662,157.91115 122.065066,160.673057 C120.382902,166.934444 118.887646,173.26592 115.803679,179.083403 C114.448603,181.630012 113.467341,184.398573 112.299172,187.026953 C111.77979,187.897682 111.18151,188.718851 110.511873,189.480108 L109.589019,187.237224 C108.490498,188.044458 107.673262,189.176331 107.252681,190.473052 C106.598506,193.124796 105.663971,195.70645 105.079886,198.381557 C104.511247,200.873864 104.120869,203.403511 103.911717,205.951294 C103.327633,213.999979 102.848683,222.060346 102.369734,230.120714 C102.229553,232.457052 102.252917,234.79339 102.171145,237.129729 C101.890784,244.933099 101.633787,252.736469 101.295018,260.493112 C101.154838,263.612124 100.675888,266.731135 100.640843,269.838465 C100.605798,272.945795 100.921204,276.076489 101.16652,279.183819 C101.458562,282.898596 101.855739,286.601693 102.194508,290.316471 C102.615049,294.989147 103.152407,299.661824 103.362678,304.334501 C103.748173,311.460333 104.250486,318.609528 104.086942,325.73536 C103.958444,331.342572 102.82532,336.92642 102.241235,342.521951 C101.625239,346.818315 101.625239,351.180582 102.241235,355.476947 C103.178641,359.853864 104.994827,363.994928 107.579768,367.649269 C109.213683,370.086305 110.681128,372.630917 111.972084,375.265732 C113.273556,378.186095 113.456481,381.482895 112.486079,384.529314 C111.937039,386.515201 110.944095,388.033821 108.864754,388.185683 C107.010417,388.337015 105.144157,388.238791 103.315951,387.893641 C99.6434403,387.288251 96.2127435,385.669998 93.4098763,383.220964 C91.5160859,381.714961 90.4145848,379.425904 90.4193632,377.006304 C90.4133963,375.790979 90.3275455,374.577361 90.162366,373.373298 C90.162366,373.092938 89.7184617,372.578943 89.6133265,372.613988 C87.662484,373.256481 87.2769882,371.445819 86.4709515,370.511284 C85.8086358,369.699035 85.2294413,368.822416 84.7420611,367.894585 C84.5472135,367.577558 84.4384945,367.215162 84.4266554,366.843233 C84.4266554,363.502269 84.520109,360.172987 84.5785174,356.832023 C84.5800154,356.689652 84.6248367,356.551114 84.707016,356.434845 C86.0270472,354.717637 85.3378274,353.01211 84.858878,351.201448 C83.4836366,346.678492 82.514117,342.041999 81.9618185,337.346961 C81.6580945,333.643865 80.8987845,329.975814 80.4431986,326.284399 C80.1394746,323.831244 79.9642492,321.366407 79.859114,318.889888 C79.6838886,314.404119 79.6605252,309.918349 79.4736182,305.444261 C79.2399843,299.755278 79.0764406,294.054612 78.5741279,288.388992 C78.1460807,285.650212 77.5254113,282.94503 76.7167389,280.293579 C75.6770684,275.889582 74.5789894,271.485584 73.609409,267.058223 C72.9902793,264.242935 72.5230116,261.392602 72.0791073,258.553951 C71.6819298,255.983979 71.448296,253.390643 71.0744819,250.80899 C70.6305776,247.77175 70.1282648,244.746192 69.590907,241.732315 C68.9951408,238.403033 68.4227379,235.062069 67.698473,231.75615 C67.2312053,229.595038 66.5303038,227.480651 65.9462192,225.342902 C65.3154079,223.006563 64.7079599,220.611817 64.0654669,218.14698 C63.94865,218.21707 63.6098809,218.28716 63.5748358,218.450704 C62.7103906,221.768304 61.8225821,225.085905 61.0399087,228.426868 C60.0002382,232.842548 58.9605676,237.258227 58.0844408,241.708952 C57.2083139,246.159676 56.635911,250.306677 55.9233278,254.558813 C55.4093334,257.631097 54.8602939,260.703382 54.3930262,263.775667 C53.9257585,266.847952 53.5986712,269.768375 53.1080401,272.747206 C52.430502,276.824117 51.6127836,280.924391 50.9352455,284.954574 C50.2109806,289.34689 49.5801692,293.76257 48.8909494,298.166567 C48.2017296,302.570565 47.2905577,307.149788 46.7648815,311.670603 C46.028935,318.00208 45.5266222,324.368602 45.0126278,330.723442 C44.5687235,336.120384 44.3701348,341.529007 43.8444586,346.914267 C43.4379519,348.941839 42.8475323,350.928151 42.0805232,352.848566 C41.9892138,353.179133 41.9536811,353.522615 41.975388,353.864873 C42.0922049,356.364755 42.2440669,358.864637 42.3608838,361.364519 C42.4309739,362.999956 42.5477909,364.635393 42.4777007,366.259148 C42.4244308,366.913955 42.0979292,367.516075 41.5782105,367.917948 C39.8339303,369.030846 38.0106205,370.01473 36.1228605,370.861735 C35.1412434,371.033216 34.1373278,371.033216 33.1557108,370.861735 C32.5252959,372.300525 32.0286753,373.794297 31.6721359,375.324141 C31.1347781,378.688468 28.9503018,380.721082 26.2401493,382.134567 C23.6237733,383.471312 20.8855876,384.554851 18.0629652,385.370396 C15.2734959,386.184649 12.3168732,386.237086 9.5002852,385.522258 C8.33968609,385.286619 7.56852581,384.181289 7.74803145,383.010694 C7.86411076,378.146868 9.59883719,373.46064 12.6777053,369.693565 C15.3294493,366.539509 18.2265089,363.595722 20.9600247,360.511756 C22.056566,359.317357 22.679614,357.763891 22.7122784,356.142803 C22.8875038,350.73418 23.4131799,345.337238 23.3898166,339.940297 C23.3898166,332.382242 22.7356418,324.812506 22.8290954,317.254452 C22.9459123,308.388048 23.4715884,299.521644 23.9972645,290.678603 C24.8688736,278.995189 25.1534862,267.275388 24.850028,255.563438 C24.359397,243.986882 23.9855828,232.410325 23.448225,220.84545 C23.2729996,217.037219 22.8174137,213.228988 22.3735094,209.432438 C21.8711967,205.23871 21.3572022,201.033301 20.5745289,196.886301 C20.1127846,195.488169 19.4002563,194.185826 18.4718244,193.043024 C17.7475595,191.874855 16.8130242,190.916956 16.1354861,189.772151 C15.7299568,188.917463 14.849041,188.391681 13.9042829,188.440438 C13.2745983,188.38892 12.652059,188.271459 12.046894,188.089987 L11.6263531,189.258156 L11.3109474,189.328246 C10.8086347,187.914762 10.2362318,186.536322 9.82737256,185.099474 C9.02133584,182.30755 8.30875265,179.48058 7.56112438,176.665293 C6.31507727,171.992616 5.07292406,167.319939 3.83466475,162.647263 C3.11039987,159.913747 2.3627716,157.180231 1.73196025,154.470079 C0.299320154,147.756431 -0.160971492,140.871727 0.365202329,134.027118 C0.645562928,129.716574 1.07778552,125.394348 1.74364194,121.177257 C2.54967867,116.095721 3.64775768,111.060912 4.67574655,105.991058 C5.76214387,100.640843 7.01208488,95.3023103 8.00502867,89.9404139 C9.13862143,85.0430838 10.8319195,80.292442 13.0515195,75.7822036 C14.2196886,73.0603694 15.3878578,70.2801268 16.4625734,67.4998842 C16.886478,65.9438941 18.1130048,64.7352077 19.6750386,64.3341458 C25.2822506,62.6753456 30.760964,60.5609594 36.3097675,58.7269338 C38.5409706,57.9909872 40.9006723,57.6171731 43.1201938,56.8461814 C44.4279272,56.3983242 45.6233964,55.6730729 46.6247012,54.7201136 C47.8059905,53.4269985 48.8803416,52.0401089 49.8371665,50.573113 C50.0536083,50.2705898 50.1644476,49.9052305 50.1525721,49.5334425 C49.9656651,47.2671943 49.8605298,44.9775827 49.4633523,42.7463796 C49.2998086,41.8118443 45.0243095,32.8870319 44.5336784,31.4501838 C44.0746239,30.3900309 43.6844242,29.301374 43.3655093,28.1909918 C42.9449684,26.251831 43.5056896,25.7378366 45.6317575,26.0415606 Z M24.359397,113.899563 L23.8570842,113.899563 C23.296363,116.177493 22.6889151,118.43206 22.198284,120.733353 C21.6025177,123.922455 21.1352501,127.146602 20.6796641,130.370749 C20.2941683,133.080901 20.0838978,135.826099 19.6166302,138.547933 C19.0259257,142.470566 19.1804901,146.469425 20.0722161,150.33476 C20.5511655,152.671098 20.8548895,155.089208 21.2403853,157.472273 C21.3922473,158.535307 21.4623374,159.610023 21.5674727,160.673057 C22.873512,158.010227 23.9785669,155.253447 24.8733914,152.425782 C25.5819097,150.270032 26.1439116,148.068857 26.555555,145.837308 C27.1863663,142.227666 27.805496,138.582978 28.0858566,134.926608 C28.3278821,131.959987 28.253479,128.976032 27.8639045,126.025159 C27.3174668,123.024612 26.576055,120.062867 25.6443831,117.158755 C25.2769491,116.049325 24.8479548,114.961239 24.359397,113.899563 Z M101.014658,113.794428 L100.582435,113.887882 C99.974987,118.630649 99.2507221,123.361734 98.8068178,128.127864 C98.5059978,132.971182 98.839809,137.833044 99.7997616,142.589798 C100.461222,147.279291 101.811385,151.845439 103.806582,156.14056 C103.946762,153.617315 103.806582,151.105751 103.958444,148.605869 C104.075261,145.720491 104.215441,142.823432 104.589255,139.973099 C105.110536,137.077637 105.050973,134.10743 104.41403,131.235194 C103.03559,125.908342 102.381415,120.394584 101.411835,114.962597 C101.308797,114.563837 101.176033,114.173354 101.014658,113.794428 Z" id="Shape"></path>
                    </g>
                    <path d="" id="Path-5" stroke="#979797"></path>
                </g>
            </g>
        </g>
    </g>
</svg>