<?xml version="1.0" encoding="UTF-8"?>
<svg width="38px" height="45px" viewBox="-6 0 38 49" version="1.1" xmlns="http://www.w3.org/2000/svg" xmlns:xlink="http://www.w3.org/1999/xlink">
    <!-- Generator: Sketch 46.2 (44496) - http://www.bohemiancoding.com/sketch -->
    <title>sitting-symbol</title>
    <desc>Created with Sketch.</desc>
    <defs></defs>
    <g id="website---desktop" stroke="none" stroke-width="1" fill="none" fill-rule="evenodd">
        <g id="M---D7---Jet-Details" transform="translate(-230.000000, -1620.000000)" fill-rule="nonzero" fill="#B6CADA">
            <g id="Group-6" transform="translate(230.000000, 1607.000000)">
                <g id="sitting-symbol" transform="translate(0.000000, 13.000000)">
                    <g id="g1786" transform="translate(3.298822, 0.000000)">
                        <path d="M4.74271574,9.44083965 C7.34977461,9.44083965 9.46305857,7.32726481 9.46305857,4.7205168 C9.46305857,2.11357455 7.34977461,0 4.74271574,0 C2.13567646,0 0.0221993235,2.11357446 0.0221993235,4.7205168 C0.0221993235,7.32726481 2.13567646,9.44083965 4.74271574,9.44083965 Z" id="path1788"></path>
                    </g>
                    <path d="M4.4551364,15.1830208 C3.60617493,9.74966748 11.4408956,8.10025664 12.7022098,13.6548902 L14.8367415,24.29621 L22.8001937,24.3127039 C25.125185,24.3127039 26.3341053,26.172657 26.3341053,27.8931867 L26.3341053,42.36143 C26.3341053,45.8746742 21.3313456,45.8581819 21.3313456,42.2984626 C21.3313456,38.9970205 21.3313456,31.0386138 21.3313456,31.0386138 L11.160399,31.0386138 C8.78891487,31.0386138 7.30095243,29.4111287 6.92896178,27.5511771 L4.4551364,15.1830208 Z" id="path1792"></path>
                    <path d="M17.6019302,31.9892569 C20.2441896,31.9892569 20.2318676,35.8976805 17.638412,35.8976805 L10.3345291,35.8976805 C6.7837164,35.8976805 3.24233431,33.2295159 2.31594746,29.1059888 L0.0405385405,18.0452338 C-0.420616355,15.5339576 3.19382213,14.6979 3.72745505,17.2690404 L5.88527233,27.850786 C6.48973318,30.5477665 8.48920663,31.9892569 10.9071657,31.9892569 L17.6019301,31.9892569 L17.6019302,31.9892569 Z" id="path1794"></path>
                </g>
            </g>
        </g>
    </g>
</svg>