
<svg width="1069px" height="601px" viewBox="0 0 1069 601" version="1.1" xmlns="http://www.w3.org/2000/svg" xmlns:xlink="http://www.w3.org/1999/xlink">
    <!-- Generator: Sketch 48.1 (47250) - http://www.bohemiancoding.com/sketch -->
    <desc>Created with Sketch.</desc>
    <defs>
        <path d="M101.955641,546.862106 C38.8193654,488.80445 0,409.889092 0,322.950062 C0,144.589668 163.386325,0 364.93357,0 C566.480816,0 729.867141,144.589668 729.867141,322.950062 C729.867141,409.889092 691.047776,488.80445 627.9115,546.862106 L101.955641,546.862106 Z" id="path-1"></path>
        <path d="M82.0366369,440.022029 C31.2352524,393.307058 0,329.809339 0,259.855529 C0,116.341283 131.46565,0 293.636748,0 C455.807845,0 587.273495,116.341283 587.273495,259.855529 C587.273495,329.809339 556.038243,393.307058 505.236858,440.022029 L82.0366369,440.022029 Z" id="path-3"></path>
    </defs>
    <g id="Page-1" stroke="none" stroke-width="1" fill="none" fill-rule="evenodd">
        <g id="D---D30---Jet-comparator" transform="translate(-248.000000, -3913.000000)">
            <g id="Group-8" transform="translate(249.000000, 3913.000000)">
                <g id="Group-17-Copy-2" transform="translate(463.008542, 456.925645) rotate(-90.000000) translate(-463.008542, -456.925645) translate(320.508542, 90.425645)" stroke-linecap="square" stroke-width="2">
                    <path d="M15.4717173,608.908649 L241.256311,608.908649" id="Line-2-Copy-7" stroke="#E2E2E1"></path>
                    <path d="M0,608.908649 L13.4850867,608.908649" id="Line-2-Copy-3" stroke="#000000"></path>
                </g>
            </g>
        </g>
    </g>
</svg>