
<svg width="232px" height="231px" viewBox="0 0 232 231" version="1.1" xmlns="http://www.w3.org/2000/svg" xmlns:xlink="http://www.w3.org/1999/xlink">
    <!-- Generator: Sketch 48.1 (47250) - http://www.bohemiancoding.com/sketch -->
    <desc>Created with Sketch.</desc>
    <defs></defs>
    <g id="Page-1" stroke="none" stroke-width="1" fill="none" fill-rule="evenodd">
        <g id="D---D30---Jet-comparator" transform="translate(-56.000000, -2481.000000)" stroke="#B6CADA" stroke-width="5">
            <g id="Group-27" transform="translate(-35.000000, 2286.000000)">
                <g id="Group-27-Copy-2" transform="translate(93.000000, 196.000000)">
                    <path d="M143.54889,49.2852375 L23.8592228,13.5444148 L3.64804484,33.69866 C1.44519166,35.9118598 1.44519166,39.4945751 3.65591217,41.6920785 L100.695528,94.9776111 L51.8944631,144.499919 L14.1588014,136.828278 L1.56713532,149.397212 C-0.104672895,151.049264 -0.104672895,153.756902 1.56713532,155.42465 L72.8019,226.486415 C74.4658409,228.138467 77.1800707,228.138467 78.8440116,226.470719 L91.4356777,213.917481 L83.5526102,175.563199 L133.00273,126.904196 L186.779884,224.390939 C188.998471,226.604139 192.589909,226.604139 194.800629,224.390939 L215.00394,204.236694 L178.940087,84.0411077 L218.965142,46.6796263 C229.987275,35.6842612 230.463249,18.3593016 220.058701,7.96040177 C209.658087,-2.43457399 192.298818,-1.9322875 181.276684,9.06307757 L143.54889,49.2852375 Z" id="Shape"></path>
                </g>
            </g>
        </g>
    </g>
</svg>