<?xml version="1.0" encoding="UTF-8"?>
<svg width="20px" height="21px" viewBox="0 0 20 21" version="1.1" xmlns="http://www.w3.org/2000/svg" xmlns:xlink="http://www.w3.org/1999/xlink">
    <!-- Generator: Sketch 49.3 (51167) - http://www.bohemiancoding.com/sketch -->
    <title>Shape Copy 8</title>
    <desc>Created with Sketch.</desc>
    <defs></defs>
    <g id="website---desktop" stroke="none" stroke-width="1" fill="none" fill-rule="evenodd">
        <g id="M---D72---Our-Story-Copy-4" transform="translate(-122.000000, -1241.000000)" fill="#263D50">
            <path d="M132.715358,1246.65116 L123.761456,1243.97741 L122.249472,1245.48513 C122.084678,1245.6507 122.084678,1245.91872 122.25006,1246.08312 L129.509527,1250.06937 L125.858753,1253.7741 L123.035774,1253.20019 L122.0938,1254.14046 C121.968733,1254.26405 121.968733,1254.46661 122.0938,1254.59137 L127.422824,1259.90745 C127.547302,1260.03104 127.750352,1260.03104 127.87483,1259.90628 L128.816804,1258.96718 L128.227077,1256.09792 L131.926407,1252.45778 L135.949439,1259.75069 C136.11541,1259.91626 136.384083,1259.91626 136.549466,1259.75069 L138.060862,1258.24297 L135.362949,1249.25122 L138.357196,1246.45623 C139.181755,1245.63368 139.217362,1244.33761 138.439005,1243.55967 C137.660942,1242.78203 136.362307,1242.81961 135.537749,1243.64216 L132.715358,1246.65116 Z" id="Shape-Copy-8" transform="translate(130.500000, 1251.500000) rotate(-315.000000) translate(-130.500000, -1251.500000) "></path>
        </g>
    </g>
</svg>