<?xml version="1.0" encoding="UTF-8"?>
<svg width="19px" height="23px" viewBox="0 0 19 23" version="1.1" xmlns="http://www.w3.org/2000/svg" xmlns:xlink="http://www.w3.org/1999/xlink">
    <!-- Generator: Sketch 49.3 (51167) - http://www.bohemiancoding.com/sketch -->
    <title>businessman</title>
    <desc>Created with Sketch.</desc>
    <defs></defs>
    <g id="website---desktop" stroke="none" stroke-width="1" fill="none" fill-rule="evenodd">
        <g id="M---D72---Our-Story-Copy-4" transform="translate(-123.000000, -1752.000000)" fill="#263D50" fill-rule="nonzero">
            <g id="businessman" transform="translate(123.000000, 1752.000000)">
                <path d="M6.01030004,10.0064398 C6.21466186,11.4040026 7.24111551,13.1827189 8.92710048,13.8082016 C9.61914389,14.0623039 10.3762115,14.0671905 11.0682549,13.803315 C12.7263724,13.1729458 13.7853381,11.399116 13.9943445,10.0064398 C14.2172847,9.98689347 14.5098937,9.65949239 14.8257256,8.48182582 C15.2576721,6.87413992 14.797858,6.63469734 14.4077128,6.67379001 C14.4820261,6.45389376 14.5377612,6.22911093 14.5749179,6.01410126 C15.2344492,1.84584572 13.2837228,1.7041348 13.2837228,1.7041348 C13.2837228,1.7041348 12.9586017,1.04933264 12.1086424,0.555787729 C11.5373582,0.199067149 10.7431339,-0.0745815152 9.69810187,0.0182635673 C9.35904704,0.0329233171 9.03857056,0.106222066 8.73667242,0.208840316 C8.35117173,0.345664648 7.99818314,0.546014562 7.67770666,0.78057056 C7.28756138,1.03955947 6.91599445,1.36207397 6.59087338,1.72856772 C6.07532426,2.28563821 5.61551018,3.00396596 5.41579295,3.8982107 C5.24858783,4.56767261 5.28574452,5.26645402 5.42508212,6.01898784 C5.46223882,6.23888409 5.51797386,6.45878034 5.59228724,6.67867659 C5.20214196,6.63958392 4.74232788,6.8790265 5.17427444,8.48671241 C5.49475092,9.65949239 5.78735988,9.98689347 6.01030004,10.0064398 Z" id="Shape"></path>
                <path d="M17.1902139,15.0239808 C14.8073854,14.4004796 12.8722115,13 12.8722115,13 L11.361377,17.9160671 L11.0769298,18.8417266 L11.0722667,18.8273381 L10.825124,19.6139089 L10.0277391,17.2877698 C11.9862283,14.4772182 9.63137823,14.5059952 9.50081228,14.5107914 C9.37024634,14.5059952 7.01539623,14.4772182 8.97388543,17.2877698 L8.17650054,19.6139089 L7.92935786,18.8273381 L7.92469479,18.8417266 L7.64024755,17.9160671 L6.12474995,13 C6.12474995,13 4.18957611,14.4004796 1.80674758,15.0239808 C0.0301180978,15.4892086 -0.0538171535,17.5995204 0.0161288893,18.6402878 C0.0161288893,18.6402878 0.118716419,20.0551559 0.221303948,20.6786571 C0.221303948,20.6786571 3.69062767,22.9952038 9.50081228,23 C15.3109969,23 18.7803206,20.6786571 18.7803206,20.6786571 C18.8829081,20.0551559 18.9854957,18.6402878 18.9854957,18.6402878 C19.0507786,17.5995204 18.9668434,15.4892086 17.1902139,15.0239808 Z" id="Shape"></path>
            </g>
        </g>
    </g>
</svg>