<?xml version="1.0" encoding="UTF-8"?>
<svg width="117px" height="160px" viewBox="0 0 117 160" version="1.1" xmlns="http://www.w3.org/2000/svg" xmlns:xlink="http://www.w3.org/1999/xlink">
    <!-- Generator: Sketch 49.3 (51167) - http://www.bohemiancoding.com/sketch -->
    <title>office copy 5</title>
    <desc>Created with Sketch.</desc>
    <defs></defs>
    <g id="website---desktop" stroke="none" stroke-width="1" fill="none" fill-rule="evenodd">
        <g id="M---D72---Our-Story-Copy-4" transform="translate(-25.000000, -2876.000000)" fill="#263D50" fill-rule="nonzero">
            <g id="office-copy-5" transform="translate(25.000000, 2876.000000)">
                <rect id="Rectangle-path" x="25" y="84" width="12" height="12"></rect>
                <rect id="Rectangle-path" x="25" y="25" width="12" height="12"></rect>
                <rect id="Rectangle-path" x="25" y="55" width="12" height="12"></rect>
                <rect id="Rectangle-path" x="49" y="25" width="12" height="12"></rect>
                <rect id="Rectangle-path" x="49" y="55" width="12" height="12"></rect>
                <path d="M84.5,92 C77.6075,92 72,97.6075 72,104.5 C72,111.3925 77.6075,117 84.5,117 C91.3925,117 97,111.3925 97,104.5 C97,97.6075 91.3925,92 84.5,92 Z" id="Shape"></path>
                <path d="M88.4133457,71.8783765 L88.4133457,0 L0,0 L0,147.714165 L73.8614914,147.714165 L83.5014931,160 L109.785471,126.501747 C114.505434,120.451773 117,113.178593 117,105.468909 C117,88.4366364 104.564172,74.2942499 88.4133457,71.8783765 Z M9.82370508,137.755906 L9.82370508,9.9582583 L78.5896406,9.9582583 L78.5896406,71.8783765 C62.439142,74.2945819 50.0033138,88.4366364 50.0033138,105.469241 C50.0033138,113.179257 52.4982074,120.452437 57.2263566,126.513033 L66.0480438,137.755906 L9.82370508,137.755906 Z M102.088271,120.314017 L83.5011657,144.002722 L64.9232296,120.324971 C61.5890641,116.051551 59.8270188,110.914749 59.8270188,105.469573 C59.8270188,92.2367078 70.4474264,81.4708348 83.5014931,81.4708348 C96.5555599,81.4708348 107.176295,92.2367078 107.176295,105.469573 C107.176295,110.914085 105.413922,116.051219 102.088271,120.314017 Z" id="Shape"></path>
            </g>
        </g>
    </g>
</svg>