<?xml version="1.0" encoding="UTF-8"?>
<svg width="104px" height="171px" viewBox="0 0 104 171" version="1.1" xmlns="http://www.w3.org/2000/svg" xmlns:xlink="http://www.w3.org/1999/xlink">
    <!-- Generator: Sketch 49.3 (51167) - http://www.bohemiancoding.com/sketch -->
    <title>office copy 3</title>
    <desc>Created with Sketch.</desc>
    <defs></defs>
    <g id="website---desktop" stroke="none" stroke-width="1" fill="none" fill-rule="evenodd">
        <g id="M---D72---Our-Story-Copy-4" transform="translate(-5.000000, -2849.000000)" fill="#263D50" fill-rule="nonzero">
            <g id="office-copy-3" transform="translate(5.000000, 2849.000000)">
                <g id="Group-6" transform="translate(30.000000, 31.000000)">
                    <g id="Group-8" transform="translate(0.000000, 28.000000)">
                        <rect id="Rectangle-path" x="0" y="0" width="13.5638298" height="13.5638298"></rect>
                        <rect id="Rectangle-path" x="30" y="0" width="13.5638298" height="13.5638298"></rect>
                    </g>
                    <g id="Group-7">
                        <rect id="Rectangle-path-Copy-2" x="0" y="0.436170213" width="13.5638298" height="13.5638298"></rect>
                        <rect id="Rectangle-path-Copy-3" x="30" y="0.436170213" width="13.5638298" height="13.5638298"></rect>
                    </g>
                    <g id="Group-9" transform="translate(0.000000, 58.000000)">
                        <rect id="Rectangle-path" x="0" y="0" width="13.5638298" height="13.5638298"></rect>
                        <rect id="Rectangle-path-Copy" x="30" y="0" width="13.5638298" height="13.5638298"></rect>
                    </g>
                </g>
                <path d="M104,83.2093685 L104,0 L0,0 L0,171 L104,171 L104,83.2093685 Z M11.5555556,159.47191 L11.5555556,11.5280899 L92.4444444,11.5280899 L92.4444444,83.2093685 L92.4444444,159.47191 L11.5555556,159.47191 Z" id="Shape"></path>
            </g>
        </g>
    </g>
</svg>