<?xml version="1.0" encoding="UTF-8"?>
<svg width="81px" height="83px" viewBox="0 0 81 83" version="1.1" xmlns="http://www.w3.org/2000/svg" xmlns:xlink="http://www.w3.org/1999/xlink">
    <!-- Generator: Sketch 46.2 (44496) - http://www.bohemiancoding.com/sketch -->
    <title>price</title>
    <desc>Created with Sketch.</desc>
    <defs></defs>
    <g id="website---desktop" stroke="none" stroke-width="1" fill="none" fill-rule="evenodd">
        <g id="req-flight---YOUR-VERSION-Copy" transform="translate(-1159.000000, -1075.000000)" fill-rule="nonzero" fill="#3E5970">
            <g id="Group-7" transform="translate(0.000000, 937.000000)">
                <g id="Group-4" transform="translate(1026.000000, 138.860365)">
                    <g id="price" transform="translate(133.000000, 0.000000)">
                        <path d="M80.2672788,0.558489791 C79.9154376,0.202402877 79.4360833,0.00138331761 78.9354955,-1.42108547e-14 L78.9354955,-1.42108547e-14 C78.4346657,0.000185684417 77.9548686,0.201390912 77.6037121,0.558489791 L72.749147,5.40231471 L41.3126159,5.40231471 L1.6491006,45.3987759 C0.646905128,46.3929586 0.0831990868,47.7461779 0.0831990868,49.1578418 C0.0831990868,50.5695057 0.646905128,51.922725 1.6491006,52.9169077 L29.2728649,80.5406719 C31.3490017,82.6165969 34.7148598,82.6165969 36.7909967,80.5406719 L75.4556745,40.8771566 L75.4556745,8.11958234 L80.2994994,3.27575743 C80.6543178,2.92121957 80.8536763,2.44019464 80.8536763,1.93860398 C80.8536763,1.43701333 80.6543178,0.955988403 80.2994994,0.601450544 L80.2672788,0.558489791 Z M60.0327641,24.2943059 C58.0931171,24.2943059 56.5207225,22.7219113 56.5207225,20.7822643 C56.5207225,18.8426173 58.0931171,17.2702228 60.0327641,17.2702228 C60.2894001,17.2695681 60.5452619,17.2983976 60.7953175,17.3561443 L58.6687602,19.450481 C58.3139418,19.8050188 58.1145833,20.2860438 58.1145833,20.7876344 C58.1145833,21.2892251 58.3139418,21.77025 58.6687602,22.1247879 C59.4149942,22.8339832 60.5860929,22.8339832 61.3323269,22.1247879 L63.4266636,20.0304511 C63.4847343,20.2768108 63.5135737,20.529155 63.5125851,20.7822643 C63.50686,22.7070034 61.9573687,24.2708419 60.0327641,24.2943059 L60.0327641,24.2943059 Z M63.6736879,14.4777738 C62.5682634,13.834707 61.3116265,13.4973797 60.0327641,13.5004167 C56.7323549,13.4988628 53.8423125,15.7140917 52.9863005,18.9015588 C52.1302885,22.0890259 53.5217181,25.4540679 56.378866,27.1061602 C59.2360139,28.7582525 62.8465682,28.2855142 65.1820723,25.9535357 C67.5175765,23.6215572 67.9957689,20.0117212 66.3479948,17.1520807 L71.6536478,11.8464277 L71.6536478,39.2983489 L34.0629888,77.8556249 C33.7794482,78.1431761 33.3928012,78.3055678 32.98897,78.3067128 L32.98897,78.3067128 C32.5851388,78.3055678 32.1984918,78.1431761 31.9149512,77.8556249 L4.31266729,50.1781597 C3.72869247,49.5812185 3.72869247,48.6270631 4.31266729,48.030122 L42.8806834,9.15064042 L68.9793409,9.15064042 L63.6736879,14.4777738 Z" id="Shape"></path>
                        <path d="M40.0452737,29.7718019 C38.2029477,29.9240968 36.5049756,30.8294228 35.3518114,32.2742658 C34.1354923,33.7833476 33.5815079,35.7203562 33.8159645,37.6443599 L34.5892581,43.7877476 L25.8252644,52.5517413 C24.1874378,49.86097 24.5951099,46.4001884 26.8133617,44.1636542 C27.3775801,43.5351219 27.3517159,42.575084 26.7544743,41.9778424 C26.1572326,41.3806007 25.1971947,41.3547365 24.5686624,41.9189549 C21.0979821,45.3700973 20.6430583,50.829183 23.4946436,54.8071808 L22.6246883,55.6771361 C22.3249388,55.9736913 22.1562702,56.3778285 22.1562702,56.7994857 C22.1562702,57.2211429 22.3249388,57.6252801 22.6246883,57.9218354 C23.2563512,58.5125017 24.2377247,58.5125017 24.8693877,57.9218354 L25.7393429,57.0518802 C27.4420952,58.2851776 29.4902752,58.9503663 31.5927455,58.9528935 C31.8719904,58.9528935 32.1512353,58.9528935 32.4304802,58.9528935 C34.2720724,58.7981077 35.969119,57.893275 37.1239425,56.4504296 C38.3391528,54.9407729 38.893001,53.0042409 38.6597894,51.0803355 L37.8864959,44.9369478 L46.6504895,36.1729541 C48.284332,38.8645932 47.8769706,42.3227372 45.6623922,44.5610412 C45.2184541,45.0097441 45.0820701,45.6786073 45.3148859,46.2653032 C45.5477018,46.8519991 46.1056006,47.2453532 46.736411,47.2675686 L46.736411,47.2675686 C47.1403243,47.2567325 47.5247105,47.0914465 47.8104298,46.8057405 C51.2811101,43.3545981 51.7360339,37.8955124 48.8844487,33.9175146 L49.3355366,33.4664267 C49.7868436,33.0186403 49.9279256,32.3450106 49.6942298,31.7537602 C49.460534,31.1625099 48.8970166,30.767378 48.2615177,30.7491591 L48.2615177,30.7491591 C47.8576044,30.7599951 47.4732182,30.9252812 47.1874989,31.2109871 L46.736411,31.6620751 C44.8065336,30.2465823 42.4305313,29.5753521 40.0452737,29.7718019 Z M40.3137784,32.9401575 C41.7623493,32.8182479 43.2117933,33.1646085 44.4487509,33.9282548 L37.4246678,40.9415977 L36.9628397,37.246973 C36.8334397,36.181495 37.1393506,35.1088709 37.8113145,34.2719408 C38.4229904,33.4931822 39.3278083,32.9999982 40.3137784,32.9079369 L40.3137784,32.9401575 Z M34.6966599,54.420534 C34.0868696,55.1926371 33.1851572,55.6784736 32.2049363,55.7630576 C30.7565965,55.8819243 29.3080909,55.5357879 28.0699638,54.7749602 L35.0833067,47.7616173 L35.5451348,51.4455019 L35.5451348,51.4455019 C35.6921939,52.5288959 35.3851533,53.6249142 34.6966599,54.474235 L34.6966599,54.420534 Z" id="Shape"></path>
                    </g>
                </g>
            </g>
        </g>
    </g>
</svg>