<?xml version="1.0" encoding="utf-8"?>
<!-- Generator: Adobe Illustrator 22.1.0, SVG Export Plug-In . SVG Version: 6.00 Build 0)  -->
<svg version="1.1" id="Layer_1" xmlns="http://www.w3.org/2000/svg" xmlns:xlink="http://www.w3.org/1999/xlink" x="0px" y="0px"
	 viewBox="0 0 1133.9 376.3" style="enable-background:new 0 0 1133.9 376.3;" xml:space="preserve">
<style type="text/css">
	.st0{display:none;}
	.st1{display:inline;fill:#2C3C50;}
	.st2{fill:#808080;}
</style>
<g class="st0">
	<path class="st1" d="M224.9,288.9c3.2,1.2,5,1.7,5.4,1.7c1,0,1.7-0.4,2.3-1.1s0.9-1.5,1.1-2.3h2.1v17.6h-1.9
		c-1.8-3.8-3.7-6.8-5.5-9c-3.5-4.1-7.5-6.1-12-6.1c-5,0-8.6,2.2-10.7,6.5c-2.1,4.3-3.2,10.2-3.2,17.5c0,5.4,0.6,9.8,1.9,13.3
		c2.3,6.5,6.6,9.8,12.9,9.8c3.9,0,7.5-1.1,10.8-3.2c1.9-1.2,4.2-3.2,6.7-6l2.2,1.8c-2.9,3.3-5.5,5.7-7.7,7.1
		c-4,2.6-8.4,3.9-13.2,3.9c-7.4,0-13.6-2.2-18.6-6.6c-5.6-4.9-8.3-11.4-8.3-19.7c0-8.2,2.7-14.8,8-19.9c5-4.7,11.1-7.1,18.3-7.1
		C218.5,287.2,221.7,287.7,224.9,288.9z"/>
	<path class="st1" d="M241.8,338.9V337c2.2-0.1,3.7-0.4,4.6-0.9c1.4-0.8,2.1-2.3,2.1-4.4v-36.4c0-2.2-0.7-3.7-2.2-4.4
		c-0.8-0.5-2.3-0.8-4.5-0.9v-1.9h43.3v15.2h-1.8c-1-4.8-2.6-8.2-4.9-9.9c-2.3-1.8-6.5-2.7-12.5-2.7c-2.3,0-3.8,0.2-4.4,0.7
		s-0.9,1.4-0.9,2.8v17.4c4.3,0.1,7.2-0.7,8.7-2.3c1.5-1.6,2.7-4.5,3.5-8.8h1.9v25.4h-1.9c-0.5-4.3-1.6-7.3-3.3-9
		c-1.7-1.8-4.6-2.6-8.9-2.6v18.2c0,1.6,0.4,2.7,1.2,3.2c0.8,0.6,2.5,0.9,5,0.9c4.8,0,8.7-0.9,11.7-2.8s5.7-5.3,8.1-10.5h2.1l-3,15.6
		L241.8,338.9L241.8,338.9z"/>
	<path class="st1" d="M291.9,337c2.5-0.1,4.3-0.6,5.2-1.4c0.9-0.8,1.4-2.6,1.4-5.4V297c0-2.9-0.6-4.8-1.7-5.7c-0.7-0.6-2.4-1-5-1.2
		v-1.9H316c5,0,9.1,0.5,12.2,1.6c6,2.1,9,6,9,11.5c0,4.1-1.6,7.3-4.7,9.7c-2.4,1.8-5,2.9-7.6,3.4l16,21.4c0.4,0.6,0.9,1,1.3,1.2
		c0.5,0.2,1,0.3,1.7,0.4v1.8h-15.7l-17.5-23.5l0,0v14.7c0,2.6,0.4,4.4,1.3,5.3s2.6,1.4,5.3,1.5v1.9h-25.4L291.9,337L291.9,337z
		 M321.3,310.9c2.1-1.3,3.2-4.3,3.2-9.1c0-2.9-0.4-5.2-1.2-6.9c-1.4-2.9-3.9-4.3-7.6-4.3c-2,0-3.3,0.3-3.9,0.8s-0.9,1.3-0.9,2.5V313
		C315.6,312.9,319.1,312.2,321.3,310.9z"/>
	<path class="st1" d="M344.4,288.1h45.2l0.1,15.2h-2.2c-0.7-5.4-2.7-9.1-6.1-11c-1.9-1.1-4.7-1.6-8.4-1.7v39.6
		c0,2.8,0.5,4.6,1.4,5.5c1,0.9,3,1.4,6,1.4v1.9h-26.8v-2c2.9,0,4.9-0.5,5.9-1.4s1.4-2.7,1.4-5.5v-39.6c-3.7,0.1-6.5,0.7-8.4,1.7
		c-3.6,2-5.6,5.6-6.1,11h-2.2L344.4,288.1z"/>
	<path class="st1" d="M393.7,337c2.1-0.1,3.7-0.3,4.6-0.8c1.5-0.8,2.3-2.3,2.3-4.5v-36.4c0-2.2-0.7-3.7-2.2-4.4
		c-0.9-0.5-2.4-0.7-4.7-0.8v-1.9H420v1.9c-2.3,0.1-4,0.4-4.8,0.8c-1.5,0.8-2.2,2.2-2.2,4.5v36.4c0,2.1,0.6,3.5,1.8,4.2
		c1.2,0.7,2.9,1.1,5.3,1.1v1.9h-26.3L393.7,337L393.7,337z"/>
	<path class="st1" d="M423,337c2.2-0.1,3.7-0.4,4.6-0.9c1.4-0.8,2.1-2.3,2.1-4.4v-36.4c0-2.2-0.7-3.6-2.1-4.4
		c-0.8-0.5-2.4-0.8-4.6-0.9v-1.9h42.6v15.2h-1.8c-0.9-4.7-2.5-7.9-4.7-9.8s-6.3-2.8-12.2-2.8c-2.2,0-3.6,0.3-4.2,0.8
		s-0.9,1.4-0.9,2.8v17.4c4.1,0.1,6.8-0.8,8.2-2.6c1.4-1.8,2.5-4.6,3.2-8.6h1.9v25.4h-1.9c-0.5-4.1-1.5-7-3.1-8.9s-4.3-2.8-8.4-2.8
		v17.5c0,2.3,0.7,3.8,2,4.4c1.4,0.6,3.4,0.9,6.2,0.9v1.9h-27L423,337L423,337z"/>
	<path class="st1" d="M468.9,337c2.1-0.1,3.7-0.3,4.6-0.8c1.5-0.8,2.3-2.3,2.3-4.5v-36.4c0-2.2-0.7-3.7-2.2-4.4
		c-0.9-0.5-2.4-0.7-4.7-0.8v-1.9h26.3v1.9c-2.3,0.1-4,0.4-4.8,0.8c-1.5,0.8-2.2,2.2-2.2,4.5v36.4c0,2.1,0.6,3.5,1.8,4.2
		c1.2,0.7,2.9,1.1,5.3,1.1v1.9H469L468.9,337L468.9,337z"/>
	<path class="st1" d="M498.1,338.9V337c2.2-0.1,3.7-0.4,4.6-0.9c1.4-0.8,2.1-2.3,2.1-4.4v-36.4c0-2.2-0.7-3.7-2.2-4.4
		c-0.8-0.5-2.3-0.8-4.5-0.9v-1.9h43.3v15.2h-1.8c-1-4.8-2.6-8.2-4.9-9.9c-2.3-1.8-6.5-2.7-12.5-2.7c-2.3,0-3.8,0.2-4.4,0.7
		c-0.6,0.5-0.9,1.4-0.9,2.8v17.4c4.3,0.1,7.2-0.7,8.7-2.3c1.5-1.6,2.7-4.5,3.5-8.8h1.9v25.4h-1.9c-0.5-4.3-1.6-7.3-3.3-9
		c-1.7-1.8-4.6-2.6-8.9-2.6v18.2c0,1.6,0.4,2.7,1.2,3.2c0.8,0.6,2.5,0.9,5,0.9c4.8,0,8.7-0.9,11.7-2.8s5.7-5.3,8.1-10.5h2.1l-3,15.6
		L498.1,338.9L498.1,338.9z"/>
	<path class="st1" d="M548.1,337c1.9-0.1,3.2-0.4,4.1-0.8c1.5-0.8,2.2-2.1,2.2-4.1V295c0-1.9-0.7-3.3-2.1-4
		c-0.8-0.4-2.2-0.7-4.2-0.9v-1.9h23c9.3,0,16.3,2.5,21.2,7.4c4.4,4.5,6.6,10.5,6.6,18.1c0,6.8-2.2,12.6-6.7,17.3
		c-5,5.3-11.8,8-20.4,8h-23.7L548.1,337L548.1,337z M567.4,335.3c0.5,0.7,1.6,1,3.2,1c4.5,0,8.1-1.6,11-4.7s4.3-9.2,4.3-18.1
		c0-5.3-0.8-9.9-2.3-13.7c-2.5-6.1-6.7-9.2-12.6-9.2c-2,0-3.2,0.4-3.8,1.2c-0.4,0.5-0.6,1.6-0.6,3.1v37
		C566.6,333.5,566.9,334.7,567.4,335.3z"/>
	<path class="st1" d="M621.3,337c2-0.1,3.5-0.3,4.4-0.8c1.5-0.8,2.2-2.3,2.2-4.5v-36.4c0-2.2-0.7-3.7-2.1-4.4
		c-0.8-0.5-2.3-0.8-4.5-0.9v-1.9h23.2c4.5,0,8.2,0.5,11.2,1.5c5.6,1.9,8.4,5.5,8.4,10.6c0,3.1-1.1,5.6-3.4,7.4
		c-2.3,1.8-4.7,3-7.4,3.5v0.7c2.8,0.5,5.2,1.4,7.3,2.7c4,2.5,6,6,6,10.4c0,4.2-1.9,7.5-5.8,10.1c-3.8,2.6-9,3.9-15.3,3.9h-24.2
		L621.3,337L621.3,337z M649.3,308.6c1.6-1.5,2.4-4.2,2.4-8.1c0-2.9-0.5-5.3-1.6-7.2c-1-2-3-2.9-6-2.9c-1.6,0-2.7,0.3-3.3,0.8
		s-0.9,1.5-0.9,2.8v16.9C644.6,310.9,647.7,310.1,649.3,308.6z M640.5,334.9c0.6,1.1,1.8,1.6,3.5,1.6c3.5,0,6-1,7.5-2.9
		c1.4-1.9,2.1-4.7,2.1-8.3c0-5.3-1.6-8.9-4.7-10.6c-1.9-1.1-4.9-1.6-9-1.5V332C639.9,333.3,640.1,334.3,640.5,334.9z"/>
	<path class="st1" d="M671.4,337c2.5-0.1,4.3-0.6,5.2-1.4s1.4-2.6,1.4-5.4V297c0-2.9-0.6-4.8-1.7-5.7c-0.7-0.6-2.4-1-5-1.2v-1.9
		h24.2c5,0,9.1,0.5,12.2,1.6c6,2.1,9,6,9,11.5c0,4.1-1.6,7.3-4.7,9.7c-2.4,1.8-5,2.9-7.6,3.4l16,21.4c0.4,0.6,0.9,1,1.3,1.2
		c0.5,0.2,1,0.3,1.7,0.4v1.8h-15.7l-17.5-23.5l0,0v14.7c0,2.6,0.4,4.4,1.3,5.3c0.9,0.9,2.6,1.4,5.3,1.5v1.9h-25.4V337z M700.8,310.9
		c2.1-1.3,3.2-4.3,3.2-9.1c0-2.9-0.4-5.2-1.2-6.9c-1.4-2.9-3.9-4.3-7.6-4.3c-2,0-3.3,0.3-3.9,0.8c-0.6,0.5-0.9,1.3-0.9,2.5V313
		C695.2,312.9,698.7,312.2,700.8,310.9z"/>
	<path class="st1" d="M772.5,294.3c5.2,5,7.7,11.5,7.7,19.4s-2.6,14.4-7.7,19.4c-5,4.9-11.3,7.3-18.9,7.3c-8,0-14.6-2.7-19.6-8
		c-4.7-5-7.1-11.1-7.1-18.3c0-7.9,2.5-14.3,7.4-19.4c5-5.1,11.4-7.7,19.3-7.7C761.2,287,767.5,289.4,772.5,294.3z M765.2,327.9
		c1.1-3.6,1.7-8.3,1.7-14.2c0-8-1.2-14-3.6-18.1s-5.6-6.1-9.7-6.1c-5.7,0-9.6,3.4-11.7,10.2c-1.1,3.6-1.7,8.3-1.7,14
		c0,5.8,0.6,10.6,1.7,14.2c2.1,6.7,6,10,11.6,10C759.3,337.9,763.1,334.5,765.2,327.9z"/>
	<path class="st1" d="M784.8,337c2-0.1,3.5-0.3,4.4-0.8c1.5-0.8,2.2-2.3,2.2-4.5v-36.4c0-2.2-0.7-3.6-2-4.4
		c-0.8-0.5-2.3-0.8-4.5-0.9v-1.9h25.4v1.9c-2.6,0.2-4.3,0.7-5.2,1.5s-1.4,2.6-1.4,5.4V313l16.2-16.4c1.1-1.1,1.9-1.9,2.2-2.4
		s0.5-1.1,0.5-1.7c0-1-0.4-1.6-1.3-1.8c-0.9-0.3-2.5-0.5-5-0.6v-1.9h21.8v1.9c-3.9,0.3-7.1,1.4-9.7,3.3c-2.6,1.9-7.4,6.5-14.5,13.8
		l22.9,28.4c0.5,0.6,1,1,1.5,1.2s1.2,0.3,2.2,0.4v1.9h-25.2V337c2.3,0,3.8-0.1,4.7-0.3c0.8-0.2,1.2-0.6,1.2-1.3
		c0-0.3-0.1-0.7-0.4-1.2c-0.3-0.5-0.7-1.2-1.4-2l-13.7-17.1l-1.9,1.9v14.7c0,2.2,0.7,3.7,2.2,4.4c0.8,0.5,2.3,0.7,4.4,0.8v1.9H785
		V337H784.8z"/>
	<path class="st1" d="M842.6,338.9V337c2.2-0.1,3.7-0.4,4.6-0.9c1.4-0.8,2.1-2.3,2.1-4.4v-36.4c0-2.2-0.7-3.7-2.2-4.4
		c-0.8-0.5-2.3-0.8-4.5-0.9v-1.9h43.3v15.2h-1.8c-1-4.8-2.6-8.2-4.9-9.9c-2.3-1.8-6.5-2.7-12.5-2.7c-2.3,0-3.8,0.2-4.4,0.7
		c-0.6,0.5-0.9,1.4-0.9,2.8v17.4c4.3,0.1,7.2-0.7,8.7-2.3c1.5-1.6,2.7-4.5,3.5-8.8h1.9v25.4h-1.9c-0.5-4.3-1.6-7.3-3.3-9
		c-1.6-1.8-4.6-2.6-8.9-2.6v18.2c0,1.6,0.4,2.7,1.2,3.2c0.8,0.6,2.5,0.9,5,0.9c4.8,0,8.7-0.9,11.7-2.8s5.7-5.3,8.1-10.5h2.1l-3,15.6
		L842.6,338.9L842.6,338.9z"/>
	<path class="st1" d="M892.8,337c2.5-0.1,4.3-0.6,5.2-1.4s1.4-2.6,1.4-5.4V297c0-2.9-0.6-4.8-1.7-5.7c-0.7-0.6-2.4-1-5-1.2v-1.9H917
		c5,0,9.1,0.5,12.2,1.6c6,2.1,9,6,9,11.5c0,4.1-1.6,7.3-4.7,9.7c-2.4,1.8-5,2.9-7.6,3.4l16,21.4c0.4,0.6,0.9,1,1.3,1.2
		c0.5,0.2,1,0.3,1.7,0.4v1.8h-15.7l-17.5-23.5l0,0v14.7c0,2.6,0.4,4.4,1.3,5.3c0.9,0.9,2.6,1.4,5.3,1.5v1.9h-25.4L892.8,337
		L892.8,337z M922.1,310.9c2.1-1.3,3.2-4.3,3.2-9.1c0-2.9-0.4-5.2-1.2-6.9c-1.4-2.9-3.9-4.3-7.6-4.3c-2,0-3.3,0.3-3.9,0.8
		c-0.6,0.5-0.9,1.3-0.9,2.5V313C916.5,312.9,920,312.2,922.1,310.9z"/>
</g>
<g>
	<g>
		<g>
			<path class="st2" d="M1066.3,28.7c21.2,0,38.4,17.2,38.4,38.4v242c0,21.2-17.2,38.4-38.4,38.4H67.5c-21.2,0-38.4-17.2-38.4-38.4
				v-242c0-21.2,17.2-38.4,38.4-38.4L1066.3,28.7 M1066.3,16.6H67.5c-27.9,0-50.6,22.7-50.6,50.6v242c0,27.9,22.7,50.6,50.6,50.6
				h998.8c27.9,0,50.6-22.7,50.6-50.6v-242C1116.9,39.3,1094.2,16.6,1066.3,16.6L1066.3,16.6z"/>
		</g>
	</g>
	<g>
		<path class="st2" d="M292,104.9c-16.3,37.9-32.6,75.9-48.9,113.9c2.6,1.5,5.1,1.1,6.8,0.7c6-17.6,13.9-33.7,21.2-50.2
			c16,0,31.4,0,47,0c8,16.6,15.4,33.1,21.4,49.8c2.3,0.7,4,1,6.4-1.4C328,176.6,310,135.1,291.8,93.1
			C286.5,97.9,291.6,101.1,292,104.9z M316.3,162.5c-7.4,2.4-35,2.4-42,0c5.7-16.2,13-31.6,20.4-47.4
			C303.2,130.7,309.8,146.6,316.3,162.5z"/>
		<path class="st2" d="M295.1,87.3c20.4,44,39.2,87.9,58.6,131.8c1.8,1,3.7,1,5.7,0.3c-20.6-45.9-39.2-92.1-61.3-137.2
			C295.7,84.1,294.7,85.6,295.1,87.3z"/>
		<polygon class="st2" points="608.5,281 691.6,17.1 683.6,17.1 600.5,281 		"/>
		<path class="st2" d="M601.5,155.4c0,17.3,0,34.8,0,52.9c5.5-0.4,5.3-3.7,5.4-6.8c0-12.1,0-24.3,0-36.4c0-3.4-0.1-6.7,1.5-9.8
			c0.1-0.3-0.3-0.9-0.5-1.6C605.7,153.6,603.3,152.8,601.5,155.4z"/>
		<polygon class="st2" points="626.2,281 709.3,17.1 701.3,17.1 618.2,281 		"/>
		<path class="st2" d="M894.8,158.7c-8.9-9.1-18-17.9-27-26.8c-3.9-3.9-7.3-8.1-9.7-13c-4.3-8.5-2.8-18.3,3.7-25.2
			c8.4-8.9,23.1-10.3,34.3-3.3c1.6,1,2.8,3.3,5.3,2.6c1.2-2.2,1-4.4-0.4-7.6c-11-2.2-21.9-4-33.1-1.6c-13.4,2.8-22.3,13.7-23,27.6
			c-0.4,8.2,2.2,15.2,6.9,21.7c8,10.9,18.4,19.6,27.7,29.3c5.1,5.3,9.6,10.9,13.3,17.1c10.9,18-6.9,39.8-22.8,38.2
			c-7.2-0.7-13.5-2.9-19.7-6.5c-3.5-2.1-6.2-5.4-10.4-6.8c-1.6,2.8-1.3,5.1,0.3,7.7c9.5,3.1,18.6,7.5,28.7,9.2
			c23.9,3.9,42.5-15,38.2-38.7C905.6,173,901.3,165.3,894.8,158.7z M897.8,206.2c-0.1-5.1,1.9-9.7,1.8-14.8
			c-0.2-6.7-1.7-12.8-5.6-18.2c-3.9-5.5-8-10.8-12.8-15.5c-6.8-6.8-13.6-13.5-20.3-20.2c-5.5-5.6-9.7-12.1-11.8-19.7
			c-2.3-8.4,0.2-15.6,5.3-22.5c1.6,2,0.3,3.4-0.1,4.7c-3.2,10.8-0.7,20.3,6.3,29c9.1,11.4,19.9,21,30.2,31.1
			c7.2,7.1,11.9,15.5,14.1,25.3C906.8,193.9,903.3,200.3,897.8,206.2z"/>
		<path class="st2" d="M375.3,85.9c0,44.5,0,88.9,0,133c2.1,1.1,3.5,0.9,5.5-0.3c0-44.5,0-88.6,0-132.5
			C378.5,85,376.8,84.7,375.3,85.9z"/>
		<path class="st2" d="M595.7,160.3c0-1.5-0.5-3.1-1.1-4.5c-1-2.4-2.8-2.8-4.9-1.4c0.8,19,0.4,37.8,0.3,57.1
			c-12.4,5.8-23.9,6.3-36,4.1c-16.3-3-30.5-9.8-41.3-22.7c-14.7-17.5-22.1-49.7-4.6-76.3c14.3-21.7,34.7-32.3,60.8-29.9
			c12.4,1.1,25.2,1.9,36.2,11.6c-0.8-4.3-0.6-7.3-2.4-9.5c-20.5-6-41-9.3-62.2-5.4c-14.3,2.6-27.4,8-37.8,18.4
			c-15.7,15.8-22,34.9-20,57.2c2.6,28.3,17.7,46.2,43.8,55.5c15.6,5.6,31.9,6.7,48.3,5c7.4-0.7,14.8-2.4,21-8.2
			C595.7,194.5,595.8,177.4,595.7,160.3z M511.2,200.9c-19.2-12.7-24.8-31.5-24.1-53.5c0.7-22.4,12.2-38.2,30.4-51.7
			c0.1,4.3-2.5,5.5-4,7.3c-8.7,9.9-15.8,20.6-18.4,33.7c-3.9,19.7-1.6,38.2,11,54.5c2.2,2.8,4.3,5.8,6.5,8.6
			C512.2,200.2,511.7,200.6,511.2,200.9z"/>
		<path class="st2" d="M801.4,84.8c0.6,38.4,0.2,75.6,0.1,112.8c-13.8,12.3-28.8,18.4-47.2,16.5c-15.9-1.6-26.2-9.9-32.2-24.3
			c-3.1-7.3-4.2-15.1-4.3-22.8c-0.2-27.1-0.9-54.2,0.5-81.7c-1.2-0.7-2.8-0.5-4.8,1.1c-0.1,1.4-0.5,3.2-0.5,5c0,25.4,0,50.8,0,76.2
			c0,2.1,0.2,4.1,0.4,6.2c1.8,16.8,7.1,31.4,23.9,39.2c-13.7-3-23.1-10.7-27.5-23.8c-2.3-6.7-3.5-13.5-3.5-20.6
			c0.1-24.6,0.1-49.2,0-73.8c0-3,0.7-6.2-1.1-9c-1.8-0.9-3.4-1.4-4.6-0.1c0,5.1,0,9.7,0,14.4c0,23.3-0.2,46.6,0.1,69.9
			c0.2,20,8.1,35.8,26.8,44.6c22.6,10.6,44.7,8.6,66-4.4c2.1-1.3,3.8-3.7,6.8-2.9c2.6,3.6-1,8.9,3,11.9c2-0.4,2.5-1.6,2.5-3
			c0-43.4,0-86.9,0-129.8C803.4,85,801.7,84.4,801.4,84.8z"/>
		<path class="st2" d="M813.3,86.3c-0.2,1-0.5,1.8-0.5,2.5c-0.1,42.4-0.3,84.9,1.2,127.3c0,1,0.6,1.9,0.8,2.7
			c1.9,0.9,3.5,1.7,5.3-0.3c-2.2-3.4-1.7-7.4-1.7-11.2c0-36.3,0-72.5,0-108.8c0-4.3-0.4-8.7,2-13.1C817.7,85,815.7,84.7,813.3,86.3z
			"/>
		<path class="st2" d="M945.2,97.8c-0.1,0.5-0.1,0.9-0.2,1.1c-0.1,0.2-0.2,0.3-0.5,0.3s-0.5-0.3-0.7-1c-0.5-2.5-1.5-3.8-3.2-3.8
			h-0.2v-0.1c0.9-0.1,1.6-0.3,2.3-0.6c1.2-0.6,1.9-1.4,1.9-2.6s-0.7-2.1-2-2.7c-0.7-0.3-1.5-0.4-2.5-0.5c-0.3,0-1.5,0-3.5,0
			c-2.1,0-3.6,0-4.6,0V89c0.8,0,1.2,0.1,1.5,0.4c0.2,0.3,0.3,0.7,0.3,1.4c0,0.6,0,1.3,0,2.2v2.2c0,2-0.1,3.2-0.2,3.6
			c-0.2,0.4-0.7,0.6-1.6,0.6v1.3h6.6v-1.3c-0.9,0-1.4-0.1-1.6-0.4c-0.2-0.3-0.3-0.9-0.3-1.8v-2.4c1,0,1.8,0,2.2,0.2
			c0.8,0.3,1.3,1.1,1.5,2.2c0,0.2,0,0.5,0.1,0.7c0,0.2,0.1,0.6,0.2,1c0.2,0.6,0.4,1,0.6,1.3c0.4,0.5,1,0.8,1.8,0.8
			c0.9,0,1.6-0.3,2.1-1s0.7-1.5,0.8-2.3h-0.8V97.8z M936.9,93.5c0-2.2,0.1-3.4,0.2-3.9c0.1-0.4,0.6-0.6,1.4-0.6
			c0.7,0,1.3,0.1,1.8,0.4c0.8,0.4,1.2,0.9,1.2,1.7c0,1.1-0.5,1.7-1.4,2.1C939.5,93.4,938.5,93.5,936.9,93.5z"/>
		<path class="st2" d="M447.7,190.6c-9.5-10.5-17.7-22.1-25.3-34.1c2.9-3.3,6.4-4.6,9.3-6.7c12.2-8.6,17.6-20.4,14.9-35
			c-2.4-12.7-11-20.8-22.8-25.4c-9.3-3.6-19.1-4.3-29-4.4c-2,0-4.2-0.4-6.2,1.7c0,43.8,0,88,0,131.8c2.2,1.3,3.8,1.8,5.8,0
			c0-19,0-38.3,0-57.7c3.7-1.6,7-1.7,10.9-0.4c6,7.8,12.1,16.2,18.7,24.1c10.7,12.7,22.4,24.4,38,31.4c5.5,2.5,11,4.3,17.5,3
			C467.5,210.9,457.2,201.1,447.7,190.6z M442.4,117c1.6,13.5-4.4,23.2-15.5,30.9c13.7-19.1,13.8-37.2-3.4-54.3
			C433.7,98.5,441,105.4,442.4,117z M394.4,152.5c0-20.7,0-40.9,0-61.1c8.7-3.5,24,0.6,30.5,8c8.4,9.5,9.7,25.6,3.1,37.8
			C421.5,149,409.3,154.9,394.4,152.5z M460.7,212.5c-21.1-13.7-36.3-31.9-49.6-52.5c3.9-3.2,6.4-2,8.4,0.8
			c2.5,3.3,4.8,6.7,7.2,10.1c9.5,12.9,19.6,25.3,31.3,36.3C459.3,208.3,461.3,209.1,460.7,212.5z"/>
		<path class="st2" d="M947.1,85.5c-2.4-2.3-5.2-3.4-8.4-3.4c-3.4,0-6.2,1.2-8.6,3.5c-2.4,2.4-3.7,5.3-3.7,8.7
			c0,3.4,1.2,6.3,3.6,8.6c2.4,2.4,5.3,3.6,8.8,3.6c3.3,0,6.2-1.2,8.6-3.5c2.4-2.4,3.7-5.3,3.7-8.7C950.9,90.8,949.6,87.9,947.1,85.5
			z M946,101.9c-2,1.9-4.5,2.9-7.3,2.9c-2.9,0-5.4-1-7.4-3c-2.1-2-3.1-4.5-3.1-7.5c0-2.8,1-5.3,3.1-7.3c2.1-2.1,4.6-3.1,7.5-3.1
			s5.4,1,7.5,3.1c2,2,3.1,4.5,3.1,7.4C949.2,97.3,948.1,99.9,946,101.9z"/>
	</g>
	<g>
		<path class="st2" d="M143.5,331c-3.2,4.1-8.1,7.3-16.5,7.3h-3.4c-12.5,0-20.5-8-20.5-19.4v-35.3c0-11.4,8-19.4,20.5-19.4h3.4
			c8.1,0,13,3,16.2,6.8c1.6,2.1,2.7,4.1,2.7,4.6s-0.2,0.8-0.7,1l-5.9,3c-0.7,0.3-1.5,0.8-1.9,0.8c-0.3,0-0.7-0.2-0.9-0.7
			c-2.1-4.1-5.7-6.4-9.5-6.4h-3.4c-5.6,0-10.3,4.7-10.3,10.3v35.3c0,5.6,4.7,10.3,10.3,10.3h3.4c3.9,0,7.4-2.3,9.6-6.6
			c0.2-0.5,0.6-0.7,0.9-0.7c0.5,0,1,0.5,1.8,0.8l6,3.1c0.5,0.2,0.7,0.5,0.7,0.8C146,327.1,145,329.1,143.5,331z"/>
		<path class="st2" d="M204.9,337.2h-38.8c-0.8,0-1.1-0.3-1.1-1.1v-69.5c0-0.8,0.3-1.1,1.1-1.1h38.8c0.8,0,1.1,0.3,1.1,1.1v6.8
			c0,0.8-0.3,1.1-1.1,1.1h-28.5c-0.8,0-1.1,0.3-1.1,1.1V295c0,0.8,0.3,1.1,1.1,1.1h23.4c0.8,0,1.1,0.3,1.1,1.1v6.8
			c0,0.8-0.3,1.1-1.1,1.1h-23.4c-0.8,0-1.1,0.3-1.1,1.1v20.5c0,0.8,0.3,1.1,1.1,1.1h28.5c0.8,0,1.1,0.3,1.1,1.1v6.8
			C206,336.8,205.7,337.2,204.9,337.2z"/>
		<path class="st2" d="M269.9,337.2h-8.8c-0.5,0-0.9-0.3-1-0.8L249.5,306c-0.1-0.5-0.5-0.7-0.9-0.7h-11.3c-0.8,0-1.1,0.3-1.1,1.1
			V336c0,0.8-0.3,1.1-1.1,1.1h-8c-0.8,0-1.1-0.3-1.1-1.1v-69.5c0-0.8,0.3-1.1,1.1-1.1h22.8c12.5,0,20.5,8,20.5,20.5v1.1
			c0,6.2-5.5,13.3-9.9,15.4c-0.5,0.2-0.7,0.5-0.7,0.9c0,0.3,0.5,1.5,0.9,2.7l9.5,27.4c0.5,1.4,0.9,2.4,0.9,2.8
			C271,336.8,270.7,337.2,269.9,337.2z M260.1,284.7c0-5.6-4.7-10.3-10.3-10.3h-12.5c-0.8,0-1.1,0.3-1.1,1.1V295
			c0,0.8,0.3,1.1,1.1,1.1h12.5c5.6,0,10.3-4.7,10.3-10.3V284.7z"/>
		<path class="st2" d="M326.2,274.5h-13.1c-0.8,0-1.1,0.3-1.1,1.1V336c0,0.8-0.3,1.1-1.1,1.1h-8c-0.8,0-1.1-0.3-1.1-1.1v-60.4
			c0-0.8-0.3-1.1-1.1-1.1h-13.1c-0.8,0-1.1-0.3-1.1-1.1v-6.8c0-0.8,0.3-1.1,1.1-1.1h38.8c0.8,0,1.1,0.3,1.1,1.1v6.8
			C327.3,274.1,327,274.5,326.2,274.5z"/>
		<path class="st2" d="M355,337.2h-8c-0.8,0-1.1-0.3-1.1-1.1v-69.5c0-0.8,0.3-1.1,1.1-1.1h8c0.8,0,1.1,0.3,1.1,1.1V336
			C356.1,336.8,355.7,337.2,355,337.2z"/>
		<path class="st2" d="M417.9,274.5h-28.5c-0.8,0-1.1,0.3-1.1,1.1V295c0,0.8,0.3,1.1,1.1,1.1h23.4c0.8,0,1.1,0.3,1.1,1.1v6.8
			c0,0.8-0.3,1.1-1.1,1.1h-23.4c-0.8,0-1.1,0.3-1.1,1.1V336c0,0.8-0.3,1.1-1.1,1.1h-8c-0.8,0-1.1-0.3-1.1-1.1v-69.5
			c0-0.8,0.3-1.1,1.1-1.1H418c0.8,0,1.1,0.3,1.1,1.1v6.8C419,274.1,418.7,274.5,417.9,274.5z"/>
		<path class="st2" d="M446.7,337.2h-8c-0.8,0-1.1-0.3-1.1-1.1v-69.5c0-0.8,0.3-1.1,1.1-1.1h8c0.8,0,1.1,0.3,1.1,1.1V336
			C447.9,336.8,447.5,337.2,446.7,337.2z"/>
		<path class="st2" d="M509.7,337.2h-38.8c-0.8,0-1.1-0.3-1.1-1.1v-69.5c0-0.8,0.3-1.1,1.1-1.1h38.8c0.8,0,1.1,0.3,1.1,1.1v6.8
			c0,0.8-0.3,1.1-1.1,1.1h-28.5c-0.8,0-1.1,0.3-1.1,1.1V295c0,0.8,0.3,1.1,1.1,1.1h23.4c0.8,0,1.1,0.3,1.1,1.1v6.8
			c0,0.8-0.3,1.1-1.1,1.1h-23.4c-0.8,0-1.1,0.3-1.1,1.1v20.5c0,0.8,0.3,1.1,1.1,1.1h28.5c0.8,0,1.1,0.3,1.1,1.1v6.8
			C510.8,336.8,510.5,337.2,509.7,337.2z"/>
		<path class="st2" d="M554.6,337.2h-22.8c-0.8,0-1.1-0.3-1.1-1.1v-69.5c0-0.8,0.3-1.1,1.1-1.1h22.8c12.5,0,20.5,8,20.5,20.5v30.8
			C575.1,329.3,567.1,337.2,554.6,337.2z M564.9,284.7c0-5.6-4.7-10.3-10.3-10.3h-12.5c-0.8,0-1.1,0.3-1.1,1.1v51.3
			c0,0.8,0.3,1.1,1.1,1.1h12.5c5.6,0,10.3-4.7,10.3-10.3V284.7z"/>
		<path class="st2" d="M680.2,337.2h-22.8c-0.8,0-1.1-0.3-1.1-1.1v-69.5c0-0.8,0.3-1.1,1.1-1.1h22.8c12.5,0,20.5,8,20.5,20.5v1.1
			c0,4.6-3.5,10.4-7.2,12.9c-0.5,0.2-0.6,0.6-0.6,0.9s0.2,0.6,0.6,0.9c3.6,2.7,7.2,8.9,7.2,13.5v1.7
			C700.8,329.4,692.8,337.2,680.2,337.2z M690.5,284.7c0-5.6-4.7-10.3-10.3-10.3h-12.5c-0.8,0-1.1,0.3-1.1,1.1V295
			c0,0.8,0.3,1.1,1.1,1.1h12.5c5.6,0,10.3-4.7,10.3-10.3V284.7z M690.5,315.5c0-5.6-4.7-10.3-10.3-10.3h-12.5
			c-0.8,0-1.1,0.3-1.1,1.1v20.5c0,0.8,0.3,1.1,1.1,1.1h12.5c5.6,0,10.3-4.7,10.3-10.3V315.5z"/>
		<path class="st2" d="M765.1,337.2h-8.8c-0.5,0-0.9-0.3-1-0.8L744.7,306c-0.1-0.5-0.5-0.7-0.9-0.7h-11.3c-0.8,0-1.1,0.3-1.1,1.1
			V336c0,0.8-0.3,1.1-1.1,1.1h-8c-0.8,0-1.1-0.3-1.1-1.1v-69.5c0-0.8,0.3-1.1,1.1-1.1h22.8c12.5,0,20.5,8,20.5,20.5v1.1
			c0,6.2-5.5,13.3-9.9,15.4c-0.5,0.2-0.7,0.5-0.7,0.9c0,0.3,0.5,1.5,0.9,2.7l9.5,27.4c0.5,1.4,0.9,2.4,0.9,2.8
			C766.3,336.8,765.9,337.2,765.1,337.2z M755.3,284.7c0-5.6-4.7-10.3-10.3-10.3h-12.5c-0.8,0-1.1,0.3-1.1,1.1V295
			c0,0.8,0.3,1.1,1.1,1.1H745c5.6,0,10.3-4.7,10.3-10.3V284.7z"/>
		<path class="st2" d="M808.6,338.3h-3.4c-12.5,0-20.5-8-20.5-19.4v-35.3c0-11.4,8-19.4,20.5-19.4h3.4c12.5,0,20.5,8,20.5,19.4v35.3
			C829.1,330.3,821.2,338.3,808.6,338.3z M818.9,283.6c0-5.6-4.7-10.3-10.3-10.3h-3.4c-5.6,0-10.3,4.7-10.3,10.3v35.3
			c0,5.6,4.7,10.3,10.3,10.3h3.4c5.6,0,10.3-4.7,10.3-10.3V283.6z"/>
		<path class="st2" d="M899.7,337.2h-9.8c-0.6,0-1.1-0.3-1.5-0.9L869,304.9c-0.3-0.6-0.7-0.8-1-0.8s-0.6,0.2-1,0.8l-5.6,7.1
			c-0.8,0.9-1,1.5-1,2.8V336c0,0.8-0.3,1.1-1.1,1.1h-8c-0.8,0-1.1-0.3-1.1-1.1v-69.5c0-0.8,0.3-1.1,1.1-1.1h8c0.8,0,1.1,0.3,1.1,1.1
			v30c0,0.8,0.5,1.4,1,1.4c0.3,0,0.7-0.2,1-0.7l23.9-31.3c0.2-0.2,0.6-0.5,0.9-0.5h9.5c0.8,0,1.3,0.3,1.3,0.9c0,0.2-0.1,0.6-0.3,0.9
			l-21.1,26c-0.8,0.9-0.9,1.3-0.9,1.7c0,0.3,0.2,0.8,0.6,1.4l24.1,38.6c0.3,0.6,0.6,0.9,0.6,1.4
			C900.8,336.8,900.5,337.2,899.7,337.2z"/>
		<path class="st2" d="M958.5,337.2h-38.8c-0.8,0-1.1-0.3-1.1-1.1v-69.5c0-0.8,0.3-1.1,1.1-1.1h38.8c0.8,0,1.1,0.3,1.1,1.1v6.8
			c0,0.8-0.3,1.1-1.1,1.1H930c-0.8,0-1.1,0.3-1.1,1.1V295c0,0.8,0.3,1.1,1.1,1.1h23.4c0.8,0,1.1,0.3,1.1,1.1v6.8
			c0,0.8-0.3,1.1-1.1,1.1H930c-0.8,0-1.1,0.3-1.1,1.1v20.5c0,0.8,0.3,1.1,1.1,1.1h28.5c0.8,0,1.1,0.3,1.1,1.1v6.8
			C959.7,336.8,959.3,337.2,958.5,337.2z"/>
		<path class="st2" d="M1023.5,337.2h-8.8c-0.5,0-0.9-0.3-1-0.8l-10.6-30.4c-0.1-0.5-0.5-0.7-0.9-0.7h-11.3c-0.8,0-1.1,0.3-1.1,1.1
			V336c0,0.8-0.3,1.1-1.1,1.1h-8c-0.8,0-1.1-0.3-1.1-1.1v-69.5c0-0.8,0.3-1.1,1.1-1.1h22.8c12.5,0,20.5,8,20.5,20.5v1.1
			c0,6.2-5.5,13.3-9.9,15.4c-0.5,0.2-0.7,0.5-0.7,0.9c0,0.3,0.5,1.5,0.9,2.7l9.5,27.4c0.5,1.4,0.9,2.4,0.9,2.8
			C1024.7,336.8,1024.3,337.2,1023.5,337.2z M1013.7,284.7c0-5.6-4.7-10.3-10.3-10.3h-12.5c-0.8,0-1.1,0.3-1.1,1.1V295
			c0,0.8,0.3,1.1,1.1,1.1h12.5c5.6,0,10.3-4.7,10.3-10.3V284.7z"/>
	</g>
</g>
</svg>
