<?xml version="1.0" encoding="utf-8"?>
<!-- Generator: Adobe Illustrator 22.1.0, SVG Export Plug-In . SVG Version: 6.00 Build 0)  -->
<svg version="1.1" id="Layer_3" xmlns="http://www.w3.org/2000/svg" xmlns:xlink="http://www.w3.org/1999/xlink" x="0px" y="0px"
	 viewBox="0 0 291 80" style="enable-background:new 0 0 291 80;" xml:space="preserve">
<style type="text/css">
	.st0{fill:#808080;}
</style>
<g>
	<path class="st0" d="M12.1,26.6C22,17.6,41,13,57.8,19.3C43.6,18.2,18.6,24.5,12.1,26.6"/>
	<path class="st0" d="M9.3,29.5c8.4-2.4,44.2-12,56.4-6.3c2.8,1.7,5.6,4.8,6.2,5.4C54.2,21.2,9.6,33.5,6.3,35
		C7.1,33.1,8.3,30.4,9.3,29.5"/>
	<path class="st0" d="M5.4,38c12-4.2,54.6-14.8,69.2-5.4c0.9,1.8,1.6,4.4,2,5.8c-13-12.8-64.5,1.1-71.4,4.6
		C4.9,41.9,5.3,38.5,5.4,38"/>
	<path class="st0" d="M5.2,43.8c8,1.9,62.5,4.5,71.7-1.7c-0.2,2-0.8,4.7-1.1,5.5c-8.8,6.1-64.2,2.8-69.1,1.3
		C6.2,47.8,5.3,44.6,5.2,43.8"/>
	<path class="st0" d="M8.2,51.7c7.2,1.1,60.3,3.7,66.3-1.3c-1.4,2.7-4.3,5.8-5.7,6.9c-8.5,2.3-53.9,1.1-56.3-0.6
		C11.7,56,9.2,53.5,8.2,51.7"/>
	<path class="st0" d="M16.2,59.7c9.8,1.6,40.4,2.1,48.5,0.6C53.7,67.9,29.8,69.1,16.2,59.7"/>
</g>
<path class="st0" d="M95.3,25.7h6.4l28.4,24.2V25.7h5.8v31.1h-5.6l-29.3-25v25h-5.8V25.7z"/>
<path class="st0" d="M146.6,25.7H173c7.3,0,12.2,2.1,12.2,8c0,3.9-1.9,5.4-3.6,6.5c2.2,0.9,4.8,3.6,4.8,7.7c0,5.9-4.7,9-12.2,9
	h-27.5V25.7z M173.4,38c4,0,5.7-1,5.7-3.6c0-2.7-1.8-3.6-5.7-3.6h-20.7V38H173.4z M173.6,51.8c3.9,0,6.8-0.8,6.8-4.5
	c0-3.3-2.7-4.3-6.8-4.3h-20.8v8.7H173.6z"/>
<path class="st0" d="M236.3,33.1c0-5.9-5-7.9-12.3-7.9h-16.1c-7.3,0-12.2,2-12.3,7.9h0v23.5h5.7v-12h29.4v12h5.7L236.3,33.1
	L236.3,33.1z M201.2,39.6v-5.9c0.1-2.5,2.4-3.4,6.2-3.4h17.1c4,0,6.1,1,6.1,3.6l0,0.1v5.6H201.2z"/>
<path class="st0" d="M287.4,33.1c0-5.9-5-7.9-12.3-7.9h-16.1c-7.3,0-12.2,2-12.3,7.9h0v23.5h5.7v-12h29.4v12h5.7L287.4,33.1
	L287.4,33.1z M252.3,39.6v-5.9c0.1-2.5,2.4-3.4,6.2-3.4h17.1c4,0,6.1,1,6.1,3.6l0,0.1v5.6H252.3z"/>
</svg>
