<?xml version="1.0" encoding="UTF-8"?>
<svg width="38px" height="49px" viewBox="-6 0 38 49" version="1.1" xmlns="http://www.w3.org/2000/svg" xmlns:xlink="http://www.w3.org/1999/xlink">
    <!-- Generator: Sketch 46.2 (44496) - http://www.bohemiancoding.com/sketch -->
    <title>suitcase (1)</title>
    <desc>Created with Sketch.</desc>
    <defs></defs>
    <g id="website---desktop" stroke="none" stroke-width="1" fill="none" fill-rule="evenodd">
        <g id="M---D7---Jet-Details" transform="translate(-230.000000, -1798.000000)" fill-rule="nonzero" fill="#B6CADA">
            <g id="Group-14" transform="translate(230.000000, 1790.000000)">
                <g id="suitcase-(1)" transform="translate(0.000000, 8.000000)">
                    <path d="M23.3954091,12.8984203 L16.8958097,12.8984203 L16.8958097,4.54012252 C17.3759451,4.27342249 17.7019433,3.76142255 17.7019433,3.17419226 L17.7019433,1.56192508 C17.7019433,0.700641429 17.0013018,0 16.1401125,0 L9.69094945,0 C8.8296658,0 8.12902437,0.700641429 8.12902437,1.56192508 L8.12902437,3.17419226 C8.12902437,3.76132827 8.45502249,4.27332822 8.93515796,4.54012252 L8.93515796,12.8984203 L2.43555857,12.8984203 C1.12977488,12.8984203 0.0674999008,13.9606953 0.0674999008,15.266479 L0.0674999008,42.6753982 C0.0674999008,43.716933 0.743630192,44.6029163 1.67976709,44.91911 L1.67976709,46.7061604 C1.67976709,47.5674441 2.38040851,48.2680855 3.24169216,48.2680855 L4.85395935,48.2680855 C5.715243,48.2680855 6.41588443,47.5674441 6.41588443,46.7061604 L6.41588443,45.0434569 L19.4149889,45.0434569 L19.4149889,46.7061604 C19.4149889,47.5674441 20.1156304,48.2680855 20.976914,48.2680855 L22.5891812,48.2680855 C23.4504649,48.2680855 24.1511063,47.5674441 24.1511063,46.7061604 L24.1511063,44.91911 C25.0872432,44.6029163 25.7633735,43.716933 25.7633735,42.6753982 L25.7633735,15.266479 C25.7634677,13.9607895 24.7011928,12.8984203 23.3954091,12.8984203 Z M9.64051307,1.56192508 C9.64051307,1.53411437 9.66304446,1.51158297 9.69085518,1.51158297 L16.1400182,1.51158297 C16.1678289,1.51158297 16.1903603,1.53411437 16.1903603,1.56192508 L16.1903603,3.17419226 C16.1903603,3.20200298 16.1678289,3.22453437 16.1400182,3.22453437 L9.69085518,3.22453437 C9.66304446,3.22453437 9.64051307,3.20200298 9.64051307,3.17419226 L9.64051307,1.56192508 L9.64051307,1.56192508 Z M15.384321,4.73611734 L15.384321,12.8984203 L10.4466467,12.8984203 L10.4466467,4.73611734 L15.384321,4.73611734 Z M4.90439573,46.7061604 C4.90439573,46.7339711 4.88186434,46.7565025 4.85405362,46.7565025 L3.24178644,46.7565025 C3.21397573,46.7565025 3.19144433,46.7339711 3.19144433,46.7061604 L3.19144433,45.0434569 L4.90449,45.0434569 L4.90449,46.7061604 L4.90439573,46.7061604 Z M22.6396176,46.7061604 C22.6396176,46.7339711 22.6170862,46.7565025 22.5892755,46.7565025 L20.9770083,46.7565025 C20.9491976,46.7565025 20.9266662,46.7339711 20.9266662,46.7061604 L20.9266662,45.0434569 L22.6397119,45.0434569 L22.6397119,46.7061604 L22.6396176,46.7061604 Z M24.251979,42.6753982 C24.251979,43.147709 23.8677198,43.5319682 23.3954091,43.5319682 L2.43555857,43.5319682 C1.96324781,43.5319682 1.5789886,43.147709 1.5789886,42.6753982 L1.5789886,15.266479 C1.5789886,14.7941682 1.96324781,14.409909 2.43555857,14.409909 L23.3954091,14.409909 C23.8677198,14.409909 24.251979,14.7941682 24.251979,15.266479 L24.251979,42.6753982 Z" id="Shape"></path>
                    <path d="M12.9154838,16.1230489 C12.4981346,16.1230489 12.1596923,16.4613969 12.1596923,16.8788404 L12.1596923,41.063131 C12.1596923,41.4804803 12.4980403,41.8189225 12.9154838,41.8189225 C13.3328331,41.8189225 13.6712753,41.4805745 13.6712753,41.063131 L13.6712753,16.8788404 C13.6712753,16.4613969 13.3328331,16.1230489 12.9154838,16.1230489 Z" id="Shape"></path>
                    <path d="M16.9462461,20.9598505 C16.5288968,20.9598505 16.1904546,21.2981985 16.1904546,21.715642 L16.1904546,41.0632253 C16.1904546,41.4805745 16.5288025,41.8190168 16.9462461,41.8190168 C17.3636896,41.8190168 17.7020375,41.4806688 17.7020375,41.0632253 L17.7020375,21.715642 C17.7019433,21.2981985 17.3635953,20.9598505 16.9462461,20.9598505 Z" id="Shape"></path>
                    <path d="M16.9462461,16.1230489 C16.5288968,16.1230489 16.1904546,16.4613969 16.1904546,16.8788404 L16.1904546,18.4908248 C16.1904546,18.908174 16.5288025,19.2466163 16.9462461,19.2466163 C17.3636896,19.2466163 17.7020375,18.9082683 17.7020375,18.4908248 L17.7020375,16.8788404 C17.7019433,16.4613969 17.3635953,16.1230489 16.9462461,16.1230489 Z" id="Shape"></path>
                    <path d="M20.976914,16.1230489 C20.5595648,16.1230489 20.2211225,16.4613969 20.2211225,16.8788404 L20.2211225,41.063131 C20.2211225,41.4804803 20.5594705,41.8189225 20.976914,41.8189225 C21.3943575,41.8189225 21.7327055,41.4805745 21.7327055,41.063131 L21.7327055,16.8788404 C21.7327055,16.4613969 21.3943575,16.1230489 20.976914,16.1230489 Z" id="Shape"></path>
                    <path d="M4.85405362,16.1230489 C4.43670438,16.1230489 4.09826214,16.4613969 4.09826214,16.8788404 L4.09826214,41.063131 C4.09826214,41.4804803 4.4366101,41.8189225 4.85405362,41.8189225 C5.27149714,41.8189225 5.60984511,41.4805745 5.60984511,41.063131 L5.60984511,16.8788404 C5.60975084,16.4613969 5.27140287,16.1230489 4.85405362,16.1230489 Z" id="Shape"></path>
                    <path d="M8.88472158,38.6953552 C8.46737234,38.6953552 8.1289301,39.0337031 8.1289301,39.4511467 L8.1289301,41.063131 C8.1289301,41.4804803 8.46727806,41.8189225 8.88472158,41.8189225 C9.30216511,41.8189225 9.64051307,41.4805745 9.64051307,41.063131 L9.64051307,39.4511467 C9.64051307,39.0337974 9.30216511,38.6953552 8.88472158,38.6953552 Z" id="Shape"></path>
                    <path d="M8.88472158,16.1230489 C8.46737234,16.1230489 8.1289301,16.4613969 8.1289301,16.8788404 L8.1289301,36.2264237 C8.1289301,36.643773 8.46727806,36.9822152 8.88472158,36.9822152 C9.30216511,36.9822152 9.64051307,36.6438673 9.64051307,36.2264237 L9.64051307,16.8788404 C9.64051307,16.4613969 9.30216511,16.1230489 8.88472158,16.1230489 Z" id="Shape"></path>
                </g>
            </g>
        </g>
    </g>
</svg>