<?xml version="1.0" encoding="utf-8"?>
<!-- Generator: Adobe Illustrator 21.0.0, SVG Export Plug-In . SVG Version: 6.00 Build 0)  -->
<svg version="1.1" id="Layer_1" xmlns="http://www.w3.org/2000/svg" xmlns:xlink="http://www.w3.org/1999/xlink" x="0px" y="0px"
	 viewBox="0 0 408.5 75.5" style="enable-background:new 0 0 408.5 75.5;" xml:space="preserve">
<style type="text/css">
	.st0{fill:#FFFFFF;}
</style>
<g>
	<g>
		<path class="st0" d="M40.8,68H8.1c-0.7,0-0.9-0.3-0.8-1L19.9,7.6c0.1-0.7,0.5-1,1.2-1h4.7c0.7,0,0.9,0.3,0.8,1L15.1,61.4
			c-0.1,0.7,0.1,1,0.8,1h26c0.7,0,0.9,0.3,0.8,1L42,67C41.8,67.7,41.5,68,40.8,68z"/>
		<path class="st0" d="M73.8,68.9h-3.1c-10.6,0-15.9-6.5-13.9-16l9.6-45.3c0.1-0.7,0.5-1,1.2-1h4.8c0.7,0,0.9,0.3,0.8,1L63.6,53
			c-1.2,5.7,2.4,10.4,8.3,10.4H75c5.8,0,11.7-4.8,12.9-10.4l9.6-45.3c0.1-0.7,0.5-1,1.2-1h4.8c0.7,0,0.9,0.3,0.8,1L94.7,53
			C92.7,62.4,84.4,68.9,73.8,68.9z"/>
		<path class="st0" d="M147.3,68h-4.7c-0.3,0-0.7-0.2-0.8-0.5l-15.1-42.9c-0.3-0.7-0.9-2.7-1-3.5l-0.4,0.1
			c-0.3,2.3-2.9,14.9-4.5,22.6L115.8,67c-0.1,0.7-0.5,1-1.2,1h-4.7c-0.7,0-0.9-0.3-0.8-1l12.6-59.3c0.1-0.7,0.5-1,1.2-1h4.6
			c0.4,0,0.7,0.2,0.8,0.5l15,43.4c0.2,0.5,0.9,2.7,1,3.5l0.4-0.1c0.3-2.3,2.9-14.9,4.5-22.6l5-23.7c0.1-0.7,0.5-1,1.2-1h4.8
			c0.7,0,0.9,0.3,0.8,1L148.5,67C148.3,67.7,148,68,147.3,68z"/>
		<path class="st0" d="M203.1,68H198c-0.5,0-0.9-0.2-0.9-0.7l-1-13.4c0-0.5-0.4-0.6-0.9-0.6h-18.7c-0.5,0-0.9,0.1-1.1,0.6l-6.7,13.4
			c-0.2,0.5-0.6,0.7-1.1,0.7h-5.1c-0.7,0-1-0.3-0.9-0.8c0.1-0.5,0.7-1.6,1.2-2.4l30-57.4c0.2-0.5,0.6-0.7,1.1-0.7h3.8
			c0.5,0,0.9,0.2,0.9,0.7l5.6,56.8c0.2,1.5,0.3,2.6,0.3,3C204.3,67.7,203.8,68,203.1,68z M194.1,21.4c0-0.5-0.3-3-0.3-3.8h-0.4
			c-0.4,0.8-1.6,3.2-1.9,3.8l-12.6,25.4c-0.1,0.5,0.2,0.9,0.9,0.9h14.3c0.7,0,1.2-0.4,1.3-0.9L194.1,21.4z"/>
		<path class="st0" d="M227.7,68.9c-5.1,0-9.8-2.7-12.6-6.3c-1.3-1.8-2-3.1-1.9-3.7c0.1-0.3,0.3-0.6,0.9-0.8l5.6-2.4
			c0.8-0.4,1.5-0.7,1.8-0.7s0.6,0.2,0.7,0.6c0.9,3.6,3.8,5.6,7.2,5.6c4.9,0,9.8-4,10.8-8.8l9.5-44.8c0.1-0.7,0.5-1,1.2-1h7
			c0.7,0,0.9,0.3,0.8,1l-9.3,43.8C247.3,61.1,237.7,68.9,227.7,68.9z"/>
		<path class="st0" d="M297.2,68h-33.9c-0.7,0-0.9-0.3-0.8-1l12.6-59.4c0.1-0.7,0.5-1,1.2-1h33.9c0.7,0,0.9,0.3,0.8,1l-1.2,5.8
			c-0.1,0.7-0.5,1-1.2,1h-24.9c-0.7,0-1.1,0.3-1.2,1L279,31.9c-0.1,0.7,0.1,1,0.8,1h20.4c0.7,0,0.9,0.3,0.8,1l-1.2,5.8
			c-0.1,0.7-0.5,1-1.2,1h-20.4c-0.7,0-1.1,0.3-1.2,1l-3.7,17.5c-0.1,0.7,0.1,1,0.8,1h24.9c0.7,0,0.9,0.3,0.8,1l-1.2,5.8
			C298.3,67.7,297.9,68,297.2,68z"/>
		<path class="st0" d="M357.4,14.4H346c-0.7,0-1.1,0.3-1.2,1l-11,51.6c-0.1,0.7-0.5,1-1.2,1h-7c-0.7,0-0.9-0.3-0.8-1l11-51.6
			c0.1-0.7-0.1-1-0.8-1h-11.5c-0.7,0-0.9-0.3-0.8-1l1.2-5.8c0.1-0.7,0.5-1,1.2-1h33.9c0.7,0,0.9,0.3,0.8,1l-1.2,5.8
			C358.5,14.1,358.1,14.4,357.4,14.4z"/>
		<path class="st0" d="M375.9,68.9h-4.2c-8,0-11.8-3.1-13.5-7.1c-0.6-1.4-0.9-2.3-0.8-2.8c0.1-0.4,0.2-0.6,0.7-0.8l5.6-2.5
			c0.6-0.3,1.6-0.8,2-0.8c0.3,0,0.6,0.2,0.7,0.7c0.9,3.6,3.8,5.6,7.1,5.6h4.2c4.9,0,9.8-4,10.8-8.8c1.3-6.1-3.9-8.7-9.6-11.5
			c-7-3.4-14.9-7.3-12.5-18.7c2.1-9.7,10.5-16.6,21.5-16.6h1.6c8,0,11.8,3.2,13.6,7.1c0.4,0.9,0.9,2.1,0.8,2.6
			c-0.1,0.4-0.3,0.7-0.8,0.9l-5.9,2.6c-0.7,0.3-1.2,0.6-1.6,0.6c-0.3,0-0.6-0.2-0.7-0.6c-1-3.5-3.8-5.5-7.1-5.5h-1.6
			c-4.9,0-9.8,4-10.8,8.8c-1.2,5.7,4.6,7.8,10.7,10.8c6.8,3.3,13.9,7.8,11.4,19.4C395.3,62.1,386.9,68.9,375.9,68.9z"/>
	</g>
</g>
</svg>
