<?xml version="1.0" encoding="UTF-8"?>
<svg width="21px" height="20px" viewBox="0 0 21 20" version="1.1" xmlns="http://www.w3.org/2000/svg" xmlns:xlink="http://www.w3.org/1999/xlink">
    <!-- Generator: Sketch 49.3 (51167) - http://www.bohemiancoding.com/sketch -->
    <title>house-black-silhouette-without-door</title>
    <desc>Created with Sketch.</desc>
    <defs></defs>
    <g id="Page-1" stroke="none" stroke-width="1" fill="none" fill-rule="evenodd">
        <g id="CA-3---Messages-1" transform="translate(-167.000000, -281.000000)" fill="#ffffff" fill-rule="nonzero">
            <g id="house-black-silhouette-without-door" transform="translate(167.000000, 281.000000)">
                <path d="M20.6898762,9.75806804 C21.0696878,9.3462062 21.0330111,8.71494509 20.6079855,8.34847156 L11.2441032,0.269891743 C10.8190776,-0.0965817939 10.1376569,-0.08890484 9.72157845,0.28719856 L0.325868738,8.77918908 C-0.0902097077,9.15529248 -0.110631155,9.78574548 0.280654698,10.1867653 L0.516218481,10.4286567 C0.90702624,10.8296765 1.53872511,10.8774891 1.92625451,10.5351239 L2.62843812,9.91510889 L2.62843812,18.9922314 C2.62843812,19.5491473 3.08611075,20 3.65053496,20 L7.31300879,20 C7.877433,20 8.33510563,19.5491473 8.33510563,18.9922314 L8.33510563,12.641909 L13.0066312,12.641909 L13.0066312,18.9922314 C12.9985036,19.5487433 13.4023565,19.9995959 13.9667807,19.9995959 L17.848085,19.9995959 C18.4125092,19.9995959 18.8701818,19.5487433 18.8701818,18.9918274 L18.8701818,10.0429234 C18.8701818,10.0429234 19.0641514,10.2104696 19.3034034,10.4178147 C19.5422455,10.6247557 20.0439028,10.4588258 20.4237144,10.0465599 L20.6898762,9.75806804 Z" id="Shape"></path>
            </g>
        </g>
    </g>
</svg>