<?xml version="1.0" encoding="UTF-8"?>
<svg width="27px" height="23px" viewBox="0 0 27 23" version="1.1" xmlns="http://www.w3.org/2000/svg" xmlns:xlink="http://www.w3.org/1999/xlink">
    <!-- Generator: Sketch 49.3 (51167) - http://www.bohemiancoding.com/sketch -->
    <title>Emptylegs-ICON</title>
    <desc>Created with Sketch.</desc>
    <defs></defs>
    <g id="Page-1" stroke="none" stroke-width="1" fill="none" fill-rule="evenodd">
        <g id="CA-3---Messages-1" transform="translate(-167.000000, -550.000000)" fill="#ffffff" fill-rule="nonzero">
            <g id="Emptylegs-ICON" transform="translate(167.000000, 550.000000)">
                <path d="M2.70906714,15.3333333 C2.31392115,14.2408643 2.09512709,13.0912959 2.06105995,11.9286314 L6.70344993,11.9286314 C6.72506589,12.8159895 6.82965563,13.699294 7.01582262,14.5667506 L7.10637747,14.534005 C7.28333328,14.4685139 7.46278143,14.3979849 7.64389113,14.3257767 C7.48074845,13.5367473 7.38843416,12.7344413 7.36807269,11.9286314 L11.5676578,11.9286314 C11.7624333,11.8505548 11.9793505,11.8505548 12.174126,11.9286314 L12.5288684,11.9286314 L12.5288684,12.1309824 L12.8262871,12.3047859 C12.9384693,12.3661781 13.0671342,12.389714 13.1934912,12.3719563 L13.1934912,11.9286314 L13.8921759,11.9286314 C14.1555326,11.7153652 14.4446435,11.4911839 14.7545239,11.256927 L13.1934912,11.256927 L13.1934912,6.56087322 C13.5914341,6.55079765 13.9860538,6.52308984 14.3781812,6.47691016 L13.9013144,5.84718724 C13.6662041,5.86565911 13.430263,5.8790932 13.1934912,5.88497061 L13.1934912,0.965575147 C14.6709802,2.1207739 15.8915104,3.57715784 16.7758079,5.24013434 C16.9538374,5.14473113 17.1503126,5.08971645 17.3515373,5.07892527 C17.5688084,5.07132855 17.7729185,5.18396464 17.8840663,5.37279597 C17.9223861,5.43940029 17.9472362,5.51303278 17.9571748,5.58942065 C18.9321798,5.20239529 19.860789,4.70525868 20.7253286,4.10747271 C21.3826276,4.81302553 21.9444252,5.60357455 22.3960241,6.45843829 C22.606211,6.35600336 22.8072594,6.2611251 23,6.17548279 C21.0123822,2.38017612 17.1133653,0.00453422724 12.8645029,0 C6.53978657,0 1.39394485,5.2006717 1.39394485,11.5927792 C1.39278626,12.7896431 1.5760931,13.9793862 1.93727396,15.1192275 C2.18267254,15.2287027 2.44275697,15.3008536 2.70906714,15.3333333 Z M20.2459694,3.62804366 C19.3712485,4.22144693 18.4293634,4.70685059 17.4404306,5.07388749 C16.578687,3.40475775 15.3947915,1.92703488 13.9586381,0.727959698 C16.3127345,0.970363794 18.5223222,1.98955453 20.2459694,3.62804366 Z M12.5288684,11.256927 L7.36724191,11.256927 C7.41379808,9.40386601 7.84010256,7.58070057 8.61922503,5.90260285 C9.88478751,6.3090103 11.2012924,6.53067147 12.5288684,6.56087322 L12.5288684,11.256927 Z M12.5288684,5.88832914 C11.3044551,5.85947169 10.0899179,5.6591305 8.91996683,5.29303107 C9.80572031,3.60942775 11.0359522,2.13568031 12.5288684,0.9697733 L12.5288684,5.88832914 Z M11.7637215,0.727959698 C10.3274953,1.92784549 9.14337246,3.40607055 8.2810982,5.07556675 C7.29260108,4.70741656 6.35105475,4.22148005 5.47639015,3.62804366 C7.20003739,1.98955453 9.40962507,0.970363794 11.7637215,0.727959698 Z M4.99703099,4.11083123 C5.92699849,4.75553062 6.93136134,5.28308222 7.98783341,5.68178002 C7.18627058,7.43163325 6.74882934,9.32921506 6.70261915,11.256927 L2.06105995,11.256927 C2.14069862,8.59187533 3.1854152,6.04905575 4.99703099,4.11083123 Z" id="Shape"></path>
                <path d="M24.2464894,9.46437826 C24.3409819,9.9876288 24.397423,10.5169935 24.4153725,11.0483429 L22.9308903,11.0483429 L22.9308903,11.7212966 L24.410306,11.7212966 C24.3294431,14.3914837 23.2672271,16.9391531 21.4252976,18.8806824 C20.4798451,18.2353718 19.459035,17.7071417 18.3854023,17.3076532 C18.9621972,16.0664766 19.3544634,14.7482339 19.5498511,13.3944277 L19.2619054,12.7063325 C19.2125053,12.5839259 19.105184,12.4940444 18.9756486,12.4665928 C18.8458256,14.067574 18.4285396,15.632335 17.7436466,17.0864197 C16.4574245,16.6787846 15.1192411,16.4566998 13.7698278,16.4269251 L13.7698278,16.1190488 C13.7541822,16.107145 13.7421902,16.0911196 13.7352068,16.0727832 L13.6625871,15.8666912 L13.4742824,15.9331453 C13.3484645,15.9768873 13.2209578,16.0172646 13.0942955,16.0618477 L13.0942955,16.4269251 C12.5680281,16.439259 12.0428463,16.4805403 11.5211497,16.5505803 L11.3902653,16.588434 C10.3668338,16.877804 9.40842237,17.10072 8.46267715,17.2714819 C8.46774364,17.2832586 8.47281013,17.2958765 8.47872104,17.3076532 C7.40497925,17.7072535 6.38414927,18.2357764 5.43882567,18.8815236 C5.0464517,18.466119 4.68679209,18.0212136 4.36304048,17.5507577 C4.06858655,17.5275684 3.77548696,17.489667 3.48484848,17.4371968 C5.60196918,20.8905045 9.37015374,22.9977951 13.4320617,23 C19.8605959,23 25.0909048,17.7896563 25.0909048,11.3848198 C25.0915786,10.604176 25.0129286,9.82546896 24.8561573,9.06060606 C24.6653194,9.19183202 24.4620968,9.32642276 24.2464894,9.46437826 Z M5.92689776,19.365209 C6.81591966,18.770669 7.77292113,18.2838287 8.77764408,17.9149939 C9.65407226,19.587595 10.8576321,21.0685692 12.3174334,22.2706865 C9.92469532,22.0278316 7.67883805,21.0067454 5.92689776,19.365209 Z M13.0951399,22.0284231 C11.578202,20.8598446 10.3278717,19.383469 9.42699951,17.6971251 C10.6162117,17.3304711 11.850628,17.1294835 13.0951399,17.0998788 L13.0951399,22.0284231 Z M13.7706722,17.0998788 C15.0151456,17.1292 16.2495626,17.3299046 17.4388126,17.6962839 C16.5386188,19.3833219 15.2881867,20.8601045 13.7706722,22.0284231 L13.7706722,17.0998788 Z M14.5483788,22.2706865 C16.00818,21.0685692 17.2117399,19.587595 18.0881681,17.9149939 C19.092891,18.2838287 20.0498925,18.770669 20.9389144,19.365209 C19.1869741,21.0067454 16.9411168,22.0278316 14.5483788,22.2706865 Z" id="Shape"></path>
                <path d="M12.8935549,14.7316389 C12.6960021,14.7127313 12.5189717,14.6009111 12.4161548,14.4300921 C12.3215191,14.2548896 12.3131915,14.0453668 12.3936202,13.8631168 L11.7000546,13.0458325 C11.2961007,13.2726226 10.7402467,13.5741694 10.0692157,13.9034351 C9.33725787,14.2620994 8.46925765,14.6543623 7.52196895,15.005467 C6.57468025,15.3565717 5.54476461,15.6648382 4.51735281,15.8051121 C4.01979508,15.8772654 3.51545832,15.8893906 3.01504474,15.8412306 C2.55633324,15.8023692 2.11246966,15.6587333 1.71721748,15.4212489 C1.3504018,15.1873179 1.05560871,14.8551504 0.865909577,14.4620107 C0.680188784,14.0786057 0.558110427,13.6671788 0.504521025,13.2440638 C0.452507533,12.8701659 0.431569576,12.4925536 0.441924855,12.115153 C0.441924855,11.9471604 0.454444089,11.7850474 0.462790245,11.6363739 C0.471136401,11.4877004 0.485324866,11.3516263 0.4978441,11.2289917 C0.520378721,10.9820425 0.551259498,10.7896908 0.569621041,10.6578166 C0.587982584,10.5259423 0.598832587,10.4545455 0.598832587,10.4545455 C0.598832587,10.4545455 0.577132581,10.5225825 0.535401802,10.648577 C0.493671022,10.7745715 0.428571005,10.9610434 0.362636373,11.2021129 C0.328417134,11.3222276 0.288355585,11.4541019 0.254970962,11.6036153 C0.221586338,11.7531288 0.178186327,11.909362 0.148140165,12.0832344 C0.067934216,12.4741876 0.0201963804,12.8711804 0.00542089857,13.2701027 C-0.0186824513,13.7634652 0.0377056551,14.2574689 0.172344018,14.7324789 C0.336824189,15.3040187 0.654451463,15.8189659 1.09042117,16.220894 C1.5632841,16.6423724 2.12526307,16.9500087 2.73377928,17.1204948 C3.33184459,17.2922488 3.94839382,17.3904006 4.56993359,17.412802 C5.79431467,17.4665597 6.99031882,17.3237659 8.08032678,17.1330942 C9.17033475,16.9424225 10.1735427,16.6853937 11.0215121,16.4434843 C11.8694816,16.2015748 12.5680548,15.968905 13.0579742,15.7967125 L13.2424242,15.7311953 L12.8935549,14.7316389 Z" id="Shape"></path>
                <path d="M26.4129929,6.42673375 C26.0550134,5.80922434 24.5830418,5.99113928 20.8555491,8.13907063 L18.9212917,7.02004346 C19.1524346,6.83979747 19.1966605,6.71045428 19.1449246,6.61949682 C19.0781685,6.50433966 18.8779002,6.49516046 18.4331378,6.73715739 L17.561971,6.23230173 C17.8682145,6.0203458 17.9316328,5.87097528 17.8732212,5.77000415 C17.8022929,5.64733674 17.5836667,5.63982649 17.0763205,5.93272622 C17.0713549,5.93654478 17.0660476,5.93989689 17.0604659,5.94273989 L15.2246737,4.87878788 L14.3067775,5.41118112 L17.8281608,10.0149641 C16.0908338,11.1598599 14.494529,12.3373001 13.5858119,13.180117 L12.2031265,12.3790237 L11.8484848,12.5818004 L12.9474568,13.869391 C12.8231236,14.047968 12.7747255,14.1873249 12.8239581,14.2732755 C12.8731907,14.3592262 13.0183852,14.3859293 13.2370113,14.3684054 L13.7994313,15.9630817 L14.1532386,15.758636 L14.1532386,14.1597873 C15.3373246,13.795123 17.1572622,12.999871 19.0155846,12.0736069 L21.2427344,17.4242424 L22.1606305,16.8935181 L22.1606305,14.7714554 L22.1764851,14.7639452 C22.6838313,14.470211 22.7873032,14.2774479 22.7163749,14.1547805 C22.6579633,14.0529749 22.4969143,14.0346165 22.1597961,14.1923317 L22.1597961,13.1867928 C22.5920417,12.9214306 22.6846658,12.743688 22.6170752,12.6276964 C22.5645048,12.5375734 22.4301582,12.5117048 22.1589616,12.6218551 L22.1589616,10.3879731 C25.874772,8.2300281 26.7684691,7.04507762 26.4129929,6.42673375 Z" id="Shape"></path>
            </g>
        </g>
    </g>
</svg>