<?xml version="1.0" encoding="UTF-8"?>
<svg width="26px" height="20px" viewBox="0 0 26 20" version="1.1" xmlns="http://www.w3.org/2000/svg" xmlns:xlink="http://www.w3.org/1999/xlink">
    <!-- Generator: Sketch 49.3 (51167) - http://www.bohemiancoding.com/sketch -->
    <title>mail</title>
    <desc>Created with Sketch.</desc>
    <defs></defs>
    <g id="Page-1" stroke="none" stroke-width="1" fill="none" fill-rule="evenodd">
        <g id="CA-3---Messages-1" transform="translate(-167.000000, -462.000000)" fill="#ffffff" fill-rule="nonzero">
            <g id="mail" transform="translate(167.000000, 462.000000)">
                <path d="M23.7639553,0.416666667 L2.07336523,0.416666667 C0.956937799,0.416666667 0,1.41666667 0,2.58333333 L0,17.4166667 C0,18.5833333 0.956937799,19.5833333 2.07336523,19.5833333 L23.6842105,19.5833333 C24.800638,19.5833333 25.7575758,18.5833333 25.7575758,17.4166667 L25.7575758,2.58333333 C25.8373206,1.41666667 24.8803828,0.416666667 23.7639553,0.416666667 Z M25.1196172,1.91666667 L16.4274322,9.83333333 L21.2121212,14.5 C21.3716108,14.6666667 21.3716108,14.9166667 21.2121212,15.0833333 C21.1323764,15.1666667 21.0526316,15.25 20.8931419,15.25 C20.8133971,15.25 20.6539075,15.25 20.5741627,15.1666667 L15.7894737,10.5 C15.7894737,10.5 15.7894737,10.5 15.7894737,10.4166667 L14.4338118,11.6666667 C14.0350877,12.0833333 13.476874,12.25 12.9186603,12.25 C12.3604466,12.25 11.8022329,12.0833333 11.4035088,11.6666667 L10.0478469,10.4166667 C10.0478469,10.4166667 10.0478469,10.4166667 10.0478469,10.4166667 L5.26315789,15.0833333 C5.18341308,15.1666667 5.10366826,15.1666667 4.94417863,15.1666667 C4.86443381,15.1666667 4.70494418,15.0833333 4.62519936,15 C4.46570973,14.8333333 4.46570973,14.5833333 4.62519936,14.4166667 L9.40988836,9.75 L0.717703349,1.83333333 C0.558213716,1.66666667 0.558213716,1.41666667 0.637958533,1.25 C0.797448166,1.08333333 1.03668262,1.08333333 1.19617225,1.16666667 L11.8819777,10.9166667 C12.4401914,11.4166667 13.3173844,11.4166667 13.8755981,10.9166667 L24.5614035,1.16666667 C24.7208931,1 24.9601276,1 25.1196172,1.25 C25.2791069,1.41666667 25.2791069,1.75 25.1196172,1.91666667 Z" id="Shape"></path>
            </g>
        </g>
    </g>
</svg>