<?xml version="1.0" encoding="UTF-8"?>
<svg width="33px" height="20px" viewBox="0 0 33 20" version="1.1" xmlns="http://www.w3.org/2000/svg" xmlns:xlink="http://www.w3.org/1999/xlink">
    <!-- Generator: Sketch 49.3 (51167) - http://www.bohemiancoding.com/sketch -->
    <title>Group 5 Copy</title>
    <desc>Created with Sketch.</desc>
    <defs></defs>
    <g id="Page-1" stroke="none" stroke-width="1" fill="none" fill-rule="evenodd">
        <g id="CA-3---Messages-1" transform="translate(-167.000000, -372.000000)" fill="#ffffff" fill-rule="nonzero">
            <g id="Group-5-Copy" transform="translate(167.000000, 368.000000)">
                <g id="Untitled-3-01" transform="translate(0.000000, 4.451567)">
                    <path d="M31.7216825,0.0646091764 L4.55142891,0.0646091764 C3.92904471,0.0657204524 3.42477942,0.569928121 3.42366802,1.19224121 L3.42366802,2.89126064 L1.21963756,2.89126064 C0.597253359,2.89237192 0.0929880735,3.39657959 0.0918766705,4.01889268 L0.0918766705,18.3833297 C0.0924333221,19.005873 0.597023138,19.5104052 1.21963756,19.5109618 L18.4662011,19.5109618 L18.4662011,19.0425452 C18.4662011,18.8474057 18.6244111,18.6892138 18.8195729,18.6892138 C19.0147348,18.6892138 19.1729448,18.8474057 19.1729448,19.0425452 L19.1729448,19.5109618 L28.3898912,19.5109618 C29.0125056,19.5104052 29.5170954,19.005873 29.5176521,18.3833297 L29.5176521,16.6843103 L31.7216825,16.6843103 C32.3442969,16.6837537 32.8488868,16.1792215 32.8494434,15.5566783 L32.8494434,1.19224121 C32.848332,0.569928121 32.3440667,0.0657204524 31.7216825,0.0646091764 Z M13.0575932,8.39111679 L11.1968382,10.2264212 L12.3528688,15.5768686 L12.3710422,15.6596491 C12.3889507,15.7742238 12.3540633,15.8907494 12.2761367,15.9766379 L12.1156049,16.1290752 L11.6774239,16.561149 C11.6473255,16.5963453 11.6013128,16.6137014 11.5554645,16.6071524 C11.5096161,16.6006034 11.4703042,16.5710595 11.4512659,16.5288445 L11.2311657,16.1250371 L10.9282756,15.569802 L9.11093488,12.274734 L8.66871531,12.7199316 L8.80602549,12.8582356 C8.95366089,13.006038 8.95366089,13.245478 8.80602549,13.3932804 L8.05990616,14.1302288 C7.91185812,14.2772935 7.67284832,14.2772935 7.52480028,14.1302288 L7.22695832,13.8304018 L6.77969057,14.1736381 L6.77969057,15.5768686 L6.77969057,16.1321037 L6.77969057,16.6873388 L6.77969057,16.779205 C6.77369647,16.8988868 6.72621885,17.0127487 6.64540929,17.1012414 L6.36473111,17.3778494 C6.33598942,17.4128699 6.29056701,17.4296305 6.24596343,17.421674 C6.20135984,17.4137174 6.16453615,17.3822855 6.14967912,17.3394877 L5.83972156,16.6873388 L5.57519752,16.1321037 L5.31168311,15.5768686 L4.95427277,14.8237679 L4.5271977,14.6137881 L3.97189914,14.3402086 L3.41660058,14.0656196 L2.50793021,13.618403 C2.46574585,13.6023039 2.43537716,13.5648974 2.42829224,13.5203092 C2.42120732,13.475721 2.43848574,13.4307452 2.47360267,13.402366 L2.75529048,13.123739 C2.84486667,13.04485 2.95907205,12.9995299 3.07837328,12.9955301 L3.41559095,13.0025968 L3.97088951,13.0157205 L4.52618806,13.0278347 L5.58832276,13.0510536 L5.97097395,12.5654753 L5.67717053,12.2676674 C5.53020612,12.1199817 5.53020612,11.8813178 5.67717053,11.7336321 L6.4242995,10.9966837 C6.57211874,10.8490652 6.81158614,10.8490652 6.95940538,10.9966837 L7.09570594,11.1349877 L7.50662687,10.7311804 L4.52214953,9.03518952 L3.96685097,8.71921026 L3.41155241,8.40323101 L3.34693585,8.36688835 C3.30556658,8.34685155 3.27708457,8.30731491 3.27118272,8.26173339 C3.26528086,8.21615187 3.28275428,8.17066633 3.31765647,8.14075623 L3.41155241,8.04788054 L3.91636928,7.55321653 C3.93249649,7.53762941 3.95046623,7.52406889 3.96987987,7.5128358 C4.04953437,7.46488299 4.1438326,7.44731613 4.23541355,7.4633694 L4.52517843,7.52999761 L9.57334714,8.69498182 L11.4855934,6.80819197 C12.5881135,5.72295971 14.1298242,5.02740154 14.4973309,5.39991382 C14.8648376,5.77242611 14.158094,7.30487501 13.0575932,8.39111679 Z M19.1729448,17.8422279 C19.1729448,18.0373674 19.0147348,18.1955593 18.8195729,18.1955593 C18.6244111,18.1955593 18.4662011,18.0373674 18.4662011,17.8422279 L18.4662011,16.6419105 C18.4662011,16.446771 18.6244111,16.2885791 18.8195729,16.2885791 C19.0147348,16.2885791 19.1729448,16.446771 19.1729448,16.6419105 L19.1729448,17.8422279 Z M19.1729448,15.4415932 C19.1729448,15.6367327 19.0147348,15.7949246 18.8195729,15.7949246 C18.6244111,15.7949246 18.4662011,15.6367327 18.4662011,15.4415932 L18.4662011,14.2402663 C18.4662011,14.0451267 18.6244111,13.8869349 18.8195729,13.8869349 C19.0147348,13.8869349 19.1729448,14.0451267 19.1729448,14.2402663 L19.1729448,15.4415932 Z M19.1729448,13.0399489 C19.1729448,13.2350885 19.0147348,13.3932804 18.8195729,13.3932804 C18.6244111,13.3932804 18.4662011,13.2350885 18.4662011,13.0399489 L18.4662011,11.8396316 C18.4662011,11.644492 18.6244111,11.4863001 18.8195729,11.4863001 C19.0147348,11.4863001 19.1729448,11.644492 19.1729448,11.8396316 L19.1729448,13.0399489 Z M19.1729448,10.6393142 C19.1729448,10.8344538 19.0147348,10.9926457 18.8195729,10.9926457 C18.6244111,10.9926457 18.4662011,10.8344538 18.4662011,10.6393142 L18.4662011,9.43798735 C18.4662011,9.24284779 18.6244111,9.08465592 18.8195729,9.08465592 C19.0147348,9.08465592 19.1729448,9.24284779 19.1729448,9.43798735 L19.1729448,10.6393142 Z M19.1729448,8.23766999 C19.1729448,8.43280956 19.0147348,8.59100143 18.8195729,8.59100143 C18.6244111,8.59100143 18.4662011,8.43280956 18.4662011,8.23766999 L18.4662011,7.03735264 C18.4662011,6.84221308 18.6244111,6.6840212 18.8195729,6.6840212 C19.0147348,6.6840212 19.1729448,6.84221308 19.1729448,7.03735264 L19.1729448,8.23766999 Z M19.1729448,5.83703528 C19.1729448,6.03217484 19.0147348,6.19036672 18.8195729,6.19036672 C18.6244111,6.19036672 18.4662011,6.03217484 18.4662011,5.83703528 L18.4662011,4.63671793 C18.4662011,4.44157836 18.6244111,4.28338649 18.8195729,4.28338649 C19.0147348,4.28338649 19.1729448,4.44157836 19.1729448,4.63671793 L19.1729448,5.83703528 Z M31.7388463,15.5566783 C31.7383445,15.5659407 31.730946,15.5733383 31.7216825,15.5738401 L29.5176521,15.5738401 L29.5176521,4.01889268 C29.5165407,3.39657959 29.0122754,2.89237192 28.3898912,2.89126064 L22.5047361,2.89126064 L22.5047361,2.85794654 C22.5047361,2.66280698 22.3465262,2.5046151 22.1513643,2.5046151 C21.9562024,2.5046151 21.7979925,2.66280698 21.7979925,2.85794654 L21.7979925,2.89126064 L19.1729448,2.89126064 L19.1729448,3.4323625 C19.1729448,3.62750206 19.0147348,3.78569393 18.8195729,3.78569393 C18.6244111,3.78569393 18.4662011,3.62750206 18.4662011,3.4323625 L18.4662011,2.88823209 L4.5332555,2.88823209 L4.5332555,1.19224121 C4.53416955,1.18316847 4.54134549,1.17599334 4.55041927,1.1750794 L21.7979925,1.1750794 L21.7979925,1.59201049 C21.7979925,1.78715005 21.9562024,1.94534192 22.1513643,1.94534192 C22.3465262,1.94534192 22.5047361,1.78715005 22.5047361,1.59201049 L22.5047361,1.1750794 L31.7216825,1.1750794 C31.730946,1.17558115 31.7383445,1.18297879 31.7388463,1.19224121 L31.7388463,15.5566783 Z" id="Shape"></path>
                </g>
            </g>
        </g>
    </g>
</svg>