<?xml version="1.0" encoding="UTF-8"?>
<svg width="23px" height="23px" viewBox="0 0 23 23" version="1.1" xmlns="http://www.w3.org/2000/svg" xmlns:xlink="http://www.w3.org/1999/xlink">
    <!-- Generator: Sketch 49.3 (51167) - http://www.bohemiancoding.com/sketch -->
    <title>Group 5 Copy</title>
    <desc>Created with Sketch.</desc>
    <defs></defs>
    <g id="Page-1" stroke="none" stroke-width="1" fill="none" fill-rule="evenodd">
        <g id="CA-3---Messages-1" transform="translate(-167.000000, -636.000000)" fill="#3E5970" fill-rule="nonzero">
            <g id="Group-5-Copy" transform="translate(167.000000, 636.000000)">
                <g id="Group-6">
                    <g id="settings">
                        <path d="M21.8227243,9.08564863 C22.5097894,9.20096094 23.009473,9.79193649 22.9998637,10.488615 L22.9998637,12.511385 C22.9998637,13.2080635 22.5001801,13.7990391 21.813115,13.9143514 L20.1987523,14.1834134 C20.0353942,14.7215375 19.8143802,15.2452475 19.5501244,15.7497389 L20.5014453,17.0854397 C20.905036,17.6523919 20.8377709,18.4259453 20.3476965,18.9160226 L18.9159105,20.347817 C18.6468501,20.616879 18.2913059,20.7658241 17.9117385,20.7658241 C17.6138501,20.7658241 17.3255711,20.6745352 17.0853385,20.5015667 L15.7544502,19.5502402 C15.2547665,19.8144976 14.7310596,20.0307082 14.188134,20.1988719 L13.9142689,21.8132442 C13.7989573,22.5003133 13.2079853,23 12.5113109,23 L10.4837482,23 C9.78707384,23 9.19610178,22.5003133 9.08079016,21.8132442 L8.81172971,20.1988719 C8.28802276,20.0355128 7.77872977,19.8289116 7.29346003,19.5742636 L5.94335313,20.5351995 C5.70312059,20.708168 5.41964619,20.7994569 5.12175783,20.7994569 C4.74219042,20.7994569 4.38664625,20.6505118 4.1175858,20.3814498 L2.68579984,18.9496553 C2.1909208,18.459578 2.12846034,17.6860247 2.53205101,17.1190725 L3.47856723,15.8025903 C3.20950679,15.3029037 2.98849285,14.7791936 2.82033006,14.2410696 L1.18674877,13.9623982 C0.499683691,13.8470859 0,13.2561103 0,12.5594318 L0,10.5366618 C0,9.83998329 0.499683691,9.24900773 1.18674877,9.13369543 L2.78189286,8.86463338 C2.94525099,8.32170462 3.15665563,7.79799457 3.42091142,7.29350324 L2.45998125,5.94338834 C2.05639058,5.37643618 2.12365569,4.60288281 2.61373008,4.11280551 L4.05032069,2.68101107 C4.31457649,2.41194903 4.6749253,2.26300397 5.05449272,2.26300397 C5.35238108,2.26300397 5.64066013,2.35429288 5.88089267,2.52726133 L7.20217166,3.47858784 C7.70185536,3.2095258 8.2255623,2.98851055 8.7636832,2.82034677 L9.04235295,1.1867558 C9.15766457,0.499686651 9.74863663,0 10.445311,0 L12.468069,0 C13.1647434,0 13.7557155,0.499686651 13.8710271,1.1867558 L14.1400875,2.78190934 C14.7022317,2.95007311 15.2451572,3.17589304 15.7640595,3.44975977 L17.0997525,2.49843326 C17.339985,2.3254648 17.6234594,2.23417589 17.9213478,2.23417589 C18.3009152,2.23417589 18.6564594,2.38312095 18.9255198,2.652183 L20.3573058,4.08397744 C20.8521848,4.57405473 20.9146453,5.34760811 20.5110546,5.91456027 L19.5597337,7.24545644 C19.8239895,7.7451431 20.0401988,8.26885314 20.2083616,8.81178191 L21.8227243,9.08564863 Z M11.5,6.69090909 C8.8463874,6.69090909 6.69090909,8.8463874 6.69090909,11.5 C6.69090909,14.1536126 8.8463874,16.3090909 11.5,16.3090909 C14.1536126,16.3090909 16.3090909,14.1536126 16.3090909,11.5 C16.3090909,8.8463874 14.1536126,6.69090909 11.5,6.69090909 Z" id="Combined-Shape"></path>
                    </g>
                </g>
            </g>
        </g>
    </g>
</svg>