<?xml version="1.0" encoding="iso-8859-1"?>
<!-- Generator: Adobe Illustrator 19.0.0, SVG Export Plug-In . SVG Version: 6.00 Build 0)  -->
<svg version="1.1" id="Capa_1" xmlns="http://www.w3.org/2000/svg" xmlns:xlink="http://www.w3.org/1999/xlink" x="0px" y="0px"
	 viewBox="0 0 446.694 446.694" style="enable-background:new 0 0 446.694 446.694;" xml:space="preserve">
<path style="fill:#00BBD3;" d="M439.38,120.424c-4.702-2.612-10.449-3.135-15.151-0.522l-106.057,55.38v95.608l105.535,55.38
	c2.09,1.045,4.702,1.567,7.314,1.567s5.747-0.522,8.359-2.09c4.702-2.612,7.314-7.837,7.314-13.584V134.008
	C446.694,128.784,444.082,123.559,439.38,120.424z"/>
<path style="fill:#4DCFE0;" d="M322.873,124.082c0-17.763-13.584-31.347-31.347-31.347H31.347C13.584,92.735,0,106.318,0,124.082
	v198.531c0,17.763,13.584,31.347,31.347,31.347h260.18c17.763,0,31.347-13.584,31.347-31.347v-51.2v-96.131V124.082z"/>
<path style="fill:#D4E1F4;" d="M103.967,153.339c-24.555,0-44.931,20.376-44.931,44.931S79.412,243.2,103.967,243.2
	s44.931-20.376,44.931-44.931C148.898,173.714,128.522,153.339,103.967,153.339z"/>
<g>
</g>
<g>
</g>
<g>
</g>
<g>
</g>
<g>
</g>
<g>
</g>
<g>
</g>
<g>
</g>
<g>
</g>
<g>
</g>
<g>
</g>
<g>
</g>
<g>
</g>
<g>
</g>
<g>
</g>
</svg>
