<?xml version="1.0" encoding="UTF-8"?>
<svg width="97px" height="78px" viewBox="0 0 97 78" version="1.1" xmlns="http://www.w3.org/2000/svg" xmlns:xlink="http://www.w3.org/1999/xlink">
    <!-- Generator: Sketch 46.2 (44496) - http://www.bohemiancoding.com/sketch -->
    <title>services-01</title>
    <desc>Created with Sketch.</desc>
    <defs></defs>
    <g id="website---desktop" stroke="none" stroke-width="1" fill="none" fill-rule="evenodd">
        <g id="req-flight---YOUR-VERSION-Copy" transform="translate(-191.000000, -1081.000000)" fill-rule="nonzero" fill="#3E5970">
            <g id="Group-7" transform="translate(0.000000, 937.000000)">
                <g id="Group-2" transform="translate(66.000000, 143.860365)">
                    <g id="services-01" transform="translate(125.000000, 0.000000)">
                        <path d="M83.6650478,52.1996169 C78.240475,52.7601818 72.886773,53.8716613 67.6864236,55.5169315 C67.155165,49.8242558 59.8401426,47.7765308 52.32079,46.2612142 C49.3600917,45.5935226 46.5015008,44.5330037 43.8206523,43.1077176 C40.8603554,41.3599465 37.5251329,40.3487877 34.0945332,40.1589935 C30.4886808,40.1986924 26.9032821,40.7080675 23.4284951,41.6743101 C22.7886021,39.5734809 21.0438297,37.9982116 18.8923639,37.5788599 L2.54594524,34.3434543 C1.9676487,34.2379882 1.37204108,34.3872124 0.911303376,34.7529993 C0.445185412,35.1346049 0.175067883,35.7060873 0.175714536,36.3092704 L0.175714536,68.1309179 C0.175714536,69.2392267 1.0722358,70.1376885 2.17815082,70.1376885 L14.4379648,70.1376885 C16.8452248,70.104877 18.9933952,68.6157082 19.873149,66.3698743 C24.3275481,68.4995084 44.8831696,78.0828617 53.5876375,78.0828617 C61.2704543,78.0828617 77.1264804,70.260552 87.6290543,65.1002848 C90.3670795,63.7487863 92.614712,62.6430147 94.0858897,61.9877427 C94.7970333,61.6692063 95.2593209,60.9662863 95.2710051,60.1857446 C95.5979334,55.4350225 90.6940078,52.1996169 83.6650478,52.1996169 Z M86.1578767,61.4962887 C76.6360878,66.2060563 60.6574636,74.0693206 53.8736998,74.0693206 C47.0899361,74.0693206 27.71943,65.5917388 21.1808625,62.3563332 L21.1808625,62.3563332 L23.5102272,45.9745327 C26.94049,44.9070395 30.5034416,44.3280129 34.0945332,44.2544436 C36.9764893,44.4028417 39.7801953,45.2457741 42.2677426,46.7117137 C45.2346491,48.2712323 48.395459,49.4281137 51.6669333,50.1518918 C60.2896691,51.9129354 63.9267473,53.7149334 63.9267473,56.1722035 C63.9527665,56.5968856 63.7501121,57.0030717 63.3954887,57.2370206 C62.1286412,58.1789741 57.2247156,59.7761996 38.8758607,54.247342 C37.8857971,54.0886369 36.9312262,54.6882302 36.6421703,55.6503871 C36.3531143,56.612544 36.8186885,57.6406334 37.7316114,58.0561106 C44.5462315,60.3600072 51.638427,61.7374387 58.8184915,62.1515607 C61.2461176,62.2858792 63.6564949,61.6712605 65.7248533,60.3905172 L66.0926478,60.0628811 L66.4604422,60.0628811 C72.0863584,58.2193931 77.8745623,56.9166281 83.7467799,56.1722035 C86.5949886,55.8638872 89.4229752,56.9096275 91.3887306,58.9980641 L86.1578767,61.4962887 Z" id="Shape"></path>
                        <path d="M18.6471676,24.923919 C18.6471676,26.6849626 20.4452737,28.0364611 22.7337723,28.2002791 C27.5171152,28.6118094 32.3215608,28.7212377 37.1186207,28.5279152 L46.5586775,28.5279152 L60.9026598,25.2925096 C70.3427166,23.1628755 80.1097018,21.1970594 89.5088925,18.5759713 L89.5088925,18.5759713 C93.1868367,17.4292453 97.6821018,13.7433402 96.946513,11.5317971 C96.088326,8.05066451 88.201179,6.45343896 80.6000943,8.17352801 L65.3161929,11.4908426 C62.7007659,11.4908426 41.6956179,2.35798883 37.1186207,0.187400264 C36.8531778,0.099886955 36.5667426,0.099886955 36.3012998,0.187400264 L33.8084709,0.760763282 L31.3156421,1.3341263 C30.8277394,1.46816515 30.4607502,1.87220762 30.3733304,2.37157893 C30.2859107,2.87095023 30.4937445,3.37605712 30.9069816,3.66853287 C33.6041407,5.47053093 41.5730198,10.8765251 48.6428458,15.9548833 L47.866391,15.9548833 L40.7148328,17.6340178 L33.032016,16.8968368 L20.2409434,8.70593653 C19.9154902,8.56221986 19.5447455,8.56221986 19.2192923,8.70593653 L15.7456783,9.56598106 C15.3638807,9.66205159 15.0455788,9.92537108 14.8791106,10.2828608 C14.7126424,10.6403506 14.7157207,11.0539721 14.8874913,11.4089336 L20.772202,22.220922 C19.5268576,22.532862 18.641343,23.6379653 18.6063016,24.923919 L18.6471676,24.923919 Z M18.1567751,11.4908426 L19.4644885,11.1632066 L32.0512309,19.3541069 C32.2232548,19.4664275 32.4192515,19.5365779 32.6233556,19.5588794 L40.5105026,20.2960604 L40.919163,20.2960604 L48.3159175,18.5350168 L51.9121296,17.6749723 C52.4061207,17.5517664 52.7838741,17.1524695 52.8803339,16.6515506 C52.9767936,16.1506318 52.7744269,15.6391396 52.3616561,15.3405657 C46.2726151,11.2451156 38.9167267,6.08484845 34.6666579,3.05421535 L36.3421658,2.68562484 C38.1402719,3.46376037 44.5153751,6.20771195 50.4409519,8.74689103 C64.2128096,14.6033847 65.1935947,14.3986122 65.7248533,14.2347942 L80.8861566,10.6717526 C88.4055092,8.99261804 93.6363632,10.9584341 94.2902199,12.0232511 C92.9156491,13.9598393 90.9510009,15.3969931 88.6915716,16.1187013 C79.2923808,18.5350168 69.5253957,20.7056054 60.0853389,22.794285 L45.8639547,26.0296906 L37.1186207,26.0296906 C31.8877667,26.0296906 24.8588067,26.0296906 23.6736914,25.7839636 L23.3058969,25.7839636 C22.5965464,25.8322366 21.899596,25.5796025 21.3851927,25.087737 C21.8580471,24.7733247 22.4115363,24.6026517 22.9789686,24.596283 C23.4019235,24.5473309 23.7746201,24.2950928 23.9779292,23.9201945 C24.1812382,23.5452961 24.1897037,23.0946779 24.0006197,22.712376 L18.1567751,11.4908426 Z" id="Shape"></path>
                    </g>
                </g>
            </g>
        </g>
    </g>
</svg>