<?xml version="1.0" encoding="UTF-8"?>
<svg width="29px" height="42px" viewBox="0 0 29 42" version="1.1" xmlns="http://www.w3.org/2000/svg" xmlns:xlink="http://www.w3.org/1999/xlink">
    <!-- Generator: Sketch 46.2 (44496) - http://www.bohemiancoding.com/sketch -->
    <title>PIN PARTIDA</title>
    <desc>Created with Sketch.</desc>
    <defs>
        <path d="M0.174239499,14.5628348 C0.174239499,21.877819 12.3628049,38.3649754 14.3045504,40.9447449 L14.8231692,40.9447449 C16.7649146,38.3649754 28.9539925,21.877819 28.9539925,14.5628348 C28.9539925,6.61597628 22.5117433,0.173214561 14.5638598,0.173214561 C6.61648874,0.173214561 0.174239499,6.61597628 0.174239499,14.5628348 Z" id="path-1"></path>
        <path d="M14.3342736,1.00341453 C15.1624237,0.518618744 16.2001737,0.273658507 17.4147255,0.273658507 C18.6615628,0.273658507 19.6911133,0.535017756 19.8838017,0.588827013 C20.3183755,0.704645033 20.6714667,1.02852551 20.8313571,1.45541229 C20.9917599,1.87819931 20.9379506,2.35940781 20.6924779,2.73607261 C20.6345689,2.82319235 19.2606392,4.92124091 17.2420234,6.09838247 L7.66448809,11.6950577 C7.47589945,11.8026762 7.2627123,11.8692972 7.04901268,11.8815964 L4.80593536,12.0184257 L4.7239403,12.0184257 C4.39954735,12.0184257 4.08386638,11.9020952 3.83378145,11.6950577 L0.515031461,8.93387408 C0.162965179,8.63971681 -0.0261359249,8.18771905 0.0107618514,7.7239345 C0.0481720968,7.26373724 0.310556284,6.84914972 0.703620095,6.62110097 L1.40109056,6.21471296 C1.61427771,6.09018296 1.8566756,6.02356198 2.10266078,6.02356198 C2.35274571,6.02356198 2.59873088,6.09018296 2.8124305,6.21881271 L5.03552152,7.54098303 C5.43371003,7.26373724 6.01997469,6.85734923 6.6554364,6.40945122 L1.78646734,3.78919664 C1.33959427,3.54884862 1.05261156,3.07993938 1.04441206,2.56644533 C1.03621255,2.05243881 1.30269649,1.57174278 1.74188252,1.31448328 L2.61154261,0.804576511 C2.82472976,0.680046516 3.06661518,0.613938 3.31311283,0.613938 C3.43610542,0.613938 3.55448578,0.630337012 3.67337862,0.663647504 L11.6391985,2.82319235 C12.9603439,1.88639881 13.846403,1.29398452 14.3342736,1.00341453 Z M15.0399436,2.23077806 C14.461366,2.57054508 13.2555261,3.40381986 11.9143945,4.36162464 L3.31311283,2.03194004 L2.44294027,2.54133434 L9.31771345,6.23521172 C7.49229846,7.56609402 5.09291807,9.2157321 5.09291807,9.2157321 L2.10266078,7.43746427 L1.40519031,7.84385228 L4.7239403,10.6045234 L6.96701762,10.4682066 C6.96701762,10.4682066 14.8062577,5.89134495 16.5450654,4.87101894 C18.2884853,3.85530515 19.5271232,1.95711955 19.5271232,1.95711955 C19.5271232,1.95711955 16.7787513,1.21096452 15.0399436,2.23077806 Z" id="path-3"></path>
    </defs>
    <g id="website---desktop" stroke="none" stroke-width="1" fill="none" fill-rule="evenodd">
        <g id="reqV2_step3" transform="translate(-579.000000, -633.000000)">
            <g id="Group-4" transform="translate(240.000000, 379.000000)">
                <g id="EmptyLegs-details-Map-+-Rectangle-3-Mask" transform="translate(0.000000, 80.000000)">
                    <g id="PIN-PARTIDA" transform="translate(339.000000, 174.000000)">
                        <g id="Group-3" transform="translate(0.000000, 0.204988)">
                            <mask id="mask-2" fill="white">
                                <use xlink:href="#path-1"></use>
                            </mask>
                            <g id="Clip-2"></g>
                            <polygon id="Fill-1" fill="#01B35C" mask="url(#mask-2)" points="-5.82164915 47.2834754 34.9503936 47.2834754 34.9503936 -5.82267409 -5.82164915 -5.82267409"></polygon>
                        </g>
                        <g id="Group-6" transform="translate(4.099753, 7.892024)">
                            <mask id="mask-4" fill="white">
                                <use xlink:href="#path-3"></use>
                            </mask>
                            <g id="Clip-5"></g>
                            <polygon id="Fill-4" fill="#FEFEFE" mask="url(#mask-4)" points="-4.1714986 16.1960739 25.1007373 16.1960739 25.1007373 -3.90398972 -4.1714986 -3.90398972"></polygon>
                        </g>
                    </g>
                </g>
            </g>
        </g>
    </g>
</svg>