<?xml version="1.0" encoding="UTF-8"?>
<svg width="29px" height="42px" viewBox="0 0 29 42" version="1.1" xmlns="http://www.w3.org/2000/svg" xmlns:xlink="http://www.w3.org/1999/xlink">
    <!-- Generator: Sketch 46.2 (44496) - http://www.bohemiancoding.com/sketch -->
    <title>PIN CHEGADA Copy</title>
    <desc>Created with Sketch.</desc>
    <defs>
        <path d="M0.324486694,14.6955518 C0.324486694,21.9213289 12.3654235,38.2074224 14.2834892,40.7557313 L14.7952771,40.7557313 C16.7133427,38.2074224 28.7537733,21.9213289 28.7537733,14.6955518 C28.7537733,6.84509997 22.3895819,0.481414737 14.53913,0.481414737 C6.68817192,0.481414737 0.324486694,6.84509997 0.324486694,14.6955518 Z" id="path-1"></path>
        <path d="M4.89109273,0.648467169 C5.16141394,0.369540229 5.52943551,0.217168162 5.90505037,0.217168162 C6.02097463,0.217168162 6.13791134,0.231342308 6.25282316,0.261715477 L7.21615885,0.512294126 C7.45205714,0.574559123 7.66770664,0.69757046 7.83931505,0.869178867 C7.92587858,0.955236181 7.99674931,1.04989923 8.05698943,1.15620532 L12.1123138,8.22859784 C13.6891875,8.49689417 14.7223815,8.70140684 15.265555,8.84011098 C16.1833309,9.0795528 17.0788332,9.63386315 17.9272571,10.482287 C18.7979546,11.3529845 19.3345473,12.2545615 19.4317414,12.4271823 C19.654478,12.8114029 19.6747268,13.2837057 19.488438,13.6937435 C19.3046803,14.1007439 18.9315966,14.3994134 18.4962478,14.4910392 C18.3950039,14.5117942 15.9702125,15.0170012 13.7377846,14.4297866 L3.13957329,11.6491229 C2.9320233,11.5924264 2.73712879,11.49017 2.57969453,11.349441 L0.9167635,9.87836716 L0.859560697,9.82116436 C0.632774365,9.59437803 0.493564004,9.29267121 0.463190835,8.97324671 L0.0739080458,4.72707761 C0.0334104865,4.27502361 0.217168162,3.82752558 0.56747205,3.52885608 C0.914738622,3.23322389 1.38704141,3.12742402 1.82137773,3.24284206 L2.59235002,3.44583608 C2.8282483,3.50810108 3.04339158,3.63111241 3.21601243,3.80272082 C3.39015194,3.97787277 3.51569437,4.19605337 3.57542827,4.43498897 L4.20415288,6.9109085 C4.67594945,6.99494094 5.36947015,7.12098959 6.12626829,7.25260666 L4.55546921,2.02133443 C4.41119665,1.54143835 4.53825774,1.01345142 4.89109273,0.648467169 Z M5.88530781,1.60825933 L8.10761138,8.98995195 C5.90302549,8.64471026 3.07427097,8.12077309 3.07427097,8.12077309 L2.22787198,4.79086127 L1.4568997,4.58736103 L1.84668871,8.83302391 L3.50961974,10.3051102 C3.50961974,10.3051102 12.1811596,12.5836041 14.1088435,13.0857739 C16.0355148,13.5940182 18.226939,13.1328523 18.226939,13.1328523 C18.226939,13.1328523 16.8282546,10.6923681 14.9015832,10.1901984 C14.2596969,10.0231459 12.8357014,9.76294912 11.229467,9.49465279 L6.8486435,1.85985041 L5.88530781,1.60825933 Z" id="path-3"></path>
    </defs>
    <g id="website---desktop" stroke="none" stroke-width="1" fill="none" fill-rule="evenodd">
        <g id="reqV2_step3" transform="translate(-891.000000, -568.000000)">
            <g id="Group-4" transform="translate(240.000000, 379.000000)">
                <g id="EmptyLegs-details-Map-+-Rectangle-3-Mask" transform="translate(0.000000, 80.000000)">
                    <g id="PIN-CHEGADA-Copy" transform="translate(651.000000, 109.000000)">
                        <g id="Group-3" transform="translate(0.000000, 0.268296)">
                            <mask id="mask-2" fill="white">
                                <use xlink:href="#path-1"></use>
                            </mask>
                            <g id="Clip-2"></g>
                            <polygon id="Fill-1" fill="#3E5970" mask="url(#mask-2)" points="-5.59828136 47.016654 34.6765414 47.016654 34.6765414 -5.44185954 -5.59828136 -5.44185954"></polygon>
                        </g>
                        <g id="Group-6" transform="translate(14.568414, 12.830491) rotate(-16.000000) translate(-14.568414, -12.830491) translate(4.568414, 5.330491)">
                            <mask id="mask-4" fill="white">
                                <use xlink:href="#path-3"></use>
                            </mask>
                            <g id="Clip-5"></g>
                            <polygon id="Fill-4" fill="#FEFEFE" mask="url(#mask-4)" points="-8.27218334 6.52562485 12.1740219 26.9718301 26.2135133 12.9318325 5.76730805 -7.51386654"></polygon>
                        </g>
                    </g>
                </g>
            </g>
        </g>
    </g>
</svg>