<?xml version="1.0" encoding="UTF-8"?>
<svg width="20px" height="21px" viewBox="0 0 20 21" version="1.1" xmlns="http://www.w3.org/2000/svg" xmlns:xlink="http://www.w3.org/1999/xlink">
    <!-- Generator: Sketch 46.2 (44496) - http://www.bohemiancoding.com/sketch -->
    <title>Shape</title>
    <desc>Created with Sketch.</desc>
    <defs></defs>
    <g id="Symbols" stroke="none" stroke-width="1" fill="none" fill-rule="evenodd">
        <g id="empty-leg-card-normal_state" transform="translate(-156.000000, -83.000000)" fill="#263D50">
            <g id="card-1">
                <g id="Group-9" transform="translate(20.000000, 65.000000)">
                    <g id="Group-27" transform="translate(116.000000, 0.000000)">
                        <path d="M30.5974191,23.6109691 L21.7420684,20.9666513 L20.2467257,22.4577817 C20.0837456,22.6215274 20.0837456,22.8865979 20.2473078,23.0491822 L27.4268735,26.9915616 L23.8162816,30.6555154 L21.0243738,30.0879219 L20.0927677,31.0178461 C19.9690774,31.1400747 19.9690774,31.3404018 20.0927677,31.4637917 L25.3631377,36.7213621 C25.4862459,36.8435907 25.6870607,36.8435907 25.8101689,36.7202008 L26.7417749,35.7914379 L26.1585389,32.9537608 L29.8171518,29.3536795 L33.7959042,36.5663264 C33.9600485,36.730072 34.2257643,36.730072 34.3893265,36.5663264 L35.8840871,35.0751959 L33.2158695,26.1824143 L36.1771603,23.4181905 C36.992643,22.6046883 37.0278584,21.3228851 36.2580683,20.5535129 C35.4885692,19.784431 34.2042276,19.8215931 33.3887449,20.6350954 L30.5974191,23.6109691 Z" id="Shape" transform="translate(28.406444, 28.406444) rotate(-315.000000) translate(-28.406444, -28.406444) "></path>
                    </g>
                </g>
            </g>
        </g>
    </g>
</svg>