<?xml version="1.0" encoding="UTF-8"?>
<svg width="45px" height="80px" viewBox="0 0 45 80" version="1.1" xmlns="http://www.w3.org/2000/svg" xmlns:xlink="http://www.w3.org/1999/xlink">
    <!-- Generator: Sketch 46.2 (44496) - http://www.bohemiancoding.com/sketch -->
    <title>SMART</title>
    <desc>Created with Sketch.</desc>
    <defs></defs>
    <g id="website---desktop" stroke="none" stroke-width="1" fill="none" fill-rule="evenodd">
        <g id="req-flight---YOUR-VERSION-Copy" transform="translate(-698.000000, -1075.000000)" fill-rule="nonzero" fill="#3E5970">
            <g id="Group-7" transform="translate(0.000000, 937.000000)">
                <g id="Group" transform="translate(547.000000, 138.860365)">
                    <g id="SMART" transform="translate(151.000000, 0.000000)">
                        <path d="M38.6490065,0.0207874178 L5.71653988,0.0207874178 C2.55938208,0.0207874178 0,2.5801695 0,5.7373273 L0,72.5792691 C0,75.7364269 2.55938208,78.295809 5.71653988,78.295809 L38.6438096,78.295809 C41.8009674,78.295809 44.3603495,75.7364269 44.3603495,72.5792691 L44.3603495,5.71653988 C44.3603495,2.55938208 41.8009674,0 38.6438096,0 L38.6490065,0.0207874178 Z M14.0574913,3.48708933 L30.3028582,3.48708933 C30.7186066,3.48708933 31.0564021,4.10031815 31.0564021,4.85386205 C31.0564021,5.60740594 30.7238035,6.23102847 30.3028582,6.23102847 L14.0574913,6.23102847 C13.6365461,6.23102847 13.3143411,5.61779965 13.3143411,4.85386205 C13.3143411,4.08992444 13.6365461,3.48708933 14.0574913,3.48708933 Z M22.1905685,74.2058846 C20.181468,74.2058846 18.5527704,72.5771869 18.5527704,70.5680865 C18.5527704,68.558986 20.181468,66.9302883 22.1905685,66.9302883 C24.1996689,66.9302883 25.8283666,68.558986 25.8283666,70.5680865 C25.8283666,72.5771869 24.1996689,74.2058846 22.1905685,74.2058846 L22.1905685,74.2058846 Z M40.0677477,64.4046171 L4.29779862,64.4046171 L4.29779862,9.64536184 L40.0677477,9.64536184 L40.0677477,64.4046171 Z" id="Shape"></path>
                        <path d="M28.9464792,29.4038024 C27.141034,27.660159 24.6980619,26.735588 22.1905685,26.84695 C17.2885015,27.0802739 13.4163511,31.0913662 13.3559159,35.9986107 C13.3482656,38.1536123 14.1009173,40.2422666 15.4814294,41.8970405 C17.4841192,44.2752781 18.5909798,47.2796138 18.6099358,50.3887007 C18.6099358,50.3887007 18.4020616,51.8074419 19.4102513,51.8074419 L25.7608075,51.8074419 C26.8001784,51.8074419 26.561123,50.3887007 26.561123,50.3887007 C26.6139289,47.2233109 27.7491981,44.1714726 29.7779759,41.7411349 C32.7266988,38.0332735 32.3687014,32.6903314 28.9516761,29.4089993 L28.9464792,29.4038024 Z M28.5151403,40.738142 C26.3021078,43.4069191 25.0485892,46.7410957 24.955295,50.2068108 L20.2053701,50.2068108 C20.1595342,46.784774 18.939474,43.4823555 16.7494619,40.8524728 C15.6134675,39.486517 14.993581,37.7648142 14.9981219,35.988217 C15.0479204,31.9435954 18.2338752,28.6347538 22.2737181,28.4319906 C25.2366196,28.3111328 27.9977175,29.929795 29.3395002,32.5742252 C30.681283,35.2186554 30.3571168,38.4027793 28.5099435,40.7225514 L28.5151403,40.738142 Z" id="Shape"></path>
                        <path d="M33.1611282,24.1393889 C33.0116846,23.9876745 32.8076279,23.9022487 32.5946711,23.9022487 C32.3817142,23.9022487 32.1776575,23.9876745 32.0282139,24.1393889 L30.0430155,26.098603 C29.8406398,26.3009786 29.7616031,26.5959476 29.8356777,26.8723979 C29.9097524,27.1488482 30.1256846,27.3647804 30.4021349,27.438855 C30.6785852,27.5129297 30.9735542,27.433893 31.1759298,27.2315173 L33.1351439,25.2723031 C33.2868583,25.1228596 33.3722841,24.9188029 33.3722841,24.705846 C33.3722841,24.4928891 33.2868583,24.2888324 33.1351439,24.1393889 L33.1611282,24.1393889 Z" id="Shape"></path>
                        <path d="M25.7867917,52.8987814 L19.3738734,52.8987814 C18.9318713,52.8987814 18.5735578,53.2570948 18.5735578,53.6990969 C18.5735578,54.141099 18.9318713,54.4994125 19.3738734,54.4994125 L25.7867917,54.4994125 C26.2287938,54.4994125 26.5871073,54.141099 26.5871073,53.6990969 C26.5871073,53.2570948 26.2287938,52.8987814 25.7867917,52.8987814 L25.7867917,52.8987814 Z" id="Shape"></path>
                        <path d="M24.5759247,55.9233506 L20.5899373,55.9233506 C20.1465001,55.9233506 19.7870233,56.2828275 19.7870233,56.7262646 C19.7870233,57.1697018 20.1465001,57.5291787 20.5899373,57.5291787 L24.5759247,57.5291787 C25.0193618,57.5291787 25.3788387,57.1697018 25.3788387,56.7262646 C25.3788387,56.2828275 25.0193618,55.9233506 24.5759247,55.9233506 Z" id="Shape"></path>
                        <path d="M22.5803325,24.1289952 C23.0223346,24.1289952 23.3806481,23.7706817 23.3806481,23.3286796 L23.3806481,20.5587562 C23.3806481,20.115319 23.0211713,19.7558422 22.5777341,19.7558422 C22.134297,19.7558422 21.7748201,20.115319 21.7748201,20.5587562 L21.7748201,23.3286796 C21.7734254,23.541361 21.8572962,23.7457357 22.0076879,23.8961274 C22.1580796,24.0465191 22.3624543,24.1303898 22.5751357,24.1289952 L22.5803325,24.1289952 Z" id="Shape"></path>
                        <path d="M15.0968622,27.2367141 C15.2485765,27.0872706 15.3340023,26.8832139 15.3340023,26.670257 C15.3340023,26.4573001 15.2485765,26.2532434 15.0968622,26.1037999 L13.137648,24.1445857 C12.8248024,23.8317401 12.3175794,23.8317401 12.0047338,24.1445857 C11.6918881,24.4574314 11.6918881,24.9646544 12.0047338,25.2775 L13.9639479,27.2367141 C14.2789318,27.5443542 14.7818783,27.5443542 15.0968622,27.2367141 L15.0968622,27.2367141 Z" id="Shape"></path>
                        <path d="M36.736564,33.9146721 L33.9666406,33.9146721 C33.5232035,33.9146721 33.1637266,34.2741489 33.1637266,34.7175861 C33.1637266,35.1610233 33.5232035,35.5205001 33.9666406,35.5205001 L36.736564,35.5205001 C37.1800012,35.5205001 37.5394781,35.1610233 37.5394781,34.7175861 C37.5394781,34.2741489 37.1800012,33.9146721 36.736564,33.9146721 Z" id="Shape"></path>
                        <path d="M11.1940245,33.9146721 L8.42410105,33.9146721 C7.98066388,33.9146721 7.62118704,34.2741489 7.62118704,34.7175861 C7.62118704,35.1610233 7.98066388,35.5205001 8.42410105,35.5205001 L11.1940245,35.5205001 C11.6374616,35.5205001 11.9969385,35.1610233 11.9969385,34.7175861 C11.9969385,34.2741489 11.6374616,33.9146721 11.1940245,33.9146721 L11.1940245,33.9146721 Z" id="Shape"></path>
                    </g>
                </g>
            </g>
        </g>
    </g>
</svg>