<?xml version="1.0" encoding="utf-8"?>
<!-- Generator: Adobe Illustrator 21.0.0, SVG Export Plug-In . SVG Version: 6.00 Build 0)  -->
<svg version="1.1" id="Layer_1" xmlns="http://www.w3.org/2000/svg" xmlns:xlink="http://www.w3.org/1999/xlink" x="0px" y="0px"
	 viewBox="0 0 421 145.2" style="enable-background:new 0 0 421 145.2;" xml:space="preserve">
<style type="text/css">
	.st0{fill:#FFFFFF;}
</style>
<g>
	<path class="st0" d="M28.4,84.3l-0.6,1.1c-0.1,0.1-0.2,0.2-0.4,0.2c-0.3,0-0.4,0-0.6-0.1c-2-0.1-4,1.5-4.5,3.6l-2.8,11.5
		c0,0.2-0.1,0.5-0.1,0.6c0,0.2,0.1,0.2,0.3,0.3l2.6,0.1c0.1,0,0.3,0.1,0.3,0.3l-0.3,1.4c0,0.2-0.1,0.3-0.4,0.3l-2.6-0.1
		c-0.2,0-0.4,0.1-0.4,0.3l-6.7,29.9c-0.7,3.4-3.9,6-7.2,5.8c-0.3,0-0.8-0.1-1.1-0.1c-0.2,0-0.3-0.1-0.3-0.2c0-0.2,0.1-0.3,0.2-0.5
		l0.6-1c0.1-0.1,0.2-0.2,0.4-0.2c0.3,0,0.4,0.1,0.6,0.1c2,0.1,4-1.5,4.4-3.6l6.5-29.3c0.1-0.5,0.2-0.9,0.2-1.1
		c0-0.2-0.1-0.2-0.3-0.3l-0.9,0c-0.2,0-0.3-0.1-0.3-0.3l0.3-1.4c0-0.2,0.2-0.3,0.4-0.3l0.9,0c0.2,0,0.3-0.1,0.4-0.3l2.8-11.6
		c0.7-3.4,3.9-5.9,7.3-5.8c0.3,0,0.7,0.1,1,0.1c0.2,0,0.3,0.1,0.3,0.2C28.5,84.1,28.4,84.2,28.4,84.3z"/>
	<path class="st0" d="M31.6,95l-4.2,19.9c0,0.2-0.2,0.4-0.4,0.4h-1.7c-0.2,0-0.3-0.1-0.3-0.2c0-0.1,0.2-0.8,0.4-1.9l4.1-19.5
		c0-0.2,0.2-0.3,0.4-0.3h1.7c0.2,0,0.3,0.1,0.3,0.2C31.9,93.6,31.8,94.3,31.6,95z"/>
	<path class="st0" d="M48.4,101.5L45,117.3c-0.7,3.5-3.3,6.1-7.3,6.1c-2.1,0-3.4-0.7-4.1-1.7c-0.3-0.5-0.6-1.1-0.6-1.3
		c0-0.1,0.1-0.3,0.3-0.3l1.4-0.6c0.1,0,0.3-0.1,0.4-0.1c0.1,0,0.1,0.1,0.2,0.2c0.5,1.2,1.7,2,2.9,2c2.1,0,4-1.6,4.5-3.7l0.7-3.5
		c0.1-0.3,0.2-0.7,0.2-0.8c0-0.2-0.1-0.3-0.2-0.3c-0.1,0-0.2,0-0.4,0.2c-1.3,1.3-2.7,1.9-3.5,1.9c-3.2,0-5-1.9-4.9-4.6
		c0-0.4,0.1-1,0.2-1.4l1.9-9.2c0-0.2,0.2-0.3,0.4-0.3h1.6c0.2,0,0.3,0.1,0.3,0.2c0,0.1-0.1,0.6-0.2,0.9l-1.7,8
		c-0.1,0.4-0.2,0.9-0.2,1.2c-0.1,1.7,1.2,3.1,3,3.1c2.6,0,4.2-2.2,4.5-3.7l2-9.4c0-0.2,0.2-0.3,0.4-0.3h1.6c0.2,0,0.3,0.1,0.3,0.2
		C48.6,100.2,48.5,100.8,48.4,101.5z"/>
	<path class="st0" d="M73.6,105.5l-0.8,4c-0.7,3.4-3.7,5.7-6.9,5.7c-0.9,0-2.1-0.5-3-2c-0.1-0.1-0.2-0.2-0.3-0.2
		c-0.2,0-0.3,0.1-0.4,0.4l-2,9.3c0,0.2-0.2,0.3-0.4,0.3h-1.7c-0.2,0-0.3-0.1-0.3-0.2c0-0.1,0.1-0.5,0.4-1.9l4.4-20.8
		c0-0.2,0.2-0.3,0.4-0.3h1.3c0.2,0,0.3,0.1,0.3,0.3l-0.3,1.6c0,0.2,0.1,0.3,0.2,0.3c0.1,0,0.2,0,0.4-0.2c1.5-1.5,3-2,3.8-2
		c3.3,0,5.1,1.9,5,4.6C73.8,104.7,73.7,105.1,73.6,105.5z M68.4,101.7c-2,0-4,1.6-4.5,3.7l-0.8,4c0,0.2-0.1,0.4-0.1,0.6
		c-0.1,1.7,1.2,3.1,3,3.1c2,0,4.1-1.7,4.5-3.7l0.8-4c0-0.2,0.1-0.4,0.1-0.6C71.4,103.1,70.2,101.7,68.4,101.7z"/>
	<path class="st0" d="M87.1,101.8c0,0.3-0.2,0.4-0.5,0.4h-0.5c-2.1,0-4,1.6-4.5,3.6l-1.9,9.1c0,0.2-0.2,0.4-0.4,0.4h-1.7
		c-0.2,0-0.3-0.1-0.3-0.2c0-0.1,0.2-0.9,0.3-1.5l2.8-13.4c0-0.2,0.2-0.3,0.4-0.3h1.3c0.2,0,0.3,0.1,0.3,0.3l-0.4,1.9
		c0,0.2,0.1,0.3,0.2,0.3c0.1,0,0.2,0,0.4-0.2c1.5-1.5,3.1-2.3,3.9-2.3h0.6c0.2,0,0.3,0.1,0.3,0.3L87.1,101.8z"/>
	<path class="st0" d="M94.1,101.3l-2.8,13.6c0,0.2-0.2,0.4-0.4,0.4h-1.7c-0.2,0-0.3-0.1-0.3-0.2c0-0.2,0.2-0.7,0.3-1.3l2.8-13.6
		c0-0.2,0.2-0.3,0.4-0.3h1.7c0.2,0,0.3,0.1,0.3,0.2C94.3,100.2,94.2,100.7,94.1,101.3z M94,95.9c-0.8,0-1.2-0.5-1.2-1.3
		c0-0.9,0.9-1.9,1.9-1.9c0.8,0,1.3,0.5,1.3,1.3C95.9,95,94.9,95.9,94,95.9z"/>
	<path class="st0" d="M112.5,100.2l-9,14.7c-0.1,0.1-0.2,0.2-0.4,0.2h-1.4c-0.1,0-0.2-0.1-0.3-0.2L99,101.7
		c-0.1-0.6-0.3-1.4-0.3-1.6c0-0.2,0.2-0.3,0.4-0.3h1.7c0.1,0,0.2,0.1,0.3,0.2l1.9,10.6c0.1,0.4,0.1,0.9,0.1,1.4h0.1
		c0.1-0.3,0.5-1.2,0.6-1.4l6.4-10.6c0.1-0.1,0.2-0.2,0.4-0.2h1.7c0.2,0,0.3,0.1,0.3,0.2C112.6,100.1,112.6,100.1,112.5,100.2z"/>
	<path class="st0" d="M127.9,101.3l-2.8,13.6c0,0.2-0.2,0.4-0.4,0.4h-1.3c-0.2,0-0.3-0.1-0.3-0.3l0.3-1.7c0-0.1-0.1-0.3-0.2-0.3
		c-0.1,0-0.3,0-0.4,0.2c-1.6,1.6-3,2.1-3.9,2.1c-3.2,0-5-1.9-4.9-4.6c0-0.4,0.1-0.8,0.1-1.2l0.8-4c0.7-3.4,3.5-5.7,7.2-5.7
		c0.9,0,2.1,0.5,3.1,2c0.1,0.1,0.2,0.2,0.3,0.2c0.2,0,0.4-0.1,0.4-0.4l0.3-1.5c0-0.2,0.2-0.3,0.4-0.3h1.3c0.2,0,0.3,0.1,0.3,0.2
		C128.2,100.1,128,100.8,127.9,101.3z M121.8,101.7c-2,0-4,1.6-4.5,3.7l-0.8,4c0,0.2-0.1,0.4-0.1,0.6c-0.1,1.7,1.2,3.1,3,3.1
		c2,0,4.1-1.7,4.5-3.7l0.8-4c0-0.2,0.1-0.4,0.1-0.6C124.8,103.1,123.6,101.7,121.8,101.7z"/>
	<path class="st0" d="M140.6,101.4c0,0.2-0.2,0.3-0.4,0.3h-2.5c-0.2,0-0.4,0.1-0.4,0.4l-1.6,7.7c0,0.2-0.1,0.5-0.1,0.7
		c0,1.4,0.8,2.6,2.3,2.9c0.1,0,0.2,0.1,0.2,0.3l-0.3,1.4c0,0.2-0.2,0.4-0.4,0.4s-0.9-0.1-1.4-0.3c-1.9-0.7-2.9-2.2-2.8-4.2
		c0-0.4,0.1-0.7,0.1-1.2l1.4-6.5c0.1-0.6,0.2-1.1,0.3-1.3c0-0.2-0.1-0.2-0.3-0.2h-2c-0.2,0-0.3-0.1-0.3-0.3l0.1-0.7l4.8-4.2
		c0.1-0.1,0.2-0.1,0.3-0.1h0.6c0.2,0,0.3,0.1,0.3,0.3l-0.5,2.7c0,0.2,0.1,0.3,0.3,0.3h2.5c0.2,0,0.3,0.1,0.3,0.3L140.6,101.4z"/>
	<path class="st0" d="M156.4,105.1l-0.5,2.1c0,0.2-0.2,0.4-0.4,0.4h-9.1c-0.2,0-0.4,0.1-0.4,0.3l-0.4,1.7c0,0.2-0.1,0.6-0.1,0.8
		c-0.1,1.7,1.1,3.1,2.9,3.1c1.2,0,2.6-0.8,3.7-2c0.1-0.1,0.2-0.1,0.3-0.1c0.1,0,0.2,0.1,0.4,0.1l1.1,0.6c0.1,0.1,0.2,0.1,0.2,0.2
		c0,0.2-0.3,0.6-0.8,1c-1.2,1.2-2.8,2.1-5.2,2.1c-3.2,0-5-1.8-4.9-4.5c0-0.4,0.1-0.8,0.1-1.2l1-4.7c0.6-2.7,3.5-5.7,7.2-5.7
		c3.3,0,5,2.4,5,4.9C156.4,104.5,156.4,104.8,156.4,105.1z M151.1,101.4c-2,0-4,1.6-4.5,3.7c0,0.2-0.1,0.4-0.1,0.6
		c0,0.2,0.1,0.3,0.3,0.3h6.7c0.2,0,0.4-0.1,0.4-0.4c0.1-0.4,0.2-0.8,0.2-1.1C154.2,102.7,152.9,101.4,151.1,101.4z"/>
	<path class="st0" d="M182.2,101.3l-2.8,13.6c0,0.2-0.2,0.4-0.4,0.4h-1.3c-0.2,0-0.3-0.1-0.3-0.3l0.3-1.7c0-0.1-0.1-0.3-0.2-0.3
		c-0.1,0-0.3,0-0.4,0.2c-1.6,1.6-3,2.1-3.9,2.1c-3.2,0-5-1.9-4.9-4.6c0-0.4,0.1-0.8,0.1-1.2l0.8-4c0.7-3.4,3.5-5.7,7.2-5.7
		c0.9,0,2.1,0.5,3.1,2c0.1,0.1,0.2,0.2,0.3,0.2c0.2,0,0.4-0.1,0.4-0.4l0.3-1.5c0-0.2,0.2-0.3,0.4-0.3h1.3c0.2,0,0.3,0.1,0.3,0.2
		C182.4,100.1,182.3,100.8,182.2,101.3z M176,101.7c-2,0-4,1.6-4.5,3.7l-0.8,4c0,0.2-0.1,0.4-0.1,0.6c-0.1,1.7,1.2,3.1,3,3.1
		c2,0,4.1-1.7,4.5-3.7l0.8-4c0-0.2,0.1-0.4,0.1-0.6C179.1,103.1,177.8,101.7,176,101.7z"/>
	<path class="st0" d="M194.9,101.4c0,0.2-0.2,0.3-0.4,0.3h-2.5c-0.2,0-0.4,0.1-0.4,0.4l-1.6,7.7c0,0.2-0.1,0.5-0.1,0.7
		c0,1.4,0.8,2.6,2.3,2.9c0.1,0,0.2,0.1,0.2,0.3l-0.3,1.4c0,0.2-0.2,0.4-0.4,0.4s-0.9-0.1-1.4-0.3c-1.9-0.7-2.9-2.2-2.8-4.2
		c0-0.4,0.1-0.7,0.1-1.2l1.4-6.5c0.1-0.6,0.2-1.1,0.3-1.3c0-0.2-0.1-0.2-0.3-0.2h-2c-0.2,0-0.3-0.1-0.3-0.3l0.1-0.7l4.8-4.2
		c0.1-0.1,0.2-0.1,0.3-0.1h0.6c0.2,0,0.3,0.1,0.3,0.3l-0.5,2.7c0,0.2,0.1,0.3,0.3,0.3h2.5c0.2,0,0.3,0.1,0.3,0.3L194.9,101.4z"/>
	<path class="st0" d="M214.7,101.4c0,0.2-0.2,0.3-0.4,0.3h-2.5c-0.2,0-0.4,0.1-0.4,0.4l-1.6,7.7c0,0.2-0.1,0.5-0.1,0.7
		c0,1.4,0.8,2.6,2.3,2.9c0.1,0,0.2,0.1,0.2,0.3l-0.3,1.4c0,0.2-0.2,0.4-0.4,0.4s-0.9-0.1-1.4-0.3c-1.9-0.7-2.9-2.2-2.8-4.2
		c0-0.4,0.1-0.7,0.1-1.2l1.4-6.5c0.1-0.6,0.2-1.1,0.3-1.3c0-0.2-0.1-0.2-0.3-0.2h-2c-0.2,0-0.3-0.1-0.3-0.3l0.1-0.7l4.8-4.2
		c0.1-0.1,0.2-0.1,0.3-0.1h0.6c0.2,0,0.3,0.1,0.3,0.3l-0.5,2.7c0,0.2,0.1,0.3,0.3,0.3h2.5c0.2,0,0.3,0.1,0.3,0.3L214.7,101.4z"/>
	<path class="st0" d="M231.1,105.5l-2,9.4c0,0.2-0.2,0.4-0.4,0.4h-1.7c-0.2,0-0.3-0.1-0.3-0.2c0-0.1,0.1-0.5,0.2-1.1l1.7-8.4
		c0-0.2,0.1-0.4,0.1-0.6c0.1-1.7-1.2-3.1-3-3.1c-2,0-4,1.6-4.5,3.7l-2,9.4c0,0.2-0.2,0.4-0.4,0.4h-1.7c-0.2,0-0.3-0.1-0.3-0.2
		c0-0.2,0.1-0.6,0.3-1.5l4.2-19.9c0-0.2,0.2-0.3,0.4-0.3h1.7c0.2,0,0.3,0.1,0.3,0.2c0,0.2-0.1,0.6-0.2,1.1l-1.2,5.8
		c-0.1,0.6-0.2,1-0.2,1.2c0,0.2,0.1,0.3,0.2,0.3c0.1,0,0.2-0.1,0.3-0.2c1.5-1.5,3-1.9,3.8-1.9c2.8,0,4.8,1.9,4.7,4.6
		C231.2,104.7,231.2,105.1,231.1,105.5z"/>
	<path class="st0" d="M248.8,105.1l-0.5,2.1c0,0.2-0.2,0.4-0.4,0.4h-9.1c-0.2,0-0.3,0.1-0.4,0.3l-0.4,1.7c0,0.2-0.1,0.6-0.1,0.8
		c-0.1,1.7,1.1,3.1,2.9,3.1c1.2,0,2.6-0.8,3.7-2c0.1-0.1,0.2-0.1,0.3-0.1s0.2,0.1,0.4,0.1l1.1,0.6c0.1,0.1,0.2,0.1,0.2,0.2
		c0,0.2-0.3,0.6-0.8,1c-1.2,1.2-2.8,2.1-5.2,2.1c-3.2,0-5-1.8-4.9-4.5c0-0.4,0.1-0.8,0.1-1.2l1-4.7c0.6-2.7,3.5-5.7,7.2-5.7
		c3.3,0,5,2.4,5,4.9C248.9,104.5,248.9,104.8,248.8,105.1z M243.5,101.4c-2,0-4,1.6-4.5,3.7c0,0.2-0.1,0.4-0.1,0.6
		c0,0.2,0.1,0.3,0.3,0.3h6.7c0.2,0,0.3-0.1,0.4-0.4c0.1-0.4,0.2-0.8,0.2-1.1C246.6,102.7,245.3,101.4,243.5,101.4z"/>
	<path class="st0" d="M274.3,105.5l-0.8,4c-0.7,3.4-3.6,5.7-7.3,5.7c-0.9,0-2.1-0.5-3-2c-0.1-0.1-0.2-0.2-0.3-0.2
		c-0.2,0-0.4,0.1-0.4,0.4l-0.3,1.4c0,0.2-0.2,0.4-0.4,0.4h-1.3c-0.2,0-0.3-0.1-0.3-0.2c0-0.1,0.2-0.8,0.3-1.3l4.2-20.1
		c0-0.2,0.2-0.3,0.4-0.3h1.7c0.2,0,0.3,0.1,0.3,0.2c0,0.1-0.1,0.5-0.2,0.9l-1.3,6.2c-0.1,0.4-0.2,0.9-0.2,1c0,0.2,0.1,0.2,0.2,0.2
		c0.1,0,0.2-0.1,0.3-0.2c1.5-1.5,3-1.9,3.8-1.9c2.8,0,4.8,1.9,4.7,4.6C274.4,104.7,274.4,105.1,274.3,105.5z M269,101.7
		c-2,0-4,1.6-4.5,3.7l-0.8,4c0,0.2-0.1,0.4-0.1,0.6c-0.1,1.7,1.2,3.1,3,3.1c2,0,4.1-1.7,4.5-3.7l0.8-4c0-0.2,0.1-0.4,0.1-0.6
		C272.1,103.1,270.8,101.7,269,101.7z"/>
	<path class="st0" d="M291.7,105.1l-0.5,2.1c0,0.2-0.2,0.4-0.4,0.4h-9.1c-0.2,0-0.3,0.1-0.4,0.3l-0.4,1.7c0,0.2-0.1,0.6-0.1,0.8
		c-0.1,1.7,1.1,3.1,2.9,3.1c1.2,0,2.6-0.8,3.7-2c0.1-0.1,0.2-0.1,0.3-0.1s0.2,0.1,0.4,0.1l1.1,0.6c0.1,0.1,0.2,0.1,0.2,0.2
		c0,0.2-0.3,0.6-0.8,1c-1.2,1.2-2.8,2.1-5.2,2.1c-3.2,0-5-1.8-4.9-4.5c0-0.4,0.1-0.8,0.1-1.2l1-4.7c0.6-2.7,3.5-5.7,7.2-5.7
		c3.3,0,5,2.4,5,4.9C291.8,104.5,291.7,104.8,291.7,105.1z M286.4,101.4c-2,0-4,1.6-4.5,3.7c0,0.2-0.1,0.4-0.1,0.6
		c0,0.2,0.1,0.3,0.3,0.3h6.7c0.2,0,0.3-0.1,0.4-0.4c0.1-0.4,0.2-0.8,0.2-1.1C289.5,102.7,288.2,101.4,286.4,101.4z"/>
	<path class="st0" d="M308.3,102.6l-1.1,0.5c-0.2,0.1-0.3,0.2-0.5,0.2c-0.1,0-0.2-0.1-0.2-0.2c-0.5-1.1-1.7-1.9-3-1.9h-1.1
		c-2.7,0-3.6,1.5-3.6,2.8c-0.1,1.6,2.1,2,4.4,2.5c2,0.4,4.1,1,4,3.3c-0.1,2.5-2.4,5.8-6.7,5.8h-1.1c-2.1,0-3.3-0.7-4-1.6
		c-0.4-0.5-0.7-1.2-0.7-1.3c0-0.1,0.1-0.2,0.3-0.3l1.2-0.6c0.2-0.1,0.3-0.1,0.5-0.1c0.1,0,0.2,0.1,0.2,0.2c0.4,1.2,1.6,2,2.9,2h1.1
		c2.5,0,3.7-1.8,3.8-3c0.1-1.5-2.1-2-4.4-2.4c-2-0.4-4-0.9-3.9-3.2c0.1-2.6,2.4-5.7,6.5-5.7h1.1c2.2,0,3.4,0.7,4.1,1.7
		c0.3,0.4,0.6,0.9,0.6,1.2C308.7,102.4,308.5,102.6,308.3,102.6z"/>
	<path class="st0" d="M321.1,101.4c0,0.2-0.2,0.3-0.4,0.3h-2.5c-0.2,0-0.4,0.1-0.4,0.4l-1.6,7.7c0,0.2-0.1,0.5-0.1,0.7
		c0,1.4,0.8,2.6,2.3,2.9c0.1,0,0.2,0.1,0.2,0.3l-0.3,1.4c0,0.2-0.2,0.4-0.4,0.4c-0.2,0-0.9-0.1-1.4-0.3c-1.9-0.7-2.9-2.2-2.8-4.2
		c0-0.4,0.1-0.7,0.1-1.2l1.4-6.5c0.1-0.6,0.2-1.1,0.3-1.3c0-0.2-0.1-0.2-0.3-0.2h-2c-0.2,0-0.3-0.1-0.3-0.3l0.1-0.7l4.8-4.2
		c0.1-0.1,0.2-0.1,0.3-0.1h0.6c0.2,0,0.3,0.1,0.3,0.3l-0.5,2.7c0,0.2,0.1,0.3,0.3,0.3h2.5c0.2,0,0.3,0.1,0.3,0.3L321.1,101.4z"/>
	<path class="st0" d="M345.9,105.5l-0.8,4c-0.7,3.4-3.7,5.7-6.9,5.7c-0.9,0-2.1-0.5-3-2c-0.1-0.1-0.2-0.2-0.3-0.2
		c-0.2,0-0.3,0.1-0.4,0.4l-2,9.3c0,0.2-0.2,0.3-0.4,0.3h-1.7c-0.2,0-0.3-0.1-0.3-0.2c0-0.1,0.1-0.5,0.4-1.9l4.4-20.8
		c0-0.2,0.2-0.3,0.4-0.3h1.3c0.2,0,0.3,0.1,0.3,0.3l-0.3,1.6c0,0.2,0.1,0.3,0.2,0.3c0.1,0,0.2,0,0.4-0.2c1.5-1.5,3-2,3.8-2
		c3.3,0,5.1,1.9,5,4.6C346,104.7,346,105.1,345.9,105.5z M340.6,101.7c-2,0-4,1.6-4.5,3.7l-0.8,4c0,0.2-0.1,0.4-0.1,0.6
		c-0.1,1.7,1.2,3.1,3,3.1c2,0,4.1-1.7,4.5-3.7l0.8-4c0-0.2,0.1-0.4,0.1-0.6C343.7,103.1,342.4,101.7,340.6,101.7z"/>
	<path class="st0" d="M359.3,101.8c0,0.3-0.2,0.4-0.5,0.4h-0.5c-2.1,0-4,1.6-4.5,3.6l-1.9,9.1c0,0.2-0.2,0.4-0.4,0.4h-1.7
		c-0.2,0-0.3-0.1-0.3-0.2c0-0.1,0.2-0.9,0.3-1.5l2.8-13.4c0-0.2,0.2-0.3,0.4-0.3h1.3c0.2,0,0.3,0.1,0.3,0.3l-0.4,1.9
		c0,0.2,0.1,0.3,0.2,0.3c0.1,0,0.2,0,0.4-0.2c1.5-1.5,3.1-2.3,3.9-2.3h0.6c0.2,0,0.3,0.1,0.3,0.3L359.3,101.8z"/>
	<path class="st0" d="M366.3,101.3l-2.8,13.6c0,0.2-0.2,0.4-0.4,0.4h-1.7c-0.2,0-0.3-0.1-0.3-0.2c0-0.2,0.2-0.7,0.3-1.3l2.8-13.6
		c0-0.2,0.2-0.3,0.4-0.3h1.7c0.2,0,0.3,0.1,0.3,0.2C366.6,100.2,366.4,100.7,366.3,101.3z M366.2,95.9c-0.8,0-1.2-0.5-1.2-1.3
		c0-0.9,0.9-1.9,1.9-1.9c0.8,0,1.3,0.5,1.3,1.3C368.1,95,367.2,95.9,366.2,95.9z"/>
	<path class="st0" d="M383,102.7l-1.2,0.6c-0.3,0.1-0.4,0.2-0.6,0.2c-0.1,0-0.2,0-0.2-0.1c-0.6-1.2-1.7-1.9-2.9-1.9
		c-2,0-4,1.6-4.5,3.7l-1,4.7c0,0.2,0,0.4-0.1,0.6c-0.1,1.7,1.1,3.1,2.9,3.1c1.2,0,2.6-0.8,3.7-2c0.1-0.1,0.2-0.1,0.3-0.1
		s0.2,0.1,0.4,0.2l1,0.6c0.1,0.1,0.2,0.1,0.2,0.2c0,0.2-0.4,0.7-0.9,1.2c-1.2,1.2-2.8,2-5.1,2c-3.2,0-5-1.8-4.9-4.5
		c0-0.4,0.1-0.8,0.1-1.2l1-4.7c0.7-3.4,3.5-5.7,7.2-5.7c2.2,0,3.4,0.7,4.1,1.6c0.4,0.5,0.7,1.2,0.6,1.3
		C383.3,102.5,383.2,102.6,383,102.7z"/>
	<path class="st0" d="M399.2,105.1l-0.5,2.1c0,0.2-0.2,0.4-0.4,0.4h-9.1c-0.2,0-0.4,0.1-0.4,0.3l-0.4,1.7c0,0.2-0.1,0.6-0.1,0.8
		c-0.1,1.7,1.1,3.1,2.9,3.1c1.2,0,2.6-0.8,3.7-2c0.1-0.1,0.2-0.1,0.3-0.1c0.1,0,0.2,0.1,0.4,0.1l1.1,0.6c0.1,0.1,0.2,0.1,0.2,0.2
		c0,0.2-0.3,0.6-0.8,1c-1.2,1.2-2.8,2.1-5.2,2.1c-3.2,0-5-1.8-4.9-4.5c0-0.4,0.1-0.8,0.1-1.2l1-4.7c0.6-2.7,3.5-5.7,7.2-5.7
		c3.3,0,5,2.4,5,4.9C399.3,104.5,399.3,104.8,399.2,105.1z M393.9,101.4c-2,0-4,1.6-4.5,3.7c0,0.2-0.1,0.4-0.1,0.6
		c0,0.2,0.1,0.3,0.3,0.3h6.7c0.2,0,0.4-0.1,0.4-0.4c0.1-0.4,0.2-0.8,0.2-1.1C397,102.7,395.7,101.4,393.9,101.4z"/>
</g>
<g>
	<g>
		<path class="st0" d="M53.3,68H20.6c-0.7,0-0.9-0.3-0.8-1L32.4,7.6c0.1-0.7,0.5-1,1.2-1h4.7c0.7,0,0.9,0.3,0.8,1L27.6,61.4
			c-0.1,0.7,0.1,1,0.8,1h26c0.7,0,0.9,0.3,0.8,1L54.5,67C54.3,67.7,54,68,53.3,68z"/>
		<path class="st0" d="M86.3,68.9h-3.1c-10.6,0-15.9-6.5-13.9-16L79,7.6c0.1-0.7,0.5-1,1.2-1h4.8c0.7,0,0.9,0.3,0.8,1L76.1,53
			c-1.2,5.7,2.4,10.4,8.3,10.4h3.1c5.8,0,11.7-4.8,12.9-10.4L110,7.6c0.1-0.7,0.5-1,1.2-1h4.8c0.7,0,0.9,0.3,0.8,1L107.2,53
			C105.2,62.4,96.9,68.9,86.3,68.9z"/>
		<path class="st0" d="M159.8,68h-4.7c-0.3,0-0.7-0.2-0.8-0.5l-15.1-42.9c-0.3-0.7-0.9-2.7-1-3.5l-0.4,0.1
			c-0.3,2.3-2.9,14.9-4.5,22.6L128.3,67c-0.1,0.7-0.5,1-1.2,1h-4.7c-0.7,0-0.9-0.3-0.8-1l12.6-59.3c0.1-0.7,0.5-1,1.2-1h4.6
			c0.4,0,0.7,0.2,0.8,0.5l15,43.4c0.2,0.5,0.9,2.7,1,3.5l0.4-0.1c0.3-2.3,2.9-14.9,4.5-22.6l5-23.7c0.1-0.7,0.5-1,1.2-1h4.8
			c0.7,0,0.9,0.3,0.8,1L161,67C160.8,67.7,160.5,68,159.8,68z"/>
		<path class="st0" d="M215.6,68h-5.1c-0.5,0-0.9-0.2-0.9-0.7l-1-13.4c0-0.5-0.4-0.6-0.9-0.6h-18.7c-0.5,0-0.9,0.1-1.1,0.6
			l-6.7,13.4c-0.2,0.5-0.6,0.7-1.1,0.7H175c-0.7,0-1-0.3-0.9-0.8c0.1-0.5,0.7-1.6,1.2-2.4l30-57.4c0.2-0.5,0.6-0.7,1.1-0.7h3.8
			c0.5,0,0.9,0.2,0.9,0.7l5.6,56.8c0.2,1.5,0.3,2.6,0.3,3C216.8,67.7,216.3,68,215.6,68z M206.6,21.4c0-0.5-0.3-3-0.3-3.8h-0.4
			c-0.4,0.8-1.6,3.2-1.9,3.8l-12.6,25.4c-0.1,0.5,0.2,0.9,0.9,0.9h14.3c0.7,0,1.2-0.4,1.3-0.9L206.6,21.4z"/>
		<path class="st0" d="M240.2,68.9c-5.1,0-9.8-2.7-12.6-6.3c-1.3-1.8-2-3.1-1.9-3.7c0.1-0.3,0.3-0.6,0.9-0.8l5.6-2.4
			c0.8-0.4,1.5-0.7,1.8-0.7s0.6,0.2,0.7,0.6c0.9,3.6,3.8,5.6,7.2,5.6c4.9,0,9.8-4,10.8-8.8l9.5-44.8c0.1-0.7,0.5-1,1.2-1h7
			c0.7,0,0.9,0.3,0.8,1l-9.3,43.8C259.8,61.1,250.2,68.9,240.2,68.9z"/>
		<path class="st0" d="M309.7,68h-33.9c-0.7,0-0.9-0.3-0.8-1l12.6-59.4c0.1-0.7,0.5-1,1.2-1h33.9c0.7,0,0.9,0.3,0.8,1l-1.2,5.8
			c-0.1,0.7-0.5,1-1.2,1h-24.9c-0.7,0-1.1,0.3-1.2,1l-3.5,16.6c-0.1,0.7,0.1,1,0.8,1h20.4c0.7,0,0.9,0.3,0.8,1l-1.2,5.8
			c-0.1,0.7-0.5,1-1.2,1h-20.4c-0.7,0-1.1,0.3-1.2,1l-3.7,17.5c-0.1,0.7,0.1,1,0.8,1h24.9c0.7,0,0.9,0.3,0.8,1l-1.2,5.8
			C310.8,67.7,310.4,68,309.7,68z"/>
		<path class="st0" d="M369.9,14.4h-11.5c-0.7,0-1.1,0.3-1.2,1l-11,51.6c-0.1,0.7-0.5,1-1.2,1h-7c-0.7,0-0.9-0.3-0.8-1l11-51.6
			c0.1-0.7-0.1-1-0.8-1H336c-0.7,0-0.9-0.3-0.8-1l1.2-5.8c0.1-0.7,0.5-1,1.2-1h33.9c0.7,0,0.9,0.3,0.8,1l-1.2,5.8
			C371,14.1,370.6,14.4,369.9,14.4z"/>
		<path class="st0" d="M388.4,68.9h-4.2c-8,0-11.8-3.1-13.5-7.1c-0.6-1.4-0.9-2.3-0.8-2.8c0.1-0.4,0.2-0.6,0.7-0.8l5.6-2.5
			c0.6-0.3,1.6-0.8,2-0.8c0.3,0,0.6,0.2,0.7,0.7c0.9,3.6,3.8,5.6,7.1,5.6h4.2c4.9,0,9.8-4,10.8-8.8c1.3-6.1-3.9-8.7-9.6-11.5
			c-7-3.4-14.9-7.3-12.5-18.7c2.1-9.7,10.5-16.6,21.5-16.6h1.6c8,0,11.8,3.2,13.6,7.1c0.4,0.9,0.9,2.1,0.8,2.6
			c-0.1,0.4-0.3,0.7-0.8,0.9l-5.9,2.6c-0.7,0.3-1.2,0.6-1.6,0.6c-0.3,0-0.6-0.2-0.7-0.6c-1-3.5-3.8-5.5-7.1-5.5h-1.6
			c-4.9,0-9.8,4-10.8,8.8c-1.2,5.7,4.6,7.8,10.7,10.8c6.8,3.3,13.9,7.8,11.4,19.4C407.8,62.1,399.4,68.9,388.4,68.9z"/>
	</g>
</g>
</svg>
