<?xml version="1.0" encoding="utf-8"?>
<!-- Generator: Adobe Illustrator 22.1.0, SVG Export Plug-In . SVG Version: 6.00 Build 0)  -->
<svg version="1.1" id="Calque_1" xmlns="http://www.w3.org/2000/svg" xmlns:xlink="http://www.w3.org/1999/xlink" x="0px" y="0px"
	 viewBox="0 0 754 330" style="enable-background:new 0 0 754 330;" xml:space="preserve">
<style type="text/css">
	
		.st0{fill-rule:evenodd;clip-rule:evenodd;fill:none;stroke:#2C3C50;stroke-linecap:round;stroke-linejoin:round;stroke-miterlimit:2.6131;}
	
		.st1{fill-rule:evenodd;clip-rule:evenodd;fill:none;stroke:#2C3C50;stroke-linecap:round;stroke-linejoin:round;stroke-miterlimit:10;}
	.st2{fill:none;stroke:#2C3C50;stroke-linecap:round;stroke-linejoin:round;stroke-miterlimit:10;}
</style>
<g>
	<g>
		<path class="st0" d="M352.9,150.6h161.9c6.5,0,12.2,1.7,17.6,5.3c8.3,5.5,16.3,13.4,26.3,15.2c17,3,33.6,7.5,49.8,13.7
			c7.8,3,6.6,10.9-1.1,13.3c-12.4,3.9-33.1,5.1-56.7,5.3h-81.2 M593.2,201.2 M593.2,179.5 M554.6,170l0,13.5c0,2.1,1.7,3.8,3.8,3.8
			h16.7c2.1,0,3.8-1.7,3.8-3.8v-8.1 M547.2,166.4l-5.9,2.1c-0.3,0.1-0.4,0.5-0.1,0.7l6.1,3.6c0.1,0.1,0.2,0.1,0.3,0l6.9-2.4
			 M551.1,203.5 M551.1,171.6 M541.1,169l2.4,3.2c0.3,0.4,0.8,0.7,1.3,0.7h2.6 M542.4,170.8l-6.7,2.2c-1.8,0.6-3.8-0.1-4.8-1.8
			l-8.9-14.7c-0.6-1,0.1-2.3,1.3-2.3h6.2 M519.5,156.8c-0.4-0.6-1-0.9-1.6-0.9h-6.7c-1.1,0-1.9,0.9-1.9,1.9v10.9
			c0,1.1,0.9,1.9,1.9,1.9h14.1c1.1,0,1.8-1.2,1.2-2.2L519.5,156.8L519.5,156.8z M543.1,171.7l-8.1,2.9c-2.1,0.8-4.4,0-5.7-1.9
			l-2.8-4.3 M490,155.5c2.2,0,4.1,1.8,4.1,4l1.3,34.6c0,0.9-0.3,1.7-0.9,2.4c-0.6,0.7-1.4,1-2.3,1h-13.1c-0.9,0-1.7-0.3-2.3-1
			c-0.6-0.7-0.9-1.4-0.9-2.4l1.2-34.6c0.1-2.2,1.9-4,4.1-4H490L490,155.5z M487.5,159.5c0.6,0,1.1,0.3,1.4,0.8
			c1.7,3.2,1.7,6.4,0,9.5c-0.3,0.5-0.8,0.8-1.4,0.8H484c-0.6,0-1.1-0.3-1.4-0.9c-1.6-3.2-1.8-6.4,0-9.5c0.3-0.5,0.8-0.8,1.3-0.8
			H487.5L487.5,159.5z M469,159.5c0.6,0,1.1,0.3,1.4,0.8c1.7,3.2,1.7,6.4,0,9.5c-0.3,0.5-0.8,0.8-1.4,0.8c-1.2,0-2.3,0-3.5,0
			c-0.6,0-1.1-0.3-1.4-0.9c-1.6-3.2-1.8-6.4,0-9.5c0.3-0.5,0.8-0.8,1.3-0.8C466.6,159.5,467.8,159.5,469,159.5L469,159.5z
			 M452.4,159.5c0.6,0,1.1,0.3,1.4,0.8c1.7,3.2,1.7,6.4,0,9.5c-0.3,0.5-0.8,0.8-1.4,0.8c-1.2,0-2.3,0-3.5,0c-0.6,0-1.1-0.3-1.4-0.9
			c-1.6-3.2-1.8-6.4,0-9.5c0.3-0.5,0.8-0.8,1.3-0.8C450,159.5,451.2,159.5,452.4,159.5L452.4,159.5z M435.8,159.5
			c0.6,0,1.1,0.3,1.4,0.8c1.7,3.2,1.7,6.4,0,9.5c-0.3,0.5-0.8,0.8-1.4,0.8c-1.2,0-2.3,0-3.5,0c-0.6,0-1.1-0.3-1.4-0.9
			c-1.6-3.2-1.8-6.4,0-9.5c0.3-0.5,0.8-0.8,1.3-0.8C433.4,159.5,434.6,159.5,435.8,159.5L435.8,159.5z M419.1,159.5
			c0.6,0,1.1,0.3,1.4,0.8c1.7,3.2,1.7,6.4,0,9.5c-0.3,0.5-0.8,0.8-1.4,0.8c-1.2,0-2.3,0-3.5,0c-0.6,0-1.1-0.3-1.4-0.9
			c-1.6-3.2-1.8-6.4,0-9.5c0.3-0.5,0.8-0.8,1.3-0.8C416.8,159.5,417.9,159.5,419.1,159.5L419.1,159.5z M402.5,159.5
			c0.6,0,1.1,0.3,1.4,0.8c1.7,3.2,1.7,6.4,0,9.5c-0.3,0.5-0.8,0.8-1.4,0.8H399c-0.6,0-1.1-0.3-1.4-0.9c-1.6-3.2-1.8-6.4,0-9.5
			c0.3-0.5,0.8-0.8,1.3-0.8H402.5L402.5,159.5z M280.1,156.8c-0.5,0.2-0.8,0.6-0.8,1.2l0.7,11.8c0,0.5,0.4,0.9,0.9,1
			c32.4,8.4,55.6,6.8,71.2,0c1.2-0.5,1.9-1.7,1.8-3l-1-17.2c-0.1-1.6-1.4-2.9-3-2.9C323.5,147.1,299.7,149.6,280.1,156.8
			L280.1,156.8z M376.6,213.6c-16,0.4-28.9-1.1-48.8-4.8c-41-7.6-92.2-21.6-135.5-38.8c-1.4-0.5-1.9-2.2-1.1-3.4l3-4.5
			c0.7-1.1,1.8-1.6,3.1-1.7c31.1-0.5,60.8-5,91.2-6.3 M402.9,189.6c23.8-1.5,44.9,3.7,66.4,13.3c0.4,0.2,0.3,0.8-0.1,0.9
			c-24.8,3.3-46.1,6.2-66.9,8.1 M276.3,197.2c12.3-2.3,25.3-3.5,39-3.8c15.1-0.3,32.8-0.9,51.8-1.8 M385.8,210.2
			c-0.5-0.1-1-0.1-1.5-0.1c-1.7,0-3.4,0.5-4.7,1.3c-11.7,0.2-25.1-0.5-38.8-2.4c-0.2,0-0.3-0.2-0.4-0.4c0-0.2,0-0.4,0.2-0.5l32-20
			l0,0c5.2-3.2,17.3-3.3,24.7-2.3c1.8,0.2,3.4,1.1,4.6,2.5l14,16.2c0.4,0.5,0.3,1.2-0.3,1.4c-3,1.5-7.5,2.7-13.1,3.7 M375.4,186.9
			c8.9,1.6,17.1,1.5,24.7-0.1 M392.1,185.7c1,0,1,1.8,0,1.8c-0.7,0-5.5,0-5.5-0.9C386.6,185.7,391.4,185.7,392.1,185.7L392.1,185.7z
			 M362.5,194.4l13.8,1.4c0.5,0,0.9-0.1,1.2-0.5l5.5-7.4 M341.7,207.4l17,1.7l11.4-10.9l-11.5-1.2 M287.2,172.3
			c-0.7,0.4-1.2,1.1-1.2,2v14.8c0,1.2,1,2.2,2.2,2.2h17.4c1.2,0,2.2-1,2.2-2.2v-13.3 M262.2,193.4c0.9,0.9,4,4.2,5,4.4
			c0.9,0.2,3.6-1.3,4.6-1.8 M264.1,193.9c0.6,0.6,2.6,2.8,3.2,2.9c0.6,0.1,2.3-0.9,2.9-1.2 M284.6,171.7c-13,1.5-26.3,2.7-39.4,3.4
			c-0.4,0-0.6-0.5-0.2-0.7l11.8-8.3c0.1,0,0.1-0.1,0.2-0.1h18.8c0.9,0,3.1-0.9,3.9-1.5 M276.2,165.9l-0.1-3.3c0-0.3,0.2-0.6,0.4-0.8
			l2.9-1.6 M256.8,166l19.4-3.9 M230.3,158.6 M245.2,174.2 M246,175 M264.1,193.9 M140.2,101.9c0.1-1.3,64.8-4.6,64.8,0
			C205,106.3,140.2,103.6,140.2,101.9L140.2,101.9z M153.6,103.4c8.4-0.7,8.1-2.1-0.4-2.9 M205,101.9h-45.4 M151.7,100.7l-3.5-4.8
			c-0.4-0.5-0.1-1,0.5-1l32.8,0c9.1,0,17.2,0.2,24.9,6.2l69,53.8 M195.6,160.8l-41.8-57.4 M149.8,98c7-0.4,10.4-1.5,5.8-3.2
			 M149,96.8h8.2 M189.1,152.4h8.2c0.3,0,0.5-0.4,0.3-0.6L176,126.9c-0.1-0.1-0.2-0.1-0.3-0.1h-4.9 M193.5,158l32-0.4
			c0.5,0,0.7-0.6,0.4-0.9l-14.1-14.9c-0.3-0.3-0.7-0.3-1,0l-3.4,3c-0.3,0.2-0.7,0.2-1-0.1l-1-1.1c-0.3-0.3-0.2-0.7,0-1l3.2-3
			c0.3-0.3,0.3-0.7,0-1l-8.1-8.6c-0.3-0.3-0.7-0.3-1,0l-3,2.8c-0.1,0.1-0.3,0.2-0.5,0.2c-0.2,0-0.4-0.1-0.5-0.2l-1.9-2.2
			c-0.2-0.3-0.2-0.7,0-1l2.9-2.7c0.3-0.3,0.3-0.7,0-1l-15-15.9c-0.2-0.2-0.5-0.2-0.8,0l-2.8,2.6c-0.2,0.2-0.6,0.2-0.8,0l-3-3.5
			c-0.1-0.1-0.2-0.2-0.4-0.2h-16.5 M194.4,159.2h28.5"/>
		<path class="st0" d="M380.5,160.4h-6.9c-2.2,0-4,1.8-4,4v15.4c0,2.2,1.8,4,4,4h6.9c2.2,0,4-1.8,4-4v-15.4
			C384.5,162.2,382.7,160.4,380.5,160.4z"/>
	</g>
	<line class="st2" x1="549.1" y1="208.8" x2="549.7" y2="212.8"/>
	<line class="st2" x1="552.8" y1="212.7" x2="552.3" y2="208.5"/>
	<polyline class="st1" points="555.8,203.8 551.9,208.7 537.7,208.7 533.8,213.6 540.3,203.8 	"/>
	<polyline class="st2" points="555.8,203.8 552.5,208.1 551.9,208.7 549,208.7 537.7,208.7 533.8,213.6 540.3,203.8 	"/>
	<circle class="st1" cx="551.6" cy="218.5" r="4"/>
	<path class="st1" d="M557.7,218.8c0,3.4-2.7,6.1-6.1,6.1s-6.1-2.7-6.1-6.1s2.7-6.1,6.1-6.1c0.4,0,0.8,0,1.1,0.1
		C555.6,213.3,557.7,215.8,557.7,218.8z"/>
	<ellipse class="st1" cx="551.7" cy="218.5" rx="1.5" ry="1.4"/>
	<g>
		<path class="st2" d="M401.6,198.8l0.7,10.6l1.1,16.2h-2.5c-2.5-4.9-6.5-8.6-14.2-7.3l-1.9-19.4H401.6z"/>
		<circle class="st1" cx="385.8" cy="222.3" r="4"/>
		<path class="st1" d="M393.7,218.6c0.4,1,0.6,2.1,0.6,3.3c0,4.8-3.9,8.7-8.7,8.7c-4.8,0-8.7-3.9-8.7-8.7s4.1-8.8,8.9-8.8"/>
		<path class="st2" d="M397.3,220.9c0,0.3,0,0.7,0,1c0,6.7-5.4,12.1-12.1,12.1c-6.7,0-12.1-5.4-12.1-12.1c0-6.7,5.4-12.1,12.1-12.1
			c0.2,0-0.2,0,0,0"/>
	</g>
</g>
</svg>
