<?xml version="1.0" encoding="utf-8"?>
<!-- Generator: Adobe Illustrator 22.1.0, SVG Export Plug-In . SVG Version: 6.00 Build 0)  -->
<svg version="1.1" id="Calque_1" xmlns="http://www.w3.org/2000/svg" xmlns:xlink="http://www.w3.org/1999/xlink" x="0px" y="0px"
	 viewBox="0 0 754 330" style="enable-background:new 0 0 754 330;" xml:space="preserve">
<style type="text/css">
	.st0{fill:none;stroke:#2C3C50;stroke-linecap:round;stroke-linejoin:round;stroke-miterlimit:10;}
</style>
<g>
	<path class="st0" d="M251.3,184.1h7.6c0,0,1.7,0,1-1.9c-0.7-1.9-3.3-1.7-4.6-2c-1.3-0.2-18.7,0.2-40.7-1.7c-3.1-0.5-5,0-3.8,1.9"/>
	<path class="st0" d="M622.6,195.5c0,0,1-7.9-23.6-15.2c-3.4-1.1-32.6-9.3-53-11.2c-2.3-0.4-2.3-0.4-2.3-0.4l-2.4-1.7
		c0,0-24.1-16.4-40.8-16.6c-16.8-0.2-143.9,0-143.9,0s-45.9,0.3-70.8,3.7c-24.9,3.3-51.3,6.2-51.3,6.2l-1.4-0.9l-32.5,4.3
		c0,0-2.6,0-3.8,2.4c-1.2,2.4-2.1,5-2.1,5s-0.5,2.4,1.9,3.6c2.4,1.2,14.2,5.9,14.2,5.9l-4,3.6c0,0-0.5,1,1.2,1.2
		c1.7,0.2,15.7,0.7,15.7,0.7s2.6,0.5,4.7,0.2c2.1-0.2,23-2.1,23-2.1"/>
	<path class="st0" d="M391.9,219.8c10.7,0.2,21.1,0,27.6-0.7c17.6-2.1,63.8-7.1,64.2-7.1c0.4,0,61.6,0.1,61.6,0.1s3.6,0.2,4.8-1.1
		c2.6,0,32.6,0.2,48.4-2.8c15.8-3.1,21.9-5.1,24.1-12.6"/>
	<path class="st0" d="M225.6,186.6c0,0,60.8,27.3,127.5,31.2c0.6,0.7,0.6,0.7,0.6,0.7s9.4,0.5,21.3,0.9"/>
	<path class="st0" d="M453.7,199.9c-7.3-1.6-15.5-2.9-23.8-3c-17.6-0.2-79.8,0-79.8,0s-12.7,0-24,1.7c-11.3,1.7-39.7,7.6-55.4,3.9"
		/>
	<path class="st0" d="M549.8,211c0,0-40.9-0.1-50-0.7c-9.1-0.6-15.3-1.6-25.2-4.6"/>
	<path class="st0" d="M377.8,165.7c0,2.7,3.7,4.9,8.3,4.9c4.6,0,8.3-2.2,8.3-4.9c0-2.7-3.7-4.9-8.3-4.9
		C381.5,160.9,377.8,163,377.8,165.7z"/>
	<path class="st0" d="M404.5,165.7c0,2.7,3.6,4.9,8,4.9c4.4,0,8-2.2,8-4.9c0-2.7-3.6-4.9-8-4.9C408,160.9,404.5,163,404.5,165.7z"/>
	<path class="st0" d="M431.2,165.7c0,2.7,3.6,4.9,8.1,4.9c4.5,0,8.1-2.2,8.1-4.9c0-2.7-3.6-4.9-8.1-4.9
		C434.8,160.9,431.2,163,431.2,165.7z"/>
	<path class="st0" d="M454.1,203.7c0,1,0.9,1.9,1.9,1.9h20.4c1,0,1.9-0.8,1.9-1.9v-46.3c0-1-0.9-1.9-1.9-1.9H456
		c-1,0-1.9,0.8-1.9,1.9V203.7z"/>
	<path class="st0" d="M516.4,154.1L508,157c0,0-2,0.9-0.6,3.3c1.4,2.5,8.5,13.7,8.5,13.7s2,2.6,6,1.7c4-0.9,9.3-2.9,11.2-4.1
		c1.9-1.2,7.9-4.7,7.9-4.7"/>
	<path class="st0" d="M502.6,160.9c0,0-1.1-2.3-4.4-1.1c-2.8,0.6-5.8,1.7-5.8,1.7s-7.8,2.3-4.9,8.1c2.8,5.8,13.2,7.2,20.7,7
		c3.4-0.3,2.1-3,2.1-3L502.6,160.9z"/>
	<path class="st0" d="M419.4,219.1l-3.6-1.9c0,0,14.4-0.8,15-3.6c0.6-2.8-1.2-4-3.3-4.7c-2.1-0.6-40.5-8.7-40.5-8.7
		s-5.5-1.2-9.6-1.3c-4-0.2-8-0.7-27.6,2.2c0.2,0.5,3.6,16.6,3.6,16.6"/>
	<path class="st0" d="M349.8,201.5c0,0,19.3,3.6,33.5,1.8c2.8-0.6,5.7-1.4,1.8-3.4"/>
	<path class="st0" d="M387.8,200.5c0,0,2.9,3.8-3.7,2.6c6.9,2.2,42.4,12.7,42.4,12.7"/>
	<polyline class="st0" points="359.4,202.8 370.9,217.1 352.9,215.8 	"/>
	<line class="st0" x1="351" y1="207" x2="363.2" y2="207.8"/>
	<polyline class="st0" points="357.1,207.3 355.3,205.6 350.7,205.6 	"/>
	<path class="st0" d="M353.5,172.7c0,0,0.1,1.7-1.7,3c-1.8,1.3-12.3,7.3-27.8,8c-15.4,0.7-27.8-3.7-31.7-4.7c-4-1-12.7-3.5-12.7-3.5
		l-0.8-13V162c0,0,18.9-7.8,31.3-8.9c12.3-1.1,33-3.2,39.6,0c2.3,1.2,2.3,1.3,2.5,3.2C352.5,158.3,353.5,172.7,353.5,172.7z"/>
	<path class="st0" d="M279.2,168.9l-16.1,1.7c0,0-0.7,0-0.7,0.6c0,0.6,0,2.6,0,2.6s0.1,0.6,0.6,0.6c0.6,0.1,16.5,0.4,16.5,0.4"/>
	<line class="st0" x1="279.4" y1="171.5" x2="262.4" y2="171.2"/>
	<polyline class="st0" points="200.5,163.6 198,160 228.2,160 	"/>
	<polyline class="st0" points="233,159.4 179.9,102.3 156.7,102.3 156.2,102.3 152.9,97.6 	"/>
	<path class="st0" d="M182.1,104.7l-2.8,2.4l-1.7-1.6l0.5-0.8l-2.1-1.7c0,0-0.2,0-1.3,0c-1,0-17.9,0-17.9,0l40.2,55.9h27.1
		c0,0,6.1-0.4,7.5-0.9"/>
	<polyline class="st0" points="191,150.4 201,150.4 176.6,123 171.3,123 	"/>
	<path class="st0" d="M151,94.9l-5.1-7c0,0-0.9-0.8,0.6-0.7c1.5,0.1,44,0.6,44,0.6s9.4-0.6,21,8.3c11.6,8.9,74.9,58,74.9,58"/>
	<polyline class="st0" points="284,152.3 277.1,153 208.6,100.3 211.7,96.3 	"/>
	<path class="st0" d="M209.2,96.3c0,0-0.6,2.1-13.6,2.4c-13,0.2-26.7-0.3-30.9-0.6c-4.2-0.2-9.4-0.6-13.3-0.6
		c-3.9,0.1-19.9-0.7-19.9-1.3c0-0.5,13.5-1.3,21.5-1.7c8.1-0.3,28.7-2.1,45.3-1C203.4,94.1,209.3,94.2,209.2,96.3z"/>
	<path class="st0" d="M202.5,94c0,0,11.9,1.8,0.9,4.2c0,0-35.9-0.5-44.4-1.2"/>
	<path class="st0" d="M156.9,94.4c0,0,7,1.9-0.4,3.2"/>
	<path class="st0" d="M158.2,97.3c1.9-1-0.2-2.5-0.2-2.5"/>
	<path class="st0" d="M154.3,97.6c5.2-1.1,0-3,0-3V97.6z"/>
	<path class="st0" d="M150.8,94.6c0,0,5,1.5,0.5,3"/>
	<path class="st0" d="M158.5,95c0,0,35.2-1.5,43-1"/>
	<path class="st0" d="M186.2,87.7l-0.5,0c0,0-0.6-3.5-4.5-0.1"/>
	<path class="st0" d="M379.7,199.1c0,0,10.5,3.2,1,3.7c-9.5,0.5-20.1,0-29.1-1.1"/>
	<path class="st0" d="M376.9,199.5c0,0,1.3,0.3,1.3,1.2c0.1,0.9-0.4,1.6-1.3,1.7c-1,0.2-4.6-0.6-4.6-0.6s-1.2,0-1.1-0.9
		c0.1-0.8,0.7-0.8,1.3-1C373.2,199.7,376.9,199.5,376.9,199.5z"/>
	<line class="st0" x1="376.9" y1="199.5" x2="376.9" y2="202.4"/>
	<line class="st0" x1="372.6" y1="199.9" x2="372.6" y2="202"/>
	<path class="st0" d="M353.1,164.3c0.3,3.5,0.4,6.8,0.2,8.8c-0.2,1.4-0.5,2.1-1.1,2.1c-1.5,0.1-2-4.6-2.3-10.5s-0.6-10.9,0.9-11
		c0.4,0,0.8,0.4,1.2,1C352.7,156.4,352.8,159.9,353.1,164.3z"/>
	<line class="st0" x1="560.3" y1="211" x2="559" y2="214.3"/>
	<line class="st0" x1="596.9" y1="208.3" x2="595.9" y2="212.7"/>
	<line class="st0" x1="559" y1="214.3" x2="595.9" y2="212.7"/>
	<g>
		<circle class="st0" cx="573.8" cy="223.2" r="6.5"/>
		<circle class="st0" cx="574" cy="223.1" r="3.5"/>
		<circle class="st0" cx="574.1" cy="223" r="2"/>
	</g>
	<line class="st0" x1="574.8" y1="213.7" x2="574.9" y2="216.6"/>
	<line class="st0" x1="573.5" y1="213.9" x2="573.6" y2="216.7"/>
	<line class="st0" x1="375.5" y1="212" x2="391.4" y2="212.3"/>
	<line class="st0" x1="391.9" y1="223.1" x2="391.5" y2="212.3"/>
	<line class="st0" x1="374.9" y1="223" x2="375.4" y2="212.1"/>
	<line class="st0" x1="391.7" y1="223.1" x2="389.7" y2="223.1"/>
	<line class="st0" x1="377.2" y1="223.1" x2="375" y2="223.1"/>
	<path class="st0" d="M389.6,223.1c-2.7-3.8-11.6-3.8-12.3-0.2"/>
	<path class="st0" d="M391.5,223.1c0.3,0.9,0.4,1.8,0.4,2.8c0,4.7-3.8,8.5-8.5,8.5s-8.5-3.8-8.5-8.5c0-1,0.2-1.9,0.5-2.8"/>
	<circle class="st0" cx="383.4" cy="225.7" r="3.9"/>
	<circle class="st0" cx="383.5" cy="225.7" r="2.3"/>
</g>
</svg>
