<?xml version="1.0" encoding="utf-8"?>
<!-- Generator: Adobe Illustrator 22.1.0, SVG Export Plug-In . SVG Version: 6.00 Build 0)  -->
<svg version="1.1" id="Calque_1" xmlns="http://www.w3.org/2000/svg" xmlns:xlink="http://www.w3.org/1999/xlink" x="0px" y="0px"
	 viewBox="0 0 754 330" style="enable-background:new 0 0 754 330;" xml:space="preserve">
<style type="text/css">
	.st0{fill:none;stroke:#2C3C50;stroke-linecap:round;stroke-linejoin:round;stroke-miterlimit:10;}
	.st1{fill:none;stroke:#2C3C50;stroke-width:0.5;stroke-linecap:round;stroke-linejoin:round;stroke-miterlimit:10;}
</style>
<g>
	<path class="st0" d="M347.4,146.5c0,0,124.2,3.8,158.3,5.2c34.2,1.4,53.5,21.4,56.7,23.4c3.1,1.9,28.6,10.1,39.4,14
		c10.8,3.8,12.7,9.1,12.7,9.1c0.5,6.6-14.3,8.2-17.8,8.5c-1.6,0.2-14.9,0.4-29.5,0.7v8.5l-4.2,0c-1.1,0.7-1.9,1.9-1.9,3.3
		c0,2.1,1.7,3.9,3.9,3.9c2.1,0,3.9-1.7,3.9-3.9c0-1.3-0.6-2.4-1.6-3.1"/>
	<path class="st0" d="M567.3,207.3c-1.6,0-35.6,0.5-39.4,0.5c-32.4,3.5-155.7,5.8-155.7,5.8s-0.2-1-0.2-2.4c-0.5-2.6-3-3-3-3
		s-11.2,0-13.4,0c-2.3,0-2.1,2.1-2.1,2.1v3.3c0,0-14.1-0.2-36.6-2.1c-22.5-1.9-97.1-27.7-97.1-27.7l-1.7-0.9c0,0-26.5,0.2-27.9,0.2
		c-1.4,0-3-2.3-3-2.3s-3.3-6.6-3.3-7.1c0-0.5-1.7-3.7-1.7-3.7s-23.7-10.3-26.3-12.2c-2.6-1.9,0.2-4.2,0.2-4.2S136.6,73.2,136.3,71
		c-0.3-2.3,1.4-3,1.4-3s24.8,0,26.9,0c2.1,0,3.3,1.2,3.3,1.2l45.2,60c0,0,2.1,1.2,4,2.1c1.9,0.9,71.3,13.3,71.3,13.3l6.8,0.9"/>
	<line class="st0" x1="603.4" y1="189.6" x2="603.4" y2="205.7"/>
	<path class="st0" d="M559.8,173c0,0,0.7,1-4,1c-4.7,0-12,0-12,0l-2.1-1l-9.1-11.9v-1.4l4.7-0.8"/>
	<path class="st0" d="M526.9,160.2c0,0,1.7,0.2,3.1,1.9c1.4,1.7,8,10.8,8,10.8s2.1,2.6-1,2.6c-3.1,0-8,0-8,0s-2.3-0.3-3.5-2.8
		c-1.2-2.4-5.2-10.5-5.2-10.5s-0.9-2.1,1.2-2.1C523.5,160.2,526.9,160.2,526.9,160.2z"/>
	<path class="st0" d="M515.2,161.3c0,0,1.9,0.2,3.1,2.3c1.2,2.1,5.2,9.6,5.2,9.6s1,2.4-1.2,2.4c-2.3,0-5.8,0-5.8,0s-1.9,0.8-1.9-1.9
		c0-2.8,0-10.6,0-10.6S514.3,161.1,515.2,161.3z"/>
	<path class="st0" d="M466.7,199.3c0,2,1.7,3.7,3.7,3.7h14.1c2,0,3.7-1.7,3.7-3.7v-38.6c0-2-1.7-3.7-3.7-3.7h-14.1
		c-2,0-3.7,1.7-3.7,3.7V199.3z"/>
	<path class="st0" d="M450.3,167.5c0,2,1.7,3.7,3.7,3.7h2c2,0,3.7-1.7,3.7-3.7v-3.6c0-2-1.7-3.7-3.7-3.7h-2c-2,0-3.7,1.7-3.7,3.7
		V167.5z"/>
	<path class="st0" d="M426.9,167.5c0,2,1.7,3.7,3.7,3.7h1c2,0,3.7-1.7,3.7-3.7v-3.6c0-2-1.7-3.7-3.7-3.7h-1c-2,0-3.7,1.7-3.7,3.7
		V167.5z"/>
	<path class="st0" d="M402.5,166.7c0,2,1.7,3.7,3.7,3.7h2c2,0,3.7-1.7,3.7-3.7v-4c0-2-1.7-3.7-3.7-3.7h-2c-2,0-3.7,1.7-3.7,3.7
		V166.7z"/>
	<path class="st0" d="M378.6,166.7c0,2,1.7,3.7,3.7,3.7h1.9c2,0,3.7-1.7,3.7-3.7v-4c0-2-1.7-3.7-3.7-3.7h-1.9c-2,0-3.7,1.7-3.7,3.7
		V166.7z"/>
	<path class="st0" d="M355.3,166.7c0,2,1.7,3.7,3.7,3.7h2.2c2,0,3.7-1.7,3.7-3.7v-4c0-2-1.7-3.7-3.7-3.7H359c-2,0-3.7,1.7-3.7,3.7
		V166.7z"/>
	<path class="st0" d="M347.4,147.8l0,19.1c0,0,0,2.4-2.1,3.5c-2.1,1-12,8.2-41.3,6.1c-29.3-2.1-43.2-6.3-44.1-6.8
		c-0.9-0.5-2.1-2.6-2.1-2.6v-4"/>
	<path class="st0" d="M257.8,163v-9.6c0,0,0.3-1.9,2.8-2.8c2.4-0.9,15.5-2.6,16.9-2.8"/>
	<path class="st0" d="M155.3,154.3c0,0,2-1.2,11.3-1.7c9.2-0.5,88.4-4,102.3-3.5"/>
	<path class="st0" d="M161.5,68v4.9c0,0,3.3,2.4,0,2.4c-3.3,0-13.1,0-13.1,0l20.5,50.5"/>
	<path class="st0" d="M146.3,113.4h4.4c0,0,1.4,0.3,2.6,2.9c1.2,2.6,5.6,14.6,5.6,14.6s1.4,2.1,0,2.1c-1.4,0-7.9,0-7.9,0"/>
	<line class="st0" x1="175.1" y1="139.3" x2="178.6" y2="152"/>
	<path class="st0" d="M183.2,151.8c0.1,0.1,7.8,19,7.8,19"/>
	<path class="st0" d="M182.1,170c0,0,56.3,3.7,56.3,7.5c0,0-14.7,4.7-20.4,5.4"/>
	<line class="st0" x1="277.5" y1="147.9" x2="277.5" y2="173.5"/>
	<path class="st0" d="M257.8,155.8c-5.6,0.5-10.1,0.9-10.1,0.9s-3.7,1.5-3.7,2.7c0,1.2,2.6,1.7,3.1,2.1c0.2,0.2,5,0.7,10.6,1.2"/>
	<path class="st0" d="M281,174.1v14.2c0,0-1.1,4.4,5.2,4.4c6.3,0,18.6,0,18.6,0s2.7-1.9,2.7-4.9c0-3,0-11,0-11"/>
	<path class="st0" d="M488.2,194.6c17.6,3,34.8,7.3,39.7,13.2"/>
	<path class="st0" d="M307.5,186.4c1.5-0.1,2.4-0.1,2.4-0.1l134.1,2.9c0,0,9.8,0.7,22.8,2.3"/>
	<path class="st0" d="M259.9,196.9c0,0,11-5.1,21.1-7.7"/>
	<path class="st0" d="M385.4,187.9c0,0,2.3,4.4-1.1,4.7c-3.4,0.3-19.7-0.1-21.9-0.8c-2.2-0.7-7.1-1.9-0.7-4.4"/>
	<path class="st0" d="M358.7,190.1c0,0-36.4,11.6-37.7,21.8"/>
	<path class="st0" d="M386.2,190.1c0,0,12.5,5.3,15,9.4c1.5,2.5,0.4,4.7-5.1,6c-5.5,1.4-40.1,5.3-63.4-4.2"/>
	<path class="st0" d="M367.5,192.3l-7.9,8.6c0,0-0.4,0.5-2.6,0c-2.2-0.5-16.3-4-16.5-3.9"/>
	<line class="st0" x1="351.9" y1="199.7" x2="339" y2="213.1"/>
	<path class="st0" d="M399.5,197.7c0,0,30.5,0.8,24.2,7c-6.3,4-18.6,8.2-18.6,8.2"/>
	<path class="st0" d="M424.5,203c0,0,1.6,1.6-23.4,0"/>
	<path class="st0" d="M212.1,137.6c0,0,1.8,3.9-1.8,4c-3.7,0.1-31.2-0.2-46.4-5.1c-1.4-0.7-0.8-2.1-0.8-2.1l8.6-12.7
		c0,0,1-0.4,1.6-0.5c0.7-0.1,19-0.8,21.5,0.5c1.9,1.4,2.4,2.1,2.4,2.1L212.1,137.6z"/>
	<path class="st0" d="M197.2,123.8c0,0-1.1,2.1-6.3,2.1c-5.2,0-16.7-0.6-19.8-3.3"/>
	<line class="st0" x1="183" y1="125.9" x2="183" y2="140.1"/>
	<path class="st0" d="M353.5,213.6l4.2,5.8c0,0,1.7,1.8,0.8,3.6c-0.8,1.8,0,2.3,0,2.5c0,0,1.5,0.1,3.4,0.1c2.6,0,6.1,0,7.9,0
		c0.8,0,1.3,0,1.3,0s1.2,0,1.2-1.1c0-1.1,0-10.8,0-10.8"/>
	<path class="st0" d="M358,219.6c-1.5,1.8-2.4,4.1-2.4,6.7c0,5.8,4.7,10.5,10.5,10.5c5.8,0,10.5-4.7,10.5-10.5
		c0-3.5-1.7-6.5-4.3-8.5"/>
	<path class="st0" d="M567.4,210.4c4.1,0.8,6.8,4.4,6.8,8.8c0,5-4.1,9.1-9.1,9.1c-5,0-9.1-4.1-9.1-9.1c0-4,2.5-7.4,6.1-8.7l0.8-0.2"
		/>
	<line class="st0" x1="562.9" y1="207.5" x2="562.9" y2="215.9"/>
	<path class="st0" d="M555.1,207.5l-4.8,7.4c0,0-0.7,0.6,0,0.9c0.7,0.3,2.2,0.7,2.2,0.7l4.5-5.6h2l2.3-2.3v-1.3"/>
	<circle class="st0" cx="565.1" cy="219.2" r="1.7"/>
	<path class="st0" d="M361.9,225.5c-0.1,0.4-0.2,0.9-0.2,1.3c0,2.3,1.9,4.2,4.2,4.2c2.3,0,4.2-1.9,4.2-4.2c0-0.5,0-0.9-0.2-1.3"/>
	<path class="st0" d="M364.5,225.7c-0.2,0.3-0.3,0.6-0.3,1c0,1,0.8,1.7,1.7,1.7c1,0,1.7-0.8,1.7-1.7c0-0.4-0.2-0.8-0.4-1.1"/>
</g>
<path class="st0" d="M277.5,147.9c0,0,15.7-3.1,31.8-3.1c36.8,0,38.1,3,38.1,3"/>
<line class="st0" x1="347.4" y1="146.5" x2="338.6" y2="145.8"/>
</svg>
