<?xml version="1.0" encoding="utf-8"?>
<!-- Generator: Adobe Illustrator 22.1.0, SVG Export Plug-In . SVG Version: 6.00 Build 0)  -->
<svg version="1.1" id="Calque_1" xmlns="http://www.w3.org/2000/svg" xmlns:xlink="http://www.w3.org/1999/xlink" x="0px" y="0px"
	 viewBox="0 0 754 330" style="enable-background:new 0 0 754 330;" xml:space="preserve">
<style type="text/css">
	.st0{fill-rule:evenodd;clip-rule:evenodd;fill:#5E5E5E;stroke:#2C3C50;stroke-miterlimit:10;}
	.st1{fill:none;stroke:#2C3C50;stroke-linecap:round;stroke-linejoin:round;}
</style>
<g>
	<path class="st0" d="M600.5,219.8c0,0.2-0.1,0.4-0.3,0.6c-0.1,0.1-0.2,0.2-0.4,0.2v1c0,0,0,0,0,0c0.1,0,0.2,0.1,0.2,0.2
		c0.2,0.2,0.3,0.5,0.3,0.8v4.1h-0.3v2.5h0.3v1.2c0,0.3-0.1,0.6-0.3,0.8l-0.2,0.2v0.6h0.4c0.2,0,0.4,0.1,0.6,0.2
		c0.2,0.2,0.2,0.4,0.2,0.6v0.2c-0.4-0.2-0.8-0.2-1.2-0.3c-0.2,0-0.5,0-0.7,0h-0.4c-0.4,0-0.8,0.1-1.2,0.2c0-0.3,0.1-0.5,0.2-0.6
		c0.2-0.2,0.3-0.2,0.6-0.2h0.4v-0.6c-0.1-0.1-0.2-0.2-0.3-0.3c-0.2-0.2-0.2-0.5-0.2-0.8v-1.2h0.3v-2.5h-0.3v-4.1
		c0-0.4,0.1-0.6,0.2-0.8c0.1-0.1,0.2-0.2,0.2-0.2c0,0,0,0,0,0v-1c-0.1,0-0.2-0.1-0.3-0.2"/>
	<path class="st1" d="M594.3,225.9c0-0.2,0-0.3,0-0.5c0,0,0,0,0,0"/>
	<path class="st1" d="M366.9,241c-0.2,1.2-0.8,2.2-1.7,3c-1.2,1.2-2.6,1.8-4.3,1.8c-1.7,0-3.1-0.6-4.2-1.7c-0.1,0-0.1-0.1-0.2-0.2
		c-0.7-0.6-1.2-1.4-1.5-2.2c-0.3-0.7-0.4-1.3-0.4-2.1c0-0.2,0-0.4,0.1-0.7c0.1-1.4,0.7-2.6,1.8-3.7c1.2-1.2,2.6-1.8,4.4-1.8
		c1.3,0,2.5,0.4,3.5,1.1"/>
	<path class="st1" d="M321.1,156.2c0.9-0.5,2.1-0.4,2.8-1.2c0.1-0.2,0.2-0.4,0.2-0.6c0.1-1.3,0.1-6.3,0.1-8.7c0,0-0.1-12-0.2-12.6
		c-0.1-0.5-0.2-1-0.6-1.4c-0.3-0.4-2.9-1.9-3.4-2.1"/>
	<path class="st1" d="M138.6,67.4l-4.4-10.3c0.1-0.9,0.5-1.3,1.3-1.5l42.7-0.3c1.3,0,4.6,1,6.1,1.8c2.7,1.6,0.9,4,0.9,4
		c-0.2,0.3-1.2,0.9-1.5,1l-10.1,2.8c-0.2,0.1-0.3,0.3-0.1,0.4l58.5,61.2c1.1,0.9,6.6,2.4,8,2.5l78.9,0.3c0.4,0,0.7,0.1,1,0.2
		c0.2,0,0.3,0.1,0.5,0.2"/>
	<path class="st1" d="M320.7,130.1c0.4,0.4,0.2,1.2,0.3,2.5l0.1,23.9"/>
	<path class="st1" d="M401.2,180.9c-1-0.9-2.2-1.5-3.6-1.5c-1.4,0-2.6,0.5-3.6,1.5c-1,1-1.5,2.2-1.5,3.6v1.7c0,0.4,0,0.8,0.1,1.1
		c0.2,0.9,0.7,1.7,1.4,2.4c1,1,2.2,1.5,3.6,1.5c1.4,0,2.6-0.5,3.6-1.5c0.7-0.7,1.2-1.5,1.3-2.4c0.1-0.4,0.2-0.8,0.2-1.1v-1.7
		C402.7,183.1,402.2,181.9,401.2,180.9"/>
	<path class="st1" d="M404.7,184.5v1.7c0,0.4,0,0.8,0.1,1.1c0.2,0.9,0.7,1.7,1.4,2.4c1,1,2.2,1.5,3.6,1.5c1.4,0,2.6-0.5,3.6-1.5
		c0.7-0.7,1.1-1.5,1.3-2.4c0.1-0.4,0.2-0.8,0.2-1.1v-1.7c0-1.4-0.5-2.6-1.5-3.6c-1-0.9-2.2-1.5-3.6-1.5c-1.4,0-2.6,0.5-3.6,1.5
		C405.2,181.9,404.7,183.1,404.7,184.5"/>
	<path class="st1" d="M389.7,186.2v-1.7c0-1.4-0.5-2.6-1.5-3.6c-1-0.9-2.2-1.5-3.6-1.5c-1.4,0-2.6,0.5-3.6,1.5c-1,1-1.5,2.2-1.5,3.6
		v1.7c0,0.4,0,0.8,0.1,1.1c0.2,0.9,0.7,1.7,1.4,2.4c1,1,2.2,1.5,3.6,1.5c1.4,0,2.6-0.5,3.6-1.5c0.7-0.7,1.2-1.5,1.3-2.4
		C389.6,186.9,389.7,186.5,389.7,186.2"/>
	<path class="st1" d="M441.3,180.9c-1-0.9-2.2-1.5-3.6-1.5c-1.4,0-2.6,0.5-3.6,1.5c-1,1-1.5,2.2-1.5,3.6v1.7c0,0.4,0,0.8,0.1,1.1
		c0.2,0.9,0.7,1.7,1.4,2.4c1,1,2.2,1.5,3.6,1.5c1.4,0,2.6-0.5,3.6-1.5c0.7-0.7,1.2-1.5,1.4-2.4c0.1-0.4,0.1-0.8,0.1-1.1v-1.7
		C442.8,183.1,442.3,181.9,441.3,180.9"/>
	<path class="st1" d="M445.8,184.5v1.7c0,0.4,0,0.8,0.1,1.1c0.2,0.9,0.7,1.7,1.4,2.4c1,1,2.2,1.5,3.6,1.5c1.4,0,2.6-0.5,3.6-1.5
		c0.7-0.7,1.2-1.5,1.4-2.4c0.1-0.4,0.1-0.8,0.1-1.1v-1.7c0-1.4-0.5-2.6-1.5-3.6c-1-0.9-2.2-1.5-3.6-1.5c-1.4,0-2.6,0.5-3.6,1.5
		C446.3,181.9,445.8,183.1,445.8,184.5"/>
	<path class="st1" d="M419.1,186.2c0,0.4,0,0.8,0.1,1.1c0.2,0.9,0.7,1.7,1.4,2.4c1,1,2.2,1.5,3.6,1.5s2.6-0.5,3.6-1.5
		c0.7-0.7,1.2-1.5,1.4-2.4c0.1-0.4,0.1-0.8,0.1-1.1v-1.7c0-1.4-0.5-2.6-1.5-3.6c-1-0.9-2.2-1.5-3.6-1.5s-2.6,0.5-3.6,1.5
		c-1,1-1.5,2.2-1.5,3.6V186.2"/>
	<path class="st1" d="M370.8,242c-0.4,1.8-1.3,3.4-2.7,4.8c-1.9,2-4.4,3-7.2,3c-2.8,0-5.2-1-7.2-3c-0.4-0.3-0.7-0.7-1-1.1
		c-1.3-1.7-2-3.8-2-6.1c0-2.8,1-5.2,3-7.2c1.6-1.6,3.3-2.5,5.4-2.8"/>
	<path class="st1" d="M362.7,229.5c1.4,0.2,2.8,0.8,4,1.6"/>
	<path class="st1" d="M359,229.5c0.1,0,0.1,0,0.2,0c0.6-0.1,1.1-0.1,1.7-0.1c0.6,0,1.1,0,1.6,0.1c0.1,0,0.2,0,0.3,0"/>
	<path class="st1" d="M380.2,229.3c9.5,0.6,20.2,1.1,26.8,1.3c37.4,0.5,81.2-4.8,130.3-9c15.7-1.3,32.4,0.5,49-0.8"/>
	<path class="st1" d="M261.8,165.1c4.9-0.7,11-0.9,15.6-1.3c0.6-0.1,1.2-0.1,1.8-0.2c5.1-0.4,20.2-1.3,23.5-1.3"/>
	<path class="st1" d="M375.7,223.2c18.6,1.5,38.3,3.2,42.1,3.5c0.2,0,0.5,0,0.7,0c18.7-1.3,42.8-2.6,46.2-7.2c1-1.5,0.4-4.4-0.4-6.1
		c-0.2-0.2-2.5-4.2-14.3-4.5c-13.1,0.4-38,0.2-49.6,1.2l-94.6-1.7l-25.5-0.9c-5.9-0.2-10.7-0.8-13.7-2.9"/>
	<path class="st1" d="M266.7,204.6L243,180.1c-0.7-0.9-1.5-1.3-2.1-1.5l-3.3-0.4c-0.9,0.2-2.7-0.6-2.5,0.4l11.9,24.9
		c0.2,0.5,0.6,1,1.1,1.3c3.4,2.4,8.4,2.8,9.8,2.9c0.3,0,0.6,0,0.9,0.1l16.1,1.8c0,0,38.1,3.3,38.4,3.3c0.3,0,15.7,1.2,15.7,1.2
		l11.7,6.6c0.4-0.2,11.4,0.6,25.1,1.7"/>
	<path class="st1" d="M302.7,162.4c0.5,0.1,4,0.7,4.4,1.9c0,0.3,0.3,20.4,0,23.2c-0.1,1-1.6,1.4-2.2,1.6"/>
	<path class="st1" d="M617.2,169.5c-12.5-8.1-31.9-7.8-51.4-9c0,0-238-0.4-253.3-0.1c-0.4,0-3.2,0.3-5.3,0.7
		c-2.6,0.5-5.4,1.2-5.4,1.2"/>
	<path class="st1" d="M291.3,222.4c0.4,0.1,36.8,4.6,53.6,5.6c6.8,0.4,14.8,0.5,21.5,0.4"/>
	<line class="st1" x1="291.2" y1="222.4" x2="291.3" y2="222.4"/>
	<path class="st1" d="M163.1,191.8c37,11.1,70.1,19,103.8,25.7c7.8,1.6,24.4,4.9,24.5,4.9"/>
	<path class="st1" d="M563.6,174.7v37.5c0,3.4,1.7,5.2,5.2,5.2h12.8c3.5,0,5.2-1.8,5.2-5.2v-37.5c0-3.5-1.7-5.2-5.2-5.2h-12.8
		C565.3,169.5,563.6,171.2,563.6,174.7"/>
	<path class="st1" d="M635.2,183.1l-8.2,0.1c-1,0-4.3,0.2-5-0.4c-2.9-4.3-2.9-4.3-5.5-8.2c-0.3-0.5-0.7-1,0.1-1.2l6.4,0"/>
	<path class="st1" d="M601.6,173.2l10.1,0c0.8,0,1.5,0.3,2.1,0.7c0.1,0.1,0.2,0.2,0.2,0.2c1.8,3.7,1.9,3.9,4.2,8
		c0.3,0.5-0.2,0.9-1,1l-14.9-0.2c-0.8-0.1-0.8,0-1.2-0.5l0-8.2C601.3,173.6,601.1,173.5,601.6,173.2"/>
	<line class="st1" x1="598.8" y1="221.5" x2="598.8" y2="220.6"/>
	<path class="st1" d="M599.9,221.5c-0.1-0.1-0.3-0.1-0.5-0.1h-0.2c-0.2,0-0.4,0-0.5,0.1"/>
	<path class="st1" d="M598.8,221.5c-0.1,0-0.2,0.1-0.2,0.2c-0.2,0.2-0.2,0.5-0.2,0.8v4.1h0.3"/>
	<path class="st1" d="M598.2,220c0,0.2,0.1,0.3,0.2,0.4c0.2,0.2,0.4,0.2,0.6,0.2h0.5c0.2,0,0.5-0.1,0.7-0.2c0.2-0.2,0.2-0.2,0.2-0.4
		v-0.1"/>
	<path class="st1" d="M595,220.1c0.4,0,0.8,0,1.1,0"/>
	<line class="st1" x1="599.9" y1="221.5" x2="599.9" y2="220.6"/>
	<path class="st1" d="M600.1,226.6h0.3v-4.1c0-0.4-0.1-0.6-0.3-0.8c0-0.1-0.1-0.2-0.2-0.2"/>
	<path class="st1" d="M600.1,229.2h0.3v1.2c0,0.3-0.1,0.6-0.3,0.8c-0.1,0.1-0.2,0.2-0.2,0.2"/>
	<path class="st1" d="M601.1,233v-0.2c0-0.2-0.1-0.4-0.2-0.6c-0.2-0.2-0.4-0.2-0.6-0.2h-0.4"/>
	<line class="st1" x1="599.9" y1="232" x2="599.9" y2="231.4"/>
	<path class="st1" d="M598.8,231.5c0.1,0,0.3,0.1,0.4,0.1h0.2c0.1,0,0.3,0,0.4-0.1"/>
	<line class="st1" x1="600.1" y1="229.2" x2="600.1" y2="226.6"/>
	<path class="st1" d="M597.6,232.9c0.4-0.1,0.8-0.2,1.2-0.2c0.1,0,0.2,0,0.4,0c0.2,0,0.4,0,0.7,0c0.4,0,0.8,0.1,1.2,0.3"/>
	<path class="st1" d="M598.8,231.5c-0.1-0.1-0.2-0.2-0.3-0.3c-0.2-0.2-0.2-0.5-0.2-0.8v-1.2h0.3"/>
	<path class="st1" d="M598.8,232h-0.4c-0.2,0-0.4,0.1-0.6,0.2c-0.2,0.2-0.2,0.4-0.2,0.6"/>
	<line class="st1" x1="598.8" y1="232" x2="598.8" y2="231.5"/>
	<line class="st1" x1="598.6" y1="226.6" x2="598.6" y2="229.2"/>
	<path class="st1" d="M595,220.1l-1.7,5.1l-5.1,8.3c0,0.2,0,0.4,0.1,0.5c0,0.2,0.2,0.3,0.3,0.4c0.2,0,0.4,0,0.5-0.1
		c0.1,0,0.2-0.2,0.3-0.3l4.8-7.9"/>
	<line class="st1" x1="596.2" y1="220.1" x2="594.2" y2="225.5"/>
	<line class="st1" x1="598.6" y1="226.6" x2="600.1" y2="226.6"/>
	<line class="st1" x1="598.6" y1="229.2" x2="600.1" y2="229.2"/>
	<line class="st1" x1="599.9" y1="232" x2="598.8" y2="232"/>
	<path class="st1" d="M480.3,180.9c-1-0.9-2.2-1.5-3.6-1.5c-1.4,0-2.6,0.5-3.6,1.5c-1,1-1.5,2.2-1.5,3.6v1.7c0,0.4,0,0.8,0.1,1.1
		c0.2,0.9,0.7,1.7,1.4,2.4c1,1,2.2,1.5,3.6,1.5c1.4,0,2.6-0.5,3.6-1.5c0.7-0.7,1.1-1.5,1.3-2.4c0.1-0.4,0.2-0.8,0.2-1.1v-1.7
		C481.7,183.1,481.2,181.9,480.3,180.9"/>
	<path class="st1" d="M484.9,184.5v1.7c0,0.4,0,0.8,0.1,1.1c0.2,0.9,0.7,1.7,1.4,2.4c1,1,2.2,1.5,3.6,1.5c1.4,0,2.6-0.5,3.6-1.5
		c0.7-0.7,1.2-1.5,1.4-2.4c0.1-0.4,0.1-0.8,0.1-1.1v-1.7c0-1.4-0.5-2.6-1.5-3.6c-1-0.9-2.2-1.5-3.6-1.5c-1.4,0-2.6,0.5-3.6,1.5
		C485.3,181.9,484.9,183.1,484.9,184.5"/>
	<path class="st1" d="M458.7,186.2c0,0.4,0,0.8,0.1,1.1c0.2,0.9,0.7,1.7,1.4,2.4c1,1,2.2,1.5,3.6,1.5c1.4,0,2.6-0.5,3.6-1.5
		c0.7-0.7,1.2-1.5,1.3-2.4c0.1-0.4,0.2-0.8,0.2-1.1v-1.7c0-1.4-0.5-2.6-1.5-3.6c-1-0.9-2.2-1.5-3.6-1.5c-1.4,0-2.6,0.5-3.6,1.5
		c-1,1-1.5,2.2-1.5,3.6V186.2"/>
	<path class="st1" d="M524.1,186.2c0,0.4,0.1,0.8,0.1,1.1c0.2,0.9,0.7,1.7,1.4,2.4c1,1,2.2,1.5,3.6,1.5c1.4,0,2.6-0.5,3.6-1.5
		c0.7-0.7,1.2-1.5,1.3-2.4c0.1-0.4,0.2-0.8,0.2-1.1v-1.7c0-1.4-0.5-2.6-1.5-3.6c-1-0.9-2.2-1.5-3.6-1.5c-1.4,0-2.6,0.5-3.6,1.5
		c-1,1-1.5,2.2-1.5,3.6V186.2"/>
	<path class="st1" d="M521.1,184.5c0-1.4-0.5-2.6-1.5-3.6c-1-0.9-2.2-1.5-3.6-1.5c-1.4,0-2.6,0.5-3.6,1.5c-1,1-1.5,2.2-1.5,3.6v1.7
		c0,0.4,0.1,0.8,0.1,1.1c0.2,0.9,0.7,1.7,1.4,2.4c1,1,2.2,1.5,3.6,1.5c1.4,0,2.6-0.5,3.6-1.5c0.7-0.7,1.2-1.5,1.3-2.4
		c0.1-0.4,0.2-0.8,0.2-1.1V184.5"/>
	<path class="st1" d="M497.8,186.2c0,0.4,0,0.8,0.1,1.1c0.2,0.9,0.7,1.7,1.4,2.4c1,1,2.2,1.5,3.6,1.5c1.4,0,2.6-0.5,3.6-1.5
		c0.7-0.7,1.2-1.5,1.4-2.4c0.1-0.4,0.1-0.8,0.1-1.1v-1.7c0-1.4-0.5-2.6-1.5-3.6c-1-0.9-2.2-1.5-3.6-1.5c-1.4,0-2.6,0.5-3.6,1.5
		c-1,1-1.5,2.2-1.5,3.6V186.2"/>
	<path class="st1" d="M138.6,67.4l10.1-0.2c1.6,0.1,2.6,0.7,3.3,1.7l19.9,52.6c0.5,1.3-0.3,2-2.1,2.2l-14.7,0.3"/>
	<path class="st1" d="M154.7,123l0.9,3c-13.8,2.1-13.8,2.1-13.8,2.1l1,3.4"/>
	<line class="st1" x1="154.7" y1="123" x2="138.6" y2="67.4"/>
	<path class="st1" d="M239.8,188.3c-7.3-1.6-0.8-0.2-9.9-2.1c-1.8-0.4-2.7-1.5-2.7-2.7v-10.9c0-1.2,0.9-2.1,2.7-2.4
		c13-2.3,22.4-3.7,31.9-5"/>
	<path class="st1" d="M163.1,191.8c-4.9-1.5-20.3-5.9-25.2-7.4c-0.1,0-0.2-0.1-0.3-0.1c-1.3-0.4-2.2-0.8-2.3-2l0-11.4
		c0-0.2,0-0.3,0.1-0.5c0.1-1.2,0.4-1.7,1.6-2.3c3.7-1.7,20.4-4.5,26.6-5.8"/>
	<line class="st1" x1="154.2" y1="189.2" x2="154.2" y2="164.1"/>
	<path class="st1" d="M163.6,162.3c31.7-3.8,77.5,4.4,83.8,4.9"/>
	<path class="st1" d="M635.7,183.4c-0.3-0.1-3.7-2.6-4-2.7c-4.8-4.2-9.3-7.9-14.6-11.2"/>
	<path class="st1" d="M586.3,220.7c10.9-0.9,38.4-2.1,38.4-2.1c23.9-1.6,39.7-2.6,47.8-7c12.5-5.6,8.5-7.1-0.7-13.9
		c-7.7-4.5-16-8-36.3-14.3"/>
	<line class="st1" x1="599.8" y1="239.5" x2="599.9" y2="232.8"/>
	<line class="st1" x1="598.8" y1="232.7" x2="598.8" y2="239.5"/>
	<path class="st1" d="M152.3,164.5l-6-21.9l-38.2,0.7l34.6-11.7l19.9-2.1l55.1,0.3c1.1,0,1.3,1.7,0.1,1.9l-71.5,10.9"/>
	<path class="st1" d="M253.4,190.8c18.7,1.9,22.6,1.8,23.2,1.8c0.2,0,0.5,0,0.7,0c3.1-0.1,18.3-0.8,27.5-3.5"/>
	<path class="st1" d="M321.1,156.4c1.5,1.2,1.2,4,1.2,4"/>
	<path class="st1" d="M436.6,225.4c-3.9-0.9-7.4-2-10.5-2.8c-2.8-0.7-5.3-1.3-7.6-1.8c-12.9-2.8-16.3-3.2-16.3-3.2s-2.4-0.5-12-1.9
		c-9.6-1.4-8.4-1-23.7-2c-15.3-1-12.8-0.7-26.1-1.5c-13.3-0.7-36.1,0-36.1,0"/>
	<path class="st1" d="M377,186.2v-1.7c0-1.4-0.5-2.6-1.5-3.6c-1-0.9-2.2-1.5-3.6-1.5c-1.4,0-2.6,0.5-3.6,1.5c-1,1-1.5,2.2-1.5,3.6
		v1.7c0,0.4,0,0.8,0.1,1.1c0.2,0.9,0.7,1.7,1.4,2.4c1,1,2.2,1.5,3.6,1.5c1.4,0,2.6-0.5,3.6-1.5c0.7-0.7,1.2-1.5,1.3-2.4
		C377,186.9,377,186.5,377,186.2"/>
	<path class="st1" d="M363.9,186.2v-1.7c0-1.4-0.5-2.6-1.5-3.6c-1-0.9-2.2-1.5-3.6-1.5c-1.4,0-2.6,0.5-3.6,1.5c-1,1-1.5,2.2-1.5,3.6
		v1.7c0,0.4,0,0.8,0.1,1.1c0.2,0.9,0.7,1.7,1.4,2.4c1,1,2.2,1.5,3.6,1.5c1.4,0,2.6-0.5,3.6-1.5c0.7-0.7,1.2-1.5,1.3-2.4
		C363.8,186.9,363.9,186.5,363.9,186.2"/>
	<line class="st1" x1="303.8" y1="162.6" x2="304.2" y2="189.2"/>
	<path class="st1" d="M365.7,220l9.4,0.4v2c0,0,10.2,13.8,10.3,13.9c0.1,0.1,3.6,1.6,3.6,1.6l4,6.7h-2.8l-17.6-2.2l-7.9-1.9
		l-6.8-1.7l-1.8-0.5l10.8-4.8L365.7,220z"/>
	<path class="st1" d="M357.8,237.6c0.7-1.1,1.9-1.8,3.3-1.8c0.2,0,0.5,0,0.7,0.1"/>
	<path class="st1" d="M364.9,240.5c-0.4,1.7-1.9,3-3.8,3c-2.1,0-3.9-1.7-3.9-3.9c0-0.3,0-0.7,0.1-1"/>
	<path class="st1" d="M621.4,218.8c0.1,5.8,0,6,0,6l15.1-0.8v-6.2"/>
	<line class="st1" x1="609.1" y1="219.4" x2="600.4" y2="229.2"/>
	<line class="st1" x1="607.4" y1="219.5" x2="600.1" y2="227.9"/>
	<circle class="st1" cx="599.3" cy="243.8" r="4.2"/>
	<circle class="st1" cx="599.3" cy="243.8" r="2.4"/>
	<circle class="st1" cx="599.3" cy="243.8" r="1.1"/>
	<line class="st1" x1="364.7" y1="228.4" x2="364.1" y2="229.9"/>
	<line class="st1" x1="365.9" y1="230.7" x2="366.4" y2="229.4"/>
</g>
</svg>
