<?xml version="1.0" encoding="utf-8"?>
<!-- Generator: Adobe Illustrator 22.1.0, SVG Export Plug-In . SVG Version: 6.00 Build 0)  -->
<svg version="1.1" id="Calque_1" xmlns="http://www.w3.org/2000/svg" xmlns:xlink="http://www.w3.org/1999/xlink" x="0px" y="0px"
	 viewBox="0 0 754 330" style="enable-background:new 0 0 754 330;" xml:space="preserve">
<style type="text/css">
	.st0{fill:none;stroke:#2C3C50;}
	.st1{fill-rule:evenodd;clip-rule:evenodd;fill:#5E5E5D;stroke:#2C3C50;stroke-miterlimit:10;}
	.st2{fill:none;stroke:#2C3C50;stroke-linecap:round;stroke-linejoin:round;stroke-miterlimit:10;}
	.st3{fill:none;stroke:#2C3C50;stroke-linecap:round;stroke-linejoin:round;}
</style>
<line class="st0" x1="264.9" y1="159.4" x2="254.9" y2="161.2"/>
<line class="st0" x1="254.7" y1="161.2" x2="265" y2="161.1"/>
<polyline class="st0" points="265.7,169 265.7,168.8 265.7,168.5 "/>
<polyline class="st0" points="301.4,194.4 295.4,193.2 288.7,191.7 280.6,189.8 271.7,187.9 263.9,186.1 256.4,184.4 249.2,182.8 
	239.9,180.8 233,179.2 225.1,177.5 216.6,175.4 "/>
<polyline class="st0" points="576.9,166.3 583.5,168.2 590.2,170.2 596.8,172.3 603.3,174.4 609.9,176.6 611.7,177.2 613.6,177.9 
	615.5,178.6 617.2,179.4 619,180.3 619,180.3 619.9,180.8 620.7,181.4 621.5,182 622.3,182.6 622.6,183.1 622.9,183.5 623.1,184 
	623.2,184.5 623.2,185 623.2,185.6 623.1,186.1 622.9,186.5 622.6,187 622.3,187.4 621.6,187.9 620.9,188.3 620.1,188.7 
	619.6,188.8 619.3,188.9 617.7,189.4 615.9,189.9 614.1,190.3 612.3,190.6 608.5,191.2 604.7,191.7 600.9,192.1 597,192.5 
	593.2,192.7 584.3,193.3 575.5,193.7 566.5,194.1 557.7,194.3 548.8,194.6 539.9,194.7 531,194.8 522.1,194.8 441.3,195.1 
	435.7,195.6 430.9,196.2 425.4,196.8 419.6,197.4 415.2,197.9 410.5,198.4 402,199.2 "/>
<line class="st0" x1="402" y1="199.2" x2="394.3" y2="199.9"/>
<line class="st0" x1="394.3" y1="199.9" x2="378.7" y2="201.1"/>
<line class="st0" x1="378.7" y1="201.1" x2="369.2" y2="201.6"/>
<line class="st0" x1="349.3" y1="201.3" x2="341.7" y2="200.6"/>
<line class="st0" x1="341.7" y1="200.6" x2="334.3" y2="199.8"/>
<line class="st0" x1="334.3" y1="199.8" x2="327.5" y2="199"/>
<line class="st0" x1="327.5" y1="199" x2="319.5" y2="197.9"/>
<line class="st0" x1="319.5" y1="197.9" x2="313.3" y2="196.8"/>
<line class="st0" x1="313.3" y1="196.8" x2="308.7" y2="195.9"/>
<line class="st0" x1="308.7" y1="195.9" x2="301.4" y2="194.4"/>
<line class="st0" x1="301.4" y1="194.4" x2="295.4" y2="193.2"/>
<line class="st0" x1="295.4" y1="193.2" x2="288.7" y2="191.7"/>
<line class="st0" x1="288.7" y1="191.7" x2="280.6" y2="189.8"/>
<line class="st0" x1="280.6" y1="189.8" x2="271.7" y2="187.9"/>
<line class="st0" x1="271.7" y1="187.9" x2="263.9" y2="186.1"/>
<line class="st0" x1="263.9" y1="186.1" x2="256.4" y2="184.4"/>
<line class="st0" x1="256.4" y1="184.4" x2="249.2" y2="182.8"/>
<line class="st0" x1="249.2" y1="182.8" x2="239.9" y2="180.8"/>
<line class="st0" x1="239.9" y1="180.8" x2="233" y2="179.2"/>
<line class="st0" x1="232.9" y1="179.2" x2="225.1" y2="177.5"/>
<line class="st0" x1="225.1" y1="177.5" x2="216.6" y2="175.4"/>
<line class="st0" x1="216.6" y1="175.4" x2="214.5" y2="175.7"/>
<line class="st0" x1="214.5" y1="175.7" x2="207.2" y2="176.8"/>
<polyline class="st0" points="207.2,176.8 198.2,178.1 196.6,178.2 194.6,178.1 "/>
<line class="st0" x1="194.6" y1="178.1" x2="190.1" y2="178"/>
<line class="st0" x1="169.1" y1="156.4" x2="156.3" y2="134.3"/>
<line class="st0" x1="156.3" y1="134.3" x2="142.8" y2="111.3"/>
<polyline class="st0" points="142.8,111.3 141.2,108.5 137.9,108.1 "/>
<line class="st0" x1="137.9" y1="108.1" x2="133.8" y2="107.6"/>
<polyline class="st0" points="133.8,107.6 131.1,107.2 130.8,107.2 125.3,106.7 "/>
<line class="st0" x1="125.3" y1="106.7" x2="130.1" y2="106.4"/>
<line class="st0" x1="129.9" y1="105.4" x2="129.9" y2="101.5"/>
<polyline class="st0" points="129.9,101.5 129.9,101.2 130.1,100.9 130.2,100.7 130.5,100.5 130.8,100.4 131.2,100.3 131.6,100.3 
	139.1,100.3 "/>
<line class="st0" x1="139.1" y1="100.3" x2="179" y2="100.1"/>
<line class="st0" x1="179" y1="100.1" x2="181.6" y2="100.1"/>
<line class="st0" x1="181.6" y1="100.1" x2="182.7" y2="100.1"/>
<line class="st0" x1="261.1" y1="150.5" x2="272.6" y2="150"/>
<line class="st0" x1="336.6" y1="146.9" x2="337.1" y2="146.9"/>
<polyline class="st0" points="337.1,146.9 337.8,146.9 338.5,146.9 "/>
<line class="st0" x1="338.5" y1="146.9" x2="339.2" y2="146.9"/>
<line class="st0" x1="339.2" y1="146.9" x2="339.9" y2="146.9"/>
<line class="st0" x1="339.9" y1="146.9" x2="340.7" y2="146.9"/>
<polyline class="st0" points="340.7,146.9 341.5,146.9 342.4,146.9 343.3,146.9 343.8,146.8 344.4,146.8 345.7,146.8 "/>
<polyline class="st0" points="345.7,146.8 347,146.8 521.9,146.1 "/>
<polyline class="st0" points="522,146.1 527.1,146.1 528.9,146.2 534.2,146.7 537.8,147.4 538.8,147.6 540.1,148 541.1,148.4 
	541.9,148.8 543.5,149.4 546.7,151.1 "/>
<line class="st0" x1="546.7" y1="151.1" x2="546.6" y2="151.1"/>
<line class="st0" x1="546.7" y1="151.1" x2="567" y2="163"/>
<polyline class="st0" points="576.9,166.3 573.9,165.4 572.5,165.1 571,164.6 569.7,164.1 568.3,163.6 567,163 "/>
<path class="st0" d="M513.6,191.5h-14.7c-2.3,0-4.2-1.9-4.2-4.2v-34.9c0-2.1,1.7-3.8,3.8-3.8h14.8c2.1,0,3.8,1.7,3.8,3.8V188
	C517.1,189.9,515.5,191.5,513.6,191.5z"/>
<line class="st0" x1="552.4" y1="194.5" x2="552.4" y2="194.4"/>
<line class="st0" x1="562.3" y1="194.2" x2="562.3" y2="194.3"/>
<polygon class="st0" points="566.1,163.3 564.5,163.3 562.2,163.4 558.7,163.5 555,163.7 552,163.8 549.1,163.8 545.4,163.8 
	541.6,163.7 538.7,163.5 536.3,163.4 533.8,163.2 531.8,163 530.2,162.9 529.6,162.9 529,162.8 528.7,162.7 528.4,162.6 
	528.1,162.4 527.8,162.2 527.6,161.9 527.4,161.6 527.4,161.4 527.3,161 527.3,160.6 527.3,156 527.3,155.8 527.3,155.6 
	527.4,155.4 527.4,155.2 527.5,155.1 527.6,155 527.8,154.8 528,154.7 528.2,154.6 528.4,154.4 528.7,154.4 528.9,154.4 
	529.3,154.3 529.7,154.3 530,154.2 530.3,154.2 530.6,154.1 530.9,154.1 535.2,153.6 538.8,153.1 541.9,152.8 543.9,152.5 
	545.8,152.3 546.9,152.1 547.2,152.1 547.5,152.1 547.6,152 547.7,152 547.9,152.1 548,152.1 548.1,152.2 548.2,152.2 548.4,152.3 
	548.5,152.4 548.7,152.5 549,152.7 550.6,153.6 552.5,154.7 554.8,156 557.1,157.4 559.2,158.6 560.8,159.5 563,160.7 564.1,161.4 
	565.4,162.2 565.9,162.5 566.1,162.7 566.1,162.7 566.2,162.8 566.4,162.9 566.4,163 566.4,163 566.4,163.1 566.4,163.2 
	566.4,163.2 566.4,163.3 566.3,163.3 566.2,163.3 "/>
<path class="st0" d="M351.2,196.4c-6.1-0.2-11.8-0.5-13.7-0.6c-3.2-0.1-6-0.1-6-0.1s-1.8,0-3.9,0c-2.8,0-6.4,0.3-10.4-1.3
	c-4-1.6-5.8-2.6-6.7-3.5c-0.9-0.9-1.8-2.7-1.4-4.1l0.4-1.4c0,0,1.9-2,0.6-5.1c-1.3-3-5.3-11.5-5.9-12.9c-0.6-1.4-5.7-11.8-6.1-12.7
	c-0.4-0.9-2-2.5,1.1-2.5c3,0,5.3,0.2,6.1,0.5c0.8,0.3,1.7,0.6,3,2.1l1.4,1.5c0,0,24.3,24.4,25.2,25.2c0.9,0.8,4.3,4.7,15.2,5.3
	c10.9,0.6,36.5,2.1,42.7,2.5c6.1,0.4,8.4,0.5,10.8,0.8c2.4,0.3,5,0.5,5.8,1.7c0.8,1.2-0.7,2.1-2.1,2.4c-0.9,0.2-1.6,0.3-1.6,0.3
	l-1.4,0.2c0,0-7.9,0.9-12.2,1.1c-3.9,0.2-16.5,1-25,1.1"/>
<line class="st0" x1="381.5" y1="201.1" x2="381.5" y2="200.9"/>
<line class="st0" x1="386.5" y1="200.7" x2="386.5" y2="200.6"/>
<line class="st0" x1="389.5" y1="200.5" x2="389.5" y2="200.3"/>
<line class="st0" x1="447.2" y1="195.1" x2="447.2" y2="195.2"/>
<line class="st0" x1="501.8" y1="146.2" x2="501.8" y2="146.1"/>
<line class="st0" x1="469" y1="146.3" x2="469" y2="146.2"/>
<line class="st0" x1="484.3" y1="146.2" x2="484.3" y2="146.3"/>
<line class="st0" x1="487" y1="146.2" x2="487" y2="146.1"/>
<polyline class="st0" points="130.1,106.4 136.8,105.9 137.3,105.9 150.7,105.3 "/>
<line class="st0" x1="150.7" y1="105.3" x2="157.6" y2="105.1"/>
<line class="st0" x1="157.8" y1="108.1" x2="152.3" y2="108"/>
<line class="st0" x1="152.3" y1="108" x2="148.6" y2="107.9"/>
<line class="st0" x1="148.6" y1="107.9" x2="144.2" y2="107.7"/>
<line class="st0" x1="144.2" y1="107.7" x2="137.8" y2="107.6"/>
<line class="st0" x1="137.8" y1="107.6" x2="125.3" y2="106.7"/>
<line class="st0" x1="125.3" y1="106.7" x2="130.1" y2="106.4"/>
<polyline class="st0" points="182.7,100.1 211.9,132.8 215,132.8 "/>
<polyline class="st0" points="129.9,101.5 129.9,105.4 129.9,105.7 129.9,106 130,106.2 130.1,106.4 "/>
<polyline class="st0" points="131.2,107.2 130.8,107 130.5,106.9 130.3,106.7 130.1,106.4 "/>
<line class="st0" x1="182.2" y1="155.4" x2="153.8" y2="111.4"/>
<line class="st0" x1="169.1" y1="156.4" x2="261.1" y2="150.6"/>
<line class="st0" x1="214.5" y1="175.7" x2="207.2" y2="176.8"/>
<line class="st0" x1="194.6" y1="178.1" x2="190.1" y2="178"/>
<polyline class="st0" points="190.1,178 167,177.8 168.7,164.6 175.3,165.5 181.7,166.1 "/>
<line class="st0" x1="181.7" y1="166.1" x2="188.6" y2="166.8"/>
<line class="st0" x1="188.6" y1="166.8" x2="196.7" y2="167.6"/>
<line class="st0" x1="196.7" y1="167.6" x2="205.9" y2="168.4"/>
<line class="st0" x1="205.9" y1="168.4" x2="212.8" y2="169.2"/>
<line class="st0" x1="212.7" y1="169.2" x2="217.5" y2="169.9"/>
<line class="st0" x1="217.5" y1="169.9" x2="220.2" y2="170.2"/>
<line class="st0" x1="220.2" y1="170.2" x2="224.6" y2="170.8"/>
<line class="st0" x1="224.6" y1="170.8" x2="229.1" y2="171.5"/>
<line class="st0" x1="229.1" y1="171.5" x2="232.2" y2="172"/>
<line class="st0" x1="232.2" y1="172" x2="233.3" y2="172.2"/>
<polyline class="st0" points="233.3,172.2 237.5,172.7 216.6,175.4 "/>
<polygon class="st0" points="156.4,134.5 159.5,134.5 172.2,156.2 169,156.4 "/>
<polyline class="st0" points="172.2,156.2 159.4,134.3 156.3,134.3 142.9,111.5 157.5,111.4 160.2,115.3 157.6,117.3 158.3,118.5 
	161.7,117.5 168.8,128.1 166,130.3 166.7,131.5 170.4,130.4 177.6,141.3 174.6,143.6 175.4,144.8 179.2,143.6 186.9,155.2 "/>
<line class="st0" x1="279.8" y1="161.7" x2="279.9" y2="172.3"/>
<line class="st0" x1="132.7" y1="100.3" x2="141" y2="100.3"/>
<line class="st0" x1="141" y1="100.1" x2="141" y2="100.3"/>
<line class="st0" x1="138" y1="100.1" x2="138" y2="100.3"/>
<line class="st0" x1="133.3" y1="100.2" x2="133.4" y2="100.1"/>
<line class="st0" x1="133" y1="100.2" x2="133" y2="100.3"/>
<line class="st0" x1="129.9" y1="104.2" x2="129.6" y2="104.2"/>
<path class="st0" d="M307.4,175.1c0,0-7.7-0.1-10.4-0.2c-2.7-0.1-7.1-0.6-10.5-1.1c-3.4-0.6-10.9-2.5-14.7-3.5
	c-3.8-0.9-10.1-2.8-10.1-2.8l3.5-5.9l-0.8-1l0.5-1.6l-3.2-6l15-4.1c3.9-0.9,14.5-2.5,21.4-3.2c7-0.7,15.9-0.8,21.1-0.8
	c5.2,0.1,12.6,0.2,14.7,0.8c2.1,0.6,3.4-0.1,3.3,3.6c-0.1,3.7,0,16.2,0,17.3c0,1.1-1,2.3-2.5,3c-1.5,0.7-6.3,2.5-8.8,3.2"/>
<line class="st0" x1="279.7" y1="148.2" x2="279.7" y2="158.8"/>
<line class="st0" x1="335.1" y1="146.1" x2="335" y2="169.3"/>
<path class="st0" d="M281.4,158.6c0,0-13.9,0.1-14.5,0.2c-0.5,0.1-2.3,0.5-2.3,1.4c0,0.9,1.2,1.5,2.4,1.6c1.2,0.1,13.8,0.1,14.4,0.1
	c0.6,0,2.1-0.6,2.2-1.6C283.6,159.4,282.6,158.6,281.4,158.6z"/>
<path class="st0" d="M157.8,108.1c0,0,5.8,0.3,7.2,0.3c1.4,0,6.1,0,7.7-0.1c1.6-0.1,5.5-0.3,7.3-0.5c1.9-0.2,4.4-0.5,5.1-0.7
	c0.7-0.2,2.3-1.4-1.1-1.9c-3.4-0.4-5.5-0.4-7.1-0.5c-1.6,0-4.2,0-5.7,0c-1.6,0-3.3,0-5.4,0c-2.1,0-7.8,0.3-8.2,0.3"/>
<path class="st0" d="M168.7,164.9c0,0-0.5,0-0.7-0.2c-0.2-0.3-3.6-6-4.1-7c-0.5-1,0.1-0.9,0.4-1c0.2,0,0.7,0,0.7,0l0,0l4.2-0.3"/>
<path class="st0" d="M182.7,100.1c0.5,0,1.2,0,1.6,0.1c0.5,0.1,1.7,0.8,2.1,1.1c0.7,0.6,1.5,1.6,2.1,2.3
	c0.6,0.7,24.8,27.3,25.8,28.5c1.1,1.2,3.5,3.7,4.8,4.9c1.3,1.1,3.2,2.6,4.8,3.7c1.6,1.1,3.4,1.6,4.9,2c1.6,0.4,5.3,0.8,6.9,1
	c1.6,0.1,25.6,2,25.6,2l0.7,2.5c0.2,0.6,0.3,1.3,0.3,2l0,0.2"/>
<path class="st0" d="M441.3,195.1c0,0-7-2.2-9.1-3.2c-2.1-0.9-6.3-3.5-8.9-4.4c-2.6-0.9-9.1-2.8-12.9-3.1
	c-4.1-0.4-30.7-2.6-47.9-2.6c-17.3,0-20.5,0-26.9,0.6"/>
<path class="st0" d="M309.4,190.2c0,0-1.2,1-1.6,2.2c-0.4,1.1-0.5,3.5-0.5,3.5"/>
<path class="st0" d="M483.9,167.2h2.5c1.4,0,2.6-1.2,2.6-2.6v-7c0-1.4-1.2-2.6-2.6-2.6h-2.5c-1.4,0-2.6,1.2-2.6,2.6v7
	C481.4,166,482.5,167.2,483.9,167.2z"/>
<path class="st0" d="M468.5,167.2h2.5c1.4,0,2.6-1.2,2.6-2.6v-7c0-1.4-1.2-2.6-2.6-2.6h-2.5c-1.4,0-2.6,1.2-2.6,2.6v7
	C465.9,166,467.1,167.2,468.5,167.2z"/>
<path class="st0" d="M451.4,167.2h2.5c1.4,0,2.6-1.2,2.6-2.6v-7c0-1.4-1.2-2.6-2.6-2.6h-2.5c-1.4,0-2.6,1.2-2.6,2.6v7
	C448.9,166,450,167.2,451.4,167.2z"/>
<path class="st0" d="M433.9,167.2h2.5c1.4,0,2.6-1.2,2.6-2.6v-7c0-1.4-1.2-2.6-2.6-2.6h-2.5c-1.4,0-2.6,1.2-2.6,2.6v7
	C431.3,166,432.5,167.2,433.9,167.2z"/>
<path class="st0" d="M416.8,167.2h2.5c1.4,0,2.6-1.2,2.6-2.6v-7c0-1.4-1.2-2.6-2.6-2.6h-2.5c-1.4,0-2.6,1.2-2.6,2.6v7
	C414.3,166,415.4,167.2,416.8,167.2z"/>
<path class="st0" d="M401.8,167.2h2.5c1.4,0,2.6-1.2,2.6-2.6v-7c0-1.4-1.2-2.6-2.6-2.6h-2.5c-1.4,0-2.6,1.2-2.6,2.6v7
	C399.2,166,400.3,167.2,401.8,167.2z"/>
<path class="st0" d="M387.4,167.2h2.5c1.4,0,2.6-1.2,2.6-2.6v-7c0-1.4-1.2-2.6-2.6-2.6h-2.5c-1.4,0-2.6,1.2-2.6,2.6v7
	C384.8,166,385.9,167.2,387.4,167.2z"/>
<path class="st0" d="M371.8,167.2h2.5c1.4,0,2.6-1.2,2.6-2.6v-7c0-1.4-1.2-2.6-2.6-2.6h-2.5c-1.4,0-2.6,1.2-2.6,2.6v7
	C369.2,166,370.4,167.2,371.8,167.2z"/>
<polyline class="st1" points="553.3,194.7 548.6,206.5 549,206.6 553.7,194.8 "/>
<rect x="553.4" y="200.3" class="st2" width="1.7" height="4"/>
<rect x="553.4" y="200.3" class="st3" width="1.7" height="4"/>
<line class="st2" x1="555.3" y1="203.7" x2="553.3" y2="203.7"/>
<polyline class="st3" points="555.3,208.5 555.3,203.7 553.3,203.7 553.3,208.4 "/>
<polyline class="st2" points="553.2,194.7 548.6,206.5 549,206.6 553.6,194.8 "/>
<polyline class="st3" points="553.2,194.7 548.6,206.5 549,206.6 553.6,194.8 "/>
<polyline class="st2" points="554.8,194.7 554.8,200.3 553.6,200.3 553.6,194.7 "/>
<polyline class="st3" points="554.8,194.7 554.8,200.3 553.6,200.3 553.6,194.7 "/>
<path class="st2" d="M549.7,211.9l-2.4-1.4c-0.1,0-0.1,0.1-0.1,0.1c-0.2,0-0.3-0.1-0.3-0.3c0-0.2,0.1-0.3,0.3-0.3"/>
<path class="st2" d="M547.2,209.9C547.2,209.9,547.3,209.9,547.2,209.9l5-3.8c0.1-0.2,0.2-0.4,0.5-0.4c0.3,0,0.5,0.2,0.5,0.5
	c0,0.3-0.2,0.5-0.5,0.5l-5.1,3.6l2.3,1.1"/>
<path class="st3" d="M549.7,211.9l-2.4-1.4c-0.1,0-0.1,0.1-0.1,0.1c-0.2,0-0.3-0.1-0.3-0.3c0-0.2,0.1-0.3,0.3-0.3c0,0,0.1,0,0.1,0
	l4.9-3.9c0.1-0.2,0.2-0.4,0.5-0.4c0.3,0,0.5,0.2,0.5,0.5c0,0.3-0.2,0.5-0.5,0.5l-5.1,3.6l2.3,1.1"/>
<path class="st3" d="M549.7,212.3c0-0.2,0-0.4,0.1-0.5c0.4-1.7,1.8-3,3.4-3.2c0,0,0.1,0,0.1,0c0.7-0.1,1.4,0,2,0.2
	c1.7,0.6,2.9,2.2,2.9,4c0,0.2,0,0.4,0,0.5c-0.3,2-2.1,3.4-4.1,3.4h-0.1C551.5,216.7,549.4,214.7,549.7,212.3z"/>
<path class="st2" d="M556.5,212.7c0-1.4-1.2-2.6-2.6-2.6c-1.4,0-2.6,1.2-2.6,2.6c0,1.4,1.2,2.6,2.6,2.6
	C555.4,215.2,556.5,214.1,556.5,212.7"/>
<path class="st3" d="M556.5,212.7c0-1.4-1.2-2.6-2.6-2.6c-1.4,0-2.6,1.2-2.6,2.6c0,1.4,1.2,2.6,2.6,2.6
	C555.4,215.2,556.5,214.1,556.5,212.7z"/>
<path class="st2" d="M555.2,212.7c0-0.6-0.5-1.1-1.1-1.1c-0.6,0-1.1,0.5-1.1,1.1c0,0.6,0.5,1.1,1.1,1.1
	C554.6,213.8,555.2,213.3,555.2,212.7"/>
<path class="st3" d="M555.2,212.7c0-0.6-0.5-1.1-1.1-1.1c-0.6,0-1.1,0.5-1.1,1.1c0,0.6,0.5,1.1,1.1,1.1
	C554.6,213.8,555.2,213.3,555.2,212.7z"/>
<path class="st3" d="M369.6,207.7c0,0.3,0,0.6,0,0.9c-0.4,5-4.9,8.6-9.9,8.6h-0.6c-5,0-9.4-3.7-9.9-8.6c0-0.3,0-0.6,0-0.9"/>
<path class="st3" d="M356.9,207.6c0,1.5,1.2,2.8,2.7,2.8c1.5,0,2.8-1.2,2.8-2.8"/>
<path class="st2" d="M365.5,207.6c0,3.2-2.6,5.8-5.8,5.8c-3.2,0-5.8-2.6-5.8-5.8"/>
<polygon class="st3" points="352.6,192.1 365.4,192.1 371.8,207.2 346.6,207.2 "/>
</svg>
