<?xml version="1.0" encoding="utf-8"?>
<!-- Generator: Adobe Illustrator 22.1.0, SVG Export Plug-In . SVG Version: 6.00 Build 0)  -->
<svg version="1.1" id="Calque_1" xmlns="http://www.w3.org/2000/svg" xmlns:xlink="http://www.w3.org/1999/xlink" x="0px" y="0px"
	 viewBox="0 0 754 330" style="enable-background:new 0 0 754 330;" xml:space="preserve">
<style type="text/css">
	.st0{fill:none;stroke:#2C3C50;stroke-linecap:round;stroke-linejoin:round;}
</style>
<g>
	<g>
		<path class="st0" d="M250.7,165.9l-16.1-35.9c-1.1-2.5-3.8-4.6-5.8-4.6s-3.8,0-3.8,0"/>
	</g>
	<path class="st0" d="M320.6,158.3l-37.5-7.7c-6.2-1.3-10.6-3.8-13.3-7.5l-19.5-25.6c-8.3-1.9-19.9-2.8-34.8-2.6
		c-7.8,0.1-11.6,0.9-11.4,2.6c0.6,1,2.9,1.8,6.9,2.5c0.1,0,0.2,0,0.3,0.1c0,0,0,0,0.1,0c0,0,0.1,0,0.2,0c0,0,0.1,0,0.2,0.1
		c3.9,0.7,6,2,6.3,4.2c0.2,0.7,0.6,1.1,1.4,1.2h1.4"/>
	<line class="st0" x1="220.7" y1="125.5" x2="225" y2="125.5"/>
	<path class="st0" d="M543.3,164.4v23.1c0,1.3,0.6,1.9,1.9,1.9h7.7c1.2,0,1.9-0.6,1.9-1.9v-23.1c0-1.3-0.6-1.9-1.9-1.9h-7.7
		C543.9,162.5,543.3,163.1,543.3,164.4"/>
	<path class="st0" d="M565.6,166.9c0,0.1-0.1,0.1-0.1,0.3v8.3c0,0.1,0,0.1,0.1,0.2c0,0,0.1,0.1,0.2,0.1c0.1,0,0.1,0,0.2,0
		c2.4-0.7,6.5-1.5,12.4-2.1c0.1,0,0.2,0,0.2-0.1c0.1-0.1,0.1-0.2,0.1-0.3c0-0.1,0-0.2-0.1-0.2l-6.5-7c0-0.1-0.1-0.1-0.1-0.1
		c0,0-0.1,0-0.2,0l-5.9,0.8C565.8,166.8,565.7,166.8,565.6,166.9"/>
	<line class="st0" x1="577.7" y1="165.2" x2="578.5" y2="165.7"/>
	<path class="st0" d="M577.7,165.2c-0.1,0-0.1-0.1-0.2-0.1c-2.9-1.8-5.4-3.1-7.5-3.7c-3.6-1.2-7.6-1.7-11.9-1.7H354.5"/>
	<path class="st0" d="M578.5,165.7c0.2,0.2,0.4,0.3,0.7,0.5l8.2,6"/>
	<path class="st0" d="M577.7,165.2l-3.9,0.5c-0.1,0-0.2,0-0.3,0.1c-0.1,0.1-0.1,0.1-0.1,0.3c0,0.1,0,0.2,0.1,0.2l6.9,7
		c0.1,0,0.1,0.1,0.2,0.1c0,0,0.1,0.1,0.1,0c2.1-0.2,4.5-0.4,7-0.7c0.1,0,0.2,0,0.3-0.1c0,0,0-0.1,0.1-0.1"/>
	<line class="st0" x1="577.8" y1="200.8" x2="578.5" y2="200.8"/>
	<path class="st0" d="M579.8,203.6c0.2,0,0.3-0.2,0.3-0.4v-0.8c0-0.2-0.1-0.3-0.3-0.4"/>
	<path class="st0" d="M579.8,202.1c0,0,0,0-0.1,0h-1.1"/>
	<path class="st0" d="M578.5,203.6h1.1c0.1,0,0.1,0,0.1,0"/>
	<path class="st0" d="M579.8,206c0.1,0,0.1,0,0.2-0.1c0.1-0.1,0.1-0.1,0.1-0.3v-0.3c0-0.1-0.1-0.2-0.1-0.3c0,0-0.1-0.1-0.2-0.1"/>
	<path class="st0" d="M579.8,204.9C579.7,204.9,579.7,204.9,579.8,204.9h-1.1c0,0,0,0-0.1,0"/>
	<path class="st0" d="M578.5,206C578.6,206,578.6,206,578.5,206h1.2c0,0,0,0,0,0"/>
	<line class="st0" x1="579.8" y1="204.9" x2="579.8" y2="203.6"/>
	<line class="st0" x1="578.4" y1="203.6" x2="578.5" y2="203.6"/>
	<path class="st0" d="M578.4,202.1c-0.3,0-0.4,0.1-0.4,0.4v0.8c0,0.3,0.1,0.4,0.4,0.4"/>
	<line class="st0" x1="578.5" y1="202.1" x2="578.4" y2="202.1"/>
	<line class="st0" x1="578.5" y1="204.9" x2="578.5" y2="204.3"/>
	<path class="st0" d="M578.5,204.9c-0.1,0-0.1,0.1-0.2,0.1c-0.1,0.1-0.1,0.2-0.1,0.3v0.3c0,0.1,0,0.2,0.1,0.3
		c0.1,0.1,0.1,0.1,0.2,0.1"/>
	<line class="st0" x1="578.5" y1="206.1" x2="578.5" y2="206"/>
	<line class="st0" x1="578.5" y1="204.3" x2="578.5" y2="203.6"/>
	<line class="st0" x1="577.8" y1="200.8" x2="578.4" y2="202.1"/>
	<line class="st0" x1="578.5" y1="202.1" x2="578.5" y2="200.8"/>
	<line class="st0" x1="579.8" y1="202.1" x2="579.8" y2="200.8"/>
	<line class="st0" x1="578.5" y1="200.8" x2="579.8" y2="200.8"/>
	<g>
		<path class="st0" d="M572.4,195.6c0,0,0,1.2,0,2.6c0,1.4,1.2,2.6,2.7,2.6s2.7,0,2.7,0"/>
	</g>
	<path class="st0" d="M578.5,204.3l-1.9,2.2c-0.4,0-0.4,0-0.3-0.3l2.2-2.6"/>
	<path class="st0" d="M579.7,206.3c0.7,0,1.3,0.3,1.7,0.8c0.6,0.6,0.9,1.3,0.9,2.2c0,0.3,0,0.5-0.1,0.7c-0.1,0.2-0.1,0.4-0.2,0.6
		c-0.1,0.3-0.3,0.6-0.6,0.9c-0.6,0.6-1.3,0.9-2.1,0.9c-0.9,0-1.6-0.3-2.1-0.9c-0.1-0.1-0.3-0.3-0.4-0.4c-0.1-0.1-0.2-0.3-0.2-0.4
		c-0.2-0.4-0.3-0.8-0.3-1.3c0-0.9,0.3-1.6,0.9-2.2c0.6-0.6,1.3-0.9,2.1-0.9C579.5,206.2,579.6,206.3,579.7,206.3"/>
	<path class="st0" d="M578.2,210.3c-0.2-0.3-0.3-0.6-0.3-0.9c0-0.1,0-0.2,0-0.3c0.1-0.2,0.2-0.5,0.4-0.6c0.3-0.3,0.6-0.4,1-0.4
		c0.4,0,0.7,0.1,1,0.4c0.1,0.1,0.1,0.1,0.2,0.2c0.2,0.2,0.3,0.5,0.3,0.8c0,0.4-0.1,0.7-0.4,0.9c0,0-0.1,0.1-0.1,0.1
		c-0.3,0.3-0.6,0.4-1,0.4C578.9,210.8,578.6,210.6,578.2,210.3C578.3,210.3,578.3,210.3,578.2,210.3"/>
	<line class="st0" x1="579.7" y1="206.3" x2="579.8" y2="206"/>
	<path class="st0" d="M422.7,203.5c15.2-0.4,26.9-0.9,35.3-1.3c29.7-1.5,58-3.7,85-6.6h29.4"/>
	<line class="st0" x1="587.4" y1="172.1" x2="588.2" y2="172.6"/>
	<path class="st0" d="M588.2,172.6L588.2,172.6c12,3.3,21.4,6.6,28.1,9.7"/>
	<path class="st0" d="M616.3,194.4c5.6-0.6,9.2-1.4,11-2.5c0.9-0.6,0.8-1.6-0.5-3c-2.2-2.2-5.7-4.4-10.5-6.6"/>
	<g>
		<path class="st0" d="M579.8,200.8H590c2.8,0,4.9-1.2,4.8-2.6c-0.1-1.4-0.2-2.6-0.2-2.6"/>
	</g>
	<path class="st0" d="M572.4,195.6h14.1c2.7,0,5.4,0,8.1,0"/>
	<path class="st0" d="M594.6,195.6c5.9-0.1,11.7-0.4,17.6-0.8c1.5-0.1,2.9-0.3,4.1-0.4"/>
	<g>
		<path class="st0" d="M236.2,172.1c0,0-1,0-2.2,0s-2.1-0.8-2-1.9c0.1-1,1.2-1.9,2.5-1.9c1.3,0,2.3,0,2.3,0"/>
	</g>
	<line class="st0" x1="243.1" y1="167.2" x2="243.9" y2="167.1"/>
	<path class="st0" d="M243.9,167.1c2.3-0.4,4.5-0.8,6.8-1.1"/>
	<line class="st0" x1="242.5" y1="174.1" x2="241.9" y2="173.9"/>
	<line class="st0" x1="241.9" y1="173.9" x2="240.9" y2="179.1"/>
	<g>
		<path class="st0" d="M236.2,172.1c0,0,0.8,1.5,1.7,3.3c0.9,1.8,1.9,3.4,2.1,3.5s0.4,0.1,0.9,0.2"/>
	</g>
	<path class="st0" d="M242.5,174.1c1.4-2.1,1.9-4.5,1.4-7"/>
	<line class="st0" x1="241.9" y1="173.9" x2="236.2" y2="172.1"/>
	<line class="st0" x1="236.8" y1="168.4" x2="243.1" y2="167.2"/>
	<path class="st0" d="M332.7,195.8c-9.9-0.2-23.1-2.4-41.4-6.7l-11.7-3.1l-37.1-11.9"/>
	<g>
		<path class="st0" d="M304.9,178.4c-5-0.4-7.7-0.8-7.7-0.8c-2.7-0.4-6.3-1.1-8-1.5c-1.7-0.4-5.2-3.6-5.2-6.3v-1.9
			c0-2.8,1-5.2,2.2-5.5c1.2-0.3,2.2-0.5,4.3-1"/>
	</g>
	<path class="st0" d="M304.9,159.4c0.6-0.1,1.3-0.1,1.9-0.2"/>
	<path class="st0" d="M306.8,178.6c-0.6-0.1-1.3-0.1-1.9-0.2"/>
	<path class="st0" d="M290.5,161.4c5.2-1.1,10-1.8,14.4-2"/>
	<path class="st0" d="M320.6,158.3c0,0,0.1,0,0.1,0c8.3-0.2,18.1-0.1,29.4,0.5c0.9,0.1,1.7,0.2,2.3,0.3"/>
	<path class="st0" d="M337.4,179.4c-2.6,0.1-5.2,0.1-7.6,0.1"/>
	<path class="st0" d="M329.7,179.6c-5.9,0.1-11.2-0.1-15.9-0.4"/>
	<path class="st0" d="M313.8,179.2c-2.5-0.1-4.8-0.3-7-0.6"/>
	<path class="st0" d="M240.9,179.1c29.7,8.8,51.9,14.1,66.6,15.9c9.2,1.4,17.5,1.6,25.1,0.7"/>
	<path class="st0" d="M306.8,159.2c4-0.4,8.6-0.7,13.8-0.9"/>
	<g>
		<path class="st0" d="M352.4,167c0,0-0.4-0.9-0.8-1.9s-0.4-1.9,0-1.9s0.8,0,0.8,0"/>
	</g>
	<line class="st0" x1="352.4" y1="159.1" x2="352.4" y2="163.2"/>
	<g>
		<path class="st0" d="M352.4,163.2c0,0,0.5,0,1.1,0s1.4,0.3,1.7,0.7c0.3,0.4,0.6,0.7,0.6,0.7"/>
	</g>
	<path class="st0" d="M352.4,159.1c1.7,0.3,2.9,0.9,3.4,1.7v3.8"/>
	<line class="st0" x1="365.1" y1="187.5" x2="360.3" y2="185.8"/>
	<path class="st0" d="M355.8,175.2v1.7c-0.5,0.9-1.7,1.4-3.4,1.7"/>
	<path class="st0" d="M352.4,178.7c-0.7,0.1-1.5,0.2-2.3,0.3c-1.5,0.1-2.9,0.1-4.3,0.2c-2.9,0.1-5.7,0.2-8.4,0.3"/>
	<g>
		<line class="st0" x1="355.8" y1="164.7" x2="371.3" y2="184.8"/>
	</g>
	<line class="st0" x1="360.3" y1="185.8" x2="355.8" y2="175.2"/>
	<line class="st0" x1="355.8" y1="175.2" x2="352.4" y2="167"/>
	<line class="st0" x1="352.4" y1="178.7" x2="352.4" y2="167"/>
	<path class="st0" d="M392.3,170.8c-0.7,0-1.1,0.4-1.1,1.1v3c0,0.7,0.4,1.1,1.1,1.1h3c0.7,0,1.1-0.4,1.1-1.1v-3
		c0-0.7-0.4-1.1-1.1-1.1H392.3"/>
	<path class="st0" d="M379.6,176h3c0.7,0,1.1-0.4,1.1-1.1v-3c0-0.7-0.4-1.1-1.1-1.1h-3c-0.7,0-1.1,0.4-1.1,1.1v3
		C378.4,175.6,378.8,176,379.6,176"/>
	<g>
		<path class="st0" d="M378.4,197c0,0,0.5-0.9,1.1-2.1c0.6-1.1-1-2.8-3.6-3.7l-10.9-3.7"/>
	</g>
	<path class="st0" d="M413.9,201c-13-0.3-24.3-1.5-34-3.6c-0.5-0.2-1-0.3-1.5-0.5"/>
	<path class="st0" d="M412.8,205.6c-1.2,0.6-5,0.8-11.5,0.6c-0.3,0-0.6,0-0.9,0c-2.6-0.1-5-0.4-7.5-1c-2.4-0.6-3.7-1.3-3.8-2"/>
	<path class="st0" d="M332.5,195.8c14.9,3,30.8,5.2,47.6,6.6c2.9,0.3,5.9,0.5,8.9,0.7"/>
	<g>
		<line class="st0" x1="371.3" y1="184.8" x2="377.4" y2="185.4"/>
	</g>
	<path class="st0" d="M378.4,197c-7.5-2.4-11.9-5.6-13.3-9.5"/>
	<path class="st0" d="M419.2,171.9v3c0,0.7,0.4,1.1,1.1,1.1h3c0.7,0,1.1-0.4,1.1-1.1v-3c0-0.7-0.4-1.1-1.1-1.1h-3
		C419.6,170.8,419.2,171.1,419.2,171.9"/>
	<path class="st0" d="M431.8,174.8c0,0.7,0.4,1.1,1.1,1.1h3c0.7,0,1.1-0.4,1.1-1.1v-3c0-0.7-0.4-1.1-1.1-1.1h-3
		c-0.7,0-1.1,0.4-1.1,1.1V174.8"/>
	<path class="st0" d="M404.4,171.9v3c0,0.7,0.4,1.1,1.1,1.1h3c0.7,0,1.1-0.4,1.1-1.1v-3c0-0.7-0.4-1.1-1.1-1.1h-3
		C404.7,170.8,404.4,171.1,404.4,171.9"/>
	<path class="st0" d="M458.1,174.8c0,0.7,0.4,1.1,1.1,1.1h3c0.7,0,1.1-0.4,1.1-1.1v-3c0-0.7-0.4-1.1-1.1-1.1h-3
		c-0.7,0-1.1,0.4-1.1,1.1V174.8"/>
	<path class="st0" d="M449.1,170.8h-3c-0.7,0-1.1,0.4-1.1,1.1v3c0,0.7,0.4,1.1,1.1,1.1h3c0.7,0,1.1-0.4,1.1-1.1v-3
		C450.2,171.1,449.8,170.8,449.1,170.8"/>
	<path class="st0" d="M439.8,199.2c4.6-1,7.2-2.3,7.7-4.1c-0.1-2.2-2.4-3.2-7-3.2l-63.2-6.5"/>
	<line class="st0" x1="412.8" y1="205.6" x2="412.7" y2="205.4"/>
	<path class="st0" d="M412.8,205.6c0.1-0.1,0.2-0.1,0.2-0.1"/>
	<line class="st0" x1="412.7" y1="205.4" x2="413" y2="205.4"/>
	<path class="st0" d="M412.6,203.8l-0.4,0.7l0,0c-0.2,0.5-0.1,0.7,0.4,0.9h0.1"/>
	<line class="st0" x1="412.6" y1="203.8" x2="413.9" y2="201"/>
	<line class="st0" x1="413" y1="205.4" x2="416.4" y2="205.9"/>
	<path class="st0" d="M389,203.1c6.7,0.4,13.8,0.7,21.2,0.7c0.8,0,1.6,0,2.4,0"/>
	<g>
		<path class="st0" d="M413.9,201c0,0,0.5-1.1,1.1-2.3s2.9-2.3,5.2-2.3s3.9,1,3.6,2.2c-0.3,1.2-0.5,2.2-0.5,2.2"/>
	</g>
	<line class="st0" x1="422.2" y1="206.1" x2="422.6" y2="204.3"/>
	<path class="st0" d="M422.6,204.3c0.1,0.1,0.2,0.2,0.3,0.3c0.2,0.2,0.3,0.4,0.4,0.6c0.5,0.7,0.7,1.4,0.7,2.3c0,0.4-0.1,0.8-0.2,1.2
		c-0.1,0.3-0.2,0.6-0.4,0.9c-0.1,0.2-0.3,0.5-0.6,0.7c-0.8,0.8-1.7,1.2-2.8,1.2c-1.1,0-2-0.4-2.8-1.2c0,0-0.1-0.1-0.1-0.1
		c-0.1-0.1-0.2-0.2-0.3-0.2c-0.2-0.3-0.3-0.5-0.4-0.8c-0.1-0.1-0.1-0.3-0.2-0.4c-0.1-0.4-0.2-0.8-0.2-1.2c0-0.5,0.1-1,0.3-1.4"/>
	<line class="st0" x1="422.6" y1="204.3" x2="422.7" y2="203.5"/>
	<path class="st0" d="M422.2,206.1l0,0.1c0.2,0.3,0.3,0.7,0.3,1.2c0,0.3,0,0.5-0.1,0.7c-0.1,0.4-0.3,0.7-0.6,1
		c-0.5,0.5-1,0.7-1.7,0.7c-0.7,0-1.2-0.2-1.7-0.7c-0.1-0.1-0.1-0.1-0.2-0.2c-0.1-0.1-0.3-0.3-0.3-0.5c0-0.1,0-0.2-0.1-0.3
		c-0.1-0.2-0.1-0.5-0.1-0.7c0-0.5,0.1-0.9,0.4-1.3"/>
	<line class="st0" x1="422.7" y1="203.5" x2="423.3" y2="200.8"/>
	<path class="st0" d="M417.9,206.2l3.2,0.4c0.6,0,1-0.2,1.1-0.5"/>
	<line class="st0" x1="416.4" y1="205.9" x2="417.9" y2="206.2"/>
	<path class="st0" d="M423.3,200.8c7-0.3,12.5-0.8,16.5-1.7"/>
	<path class="st0" d="M482.1,174.8c0,0.7,0.4,1.1,1.1,1.1h3c0.7,0,1.1-0.4,1.1-1.1v-3c0-0.7-0.4-1.1-1.1-1.1h-3
		c-0.7,0-1.1,0.4-1.1,1.1V174.8"/>
	<path class="st0" d="M492.8,174.8c0,0.7,0.4,1.1,1.1,1.1h3c0.7,0,1.1-0.4,1.1-1.1v-3c0-0.7-0.4-1.1-1.1-1.1h-3
		c-0.7,0-1.1,0.4-1.1,1.1V174.8"/>
	<path class="st0" d="M471.1,171.9v3c0,0.7,0.4,1.1,1.1,1.1h3c0.7,0,1.1-0.4,1.1-1.1v-3c0-0.7-0.4-1.1-1.1-1.1h-3
		C471.5,170.8,471.1,171.1,471.1,171.9"/>
	<path class="st0" d="M509,174.8v-3c0-0.7-0.4-1.1-1.1-1.1h-3c-0.7,0-1.1,0.4-1.1,1.1v3c0,0.7,0.4,1.1,1.1,1.1h3
		C508.7,176,509,175.6,509,174.8"/>
	<path class="st0" d="M377.4,185.4l87.3-1.1l35.2,0.1c4,0.3,6.1,1.3,6.5,3c0.6,3.3-1.7,5.4-7,6.1c-19,3-38.8,4.8-59.5,5.6"/>
	<line class="st0" x1="447.4" y1="195.2" x2="360.3" y2="185.8"/>
	<path class="st0" d="M250.7,165.9c13-2.1,26.2-3.6,39.8-4.6"/>
	<line class="st0" x1="236.8" y1="168.4" x2="220.7" y2="125.5"/>
	<line class="st0" x1="225" y1="125.5" x2="243.1" y2="167.2"/>
	<path class="st0" d="M421.6,206.6c0.1,0.2,0.2,0.4,0.2,0.7c0,0.9-0.7,1.7-1.7,1.7c-0.9,0-1.7-0.7-1.7-1.7c0-0.4,0.1-0.7,0.4-1"/>
	<circle class="st0" cx="579.3" cy="209.3" r="0.4"/>
</g>
</svg>
