<?xml version="1.0" encoding="utf-8"?>
<!-- Generator: Adobe Illustrator 22.1.0, SVG Export Plug-In . SVG Version: 6.00 Build 0)  -->
<svg version="1.1" id="Calque_1" xmlns="http://www.w3.org/2000/svg" xmlns:xlink="http://www.w3.org/1999/xlink" x="0px" y="0px"
	 viewBox="0 0 754 330" style="enable-background:new 0 0 754 330;" xml:space="preserve">
<style type="text/css">
	.st0{fill:none;stroke:#2C3C50;stroke-width:0.9;stroke-linecap:round;stroke-linejoin:round;}
</style>
<g id="Embraer_Phenom_1_">
	<line class="st0" x1="270.7" y1="136.6" x2="270.9" y2="136.6"/>
	<path class="st0" d="M238.6,97.8c-0.2,0.2-0.4,0.2-0.7,0.4c-0.7,0.2-1.7,0.4-2.8,0.4h-35.3"/>
	<path class="st0" d="M238.6,97.8c0.2-0.2,0.4-0.4,0.4-0.6c0-0.4-0.4-0.6-1.1-0.9c-0.7-0.2-1.7-0.4-2.8-0.4h-1.5"/>
	<path class="st0" d="M233.6,96c-1.3-0.7-4.1-1.1-8.3-1.1h-36.2c-2.6,0-4.2,0.6-4.6,1.1"/>
	<path class="st0" d="M270.9,136.6l-28.8-31l-1.7-5.2c0-0.4-0.2-0.7-0.4-1.1c-0.4-0.7-0.7-1.3-1.5-1.5"/>
	<polyline class="st0" points="212.8,106.9 215.4,106.9 245.4,152.8 243.8,154.3 	"/>
	<path class="st0" d="M184.5,96c-1.8,0-3.7,0.2-5.2,0.4c-2.4,0.2-3.5,0.6-3.5,0.9s1.1,0.6,3.5,0.9c1.5,0.2,3,0.2,4.8,0.4"/>
	<path class="st0" d="M199.9,96c2,0.9,2,1.7,0,2.6"/>
	<path class="st0" d="M184.2,98.5c0.4,1.3,1.1,2.2,2.4,3l4.4,1.5c2.4,1.1,4.2,2.4,5.5,3.9l0,0"/>
	<path class="st0" d="M199.9,98.5h-12c-1.3,0-2.6,0-3.7,0"/>
	<path class="st0" d="M184.5,96c1.1,0,2.2,0,3.3,0h12"/>
	<path class="st0" d="M196.7,106.9c0.2,0.4,0.6,0.7,0.7,1.1c0.2,0.4,0.6,0.7,0.7,1.3c0.7,1.5,1.5,3,2.4,4.4l24,44.9"/>
	<line class="st0" x1="196.7" y1="106.9" x2="212.8" y2="106.9"/>
	<line class="st0" x1="233.6" y1="96" x2="199.9" y2="96"/>
	<path class="st0" d="M226.1,174.8l-1.3-0.2c-2-0.6-3.7-1.8-4.8-3.7c-0.2-0.2-0.2-0.4-0.4-0.6c-1.3-2.2-2.2-4.8-2.4-7.8
		c-0.2-2,0.7-3.3,3-3.5l15.9-1.3c1.5-0.2,2.8-0.2,4.1-0.4"/>
	<path class="st0" d="M239.9,157.2c0.4,0,0.6,0,0.9-0.2c1.3-0.2,2.6-0.2,3.7-0.6c0.2,0,0.6,0,0.7-0.2c1.1-0.2,2.2-0.4,3.1-0.6
		c10.9-1.7,22.5-3,34.7-3.9"/>
	<line class="st0" x1="243.8" y1="154.3" x2="239.9" y2="157.2"/>
	<path class="st0" d="M282,187.3l-49.1-1.1c-1.5,0-2.4-0.7-3-2l-3.9-9.4"/>
	<path class="st0" d="M297.7,151.3c0.2-0.2,0.6-0.4,0.9-0.6c15.7-2.8,29.3-4.2,41.2-4.8"/>
	<path class="st0" d="M283.1,152.3c3.3-0.2,6.8-0.6,10.2-0.7c1.5,0,3-0.2,4.2-0.2"/>
	<path class="st0" d="M353.1,168.5c-0.4,0-0.6,0.2-0.9,0.2c-14.2,0.7-32.1-0.7-53.7-4.6c-0.7-0.4-1.3-0.9-1.5-1.7
		c-0.2-0.6-0.2-1.1-0.4-1.8c-0.4-1.8-0.4-3.9,0-5.9c0-0.7,0.2-1.5,0.4-2.2c0.2-0.4,0.4-0.7,0.6-1.1"/>
	<line class="st0" x1="226.1" y1="174.8" x2="282" y2="187.3"/>
	<line class="st0" x1="283.1" y1="152.3" x2="270.9" y2="136.6"/>
	<line class="st0" x1="212.8" y1="106.9" x2="243.8" y2="154.3"/>
	<path class="st0" d="M562.9,198.6l7.4-0.2c0.9-0.2,1.8-0.2,2.8-0.4c2.8-0.7,4.4-2,5-3.9c0.4-2.6-0.7-4.8-3.5-6.6
		c-4.8-3.3-21.8-10.2-50.8-20.3c-1.5-0.6-3-1.1-4.4-1.8c-0.4-0.2-0.6-0.2-0.9-0.4"/>
	<polyline class="st0" points="526.6,204.7 562.9,204.7 562.9,198.6 	"/>
	<path class="st0" d="M353.1,146.4c1.7,0.4,3,1.3,3.7,3c0.2,1.3,0.6,2.8,0.6,4.1c0.4,2.8,0.4,5.5,0,8.5c-0.2,1.3-0.4,2.6-0.6,3.9
		c-0.7,1.5-2,2.6-3.7,3"/>
	<path class="st0" d="M352.3,146.2c0.2,0,0.6,0,0.7,0.2"/>
	<path class="st0" d="M339.6,146.2c4.4-0.2,8.7-0.2,12.6,0c0,0,0,0,0.2,0"/>
	<line class="st0" x1="371.9" y1="146.2" x2="352.3" y2="146.2"/>
	<line class="st0" x1="353.1" y1="146.4" x2="353.1" y2="168.5"/>
	<path class="st0" d="M365.2,189.7c1.5-0.9,3.1-1.5,5.4-1.7h11.8c3.1-0.4,6.5,0.4,10.2,2.2l0.7,0.4"/>
	<path class="st0" d="M356,200.1l7.6-8.9c0.4-0.4,0.7-0.9,1.1-1.1c0.2-0.2,0.2-0.2,0.4-0.4"/>
	<path class="st0" d="M352.7,201.9c-0.4-0.6-0.4-1.1-0.2-1.8h3.5"/>
	<path class="st0" d="M356,200.1h12.2l16.1,2.6c1.3,0.4,1.8,0.9,1.7,1.7"/>
	<line class="st0" x1="335" y1="202.5" x2="352.7" y2="201.9"/>
	<path class="st0" d="M371.9,146.2c1.8-0.9,4.4-1.5,7.8-1.7c2,0,3.3,0.6,4.1,1.5"/>
	<path class="st0" d="M401.2,168.1h3.1c0.9,0,1.7-0.4,2.4-0.9c0.6-0.7,0.9-1.5,0.9-2.4v-4.1c0-0.9-0.4-1.8-0.9-2.4
		c-0.7-0.7-1.5-0.9-2.4-0.9h-3.1c-0.9,0-1.7,0.4-2.4,0.9c-0.7,0.6-0.9,1.5-0.9,2.4v4.1c0,0.9,0.4,1.7,0.9,2.4
		C399.6,168,400.3,168.1,401.2,168.1"/>
	<path class="st0" d="M376.1,158.4c-0.6,0.6-0.9,1.5-0.9,2.4v4.1c0,0.9,0.4,1.7,0.9,2.4c0.7,0.7,1.5,0.9,2.4,0.9h3
		c0.9,0,1.7-0.4,2.4-0.9c0.6-0.7,0.9-1.5,0.9-2.4v-4.1c0-0.9-0.4-1.8-0.9-2.4c-0.7-0.7-1.5-0.9-2.4-0.9h-3
		C377.6,157.4,376.9,157.6,376.1,158.4"/>
	<path class="st0" d="M411.2,146.2l-0.2-1.8c0.9,0.2,1.7,0.7,2,1.8"/>
	<line class="st0" x1="413.1" y1="146.2" x2="411.2" y2="146.2"/>
	<line class="st0" x1="427.3" y1="146.2" x2="423.6" y2="146.2"/>
	<polyline class="st0" points="420.4,137.9 422.7,137.9 427.3,146.2 	"/>
	<path class="st0" d="M420.8,138.8h-4.1c-0.4-0.2-0.4-0.6,0-0.9h3.7"/>
	<line class="st0" x1="423.6" y1="146.2" x2="420.8" y2="138.8"/>
	<line class="st0" x1="420.8" y1="138.8" x2="420.4" y2="137.9"/>
	<path class="st0" d="M418.8,157.4c-0.9,0-1.7,0.4-2.4,0.9c-0.6,0.6-0.9,1.5-0.9,2.4v4.1c0,0.9,0.4,1.7,0.9,2.4
		c0.7,0.7,1.5,0.9,2.4,0.9h3c0.9,0,1.8-0.4,2.4-0.9c0.7-0.7,0.9-1.5,0.9-2.4v-4.1c0-0.9-0.4-1.8-0.9-2.4c-0.6-0.7-1.5-0.9-2.4-0.9
		H418.8"/>
	<line class="st0" x1="423.6" y1="146.2" x2="413.1" y2="146.2"/>
	<line class="st0" x1="416.2" y1="201.5" x2="417.3" y2="202.1"/>
	<line class="st0" x1="411.2" y1="146.2" x2="383.7" y2="146.2"/>
	<line class="st0" x1="416.2" y1="201.5" x2="393.3" y2="190.7"/>
	<line class="st0" x1="378.3" y1="220" x2="377.1" y2="216.9"/>
	<path class="st0" d="M383.5,221.5c-0.6,0-0.9,0.2-1.5,0.2c-1.8,0.4-3.1-0.2-3.7-1.5l-0.2-0.2"/>
	<path class="st0" d="M373.4,207.8c5.2,0.4,9.2-0.6,12.2-2.8c0.2-0.2,0.4-0.6,0.4-0.7"/>
	<path class="st0" d="M385.9,204.3c2.2,0.2,3.7,1.5,4.4,3.7l1.5,3.9"/>
	<path class="st0" d="M395.5,224.8c-0.9,0.4-2,0-3.1-0.9c-1.3-1.3-3-2.2-5-2.4"/>
	<path class="st0" d="M394.2,225c0.6,0.2,0.9,0,1.3-0.2"/>
	<path class="st0" d="M395.5,224.8c0.6-0.4,0.6-1.1,0.4-2.4l-4.1-10.5"/>
	<path class="st0" d="M387.6,221.5c0.4,0.9,0.7,2.2,0.7,3.3c0,2.4-0.9,4.2-2.6,5.9c-1.7,1.7-3.7,2.6-5.9,2.6c-2.4,0-4.2-0.9-5.9-2.6
		c-1.7-1.7-2.4-3.7-2.4-5.9c0-2.4,0.9-4.2,2.4-5.9c0.9-0.9,2-1.7,3.3-2"/>
	<path class="st0" d="M383.5,221.5c0.9,0.9,1.3,2,1.3,3.3c0,1.5-0.6,2.6-1.5,3.5c-0.9,0.9-2.2,1.5-3.5,1.5c-1.5,0-2.6-0.6-3.5-1.5
		c-0.9-0.9-1.5-2.2-1.5-3.5s0.6-2.6,1.5-3.5c0.6-0.6,1.3-1.1,2-1.3"/>
	<path class="st0" d="M387.6,221.5c-1.1-0.2-2.6-0.2-4.1,0"/>
	<path class="st0" d="M392,211.9c6.5,0,12.9-0.9,19-2.4c0.9-0.2,2-0.6,2.8-0.9"/>
	<path class="st0" d="M413.6,208.6c2.4-1.1,3.9-2.4,4.8-4.2c0.4-0.9-0.2-1.8-2-3"/>
	<path class="st0" d="M352.7,201.9c1.5,2.4,7.6,4.2,18.5,5.5c0.7,0,1.5,0.2,2.2,0.2"/>
	<line class="st0" x1="373.4" y1="207.8" x2="373.7" y2="208.7"/>
	<path class="st0" d="M373.7,208.7c-12-1.1-24.9-3.1-38.8-6.3"/>
	<line class="st0" x1="377.1" y1="216.9" x2="373.7" y2="208.7"/>
	<line class="st0" x1="383.7" y1="146.2" x2="371.9" y2="146.2"/>
	<path class="st0" d="M438.2,146.2l-0.2-1.8c1.1,0,1.8,0.6,2.2,1.8"/>
	<line class="st0" x1="440.2" y1="146.2" x2="438.2" y2="146.2"/>
	<path class="st0" d="M449.8,152.1v38.6c0,2.2,1.1,3.3,3.3,3.3h12.4c2.2,0,3.3-1.1,3.3-3.3v-38.6c0-2.2-1.1-3.3-3.3-3.3h-12.4
		C450.9,148.8,449.8,149.9,449.8,152.1"/>
	<path class="st0" d="M443.1,160.8c0-0.9-0.4-1.8-0.9-2.4c-0.7-0.7-1.5-0.9-2.4-0.9h-3c-0.9,0-1.7,0.4-2.4,0.9
		c-0.6,0.6-0.9,1.5-0.9,2.4v4.1c0,0.9,0.4,1.7,0.9,2.4c0.7,0.7,1.5,0.9,2.4,0.9h3c0.9,0,1.8-0.4,2.4-0.9c0.6-0.7,0.9-1.5,0.9-2.4
		V160.8"/>
	<path class="st0" d="M501.7,166.3c-7-0.2-14.6-0.6-22.5-1.3c-1.7-0.4-2.8-0.9-3-2c0-0.2,0-0.2,0-0.4c0-0.2,0-0.4,0-0.6
		c-0.2-2,0-3.5,0.2-4.6c0.6-1.7,2.2-2.8,5.2-3l18.3-1.1"/>
	<path class="st0" d="M477.5,158.7c-0.2-1.8,1.5-2.8,4.4-3.1l6.8-0.4l8.7,9.2l-16.8-0.9c-1.8,0.2-3-0.6-3-2.2v-2.6"/>
	<path class="st0" d="M443.5,202.5c1.5-0.2,3-0.6,4.4-0.7c0.9-0.2,1.8-0.4,3-0.6c5.5-1.1,10.9-1.8,16.4-1.8c0.6,0,1.1,0,1.7,0h17"/>
	<path class="st0" d="M393.3,190.7c25.7-0.6,43.7,1.1,54.8,5c4.8,2.2,3.3,4.4-4.6,7"/>
	<path class="st0" d="M499.8,153.2c-3.1-1.7-6.1-3-8.9-3.7c-6.1-2-12-3.3-18.1-3.3h-32.7"/>
	<path class="st0" d="M518.6,164.8c-1.7,0.6-4.2,1.1-7.9,1.3c-3,0-5.9,0-8.9,0"/>
	<line class="st0" x1="501.7" y1="166.3" x2="490" y2="153.9"/>
	<path class="st0" d="M499.8,153.2c0.7,0.4,1.5,0.7,2.2,1.1"/>
	<path class="st0" d="M502,154.3l-9,0.6l9.8,9.6c6.1,0.4,10.7,0.2,13.8-0.7"/>
	<path class="st0" d="M516.4,163.7c0.7,0.4,1.5,0.9,2,1.3"/>
	<path class="st0" d="M502,154.3c4.1,2.2,8.5,5,13.5,8.5c0.4,0.2,0.7,0.6,1.1,0.7"/>
	<line class="st0" x1="486" y1="199.5" x2="488.7" y2="199.5"/>
	<line class="st0" x1="488.7" y1="199.5" x2="520.3" y2="199.5"/>
	<path class="st0" d="M484.5,207.6C484.3,207.6,484.3,207.6,484.5,207.6h-2.4"/>
	<path class="st0" d="M482.1,207.6h-3c-0.2,0-0.2,0-0.2,0.2l-0.2,0.2c0,0.2,0,0.2,0.2,0.2l0.2,0.2h5.2c0,0,0.2,0,0.2-0.2l0.2-0.2
		c0,0,0-0.2-0.2-0.2l0,0"/>
	<line class="st0" x1="524.9" y1="209.3" x2="525.1" y2="212.1"/>
	<line class="st0" x1="524.4" y1="204.9" x2="524.9" y2="209.3"/>
	<path class="st0" d="M525.1,212.1h-0.2c-0.4,0-0.6,0.4-0.6,0.7v0.9c0,0.4,0.4,0.7,0.7,0.6h0.2"/>
	<line class="st0" x1="522" y1="205.1" x2="524.4" y2="208"/>
	<path class="st0" d="M525.3,218.5l-2.6-3.1c-0.4-0.6-0.6-1.3-0.2-1.8l2.4-4.2"/>
	<path class="st0" d="M526,220.6L526,220.6c-0.6,0-0.7-0.2-0.9-0.6v-0.2"/>
	<path class="st0" d="M524.5,208.2l-2.8,4.8l0,0c-0.4,0.9-0.4,2,0.4,3l0,0l3.1,3.7"/>
	<line class="st0" x1="526.6" y1="204.5" x2="526.6" y2="204.7"/>
	<path class="st0" d="M527.1,210.4l2.6-0.2c0.2,0,0.4-0.2,0.6-0.2c0.2-0.2,0.2-0.4,0.2-0.6v-0.6c0-0.2-0.2-0.4-0.2-0.6
		c-0.2-0.2-0.4-0.2-0.6-0.2l-2.8,0.2"/>
	<line class="st0" x1="527.1" y1="210.4" x2="526.9" y2="208.6"/>
	<line class="st0" x1="527.3" y1="211.9" x2="527.1" y2="210.4"/>
	<path class="st0" d="M527.5,214.1h0.2c0.6,0,0.6-0.4,0.6-0.7l-0.2-0.9c0-0.4-0.4-0.6-0.7-0.6h-0.2"/>
	<line class="st0" x1="526.9" y1="208.6" x2="526.6" y2="204.7"/>
	<line class="st0" x1="525.3" y1="214.3" x2="527.5" y2="214.1"/>
	<path class="st0" d="M527.9,218.2L527.9,218.2c0.6,0,0.7,0.2,0.9,0.6v0.7c0,0.4-0.2,0.7-0.6,0.7l0,0"/>
	<line class="st0" x1="526" y1="220.6" x2="528.2" y2="220.2"/>
	<line class="st0" x1="527.9" y1="218.2" x2="525.8" y2="218.3"/>
	<path class="st0" d="M525.8,218.3L525.8,218.3c-0.2,0-0.4,0.2-0.6,0.2"/>
	<line class="st0" x1="527.5" y1="214.1" x2="527.9" y2="218.2"/>
	<line class="st0" x1="525.8" y1="218.3" x2="525.3" y2="214.3"/>
	<path class="st0" d="M528.6,223.9l0.2,2.2c0,0.9-0.2,1.5-0.9,1.7c-0.6,0-0.9-0.6-1.1-1.5l-0.2-2.2"/>
	<line class="st0" x1="528.2" y1="221.1" x2="528.6" y2="223.9"/>
	<line class="st0" x1="526.4" y1="224.1" x2="526" y2="221.3"/>
	<path class="st0" d="M528.6,223.9c0.7,0.2,1.5,0.6,2,1.1c0.7,0.7,1.3,1.8,1.3,3s-0.4,2.2-1.3,3c-0.7,0.7-1.8,1.3-3,1.3
		c-1.1,0-2.2-0.4-3-1.3c-0.7-0.7-1.3-1.8-1.3-3s0.4-2.2,1.3-3c0.6-0.6,0.9-0.7,1.7-0.9"/>
	<path class="st0" d="M528.2,221.1c1.7,0.2,3.1,0.7,4.4,2c1.3,1.5,2,3,2,5c0,1.8-0.7,3.5-2,5c-1.5,1.3-3,2-5,2c-1.8,0-3.5-0.7-5-2
		c-1.3-1.3-2-3-2-5c0-1.8,0.7-3.5,2-5c0.9-0.9,2-1.5,3.3-1.8"/>
	<polyline class="st0" points="526.6,204.7 520.3,204.7 520.3,199.5 	"/>
	<line class="st0" x1="525.1" y1="212.1" x2="527.3" y2="211.9"/>
	<path class="st0" d="M525.1,219.8c0-0.6,0-0.9,0.2-1.1"/>
	<line class="st0" x1="526" y1="221.3" x2="526" y2="220.6"/>
	<line class="st0" x1="528.2" y1="220.2" x2="528.2" y2="221.1"/>
	<line class="st0" x1="484.5" y1="207.6" x2="488.7" y2="199.5"/>
	<line class="st0" x1="482.1" y1="207.6" x2="486" y2="199.5"/>
	<line class="st0" x1="438.2" y1="146.2" x2="427.3" y2="146.2"/>
	<path class="st0" d="M413.6,208.6c10-2.2,19.9-4.2,29.9-6.1"/>
	<line class="st0" x1="520.3" y1="199.5" x2="562.9" y2="198.6"/>
	<path class="st0" d="M335,202.5c-16.4-3.7-34.1-8.7-53-15.1"/>
	<line class="st0" x1="339.6" y1="146.2" x2="270.9" y2="136.6"/>
	<path class="st0" d="M282,187.3c19.4-4.4,47.1-3.7,83.2,2.6"/>
</g>
</svg>
