<?xml version="1.0" encoding="UTF-8"?>
<svg width="569px" height="181px" viewBox="0 0 569 181" version="1.1" xmlns="http://www.w3.org/2000/svg" xmlns:xlink="http://www.w3.org/1999/xlink">
    <!-- Generator: Sketch 45.2 (43514) - http://www.bohemiancoding.com/sketch -->
    <title>logo</title>
    <desc>Created with Sketch.</desc>
    <defs></defs>
    <g id="Page-1" stroke="none" stroke-width="1" fill="none" fill-rule="evenodd">
        <g id="logo" fill-rule="nonzero" fill="#FFFFFF">
            <polygon id="Shape" points="13.87 82.72 53.76 82.72 53.76 93.32 2 93.32 2 1.38 13.87 1.38"></polygon>
            <path d="M132,1.38 L132,67.5 C132,82.5 123.3,94.69 99.42,94.69 C75.54,94.69 66.88,82.55 66.88,67.5 L66.88,1.38 L78.75,1.38 L78.75,66.81 C78.75,78.13 84.96,84.07 99.45,84.07 C113.94,84.07 120.16,78.13 120.16,66.81 L120.16,1.38 L132,1.38 Z" id="Shape"></path>
            <polygon id="Shape" points="166.13 15.05 166.13 93.32 154.81 93.32 154.81 1.38 171.1 1.38 211.1 80.06 211.1 1.38 222.42 1.38 222.42 93.32 206.16 93.32"></polygon>
            <path d="M316.18,93.32 L304.18,93.32 L296.59,71.23 L257.51,71.23 L250.06,93.32 L238,93.32 L269.1,1.38 L285.1,1.38 L316.18,93.32 Z M277.11,9.94 L260.68,60.88 L293.53,60.88 L277.11,9.94 Z" id="Shape"></path>
            <path d="M343.65,1.38 L343.65,93.72 C343.65,104.63 342.13,105.87 326.26,120.64 L318.81,112.22 C331.51,100.07 331.81,99.66 331.81,93.31 L331.81,1.38 L343.65,1.38 Z" id="Shape"></path>
            <polygon id="Shape" points="367.12 1.38 421.23 1.38 421.23 12.01 379 12.01 379 40.86 418.2 40.86 418.2 51.49 379 51.49 379 82.72 421.38 82.72 421.38 93.32 367.12 93.32"></polygon>
            <polygon id="Shape" points="460.15 12.01 432.68 12.01 432.68 1.38 499.49 1.38 499.49 12.01 472 12.01 472 93.31 460.15 93.31"></polygon>
            <path d="M537.59,94.72 C528.76,94.72 518.13,93.06 510.26,89.89 L512.19,80.23 C520.502435,82.8373267 529.158355,84.1856009 537.87,84.23 C552.64,84.23 555.68,80.37 555.68,69.88 C555.68,57.46 555.54,56.35 536.63,52.07 C514.41,47.07 511.78,42.82 511.78,23.77 C511.78,7.77 518.41,0.03 541.18,0.03 C549.553472,0.0330843408 557.896364,1.0402745 566.03,3.03 L565.03,13.11 C557.277856,11.4061482 549.36709,10.5279191 541.43,10.49 C526.43,10.49 523.62,13.49 523.62,24.16 C523.62,36.86 523.62,37.41 541.84,41.97 C566.27,48.05 567.51,51.63 567.51,69.58 C567.55,85.58 562.86,94.72 537.59,94.72 Z" id="Shape"></path>
            <polygon id="Shape" points="0 169.62 0 129.72 22.54 129.72 22.54 133.04 3.59 133.04 3.59 147.12 21.87 147.12 21.87 150.43 3.59 150.43 3.59 169.62"></polygon>
            <polygon id="Shape" points="29.68 169.62 26.37 169.62 26.37 129.72 29.68 129.72"></polygon>
            <polygon id="Shape" points="35.64 141.9 45 165.09 54.28 141.89 57.87 141.89 42.57 180.22 38.9 180.22 43.1 169.62 31.61 141.9"></polygon>
            <path d="M75.78,180.23 L72.47,180.23 L72.47,148.14 C72.53,145.99 72.31,143.78 72.19,141.9 L75.61,141.9 L75.78,145.99 L75.89,146.1 C77.9838958,142.908087 81.573441,141.018853 85.39,141.1 C93.62,141.1 96.77,148.5 96.77,155.68 C96.77,162.68 93.62,170.48 85.56,170.48 C81.6681553,170.539757 78.0176084,168.599342 75.89,165.34 L75.78,165.34 L75.78,180.23 Z M85.22,167.42 C91.57,167.42 93.22,160.42 93.22,155.27 C93.22,149.97 91.07,144.11 84.77,144.11 C78.31,144.11 75.82,149.47 75.82,155.11 C75.78,161.4 78,167.42 85.23,167.42 L85.22,167.42 Z" id="Shape"></path>
            <path d="M103.78,169.62 L100.47,169.62 L100.47,148.14 C100.53,145.99 100.3,143.78 100.19,141.9 L103.61,141.9 L103.78,145.99 L103.89,145.99 C104.780952,143.237129 107.245237,141.294135 110.13,141.07 C111.233643,141.034744 112.33836,141.054769 113.44,141.13 L113.44,144.33 C112.78,144.27 112.06,144.11 111.44,144.11 C106.52,144.11 103.93,147.64 103.82,152.95 L103.78,169.62 Z" id="Shape"></path>
            <path d="M119.29,133.89 L115.42,133.89 L115.42,129.72 L119.29,129.72 L119.29,133.89 Z M119.01,141.89 L119.01,169.62 L115.7,169.62 L115.7,141.9 L119.01,141.89 Z" id="Shape"></path>
            <polygon id="Shape" points="124.75 141.9 134.3 165.04 143.53 141.9 147.17 141.9 136.17 169.63 132.41 169.63 121.09 141.9"></polygon>
            <path d="M164.59,150.07 C164.26,145.54 161.94,144.07 158.02,144.07 C154.54,144.07 151.67,145.07 151.23,148.88 L147.7,148.88 C148.53,143.19 152.78,141.04 158.08,141.04 C164.21,141.04 168.02,143.86 167.91,150.21 L167.91,163.36 C167.85,165.51 168.08,167.72 168.19,169.6 L164.77,169.6 L164.66,165.51 L164.55,165.51 L164.38,165.9 C163.17,168.22 159.46,170.43 155.71,170.43 C150.57,170.43 146.48,167.28 146.48,161.87 C146.487344,158.299877 148.712183,155.110143 152.06,153.87 C155.76,152.27 160.57,152.82 164.6,152.6 L164.59,150.07 Z M156.3,167.42 C163.54,167.42 164.92,161.42 164.59,155.66 C159.89,155.82 150.06,154.94 150.06,161.9 C150.06,165.65 152.93,167.42 156.3,167.42 Z" id="Shape"></path>
            <path d="M175.23,144.94 L169.7,144.94 L169.7,141.94 L175.22,141.94 L175.22,136.03 L178.53,134.59 L178.53,141.94 L184.83,141.94 L184.83,144.94 L178.53,144.94 L178.53,163.5 C178.47,166.04 179.8,167.42 182.34,167.42 C183.307728,167.45268 184.274944,167.341467 185.21,167.09 L185.21,169.96 C184.111567,170.26492 182.979647,170.43286 181.84,170.46 C174.84,170.46 175.21,165.98 175.21,162.23 L175.23,144.94 Z" id="Shape"></path>
            <path d="M188.87,156.54 C188.98,162.45 191.69,167.42 198.48,167.42 C202.376789,167.37391 205.71124,164.610484 206.48,160.79 L210,160.79 C208.29,167.42 204.14,170.46 197.46,170.46 C189.18,170.46 185.31,163.33 185.31,155.77 C185.31,148.21 189.45,141.08 197.68,141.08 C206.96,141.08 210.33,147.87 210.33,156.55 L188.87,156.54 Z M206.71,153.54 C206.32,148.18 203.45,144.15 197.71,144.15 C192.3,144.15 189.42,148.68 188.98,153.54 L206.71,153.54 Z" id="Shape"></path>
            <path d="M243.16,150.07 C242.83,145.54 240.51,144.07 236.59,144.07 C233.11,144.07 230.24,145.07 229.8,148.88 L226.27,148.88 C227.1,143.19 231.35,141.04 236.65,141.04 C242.78,141.04 246.59,143.86 246.48,150.21 L246.48,163.36 C246.42,165.51 246.65,167.72 246.76,169.6 L243.34,169.6 L243.23,165.51 L243.12,165.51 L242.95,165.9 C241.74,168.22 238.03,170.43 234.28,170.43 C229.14,170.43 225.05,167.28 225.05,161.87 C225.057344,158.299877 227.282183,155.110143 230.63,153.87 C234.33,152.27 239.14,152.82 243.17,152.6 L243.16,150.07 Z M234.87,167.42 C242.11,167.42 243.49,161.42 243.16,155.66 C238.46,155.82 228.63,154.94 228.63,161.9 C228.63,165.65 231.5,167.42 234.87,167.42 L234.87,167.42 Z" id="Shape"></path>
            <path d="M253.8,144.94 L248.28,144.94 L248.28,141.94 L253.8,141.94 L253.8,136.03 L257.11,134.59 L257.11,141.94 L263.41,141.94 L263.41,144.94 L257.11,144.94 L257.11,163.5 C257.05,166.04 258.38,167.42 260.92,167.42 C261.887728,167.45268 262.854944,167.341467 263.79,167.09 L263.79,169.96 C262.691567,170.26492 261.559647,170.43286 260.42,170.46 C253.42,170.46 253.79,165.98 253.79,162.23 L253.8,144.94 Z" id="Shape"></path>
            <path d="M282,144.94 L276.48,144.94 L276.48,141.94 L282,141.94 L282,136.03 L285.31,134.59 L285.31,141.94 L291.61,141.94 L291.61,144.94 L285.31,144.94 L285.31,163.5 C285.26,166.04 286.58,167.42 289.12,167.42 C290.087728,167.45268 291.054944,167.341467 291.99,167.09 L291.99,169.96 C290.891588,170.26502 289.759656,170.432963 288.62,170.46 C281.62,170.46 281.99,165.98 281.99,162.23 L282,144.94 Z" id="Shape"></path>
            <path d="M297.85,146.1 L298,146.1 C299.711832,142.927789 303.066972,140.992876 306.67,141.1 C315.73,141.1 316.44,149.1 316.44,152.31 L316.44,169.62 L313.13,169.62 L313.13,151.72 C313.13,146.91 310.37,144.1 305.84,144.1 C300.37,144.1 297.84,148.68 297.84,153.66 L297.84,169.66 L294.53,169.66 L294.53,129.72 L297.84,129.72 L297.85,146.1 Z" id="Shape"></path>
            <path d="M323.66,156.54 C323.77,162.45 326.48,167.42 333.27,167.42 C337.166789,167.37391 340.50124,164.610484 341.27,160.79 L344.75,160.79 C343.04,167.42 338.9,170.46 332.21,170.46 C323.92,170.46 320.06,163.33 320.06,155.77 C320.06,148.21 324.2,141.08 332.43,141.08 C341.71,141.08 345.08,147.87 345.08,156.55 L323.66,156.54 Z M341.5,153.54 C341.11,148.18 338.24,144.15 332.5,144.15 C327.09,144.15 324.22,148.68 323.77,153.54 L341.5,153.54 Z" id="Shape"></path>
            <path d="M364.86,169.62 L361.43,169.62 C361.54,167.74 361.71,165.53 361.71,163.38 L361.71,129.72 L365,129.72 L365,145.96 L365.11,146.07 C367.203896,142.878087 370.793441,140.988853 374.61,141.07 C382.84,141.07 385.99,148.47 385.99,155.65 C385.99,162.65 382.84,170.45 374.78,170.45 C370.891687,170.506305 367.245701,168.566308 365.12,165.31 L365.01,165.53 L364.86,169.62 Z M365.02,155.2 C365.02,161.5 367.23,167.41 374.47,167.41 C380.82,167.41 382.47,160.5 382.47,155.41 C382.47,150.11 380.32,144.14 374.02,144.14 C367.51,144.11 365,149.57 365,155.21 L365.02,155.2 Z" id="Shape"></path>
            <path d="M391.91,156.54 C392.02,162.45 394.73,167.42 401.52,167.42 C405.416789,167.37391 408.75124,164.610484 409.52,160.79 L413,160.79 C411.29,167.42 407.15,170.46 400.46,170.46 C392.18,170.46 388.31,163.33 388.31,155.77 C388.31,148.21 392.45,141.08 400.68,141.08 C409.96,141.08 413.33,147.87 413.33,156.55 L391.91,156.54 Z M409.75,153.54 C409.36,148.18 406.49,144.15 400.75,144.15 C395.34,144.15 392.47,148.68 392.02,153.54 L409.75,153.54 Z" id="Shape"></path>
            <path d="M426.48,141.07 C431.73,141.07 436.15,142.89 436.59,148.75 L433,148.75 C432.67,145.27 429.58,144.11 426.15,144.11 C423.06,144.11 419.91,145.33 419.91,148.59 C419.91,152.68 425.27,152.29 432.78,154.94 C435.587568,155.836348 437.487178,158.452869 437.47,161.4 C437.47,167.64 431.67,170.46 425.82,170.46 C421.01,170.46 415.49,168.2 415.38,162.06 L419,162.06 C419.28,166.2 422.92,167.42 426.67,167.42 C430.2,167.42 433.91,165.76 433.91,161.9 C433.91,158.04 429.55,157.26 425.13,156.27 C420.71,155.28 416.35,153.95 416.35,148.81 C416.31,143.06 421.62,141.07 426.48,141.07 Z" id="Shape"></path>
            <path d="M443.81,144.94 L438.29,144.94 L438.29,141.94 L443.81,141.94 L443.81,136.03 L447.12,134.59 L447.12,141.94 L453.42,141.94 L453.42,144.94 L447.12,144.94 L447.12,163.5 C447.07,166.04 448.39,167.42 450.93,167.42 C451.897728,167.45268 452.864944,167.341467 453.8,167.09 L453.8,169.96 C452.701588,170.26502 451.569656,170.432963 450.43,170.46 C443.43,170.46 443.8,165.98 443.8,162.23 L443.81,144.94 Z" id="Shape"></path>
            <path d="M472.41,180.23 L469.1,180.23 L469.1,148.14 C469.15,145.99 468.93,143.78 468.82,141.9 L472.25,141.9 L472.41,145.99 L472.52,146.1 C474.613896,142.908087 478.203441,141.018853 482.02,141.1 C490.25,141.1 493.4,148.5 493.4,155.68 C493.4,162.68 490.25,170.48 482.19,170.48 C478.301687,170.536305 474.655701,168.596308 472.53,165.34 L472.42,165.34 L472.41,180.23 Z M481.86,167.42 C488.21,167.42 489.86,160.42 489.86,155.27 C489.86,149.97 487.71,144.11 481.41,144.11 C474.95,144.11 472.46,149.47 472.46,155.11 C472.41,161.4 474.62,167.42 481.86,167.42 Z" id="Shape"></path>
            <path d="M500.41,169.62 L497.1,169.62 L497.1,148.14 C497.15,145.99 496.94,143.78 496.82,141.9 L500.24,141.9 L500.4,145.99 L500.51,145.99 C501.400952,143.237129 503.865237,141.294135 506.75,141.07 C507.853643,141.03471 508.958361,141.054735 510.06,141.13 L510.06,144.33 C509.4,144.27 508.68,144.11 508.06,144.11 C503.14,144.11 500.55,147.64 500.44,152.95 L500.41,169.62 Z" id="Shape"></path>
            <path d="M515.92,133.89 L512.05,133.89 L512.05,129.72 L515.92,129.72 L515.92,133.89 Z M515.64,141.89 L515.64,169.62 L512.32,169.62 L512.32,141.9 L515.64,141.89 Z" id="Shape"></path>
            <path d="M538.61,150.4 C538.33,146.15 535.61,144.1 531.04,144.1 C525.96,144.1 522.81,149.4 522.81,155.7 C522.81,162 526,167.42 531,167.42 C535.31,167.42 538.29,164.77 538.57,160.96 L542.16,160.96 C541.28,167.31 537.63,170.46 531.33,170.46 C523.05,170.46 519.18,163.33 519.18,155.77 C519.18,148.21 523.32,141.08 531.55,141.08 C537.24,141.08 541.88,144.5 542.15,150.41 L538.61,150.4 Z" id="Shape"></path>
            <path d="M547.52,156.54 C547.63,162.45 550.34,167.42 557.13,167.42 C561.026789,167.37391 564.36124,164.610484 565.13,160.79 L568.61,160.79 C566.9,167.42 562.76,170.46 556.07,170.46 C547.78,170.46 543.92,163.33 543.92,155.77 C543.92,148.21 548.06,141.08 556.29,141.08 C565.57,141.08 568.94,147.87 568.94,156.55 L547.52,156.54 Z M565.36,153.54 C564.97,148.18 562.1,144.15 556.36,144.15 C550.95,144.15 548.08,148.68 547.63,153.54 L565.36,153.54 Z" id="Shape"></path>
        </g>
    </g>
</svg>