<?xml version="1.0" encoding="utf-8"?>
<!-- Generator: Adobe Illustrator 21.0.0, SVG Export Plug-In . SVG Version: 6.00 Build 0)  -->
<svg version="1.1" id="Layer_1" xmlns="http://www.w3.org/2000/svg" xmlns:xlink="http://www.w3.org/1999/xlink" x="0px" y="0px"
	 viewBox="0 0 425.2 283.5" style="enable-background:new 0 0 425.2 283.5;" xml:space="preserve">
<style type="text/css">
	.st0{fill:#405873;}
	.st1{fill:#6D8AA5;stroke:#FFFFFF;stroke-width:1.08;stroke-linecap:round;stroke-linejoin:round;stroke-miterlimit:1.415;}
	.st2{fill:#405873;stroke:#FFFFFF;stroke-width:1.08;stroke-linecap:round;stroke-linejoin:round;stroke-miterlimit:1.415;}
	
		.st3{display:none;fill:#405873;stroke:#FFFFFF;stroke-width:1.08;stroke-linecap:round;stroke-linejoin:round;stroke-miterlimit:1.415;}
	.st4{fill:#405873;stroke:#FFFFFF;stroke-width:0.918;stroke-linecap:round;stroke-linejoin:round;stroke-miterlimit:1.415;}
	.st5{fill:#405873;stroke:#FFFFFF;stroke-width:1.08;stroke-linecap:round;stroke-linejoin:round;}
	.st6{fill:#FFFFFF;}
	.st7{fill:none;stroke:#2C3C50;stroke-width:0.75;stroke-linecap:round;stroke-linejoin:round;stroke-miterlimit:1.415;}
	.st8{fill:none;stroke:#2C3C50;stroke-width:0.75;stroke-linecap:round;stroke-linejoin:round;}
	.st9{fill:none;stroke:#2C3C50;stroke-width:0.75;stroke-linecap:round;stroke-linejoin:round;stroke-miterlimit:2.613;}
	
		.st10{fill-rule:evenodd;clip-rule:evenodd;fill:none;stroke:#2C3C50;stroke-width:0.75;stroke-linecap:round;stroke-linejoin:round;}
	.st11{fill:none;stroke:#2C3C50;stroke-width:0.75;stroke-linecap:round;stroke-linejoin:round;stroke-miterlimit:10;}
	.st12{fill:none;stroke:#2C3C50;stroke-width:0.75;stroke-linecap:round;stroke-linejoin:round;stroke-miterlimit:20;}
	.st13{fill:none;stroke:#2C3C50;stroke-width:0.75;}
	.st14{fill:#2C3C50;}
	.st15{fill:none;stroke:#B41918;stroke-width:4;stroke-miterlimit:10;}
	.st16{fill:none;stroke:#2C3C50;stroke-width:0.9;stroke-linecap:round;stroke-linejoin:round;stroke-miterlimit:1.415;}
	.st17{fill:none;stroke:#2C3C50;stroke-width:0.9;stroke-linecap:round;stroke-linejoin:round;}
	.st18{fill:#B41918;}
	
		.st19{fill-rule:evenodd;clip-rule:evenodd;fill:none;stroke:#2C3C50;stroke-width:0.75;stroke-linecap:round;stroke-linejoin:round;stroke-miterlimit:2.6131;}
	.st20{fill:none;stroke:#B41918;}
</style>
<g>
	<g id="Gulfstrean_G650_1_">
		<path class="st16" d="M143.6,193.6c0,0,10.7,0,16.6-1c5.8-1,6.2-2.5,6.2-2.7c0-0.2,0.5-14.8,0.6-18.1c0.1-3.3-16.6-3.8-29.6-4
			c-10-0.1-38.7,3.1-39.7,3.4c-1,0.2-1.2,0.7-1.2,0.7l-0.4,13c0,0,16.7,4.8,18.7,5c2.1,0.1,9.5,1.8,9.5,1.8"/>
		<line class="st16" x1="54.3" y1="179" x2="96.6" y2="175"/>
		<path class="st16" d="M167.2,173.2l36,0.7c-1.2-0.1,61.6,2.1,65.6,2.7c1,0.1,65.2,2.6,66.5,2.6c1.2,0,30.1,1.9,31.3,2.1
			c6.7,0.9,12.3,1.3,17.4,4.4c4.9,3,10,8.2,10,8.2s8.7,3.3,14.2,6.4c5.4,3.1,11,6.5,11.2,7.8c0.1,0.7-1.6,1.9-3.2,2.5
			c-3.5,1.3-11.6,4.6-22.6,5.4c-5.9,0.5-36.5-0.8-39.4-1c-6.7-0.4-45.5,0.4-45.5,0.4c-4.9,0.6-23.1,3.2-25.2,3.4
			c-1.3,0.1-22.1,1.9-34,1.1c-2.6-0.2-21.7-1.2-23.5-1.2c-1.8,0-28.3-2.2-29.4-2.3c-1.1-0.1-12.9-1.4-20.5-3.5
			c-3.4-1-49.3-9.9-51.4-10.3c-2.1-0.4-52.6-13.5-54.5-14c-3-0.9-14.3-4.6-15.5-5.1l-1.6-4.1l3-0.8l-17.1-44.9c0,0-1-0.7-2.8-1.3
			c-1-0.3-5.5-2-8.1-2.9"/>
		<path class="st16" d="M21.2,126.8c-0.3-0.4-0.4-0.3-0.4-0.9c0.1-1,0.7-1.8,1.6-1.9c1-0.1,33.7-3.9,42.8-3.1
			c9.1,0.7,14,1.6,16.2,7.5c2.2,5.8,2.7,8.7,3.6,9.7c0.9,1,17.8,23.5,21.6,25.2c3.8,1.7,18.3,4.4,18.3,4.4l2.4,0.4"/>
		<path class="st17" d="M386.7,229.6c1.1,0,1.9,0.9,1.9,1.9c0,1.1-0.9,1.9-1.9,1.9c-1.1,0-1.9-0.9-1.9-1.9
			C384.8,230.4,385.6,229.6,386.7,229.6z M386.6,228.1c1.8,0,3.3,1.5,3.3,3.3c0,1.8-1.5,3.3-3.3,3.3c-1.8,0-3.3-1.5-3.3-3.3
			C383.3,229.6,384.7,228.1,386.6,228.1z M386.7,226.7l0.4,1.3l-1.3,0.1l0-1.3L386.7,226.7z M384.3,224.2l0.5,0l0.2,0.5 M378,216.3
			c0.2,0,0.4,0.2,0.4,0.4c0,0.2-0.2,0.4-0.4,0.4c-0.2,0-0.4-0.2-0.4-0.4C377.6,216.5,377.8,216.3,378,216.3z M382.3,216.4
			c0.1,0,0.3,0.1,0.3,0.3c0,0.2-0.1,0.3-0.3,0.3c-0.1,0-0.3-0.1-0.3-0.3C382.1,216.5,382.2,216.4,382.3,216.4z M387.1,216.2
			c0.2,0,0.3,0.1,0.3,0.3c0,0.2-0.1,0.3-0.3,0.3c-0.2,0-0.3-0.1-0.3-0.3C386.9,216.3,387,216.2,387.1,216.2z M378,216.3l9.2-0.3
			c0.2,0,0.4,0.2,0.5,0.4c0,0.2-0.2,0.5-0.4,0.5l-9.2,0.3c-0.2,0-0.4-0.2-0.4-0.4C377.5,216.6,377.7,216.4,378,216.3z M385.2,225.1
			l0.4,1.6l1.9-0.1l-0.4-1.5H385.2z M385.2,224.4v0.6l1.8-0.1l-0.1-0.8L385.2,224.4z M387,224.3l-2.1,0.2l-0.3-2.8l2.1-0.4
			L387,224.3z M373.5,187.7c-1.4-0.1-1.1,1.4-1.1,1.4s1.9,2.6,2.8,3.6c1,1,1.3,0.9,1.5,0.9c0.1,0,7.3,0.2,8.2,0.2
			c1,0,1.3-0.3,1.2-0.6c0-0.3-4.8-4.3-5.4-4.9c-0.6-0.6-1.9-0.6-1.9-0.6S375.1,187.8,373.5,187.7z M387.1,187.9c0,0-2.5,0-4.3,0
			c-1.8,0-0.8,0.7-0.8,0.7l6.6,5.6l6.3,0"/>
		<path class="st17" d="M385.5,219.9c0.7,0,1.2,0.3,1.2,0.9c0,0.6-0.6,0.8-1.3,0.8c-0.7,0-1.2-0.2-1.2-0.8
			C384.2,220.1,384.8,219.9,385.5,219.9z M387.3,225.3c1.1,0,2,0.2,2,0.8c0,0.5-1,0.7-2.1,0.7c-1.2,0-2-0.2-2-0.7
			C385.1,225.6,386.2,225.3,387.3,225.3z M382.6,231.9c-2.9-0.9,2.4-5.9,2.4-5.9 M386.3,224.5c0,0-5.7-5.6-5.9-5.9
			c-0.2-0.2-1.9-1.6-1.8-2.1c0-0.5,1.1-0.4,1.1-0.4s9-0.4,8.6-0.4c-0.4,0-4.4,0.1-4.6,0c-0.3,0-6.4-0.1-6.4-0.1l-0.4,1.1l8.1,9.3
			L386.3,224.5z"/>
		<polygon class="st17" points="385.3,217.2 384.9,219.4 386.2,219.5 386.3,217.2 		"/>
		<path class="st16" d="M200.9,216.8l-0.2,5.1l-5.9,2.5l0.3,2.4c0,0,17.1,0.3,17.3,0.2c0.2-0.1,0.3-7.3,0.3-7.8
			c0-0.4-0.5-1.5-0.5-1.5 M249.5,206.4c0,0,1,0.8,3.4,1.7c2.4,0.9,2.5,2.5,1.9,3.7c-0.6,1.2-4.8,1.4-4.8,1.4
			c-2.1,0.1-100-14.6-100-14.6s-3.4-0.3-6.2-2c-2.7-1.7-20.5-19.2-20.5-19.2 M285.5,214c-2.3,0.7-9.6,1.4-10.7,1.6
			c-1.8,0.3-33.1,1.1-35.6,0.9c-2.5-0.1-18.2-1.4-20.1-1.4c-1.9,0-14.3-1.5-14.3-1.5s-70.6-16.4-73.8-16.7c-3.2-0.3-4.3-2.1-4.3-2.1
			L110,170.6c0,0,2.6-0.1,3.9-0.1c1.3,0,3,1.7,3,1.7l30.9,24.8c0,0,86.8,9.5,87.8,9.5c1,0,21.5-0.4,22.9-0.3
			c1.3,0.1,12.3,0.4,13.5,0.4c1.2,0,9.5,1.3,10.8,1.5c1.3,0.1,6.2,1.7,6.2,2.9C288.9,212.1,287,213.6,285.5,214z"/>
		<path class="st17" d="M205.8,227.4c0,2-1.6,3.6-3.6,3.6c-2,0-3.6-1.6-3.6-3.6 M209.1,227.5c0,3.7-3,6.7-6.7,6.7
			c-3.7,0-6.7-3.3-6.7-7"/>
		<path class="st16" d="M145.8,206.5c1.6-0.8,11.4-3.9,11.4-3.9 M176,200.1c0,0,5.3-0.7,6.9-0.9c1.6-0.2,26.4-0.4,28-0.4
			c1.6,0,51.4,1,51.4,1s18,0,29.3,0.6c11.4,0.6,21.2,3.1,21.2,3.1s-0.2,8.7-0.9,9.1c-0.7,0.4-21.5,5.2-21.5,5.2"/>
		<path class="st17" d="M346.8,209.9c0,1.1,0.8,2,1.9,2l8.5,0.2c1.1,0,1.9-0.9,1.9-2l0.4-24.6c0-1.1-0.8-2-1.9-2l-8.5-0.2
			c-1.1,0-1.9,0.9-1.9,2L346.8,209.9z"/>
		<path class="st16" d="M70.4,188.2l0.6-10.7 M155.2,193.2l0.9-24.5 M164.5,191.4l0.9-21.2 M152.5,193.7l-0.1,3.4 M167.4,198.9
			c0,0,0.1-6.6,0.3-8.9c0.2-2.3-1.3-2.2-1.3-2.2 M203.6,184.4c3,0,5.5,1.9,5.5,4.2c0,2.3-2.4,4.2-5.5,4.2c-3,0-5.5-1.9-5.5-4.2
			C198.2,186.2,200.6,184.4,203.6,184.4z M221.8,185.1c3,0,5.5,1.9,5.5,4.2c0,2.3-2.4,4.2-5.5,4.2c-3,0-5.5-1.9-5.5-4.2
			C216.4,187,218.8,185.1,221.8,185.1z M240,186c3,0,5.5,1.9,5.5,4.2c0,2.3-2.4,4.2-5.5,4.2c-3,0-5.5-1.9-5.5-4.2
			C234.5,187.9,237,186,240,186z M258.5,186.7c3,0,5.5,1.9,5.5,4.2c0,2.3-2.4,4.2-5.5,4.2c-3,0-5.5-1.9-5.5-4.2
			C253,188.5,255.5,186.7,258.5,186.7z M276.4,187.4c3,0,5.5,1.9,5.5,4.2c0,2.3-2.4,4.2-5.5,4.2c-3,0-5.5-1.9-5.5-4.2
			C270.9,189.3,273.4,187.4,276.4,187.4z M294.8,188.1c3,0,5.5,1.9,5.5,4.2c0,2.3-2.5,4.2-5.5,4.2c-3,0-5.5-1.9-5.5-4.2
			C289.3,190,291.8,188.2,294.8,188.1z M313.2,188.9c3,0,5.5,1.9,5.5,4.2c0,2.3-2.4,4.2-5.5,4.2c-3,0-5.5-1.9-5.5-4.2
			C307.7,190.8,310.2,188.9,313.2,188.9z M331.4,189.6c3,0,5.5,1.9,5.5,4.2c0,2.3-2.4,4.2-5.5,4.2c-3,0-5.5-1.9-5.5-4.2
			C325.9,191.5,328.4,189.6,331.4,189.6z"/>
		<polyline class="st16" points="105.9,187.6 86.2,186 86.8,179.3 96.2,177.8 		"/>
		<path class="st16" d="M85.1,175.9c0,0-7.5-7.9-11.9-13.7c-4.4-5.8-17.1-31.1-17.1-31.1 M54.7,127.9l-3-6.5 M95.5,158.4l3.5-2.7
			 M71.1,128.9l-10.2-1c-3.7,0.2-42.5-1.4-43.5-1.4c-1,0-11.6,1-11.6,1s19.6,1.7,21.3,1.8c20.4,1.3,42.1,2.8,45.8,2.6
			C73.3,132,71.1,128.9,71.1,128.9z M85.4,138.5l-2.8,2.5l21.7,29.2"/>
		<path class="st17" d="M233.8,185.6c0-0.4,0.9-0.7,2-0.7l8.9,0.2c1.1,0,2,0.4,2,0.8l-0.2,8.9c0,0.4-0.9,0.7-2,0.7l-8.9-0.2
			c-1.1,0-2-0.4-2-0.8L233.8,185.6z M252.1,186.1c0-0.4,0.9-0.7,2-0.7l8.8,0.2c1.1,0,1.9,0.4,1.9,0.8l-0.2,8.9c0,0.4-0.9,0.7-2,0.7
			l-8.8-0.2c-1.1,0-2-0.4-1.9-0.8L252.1,186.1z"/>
	</g>
</g>
</svg>
