<?xml version="1.0" encoding="UTF-8"?>
<svg width="35px" height="19px" viewBox="0 0 35 19" version="1.1" xmlns="http://www.w3.org/2000/svg" xmlns:xlink="http://www.w3.org/1999/xlink">
    <!-- Generator: Sketch 49.3 (51167) - http://www.bohemiancoding.com/sketch -->
    <title>Shape</title>
    <desc>Created with Sketch.</desc>
    <defs></defs>
    <g id="Page-1" stroke="none" stroke-width="1" fill="none" fill-rule="evenodd">
        <g id="D---D6---Home-3" transform="translate(-626.000000, -459.000000)" fill="#757372" fill-rule="nonzero">
            <g id="Group-67" transform="translate(470.500000, 455.000000)">
                <g id="Group-69" transform="translate(155.000000, 4.000000)">
                    <g id="Group-68">
                        <g id="bicycle" transform="translate(1.231481, 0.000000)">
                            <path d="M26.7358,4.60315385 C25.7483333,4.60315385 24.8066,4.79992308 23.9480889,5.15546154 L21.8952222,1.21615385 L24.7644444,1.21615385 C25.0757111,1.21615385 25.3289556,1.46661538 25.3289556,1.77446154 C25.3289556,2.08230769 25.0757111,2.33276923 24.7644444,2.33276923 L24.1522556,2.33276923 C23.8300222,2.33276923 23.5689222,2.59107692 23.5689222,2.90969231 C23.5689222,3.22830769 23.8300222,3.48661538 24.1522556,3.48661538 L24.7644444,3.48661538 C25.7190111,3.48661538 26.4956222,2.71853846 26.4956222,1.77446154 C26.4956222,0.830384615 25.7190889,0.0623076923 24.7644444,0.0623076923 L20.9384,0.0623076923 C20.7350111,0.0623076923 20.5462444,0.167153846 20.4403111,0.338923077 C20.3344556,0.510692308 20.3266778,0.724692308 20.4198556,0.903538462 L21.4406889,2.86253846 L13.0217889,2.86253846 L12.1724556,1.21615385 L13.5156,1.21615385 C13.8378333,1.21615385 14.0989333,0.957846154 14.0989333,0.639230769 C14.0989333,0.320615385 13.8378333,0.0623076923 13.5156,0.0623076923 L9.68947778,0.0623076923 C9.36724444,0.0623076923 9.10614444,0.320615385 9.10614444,0.639230769 C9.10614444,0.957846154 9.36724444,1.21615385 9.68947778,1.21615385 L10.8626778,1.21615385 L11.9963667,3.41369231 L10.6638778,5.45546154 C9.64397778,4.912 8.47824444,4.60315385 7.2408,4.60315385 C3.24823333,4.60315385 0,7.81561538 0,11.7643077 C0,15.713 3.24823333,18.9255385 7.2408,18.9255385 C11.0369778,18.9255385 14.1599889,16.0211538 14.4580333,12.3412308 L16.1696889,12.3412308 L15.5047667,14.4810769 L15.1219444,14.4810769 C14.7997111,14.4810769 14.5386111,14.7393846 14.5386111,15.058 C14.5386111,15.3766154 14.7997111,15.6349231 15.1219444,15.6349231 L17.2219444,15.6349231 C17.5441778,15.6349231 17.8052778,15.3766154 17.8052778,15.058 C17.8052778,14.7393846 17.5441778,14.4810769 17.2219444,14.4810769 L16.7252556,14.4810769 L17.4928444,12.0107692 L22.3466444,4.601 L22.9120111,5.68584615 C20.8620222,6.95184615 19.495,9.203 19.495,11.7643077 C19.495,15.713 22.7432333,18.9255385 26.7358778,18.9255385 C30.7284444,18.9255385 33.9766778,15.713 33.9766778,11.7643077 C33.9766,7.81561538 30.7283667,4.60315385 26.7358,4.60315385 Z M12.6094111,4.602 L16.0065889,11.1873846 L14.4579556,11.1873846 C14.2898,9.11161538 13.2226889,7.28292308 11.6429444,6.08284615 L12.6094111,4.602 Z M13.2863111,11.1873846 L8.31164444,11.1873846 L11.0075,7.05669231 C12.2682,8.04553846 13.1246111,9.51723077 13.2863111,11.1873846 Z M7.2408,17.7716923 C3.89145556,17.7716923 1.16666667,15.0768462 1.16666667,11.7643077 C1.16666667,8.45184615 3.89145556,5.75692308 7.2408,5.75692308 C8.24522222,5.75692308 9.19263333,6.00076923 10.0281222,6.42946154 L6.75064444,11.4513846 C6.63483333,11.6288462 6.62635556,11.8547692 6.72855556,12.0402308 C6.83067778,12.2256923 7.02722222,12.3411538 7.2408,12.3411538 L13.2863111,12.3411538 C12.9916889,15.384 10.3932889,17.7716923 7.2408,17.7716923 Z M17.0192556,10.6114615 L13.6170222,4.01630769 L21.3395,4.01630769 L17.0192556,10.6114615 Z M26.7358,17.7716923 C23.3864556,17.7716923 20.6615889,15.0767692 20.6615889,11.7643077 C20.6615889,9.64907692 21.7736556,7.78707692 23.4489889,6.71638462 L26.2172556,12.0286154 C26.3208556,12.2273077 26.5247889,12.3413077 26.7362667,12.3413077 C26.8262556,12.3413077 26.9175667,12.3206154 27.0030444,12.2770769 C27.2895,12.1311538 27.4019667,11.7832308 27.2543444,11.4999231 L24.4852222,6.18615385 C25.1818,5.91030769 25.9407556,5.75684615 26.7358,5.75684615 C30.0851444,5.75684615 32.8099333,8.45176923 32.8099333,11.7642308 C32.8099333,15.0768462 30.0851444,17.7716923 26.7358,17.7716923 Z" id="Shape"></path>
                        </g>
                    </g>
                </g>
            </g>
        </g>
    </g>
</svg>