<?xml version="1.0" encoding="UTF-8"?>
<svg width="21px" height="20px" viewBox="0 0 21 20" version="1.1" xmlns="http://www.w3.org/2000/svg" xmlns:xlink="http://www.w3.org/1999/xlink">
    <!-- Generator: Sketch 49.3 (51167) - http://www.bohemiancoding.com/sketch -->
    <title>Catering-special</title>
    <desc>Created with Sketch.</desc>
    <defs></defs>
    <g id="Page-1" stroke="none" stroke-width="1" fill="none" fill-rule="evenodd">
        <g id="D---D6---Home-3" transform="translate(-979.000000, -459.000000)" fill="#757372" fill-rule="nonzero" stroke="#757372" stroke-width="0.2">
            <g id="Group-62" transform="translate(951.500000, 460.000000)">
                <g id="Catering-special" transform="translate(28.000000, 0.000000)">
                    <path d="M5.93222222,5.795 C5.99365539,5.85688229 6.07724667,5.89168541 6.16444444,5.89168541 C6.25164222,5.89168541 6.3352335,5.85688229 6.39666667,5.795 C6.45854896,5.73356683 6.49335208,5.64997556 6.49335208,5.56277778 C6.49335208,5.47558 6.45854896,5.39198872 6.39666667,5.33055556 C6.23938547,5.17405367 6.15096001,4.96132328 6.15096001,4.73944444 C6.15096001,4.51756561 6.23938547,4.30483522 6.39666667,4.14833333 C6.67156526,3.8654014 6.82660561,3.48725421 6.82944444,3.09277778 C6.8311143,2.69740947 6.67540236,2.31762425 6.39666667,2.03722222 C6.3352335,1.97533993 6.25164222,1.94053681 6.16444444,1.94053681 C6.07724667,1.94053681 5.99365539,1.97533993 5.93222222,2.03722222 C5.87096156,2.09683733 5.83640391,2.17868667 5.83640391,2.26416667 C5.83640391,2.34964666 5.87096156,2.431496 5.93222222,2.49111111 C6.09277187,2.6480107 6.18328097,2.86301466 6.18328097,3.0875 C6.18328097,3.31198534 6.09277187,3.5269893 5.93222222,3.68388889 C5.35260492,4.26823973 5.35260492,5.21064916 5.93222222,5.795 Z" id="Shape"></path>
                    <path d="M13.0572222,5.795 C13.1189321,5.85626428 13.2024892,5.89044673 13.2894444,5.89 C13.373751,5.89269624 13.4549211,5.85790902 13.5111111,5.795 C13.5729934,5.73356683 13.6077965,5.64997556 13.6077965,5.56277778 C13.6077965,5.47558 13.5729934,5.39198872 13.5111111,5.33055556 C13.3538299,5.17405367 13.2654045,4.96132328 13.2654045,4.73944444 C13.2654045,4.51756561 13.3538299,4.30483522 13.5111111,4.14833333 C13.7927361,3.86900275 13.9521567,3.48942998 13.9544444,3.09277778 C13.9569256,2.69516534 13.7967605,2.31381982 13.5111111,2.03722222 C13.3857731,1.91188431 13.1825602,1.91188433 13.0572223,2.03722227 C12.9318843,2.16256021 12.9318843,2.36577315 13.0572222,2.49111111 C13.2177719,2.6480107 13.308281,2.86301466 13.308281,3.0875 C13.308281,3.31198534 13.2177719,3.5269893 13.0572222,3.68388889 C12.4776049,4.26823973 12.4776049,5.21064916 13.0572222,5.795 Z" id="Shape"></path>
                    <path d="M9.5,3.85277778 C9.56170986,3.91404206 9.64526695,3.9482245 9.73222222,3.94777778 C9.81574916,3.94658805 9.89542258,3.91244229 9.95388889,3.85277778 C10.0157712,3.79134461 10.0505743,3.70775333 10.0505743,3.62055556 C10.0505743,3.53335778 10.0157712,3.4497665 9.95388889,3.38833333 C9.79660769,3.23183144 9.70818223,3.01910105 9.70818223,2.79722222 C9.70818223,2.57534339 9.79660769,2.362613 9.95388889,2.20611111 C10.2355139,1.92678053 10.3949344,1.54720775 10.3972222,1.15055556 C10.3997034,0.752943121 10.2395383,0.371597598 9.95388889,0.095 C9.82855093,-0.0303379557 9.62533796,-0.0303379557 9.5,0.095 C9.37466204,0.220337956 9.37466204,0.423550933 9.5,0.548888889 C9.8231276,0.880829199 9.8231276,1.40972636 9.5,1.74166667 C8.9203827,2.3260175 8.9203827,3.26842694 9.5,3.85277778 Z" id="Shape"></path>
                    <path d="M19.38,16.1711111 C19.3119381,13.7353388 18.3105189,11.4188483 16.5827778,9.70055556 C15.0288795,8.12446924 12.9699286,7.14543994 10.7666667,6.935 C10.8302691,6.80715902 10.8628172,6.66611731 10.8616667,6.52333333 C10.8616667,5.96951446 10.4127078,5.52055556 9.85888889,5.52055556 C9.30507001,5.52055556 8.85611111,5.96951446 8.85611111,6.52333333 C8.85638316,6.66482839 8.88510033,6.80482457 8.94055556,6.935 C6.73980186,7.14342122 4.68352686,8.12295586 3.135,9.70055556 C1.41714351,11.4255656 0.417504793,13.7379374 0.337777778,16.1711111 C0.251931286,16.1710634 0.169743956,16.2058715 0.110044456,16.2675609 C0.0503449573,16.3292504 0.0182495477,16.4125345 0.0211111111,16.4983333 C0.0181306453,16.5831972 0.0505355616,16.6654859 0.110580367,16.7255307 C0.170625173,16.7855755 0.252913921,16.8179805 0.337777778,16.815 L0.855,16.815 L1.47777778,17.6488889 C1.72580292,17.9852561 2.11552711,18.1879127 2.53333333,18.1977778 L17.1738889,18.1977778 C17.5912883,18.1863361 17.9803623,17.9840176 18.2294444,17.6488889 L18.8522222,16.815 L19.3694444,16.815 C19.4543083,16.8179805 19.536597,16.7855755 19.5966419,16.7255307 C19.6566867,16.6654859 19.6890916,16.5831972 19.6861111,16.4983333 C19.6889727,16.4125345 19.6568773,16.3292504 19.5971778,16.2675609 C19.5374783,16.2058715 19.4552909,16.1710634 19.3694444,16.1711111 L19.38,16.1711111 Z M9.88,6.175 C10.0782089,6.175 10.2388889,6.33568003 10.2388889,6.53388889 C10.2388889,6.73209775 10.0782089,6.89277778 9.88,6.89277778 C9.68179114,6.89277778 9.52111111,6.73209775 9.52111111,6.53388889 C9.52111111,6.33568003 9.68179114,6.175 9.88,6.175 Z M17.7333333,17.2266667 C17.5982332,17.4054284 17.3874028,17.5108436 17.1633333,17.5116667 L2.52277778,17.5116667 C2.30243236,17.5075889 2.09617368,17.4025137 1.96333333,17.2266667 L1.63611111,16.7727778 L18.0605556,16.7727778 L17.7333333,17.2266667 Z M0.981666667,16.1711111 C1.21233928,11.4479513 5.10898841,7.73696469 9.83777778,7.73696469 C14.5665671,7.73696469 18.4632163,11.4479513 18.6938889,16.1711111 L0.981666667,16.1711111 Z" id="Shape"></path>
                    <path d="M14.5983333,9.83777778 C14.4516779,9.73055431 14.2464808,9.75853574 14.1338889,9.90111111 C14.0278406,10.044401 14.0560004,10.2462129 14.1972222,10.355 C15.5370211,11.3817123 16.5014933,12.8210015 16.9416667,14.4505556 C16.983036,14.5918435 17.1111497,14.6900641 17.2583333,14.6933333 L17.3427778,14.6933333 C17.428459,14.6737215 17.5021343,14.6193797 17.5461739,14.5433112 C17.5902135,14.4672427 17.6006551,14.376292 17.575,14.2922222 C17.0925779,12.5236719 16.0477511,10.9601367 14.5983333,9.83777778 Z" id="Shape"></path>
                    <path d="M13.1733333,9.27833333 L12.4133333,9.04611111 C12.2523012,8.99693201 12.0778784,9.05649102 11.9805556,9.19388889 C11.9172222,9.32055556 11.9805556,9.45777778 12.1811111,9.5 L12.8777778,9.71111111 C12.9264332,9.72201866 12.9769001,9.72201866 13.0255556,9.71111111 C13.1433526,9.71532231 13.2564346,9.66463035 13.3316667,9.57388889 C13.4161111,9.44722222 13.3316667,9.31 13.1733333,9.24666667 L13.1733333,9.27833333 Z" id="Shape"></path>
                </g>
            </g>
        </g>
    </g>
</svg>