<?xml version="1.0" encoding="UTF-8"?>
<svg width="23px" height="23px" viewBox="0 0 23 23" version="1.1" xmlns="http://www.w3.org/2000/svg" xmlns:xlink="http://www.w3.org/1999/xlink">
    <!-- Generator: Sketch 49.3 (51167) - http://www.bohemiancoding.com/sketch -->
    <title>golf-clubs</title>
    <desc>Created with Sketch.</desc>
    <defs></defs>
    <g id="Page-1" stroke="none" stroke-width="1" fill="none" fill-rule="evenodd">
        <g id="D---D6---Home-3" transform="translate(-590.000000, -455.000000)" fill="#757372" fill-rule="nonzero">
            <g id="Group-67" transform="translate(470.500000, 455.000000)">
                <g id="golf-clubs" transform="translate(120.000000, 0.000000)">
                    <path d="M22.027332,2.46287081 C21.8213194,1.33559569 21.0604664,0.4510311 20.4154212,0.159844498 C20.1804567,0.0538133971 19.9475447,0 19.7232751,0 C19.3311814,0 18.9769521,0.158358852 18.6703098,0.470674641 C18.150579,1.00011483 18.1378856,1.78866268 18.3558354,2.33538038 C18.72184,3.2531244 19.4211161,4.16178947 19.8838072,4.76309091 C19.916054,4.80501914 19.9502454,4.84947847 19.9840047,4.89360766 L13.1134253,11.8925957 L12.3799578,11.1454258 L16.697958,6.74675837 C17.7300195,5.69541627 17.7869512,4.60121053 17.6529944,3.86840191 C17.4469818,2.74112679 16.6861288,1.85650718 16.0410836,1.56532057 C15.806065,1.45923445 15.573207,1.40547608 15.3489374,1.40547608 C14.9568437,1.40547608 14.6026144,1.56383493 14.2959722,1.87615072 C13.7761874,2.40570096 13.7634939,3.1942488 13.9814978,3.74085646 C14.3475023,4.65860048 15.0468324,5.56732057 15.5095235,6.16862201 C15.5417704,6.21055024 15.5759618,6.25495455 15.6097211,6.29908373 L11.616134,10.3673325 L10.8826665,9.62016268 L12.3236744,8.15223445 C13.3556819,7.10089234 13.4126675,6.0066866 13.2787107,5.27387799 C13.0726441,4.14660287 12.3118451,3.26203828 11.6667459,2.97079665 C11.4317273,2.86471053 11.1988694,2.81089713 10.9745998,2.81089713 C10.5825601,2.81089713 10.2283308,2.96925598 9.92168853,3.28162679 C9.40190375,3.81117703 9.38921026,4.59966986 9.60721415,5.14627751 C9.97321869,6.06413158 10.6725488,6.97285167 11.1352939,7.57420813 C11.1674868,7.61608134 11.2016782,7.66048565 11.2353834,7.70455981 L10.1188427,8.84195933 L9.41400307,8.12395215 C9.31267123,8.0207823 9.1753115,7.96278708 9.03206415,7.96278708 C8.8888168,7.96278708 8.75145707,8.0207823 8.65012523,8.12395215 L2.72102448,14.1635981 L0.721341156,16.2006388 C-0.240447052,17.1803947 -0.240447052,18.7744928 0.721341156,19.7542488 L3.16513448,22.2436962 C3.31075848,22.3919856 3.47134459,22.5194761 3.64343587,22.6246818 C4.02202587,22.8561124 4.45635918,22.9796962 4.90932761,22.9796962 C5.25269994,22.9796962 5.58516127,22.908055 5.89099328,22.7728612 C6.12314906,22.6702416 6.33969454,22.5306459 6.53387789,22.3570455 C7.23601677,22.7777584 8.04510503,23 8.88141677,23 C9.03627731,23 9.19227216,22.9924067 9.34842906,22.977055 C10.5090459,22.8631005 11.6131632,22.3267823 12.4573611,21.4668684 C13.301505,20.6068995 13.8280416,19.4822105 13.9398523,18.2998565 C14.0359988,17.2836746 13.8216679,16.2847153 13.334346,15.4381172 L14.5821968,14.1669545 C14.7931247,13.9520861 14.7931247,13.6036746 14.5821968,13.3888062 L13.8773572,12.670799 L21.0723497,5.3412823 C22.1044112,4.28994019 22.1613428,3.19567943 22.027332,2.46287081 Z M14.9823387,3.32658134 C14.9007223,3.12205742 14.9001821,2.81694976 15.05985,2.65429904 C15.1881893,2.5235622 15.2780159,2.50589952 15.3489374,2.50589952 C15.4215334,2.50589952 15.5071469,2.52790909 15.6034013,2.57137799 C15.9294889,2.71856699 16.454135,3.32124402 16.5909546,4.06978947 C16.6804572,4.55922727 16.5943575,5.02384928 16.3348703,5.45732775 C15.9095574,4.90455742 15.2853079,4.08629665 14.9823387,3.32658134 Z M10.6079471,4.73200239 C10.5263846,4.52747847 10.5257905,4.22237081 10.6854583,4.05977512 C10.8137976,3.92903828 10.9035703,3.9113756 10.9744917,3.9113756 C11.0470877,3.9113756 11.1327012,3.93344019 11.2289556,3.97690909 C11.5550972,4.12409809 12.0797434,4.72677512 12.2165629,5.47532057 C12.3060655,5.96475837 12.2199659,6.42938038 11.9604786,6.86285885 C11.5351658,6.31003349 10.9109163,5.4917177 10.6079471,4.73200239 Z M1.11943051,17.641 C1.17749646,17.3981244 1.29946197,17.1680694 1.48527301,16.9787871 L3.1029634,15.3308756 L7.5073333,19.8175813 L5.88964291,21.4654928 C5.79144394,21.5655263 5.68114564,21.6487225 5.56204292,21.7135957 C5.3635924,21.8217727 5.1407812,21.8791077 4.90932761,21.8791077 C4.60846497,21.8791077 4.32224034,21.7821555 4.08500717,21.6027225 C4.03029014,21.5612895 3.97811181,21.5155096 3.92906633,21.4654928 L1.48527301,18.9760455 C1.21498276,18.7007057 1.07983764,18.3390885 1.07983764,17.9774163 C1.07983764,17.8643971 1.09301726,17.751378 1.11943051,17.641 Z M11.6934292,20.6886651 C10.5009977,21.9034833 8.72704236,22.2237225 7.33713254,21.5472584 L8.65315006,20.2066555 C8.6533121,20.2064904 8.65342013,20.2063804 8.65352816,20.2062153 L12.5362768,16.2509306 C13.2003352,17.6668062 12.8859688,19.4739019 11.6934292,20.6886651 Z M8.27121114,19.039378 L3.86684124,14.5526722 L9.0319021,9.29111962 L9.73636362,10.0087416 C9.73652567,10.0089067 9.7366337,10.0090167 9.73674173,10.0091818 C9.73684976,10.0092919 9.7370118,10.0094019 9.73717385,10.009567 L13.436272,13.7778804 L8.27121114,19.039378 Z M19.3566764,1.92121531 C19.275114,1.71663636 19.2745738,1.41147368 19.4342417,1.24887799 C19.5625809,1.11808612 19.6524076,1.10047847 19.7233291,1.10047847 C19.795925,1.10047847 19.8815385,1.12248804 19.977793,1.16595694 C20.3038806,1.31314593 20.8285267,1.91582297 20.9654003,2.66436842 C21.0548489,3.15380622 20.9686952,3.61848325 20.7092619,4.05196172 C20.2839491,3.49913636 19.6596456,2.6808756 19.3566764,1.92121531 Z" id="Shape"></path>
                </g>
            </g>
        </g>
    </g>
</svg>