<?xml version="1.0" encoding="UTF-8"?>
<svg width="30px" height="18px" viewBox="0 0 30 18" version="1.1" xmlns="http://www.w3.org/2000/svg" xmlns:xlink="http://www.w3.org/1999/xlink">
    <!-- Generator: Sketch 49.3 (51167) - http://www.bohemiancoding.com/sketch -->
    <title>Group 4</title>
    <desc>Created with Sketch.</desc>
    <defs></defs>
    <g id="Page-1" stroke="none" stroke-width="1" fill="none" fill-rule="evenodd">
        <g id="D---D6---Home-3" transform="translate(-888.000000, -460.000000)" fill="#757372" fill-rule="nonzero">
            <g id="Group-70" transform="translate(695.000000, 460.000000)">
                <g id="Group-61" transform="translate(166.000000, 0.000000)">
                    <g id="Group-4" transform="translate(27.000000, 0.000000)">
                        <g id="helicopter-copy">
                            <path d="M2.44779114,6.14868316 C1.39196885,6.14868316 0.533347649,7.47750168 0.533347649,9.11151237 C0.533347649,10.7455231 1.39196885,12.0743416 2.44779114,12.0743416 C3.50361343,12.0743416 4.36223463,10.7455231 4.36223463,9.11151237 C4.36223463,7.47750168 3.50361343,6.14868316 2.44779114,6.14868316 Z M2.44779114,10.5928923 C1.91940886,10.5928923 1.49059183,9.92771914 1.49059183,9.11151237 C1.49059183,8.29530559 1.91940886,7.63013248 2.44779114,7.63013248 C2.97617341,7.63013248 3.40499045,8.29530559 3.40499045,9.11151237 C3.40499045,9.92771914 2.97617341,10.5928923 2.44779114,10.5928923 Z" id="Shape"></path>
                            <path d="M20.1387583,6.55083779 L19.1136395,4.50055747 C19.0129219,4.3002903 18.807876,4.17346368 18.5838864,4.17346368 L16.8061915,4.17346368 C16.6485878,4.17346368 16.4980392,4.23629369 16.3878222,4.34651007 L14.1905913,6.54372705 L4.95485545,6.54372705 C4.6277596,6.54372705 4.36227198,6.80921299 4.36227198,7.13630678 C4.36227198,7.46101181 4.62420421,7.72533114 4.94652251,7.72888651 C4.66564672,7.73244188 4.41793605,7.93626442 4.37054937,8.22424917 C4.31605191,8.54662099 4.53526391,8.85238257 4.85763776,8.90571308 C7.02881427,9.26719394 10.7251974,10.1572024 11.5737689,11.0306561 L11.6117116,11.1053188 C12.7316594,13.2978138 14.1265388,16.0247805 16.806136,16.0247805 L25.1020268,16.0247805 C27.466361,16.0247805 29.25,14.7507924 29.25,13.061993 C29.25,11.2676436 25.2407426,6.76182661 20.1387583,6.55083779 Z M25.1020824,14.8396211 L16.806136,14.8396211 C14.8518383,14.8396211 13.690448,12.568908 12.6676624,10.5660696 L12.5929992,10.4214661 C12.5716668,10.3811905 12.5456125,10.3420815 12.5159472,10.3065278 C11.2277295,8.80377403 5.6800994,7.84149166 5.05201759,7.73716385 C5.02357447,7.73121972 4.99274257,7.72888651 4.96429945,7.72888651 L14.4358577,7.72888651 C14.5934614,7.72888651 14.74401,7.66605651 14.854227,7.55584012 L17.0514579,5.35862314 L18.2176257,5.35862314 L19.2391892,7.40179272 C19.3399067,7.60205989 19.5449527,7.72888651 19.7689422,7.72888651 C24.6303266,7.72888651 28.0648331,12.1754844 28.0648331,13.0619374 C28.0648886,14.0419966 26.7363395,14.8396211 25.1020824,14.8396211 Z" id="Shape"></path>
                            <path d="M26.7373096,12.7316515 L21.9371447,12.7316515 C21.137893,12.7316515 20.4463785,12.1655459 20.2166589,11.3242562 L18.9340762,6.61748927 C18.8395748,6.26991416 18.5057634,6.07242829 18.1898989,6.17641694 C17.8728566,6.28176331 17.6933882,6.64908701 17.7890673,6.99666212 L19.07165,11.703429 C19.4545348,13.1068746 20.6067224,14.0495611 21.9371447,14.0495611 L26.7373096,14.0495611 C27.0675316,14.0495611 27.3355565,13.7533323 27.3355565,13.3899583 C27.3355565,13.0265843 27.0675316,12.7316515 26.7373096,12.7316515 Z" id="Shape"></path>
                            <path d="M4.29546025,5.19435402 L3.0260798,2.56158785 C2.87500133,2.2496075 2.51453132,2.11404167 2.20606705,2.25226081 L0.916336535,2.8288321 C0.614239102,2.96310212 0.461911069,3.31586947 0.565982057,3.64105468 L1.20070203,5.61561388 C1.31369849,5.96048298 1.6741685,6.14609155 2.00423241,6.03156711 C2.33679545,5.91704268 2.51708996,5.54452975 2.40534306,5.19830313 L1.9547258,3.79766191 L2.15781001,3.70683219 L3.1606164,5.78536426 C3.27230379,6.01570894 3.49573807,6.14868316 3.72803832,6.14868316 C3.82324334,6.14868316 3.91969793,6.12498845 4.01109475,6.07889483 C4.32467629,5.91568517 4.45159648,5.52077333 4.29546025,5.19435402 Z" id="Shape"></path>
                            <path d="M4.09753313,8.1752425 C3.86213125,8.05575809 3.57411381,8.15251223 3.45542604,8.39648079 L3.39514019,8.51994647 C3.35113691,8.29380104 3.15780952,8.12390263 2.92626521,8.12390263 C2.66215578,8.12390263 2.44779114,8.34514091 2.44779114,8.61771907 L2.44779114,9.60530566 C2.44779114,9.87788382 2.66215578,10.0991221 2.92626521,10.0991221 L3.40473928,10.0991221 C3.58559683,10.0991221 3.75115863,9.99343326 3.8334237,9.82557178 L4.31189777,8.83798519 C4.42959871,8.59401662 4.33392184,8.29773602 4.09753313,8.1752425 Z" id="Shape"></path>
                            <path d="M16.5752086,0.223024735 C16.1742963,0.223024735 15.8488956,0.5180022 15.8488956,0.881431226 L15.8488956,1.53983772 C15.8488956,1.90326674 16.1742963,2.19824421 16.5752086,2.19824421 C16.9761208,2.19824421 17.3015216,1.90326674 17.3015216,1.53983772 L17.3015216,0.881431226 C17.3014535,0.517940476 16.9761208,0.223024735 16.5752086,0.223024735 Z" id="Shape"></path>
                            <path d="M26.7612073,2.19824421 L16.4232448,2.19824421 C16.1062139,2.19824421 15.8488956,2.53397514 15.8488956,2.94761475 C15.8488956,3.36125437 16.1062139,3.6969853 16.4232448,3.6969853 L26.7612073,3.6969853 C27.0782382,3.6969853 27.3355565,3.36125437 27.3355565,2.94761475 C27.3355565,2.53397514 27.0782382,2.19824421 26.7612073,2.19824421 Z" id="Shape"></path>
                            <path d="M17.1889899,2.19824421 L6.85102732,2.19824421 C6.53399647,2.19824421 6.27667812,2.53397514 6.27667812,2.94761475 C6.27667812,3.36125437 6.53399647,3.6969853 6.85102732,3.6969853 L17.1889899,3.6969853 C17.5060207,3.6969853 17.7633391,3.36125437 17.7633391,2.94761475 C17.7633391,2.53397514 17.5060207,2.19824421 17.1889899,2.19824421 Z" id="Shape"></path>
                            <path d="M18.4896521,14.0495611 C18.0887398,14.0495611 17.7633391,14.3445431 17.7633391,14.7079778 L17.7633391,17.3415832 C17.7633391,17.7050179 18.0887398,18 18.4896521,18 C18.8905643,18 19.215965,17.7050179 19.215965,17.3415832 L19.215965,14.7079778 C19.215965,14.3444814 18.8905643,14.0495611 18.4896521,14.0495611 Z" id="Shape"></path>
                            <path d="M24.2329825,14.0495611 C23.8320703,14.0495611 23.5066695,14.3445431 23.5066695,14.7079778 L23.5066695,17.3415832 C23.5066695,17.7050179 23.8320703,18 24.2329825,18 C24.6338948,18 24.9592955,17.7050179 24.9592955,17.3415832 L24.9592955,14.7079778 C24.9592274,14.3444814 24.6338948,14.0495611 24.2329825,14.0495611 Z" id="Shape"></path>
                            <path d="M27.0341098,16.0878609 C26.7501986,15.9545269 26.3908503,16.0394811 26.2318026,16.2774915 C25.9525856,16.6952713 24.814511,16.9560134 24.3903839,17.0123099 L12.6090925,17.0123099 C12.2839283,17.0123099 12.0200086,17.233561 12.0200086,17.506155 C12.0200086,17.7787489 12.2839283,18 12.6090925,18 L24.4716749,17.9950463 C24.6896476,17.9693517 26.6205858,17.7174986 27.2603109,16.7594846 C27.4193586,16.5214742 27.318021,16.2211949 27.0341098,16.0878609 Z" id="Shape"></path>
                        </g>
                    </g>
                </g>
            </g>
        </g>
    </g>
</svg>