<?xml version="1.0" encoding="UTF-8"?>
<svg width="39px" height="13px" viewBox="0 0 39 13" version="1.1" xmlns="http://www.w3.org/2000/svg" xmlns:xlink="http://www.w3.org/1999/xlink">
    <!-- Generator: Sketch 49.3 (51167) - http://www.bohemiancoding.com/sketch -->
    <title>limousine</title>
    <desc>Created with Sketch.</desc>
    <defs></defs>
    <g id="Page-1" stroke="none" stroke-width="1" fill="none" fill-rule="evenodd">
        <g id="D---D6---Home-3" transform="translate(-809.000000, -466.000000)" fill="#757372" fill-rule="nonzero">
            <g id="Group-70" transform="translate(695.000000, 460.000000)">
                <g id="Group-60" transform="translate(86.000000, 0.000000)">
                    <g id="limousine" transform="translate(28.000000, 6.000000)">
                        <g id="limousine-(1)">
                            <path d="M38.4272317,4.76765834 C38.358808,4.49347151 38.1289779,4.28948022 37.8486076,4.25408659 L33.0672545,3.63780049 L33.0141855,3.60013856 C31.7388156,2.68255703 29.2616879,0.89703924 29.023733,0.701881975 C28.4925289,0.249525514 27.8178067,0.00075204485 27.1200937,5.80622939e-07 L12.2847177,5.80622939e-07 C10.4260683,-0.000658375837 8.61047958,0.559590651 7.0753882,1.60748016 L4.40310318,3.42894798 C4.3617969,3.45831797 4.32338998,3.49156575 4.28840549,3.52823851 L4.21308164,3.61040999 L2.87608318,3.61040999 C1.92522753,3.61319823 1.07882862,4.21355891 0.761879464,5.11003951 L0.135321927,6.8664549 C-0.0572815199,7.41504365 -0.0438963669,8.01494186 0.172983856,8.55439406 C0.575622603,9.5664099 1.5558079,10.2295962 2.64497589,10.2269261 L4.18569114,10.2269261 L4.24389594,10.3981166 C4.61484581,11.5305087 5.67150973,12.2962803 6.86311187,12.2962803 C8.05471402,12.2962803 9.11137794,11.5305087 9.48232781,10.3981166 L9.54053261,10.2269261 L29.7615644,10.2269261 L29.8180573,10.3981166 C30.1899691,11.5300134 31.2466978,12.2951096 32.4381292,12.2951096 C33.6295605,12.2951096 34.6862892,11.5300134 35.058201,10.3981166 L35.1164058,10.2269261 L36.3472661,10.2269261 C37.4834627,10.2249018 38.4933043,9.50240793 38.8620558,8.42771302 C39.0162523,7.97743492 39.0417456,7.49306271 38.9356678,7.02908595 L38.4272317,4.76765834 Z M24.550523,1.36438953 L27.1183818,1.36438953 C27.4908546,1.36435128 27.8512331,1.49661139 28.1352538,1.73758501 C28.2003062,1.79236599 28.5358398,2.04915187 30.0508765,3.14648351 L30.6928411,3.61040999 L24.550523,3.61040999 L24.550523,1.36438953 Z M18.7796884,1.36438953 L23.187846,1.36438953 L23.187846,3.61040999 L18.7796884,3.61040999 L18.7796884,1.36438953 Z M13.0122776,1.36438953 L17.4204352,1.36438953 L17.4204352,3.61040999 L13.0122776,3.61040999 L13.0122776,1.36438953 Z M7.84916964,2.73391421 C8.89712829,2.01912858 10.1022545,1.56808718 11.3620004,1.41917052 L11.6496006,1.3849324 L11.6496006,3.61040999 L6.55839263,3.61040999 L7.84916964,2.73391421 Z M6.86824759,10.9390789 C6.30378485,10.9390785 5.79493515,10.5989626 5.57908489,10.0774007 C5.36323462,9.55583872 5.48291639,8.95560285 5.88229676,8.55671251 C6.28167714,8.15782218 6.8820595,8.03887743 7.40335603,8.25536788 C7.92465255,8.47185833 8.26414344,8.98112523 8.26345085,9.54558754 C8.26299861,9.91621324 8.11509901,10.2714288 7.85238533,10.5328578 C7.58967164,10.7942869 7.23373534,10.9404434 6.86311187,10.9390789 L6.86824759,10.9390789 Z M32.4441208,10.9390789 C31.8795028,10.9397712 31.3701277,10.6000949 31.1537378,10.0785881 C30.9373479,9.55708122 31.0566068,8.95656452 31.4558523,8.557319 C31.8550978,8.15807347 32.4556145,8.03881464 32.9771214,8.25520455 C33.4986282,8.47159446 33.8383045,8.98096952 33.8376122,9.54558754 C33.8371589,9.9159157 33.6894943,10.2708708 33.4271513,10.5322505 C33.1648084,10.7936301 32.8093124,10.9399879 32.4389851,10.9390789 L32.4441208,10.9390789 Z M37.5798383,7.98604132 C37.3997209,8.51099842 36.9056869,8.86329005 36.3506899,8.86253711 L35.1198296,8.86253711 L35.0616249,8.69134652 C34.6897131,7.55944976 33.6329843,6.79435361 32.441553,6.79435361 C31.2501216,6.79435361 30.1933929,7.55944976 29.8214811,8.69134652 L29.7649882,8.86253711 L9.54053261,8.86253711 L9.48232781,8.69134652 C9.11137794,7.55895442 8.05471402,6.79318287 6.86311187,6.79318287 C5.67150973,6.79318287 4.61484581,7.55895442 4.24389594,8.69134652 L4.18569114,8.86253711 L2.64497589,8.86253711 C2.11622664,8.86069336 1.64177342,8.53738738 1.4466418,8.04595802 C1.3547326,7.81475615 1.34986619,7.55805297 1.43294655,7.32353376 L2.05950409,5.56027074 C2.18454844,5.20888982 2.51681197,4.97390757 2.88977842,4.97308704 L32.7796544,4.97308704 L37.2186262,5.54143978 L37.6123645,7.3355171 C37.6616017,7.55144096 37.6491444,7.77685774 37.5764145,7.98604132 L37.5798383,7.98604132 Z" id="Shape"></path>
                        </g>
                    </g>
                </g>
            </g>
        </g>
    </g>
</svg>