<?xml version="1.0" encoding="UTF-8"?>
<svg width="20px" height="20px" viewBox="0 0 20 20" version="1.1" xmlns="http://www.w3.org/2000/svg" xmlns:xlink="http://www.w3.org/1999/xlink">
    <!-- Generator: Sketch 49.3 (51167) - http://www.bohemiancoding.com/sketch -->
    <title>dog-seating</title>
    <desc>Created with Sketch.</desc>
    <defs></defs>
    <g id="Page-1" stroke="none" stroke-width="1" fill="none" fill-rule="evenodd">
        <g id="D---D6---Home-3" transform="translate(-288.000000, -458.000000)" fill="#757372" fill-rule="nonzero">
            <g id="Group-65" transform="translate(288.500000, 458.000000)">
                <g id="dog-seating">
                    <path d="M18.9566412,4.60320611 L16.9157252,3.77979644 C16.7910941,3.12096692 16.2904326,2.59348601 15.6461578,2.42977099 L15.5357761,1.15791349 C15.52,0.97648855 15.3982697,0.821628499 15.2256997,0.76351145 C15.0530789,0.705394402 14.8624427,0.754961832 14.7401527,0.889923664 L14.2062087,1.47882952 L13.878626,0.33221374 C13.8240712,0.141272265 13.6526209,0.0072264631 13.4541476,0.000305343511 C13.2557761,-0.0058524173 13.075369,0.115216285 13.0076336,0.301984733 L10.181374,8.0989313 C8.14829517,8.62687023 6.3729771,9.92783715 5.28254453,11.698117 C4.2837659,13.3195929 3.9735369,15.1773028 4.40900763,16.9289567 C4.66351145,17.9527226 5.14671756,18.6273282 5.64101781,19.0696692 L5.25226463,19.0696692 C5.24860051,19.0696692 5.24493639,19.0697201 5.24127226,19.0698219 C3.40234097,19.1146565 1.69816794,18.0691603 0.902391858,16.407888 C0.793129771,16.1797455 0.519592875,16.0834606 0.291450382,16.1926718 C0.063307888,16.3019847 -0.0330279898,16.5754707 0.0762849873,16.8036132 C1.0080916,18.7489567 2.98101781,19.9871756 5.12900763,19.9871756 C5.17185751,19.9871756 13.873486,19.9871756 13.873486,19.9871756 C14.1264631,19.9871756 14.3315013,19.7821374 14.3315013,19.5291603 C14.3315013,18.296285 13.3481425,17.7343511 12.4802545,17.5280916 C12.886056,16.7369466 12.9211196,16.0411705 12.8751145,15.5860051 L12.9948092,15.5700254 L15.74,19.7793384 C15.8245802,19.9089567 15.968855,19.9871247 16.1236641,19.9871247 L17.7905852,19.9871247 C17.9573537,19.9871247 18.1109924,19.8964377 18.1915522,19.7504326 C18.2721628,19.6044275 18.266972,19.4261069 18.1780662,19.2849873 C18.1603562,19.2568957 16.4393384,16.5243257 15.5141476,14.9944529 L15.5141476,7.29852417 C15.6503308,7.31419847 15.803257,7.32208651 15.9383206,7.32208651 C17.2670229,7.32208651 18.5166412,6.57246819 19.1894656,5.24330789 C19.1900254,5.24223919 19.2072774,5.20620865 19.2100254,5.19928753 C19.3046819,4.96473282 19.1912468,4.6978117 18.9566412,4.60320611 Z" id="Shape"></path>
                </g>
            </g>
        </g>
    </g>
</svg>