<?xml version="1.0" encoding="UTF-8"?>
<svg width="25px" height="27px" viewBox="0 0 25 27" version="1.1" xmlns="http://www.w3.org/2000/svg" xmlns:xlink="http://www.w3.org/1999/xlink">
    <!-- Generator: Sketch 49.3 (51167) - http://www.bohemiancoding.com/sketch -->
    <title>skis-2</title>
    <desc>Created with Sketch.</desc>
    <defs></defs>
    <g id="Page-1" stroke="none" stroke-width="1" fill="none" fill-rule="evenodd">
        <g id="D---D6---Home-3" transform="translate(-550.000000, -452.000000)" fill="#737373" fill-rule="nonzero">
            <g id="skis-2" transform="translate(550.000000, 452.000000)">
                <g id="UVuMRZ.tif">
                    <path d="M7.42,0.03 L7.61,0.03 C8.0265933,0.124262317 8.34591222,0.459350075 8.42,0.88 C8.49974111,1.20856435 8.49974111,1.55143565 8.42,1.88 C8.1,3.61 7.79,5.33 7.42,7.06 L6.58,11.64 C6.55467138,11.8224585 6.55467138,12.0075415 6.58,12.19 C6.57503705,12.2799316 6.57503705,12.3700684 6.58,12.46 C6.58,12.62 6.58,12.67 6.36,12.7 L6.27,13.23 C6.11,14.23 5.95,15.23 5.8,16.23 C5.78513426,16.2992107 5.78513426,16.3707893 5.8,16.44 C6.56,19.0733333 7.32666667,21.7066667 8.1,24.34 C8.2,24.67 8.29,25.02 8.37,25.34 C8.42356171,25.469558 8.41649143,25.6162627 8.35071907,25.7400695 C8.28494672,25.8638763 8.16733962,25.9518584 8.03,25.98 C7.70547713,26.0849397 7.36992097,26.1520509 7.03,26.18 C6.69,26.18 6.53,26.08 6.44,25.74 C6.28,25.11 6.13,24.49 5.98,23.86 L5.23,20.71 C5.23,20.71 5.23,20.71 5.23,20.71 C5.23,20.85 5.23,21 5.23,21.15 L4.84,24.28 C4.78,24.74 4.71,25.2 4.64,25.66 C4.57,26.12 4.41,26.2 4.05,26.18 C3.74344074,26.1702402 3.43860986,26.1300428 3.14,26.06 C3.00566632,26.0508078 2.88293641,25.9806133 2.80690296,25.8694875 C2.7308695,25.7583616 2.70990356,25.6185391 2.75,25.49 C2.81,25.03 2.89,24.56 2.97,24.1 C3.19,22.83 3.42,21.55 3.64,20.28 C3.86,19.01 4.07,17.84 4.28,16.62 C4.29493462,16.5339767 4.29493462,16.4460233 4.28,16.36 C3.99,15.27 3.69,14.18 3.39,13.09 L3.39,13 C3.2,13 3.12,13 3.12,12.78 C3.12,12.56 3.12,12.36 3.12,12.15 C3.12992393,12.0870554 3.12992393,12.0229446 3.12,11.96 L0.48,3.46 C0.34,2.99 0.19,2.53 0.05,2.07 C0.05,2 0.05,1.93 0.05,1.86 L0.05,1.49 C0.0546521741,1.45682899 0.0546521741,1.42317101 0.05,1.39 C0.0976385434,1.04410558 0.311046986,0.743211022 0.621735238,0.583883714 C0.932423489,0.424556405 1.3013076,0.426839397 1.61,0.59 C1.99726828,0.794046849 2.27255014,1.16108934 2.36,1.59 C3.13333333,4.92333333 3.89333333,8.25666667 4.64,11.59 C4.68415374,11.7484865 4.76268152,11.8952993 4.87,12.02 C5.04625351,11.7161604 5.13937666,11.3712598 5.14,11.02 C5.21,10.24 5.3,9.46 5.38,8.69 C5.46,7.92 5.54,7.14 5.63,6.36 L5.87,4.05 L6.14,1.53 C6.14973704,1.17455606 6.2569757,0.828624892 6.45,0.53 C6.59386428,0.304279826 6.81381046,0.137546433 7.07,0.06 C7.15523438,0.0342344657 7.24209431,0.0141898664 7.33,-4.97379915e-14 L7.42,0.03 Z" id="Shape"></path>
                </g>
                <path d="M15.01,18.16 C14.76,19.33 14.5,20.48 14.27,21.64 C14.2098373,22.020374 14.1797442,22.4048976 14.18,22.79 C14.1758622,22.9560154 14.2699327,23.10888 14.42,23.18 L16.56,24.37 C16.56,24.37 16.56,24.37 16.56,24.31 C16.4504909,23.8241264 16.4995565,23.3159472 16.7,22.86 C16.7669551,22.6743938 16.7942093,22.4768012 16.78,22.28 C16.7898247,22.0898907 16.8234195,21.9017601 16.88,21.72 C17.18,20.4 17.49,19.07 17.79,17.72 C17.8286358,17.4616009 17.8520096,17.2011494 17.86,16.94 C17.86,16.73 17.92,16.7 18.13,16.76 C18.6541346,16.9395423 19.1518855,17.1884177 19.61,17.5 C19.7007987,17.5606674 19.8192013,17.5606674 19.91,17.5 C20.3740126,17.2928518 20.8887098,17.2267758 21.39,17.31 L21.5,17.31 L21.57,17.31 C21.32,18.47 21.07,19.62 20.83,20.78 C20.7730529,21.077172 20.7363021,21.3778603 20.72,21.68 C20.6755646,21.9959745 20.8473753,22.3027792 21.14,22.43 C21.83,22.78 22.5,23.16 23.14,23.52 L23.69,23.83 C24.0786291,23.9952789 24.2841265,24.4233984 24.17,24.83 C24.17,24.93 24.17,25 24.25,25.07 C24.33,25.14 24.3,25.25 24.3,25.34 C24.3,25.43 24.23,25.44 24.19,25.44 C23.9749041,25.4743963 23.7577577,25.4944405 23.54,25.5 C22.81,25.5 22.08,25.5 21.35,25.5 C20.99,25.5 20.64,25.43 20.29,25.41 C19.878792,25.3393166 19.4565395,25.3702132 19.06,25.5 C19.0004389,25.5102632 18.9395611,25.5102632 18.88,25.5 L17.61,25.5 C17.61,25.62 17.51,25.74 17.69,25.83 C17.87,25.92 17.69,26.02 17.69,26.11 C17.6655527,26.1608112 17.6161648,26.1950029 17.56,26.2 C17.3202308,26.2148852 17.0797692,26.2148852 16.84,26.2 C16.16,26.2 15.48,26.2 14.84,26.2 C14.34,26.2 13.84,26.12 13.36,26.09 C13.0719311,26.0560633 12.7799401,26.0938504 12.51,26.2 C12.4538044,26.2103334 12.3961956,26.2103334 12.34,26.2 L10.34,26.2 C10.2636792,26.2102982 10.1863208,26.2102982 10.11,26.2 C9.9709254,26.1850766 9.86419708,26.06981 9.86,25.93 C9.86,25.78 9.86,25.62 9.8,25.45 C10.01,25.45 10,25.25 9.95,25.1 C9.79761113,24.5576797 9.83284846,23.9797874 10.05,23.46 C10.0935742,23.2832066 10.1170561,23.1020602 10.12,22.92 C10.12,22.86 10.12,22.79 10.12,22.73 C10.43,21.39 10.74,20.06 11.03,18.73 C11.1061848,18.3598913 11.1629292,17.9860457 11.2,17.61 C11.2,17.38 11.26,17.35 11.49,17.42 C12.01007,17.6017512 12.5042323,17.8505132 12.96,18.16 C13.0453633,18.214548 13.1546367,18.214548 13.24,18.16 C13.7395093,17.9396793 14.2952018,17.8802656 14.83,17.99 L15.01,18.16 Z" id="Shape"></path>
            </g>
        </g>
    </g>
</svg>