<?xml version="1.0" encoding="UTF-8"?>
<svg width="29px" height="16px" viewBox="0 0 29 16" version="1.1" xmlns="http://www.w3.org/2000/svg" xmlns:xlink="http://www.w3.org/1999/xlink">
    <!-- Generator: Sketch 49.3 (51167) - http://www.bohemiancoding.com/sketch -->
    <title>cigarette-with-smoke copy</title>
    <desc>Created with Sketch.</desc>
    <defs></defs>
    <g id="Page-1" stroke="none" stroke-width="1" fill="none" fill-rule="evenodd">
        <g id="D---D6---Home-3" transform="translate(-408.000000, -460.000000)" fill="#757372" fill-rule="nonzero">
            <g id="Group-66" transform="translate(380.000000, 458.000000)">
                <g id="cigarette-with-smoke-copy" transform="translate(28.000000, 2.000000)">
                    <path d="M27.032844,10.1721872 L24.9533945,10.1721872 L7.62464831,10.1721872 L0.59412844,10.1721872 C0.266169541,10.1721872 0,10.4487223 0,10.7894531 L0,15.3827341 C0,15.7234649 0.266169541,16 0.59412844,16 L7.62464831,16 L24.9533945,16 L27.032844,16 C27.3608029,16 27.6269724,15.7234649 27.6269724,15.3827341 L27.6269724,10.7894531 C27.6269724,10.4487223 27.3608029,10.1721872 27.032844,10.1721872 Z M8.21877675,11.4067189 L24.359266,11.4067189 L24.359266,14.7654683 L8.21877675,14.7654683 L8.21877675,11.4067189 Z M26.4387156,14.7654683 L25.5475229,14.7654683 L25.5475229,11.4067189 L26.4387156,11.4067189 L26.4387156,14.7654683 Z M25.3358108,3.66538193 C24.8917989,2.45636385 25.2328286,1.01278474 26.1660063,0.155196698 C26.4119755,-0.0715456304 26.7878607,-0.0464434851 27.0045196,0.208281563 C27.2219706,0.463418121 27.1989976,0.853530149 26.9534245,1.07944946 C26.3921712,1.59548372 26.1786811,2.49792642 26.4460389,3.22547712 C26.5842727,3.60159779 26.8393519,3.94973574 27.1102744,4.31803771 C27.4112995,4.72831375 27.7226228,5.15258116 27.9238343,5.6756111 C28.44944,7.04635284 27.936113,8.76152893 26.7545896,9.57961196 C26.6531916,9.64998027 26.5387229,9.68331263 26.4254424,9.68331263 C26.233737,9.68331263 26.0452002,9.58701915 25.9307315,9.40842356 C25.7485321,9.12489277 25.8226001,8.74177642 26.0955031,8.55248156 C26.8151907,8.05373074 27.140773,6.96816583 26.8199437,6.13279936 C26.6797294,5.76655494 26.4297993,5.4266472 26.1656102,5.06657545 C25.8550791,4.64477711 25.5350419,4.20816438 25.3358108,3.66538193 Z" id="Shape"></path>
                </g>
            </g>
        </g>
    </g>
</svg>