<?xml version="1.0" encoding="UTF-8"?>
<svg width="22px" height="15px" viewBox="0 0 22 15" version="1.1" xmlns="http://www.w3.org/2000/svg" xmlns:xlink="http://www.w3.org/1999/xlink">
    <!-- Generator: Sketch 49.3 (51167) - http://www.bohemiancoding.com/sketch -->
    <title>wifi-connection-signal-symbol</title>
    <desc>Created with Sketch.</desc>
    <defs></defs>
    <g id="Page-1" stroke="none" stroke-width="1" fill="none" fill-rule="evenodd">
        <g id="D---D6---Home-3" transform="translate(-1176.000000, -462.000000)" fill="#757372" fill-rule="nonzero">
            <g id="Group-63" transform="translate(1148.000000, 460.000000)">
                <g id="wifi-connection-signal-symbol" transform="translate(28.000000, 2.000000)">
                    <path d="M10.6249958,11.2500084 C9.55379683,11.2500084 8.68444158,12.0899939 8.68444158,13.1250042 C8.68444158,14.1600145 9.55383155,15 10.6249958,15 C11.6961601,15 12.5655501,14.1600145 12.5655501,13.1250042 C12.5655501,12.0899939 11.6961601,11.2500084 10.6249958,11.2500084 Z M21.0224666,4.69438399 C18.4273177,1.7106355 14.6373913,0 10.6249958,0 C6.61260033,0 2.82329895,1.7106355 0.227490353,4.69438399 C-0.117307252,5.09064029 -0.064250783,5.68188782 0.346520181,6.01500346 C0.528259423,6.16248823 0.7488535,6.23502283 0.969412855,6.23502283 C1.2462579,6.23502283 1.52119319,6.12125557 1.71327983,5.9006323 C3.93845705,3.3425297 7.1869505,1.87502936 10.6249611,1.87502936 C14.0629717,1.87502936 17.3114652,3.3425297 19.5366077,5.90002841 C19.728729,6.12065167 20.0036296,6.23441893 20.2805094,6.23441893 C20.5011034,6.23441893 20.7223225,6.16252178 20.9040618,6.01439956 C21.314173,5.68185427 21.3672642,5.09000284 21.0224666,4.69438399 Z M10.6249958,3.74999161 C7.75880063,3.74999161 5.05236513,4.97184056 3.19851375,7.10248559 C2.85375087,7.49874188 2.90677261,8.08998942 3.31754358,8.42310505 C3.49928282,8.57058983 3.72050191,8.64312442 3.94109599,8.64312442 C4.21794103,8.64312442 4.49287632,8.52935716 4.68433795,8.3087339 C6.16755795,6.60313086 8.33322025,5.62498742 10.6250306,5.62498742 C12.9168409,5.62498742 15.0824684,6.60313086 16.5663482,8.3087339 C16.7584695,8.52999461 17.0333701,8.64312442 17.3095554,8.64312442 C17.5301495,8.64312442 17.7513686,8.57122727 17.9331425,8.42310505 C18.3438788,8.08998942 18.3969005,7.49813799 18.0521724,7.10248559 C16.1976265,4.97187411 13.491191,3.74999161 10.6249958,3.74999161 Z M10.6249958,7.49998323 C8.90437592,7.49998323 7.28011183,8.23311272 6.16884269,9.51122463 C5.82404508,9.90748093 5.87710155,10.4987285 6.28787252,10.8318441 C6.46961176,10.9793289 6.69083085,11.0518299 6.91142493,11.0518299 C7.18826997,11.0518299 7.46320526,10.9380962 7.65466689,10.7174729 C8.39662412,9.86433593 9.47942055,9.37494548 10.6249958,9.37494548 C11.7705711,9.37494548 12.8534023,9.86433593 13.5953248,10.7174729 C13.7874461,10.9387337 14.0623467,11.0518299 14.3385667,11.0518299 C14.5591608,11.0518299 14.7803799,10.9799663 14.9621192,10.8318441 C15.3728901,10.4986949 15.4259119,9.90744738 15.081149,9.51122463 C13.9698451,8.23311272 12.345581,7.49998323 10.6249958,7.49998323 Z" id="Shape"></path>
                </g>
            </g>
        </g>
    </g>
</svg>