<?xml version="1.0" encoding="UTF-8"?>
<svg width="31px" height="13px" viewBox="0 0 31 13" version="1.1" xmlns="http://www.w3.org/2000/svg" xmlns:xlink="http://www.w3.org/1999/xlink">
    <!-- Generator: Sketch 48.2 (47327) - http://www.bohemiancoding.com/sketch -->
    <title>Group 4</title>
    <desc>Created with Sketch.</desc>
    <defs></defs>
    <g id="D---D4---Empty-Legs-Details" stroke="none" stroke-width="1" fill="none" fill-rule="evenodd" transform="translate(-745.000000, -603.000000)">
        <g id="Group-9" transform="translate(229.000000, 595.000000)" fill="#B6CADA" fill-rule="nonzero">
            <g id="Group-7" transform="translate(515.000000, 0.000000)">
                <g id="Group-4">
                    <g id="aircraft" transform="translate(16.888889, 12.000000) rotate(-20.000000) translate(-16.888889, -12.000000) translate(1.777778, 5.333333)">
                        <path d="M0,7.73666867 L12.0919044,7.73666867 L5.36779048,0.118756426 C5.71780942,0.0987553441 6.03282647,0.0787542618 6.34909358,0.0612533147 C6.70786299,0.0425023 7.06788248,0.0362519618 7.42540182,0.00250013529 C7.57788674,-0.00830299365 7.72832105,0.0425924466 7.84292442,0.143757779 L10.1317983,1.84134964 L12.1919098,3.37018238 L14.9908112,5.44529467 L17.7734618,7.50915636 C17.8095485,7.53366115 17.8434288,7.56126728 17.8747173,7.59166082 C18.0384761,7.76542022 18.2497376,7.76542022 18.4647492,7.76542022 C20.3815196,7.76542022 22.3012068,7.76792036 24.2238109,7.77292063 C24.7314206,7.77810766 25.2349175,7.86462641 25.7151416,8.0291845 C26.1469665,8.16123053 26.5706396,8.31859482 26.9839602,8.50046 C27.8415066,8.90673199 28.6227989,9.42676013 29.2128308,10.1893014 C29.362839,10.3830619 29.5178474,10.5855728 29.529098,10.8455869 C29.5341629,11.153081 29.3896814,11.4439082 29.141577,11.6256291 C28.7765572,11.9318957 28.3352834,12.0756535 27.8752585,12.1869095 C27.3209683,12.3083656 26.7551072,12.3691433 26.1876671,12.3681693 C25.7301424,12.3781698 25.2726176,12.4231723 24.8125927,12.4506738 C24.2950647,12.4819255 23.7775367,12.5131771 23.2600087,12.5406786 C22.6424753,12.5731804 22.0249419,12.603182 21.4074085,12.6306835 C20.6573679,12.6631853 19.9073273,12.6831863 19.1572867,12.7231885 C17.1796797,12.8294443 15.2020727,12.8119433 13.2232156,12.805693 C12.5381785,12.805693 11.8481412,12.7769414 11.1693544,12.75069 C10.7109963,12.7323557 10.2526382,12.7031874 9.79428002,12.6631853 C9.2692516,12.6169328 8.74547326,12.5631799 8.22294498,12.4894259 C7.73291847,12.4206721 7.24289195,12.3406678 6.76036584,12.2394123 C6.14161264,12.090716 5.54308081,11.8678405 4.97776937,11.5756264 C4.33813953,11.268122 3.72841157,10.9019504 3.15642081,10.4818172 C2.51263597,9.99804104 1.87760161,9.50176419 1.26256832,8.98173605 C0.838795391,8.6242167 0.456274691,8.22044485 0.0550029765,7.83667408 C0.034696538,7.80446223 0.0163295953,7.77106779 0,7.73666867 Z" id="Shape"></path>
                        <path d="M4.07147033,7.32039614 L0.253763732,7.32039614 C0.0437523677,7.32039614 0.0125006765,7.28914445 0.0125006765,7.07788302 C0.0125006765,5.86781754 0.0125006765,4.65941881 0.0125006765,3.45268684 L0.0125006765,3.27142703 C0.350018941,3.27142703 0.673786462,3.27142703 0.997553982,3.27142703 C1.03130581,3.27142703 1.07255804,3.3114292 1.09630933,3.34268089 C1.45382867,3.80770605 1.80968126,4.27398129 2.1638671,4.74150659 C2.5076357,5.19653121 2.8476541,5.65405597 3.19017264,6.10908059 C3.47768819,6.48410089 3.76895396,6.86787165 4.05646952,7.24789222 C4.06521999,7.26164296 4.06396992,7.27914391 4.07147033,7.32039614 Z" id="Shape"></path>
                    </g>
                </g>
            </g>
        </g>
    </g>
</svg>