<?xml version="1.0" encoding="UTF-8"?>
<svg width="14px" height="23px" viewBox="0 0 14 23" version="1.1" xmlns="http://www.w3.org/2000/svg" xmlns:xlink="http://www.w3.org/1999/xlink">
    <!-- Generator: Sketch 48.2 (47327) - http://www.bohemiancoding.com/sketch -->
    <title>sitting-symbol</title>
    <desc>Created with Sketch.</desc>
    <defs></defs>
    <g id="D---D4---Empty-Legs-Details" stroke="none" stroke-width="1" fill="none" fill-rule="evenodd" transform="translate(-1170.000000, -596.000000)">
        <g id="Group-9" transform="translate(229.000000, 595.000000)" fill="#B6CADA" fill-rule="nonzero">
            <g id="Group-7" transform="translate(515.000000, 0.000000)">
                <g id="sitting-symbol" transform="translate(426.000000, 1.000000)">
                    <g id="g1786" transform="translate(1.680070, 0.000000)">
                        <path d="M2.41543632,4.8081623 C3.74319557,4.8081623 4.81947826,3.73173147 4.81947826,2.40413054 C4.81947826,1.07643068 3.74319557,0 2.41543632,0 C1.08768705,0 0.0113059806,1.07643063 0.0113059806,2.40413054 C0.0113059806,3.73173147 1.08768705,4.8081623 2.41543632,4.8081623 Z" id="path1788"></path>
                    </g>
                    <path d="M2.26897391,7.7326203 C1.83660299,4.96544644 5.82677867,4.12541151 6.46915831,6.95435265 L7.55626233,12.3739122 L11.6120002,12.3823124 C12.7961042,12.3823124 13.4117999,13.3295752 13.4117999,14.2058306 L13.4117999,21.5744191 C13.4117999,23.363693 10.8639248,23.3552935 10.8639248,21.5423501 C10.8639248,19.8609457 10.8639248,15.8077775 10.8639248,15.8077775 L5.68392341,15.8077775 C4.47614097,15.8077775 3.71833074,14.9789093 3.52887815,14.0316472 L2.26897391,7.7326203 Z" id="path1792"></path>
                    <path d="M8.96455618,16.2919343 C10.3102428,16.2919343 10.3039673,18.2824707 8.98313612,18.2824707 L5.26331289,18.2824707 C3.45490557,18.2824707 1.65130117,16.9235906 1.17949798,14.8235033 L0.0206460325,9.19032797 C-0.214217355,7.91135028 1.62659421,7.48555121 1.89837022,8.79501741 L2.99733346,14.1842362 C3.3051817,15.5577919 4.32350138,16.2919343 5.55495325,16.2919343 L8.96455613,16.2919343 Z" id="path1794"></path>
                </g>
            </g>
        </g>
    </g>
</svg>