<?xml version="1.0" encoding="UTF-8"?>
<svg width="19px" height="23px" viewBox="0 0 19 23" version="1.1" xmlns="http://www.w3.org/2000/svg" xmlns:xlink="http://www.w3.org/1999/xlink">
    <!-- Generator: Sketch 48.2 (47327) - http://www.bohemiancoding.com/sketch -->
    <title>quarter-of-an-hour</title>
    <desc>Created with Sketch.</desc>
    <defs></defs>
    <g id="D---D4---Empty-Legs-Details" stroke="none" stroke-width="1" fill="none" fill-rule="evenodd" transform="translate(-1004.000000, -596.000000)">
        <g id="Group-9" transform="translate(229.000000, 595.000000)" fill="#B6CADA" fill-rule="nonzero">
            <g id="Group-7" transform="translate(515.000000, 0.000000)">
                <g id="quarter-of-an-hour" transform="translate(260.000000, 1.000000)">
                    <path d="M15.5074429,7.18184005 L16.5102722,5.76558342 C16.6922552,5.50837499 16.631498,5.15267654 16.374578,4.97064546 L14.8621386,3.89965666 C14.6051705,3.71796205 14.2490875,3.77876726 14.0670564,4.03559115 L13.0392321,5.48712922 C12.280585,5.13167111 11.4660356,4.87701024 10.6124554,4.74141223 L10.6124554,4.15124121 C10.6124554,3.77333565 10.9217689,3.46407027 11.2996744,3.46407027 L11.6787336,3.46407027 C12.0568315,3.46407027 12.3660968,3.15485295 12.3660968,2.77728386 L12.3660968,0.687315147 C12.3660968,0.309601851 12.0568315,0 11.6787336,0 L6.65569475,0 C6.27798145,0 5.96861994,0.309601851 5.96861994,0.687315147 L5.96861994,2.77723579 C5.96861994,3.15480489 6.27798145,3.4640222 6.65569475,3.4640222 L7.03518654,3.4640222 C7.4129479,3.4640222 7.72230942,3.77328758 7.72230942,4.15119314 L7.72230942,4.74136416 C6.80696272,4.88691212 5.93713582,5.16873104 5.13292086,5.5646138 L4.11456582,4.12706333 C3.93267894,3.86990297 3.57683629,3.80943423 3.31977206,3.99112884 L1.80752492,5.06216571 C1.55031649,5.24424486 1.48955935,5.5999433 1.67173463,5.85729594 L2.69850146,7.30744005 C1.03628416,8.96638877 0.00634489121,11.2592979 0.00634489121,13.7882177 C0.00634489121,18.8393279 4.11605591,22.9490389 9.16731032,22.9490389 C14.2187089,22.9490389 18.3281796,18.8393279 18.3281796,13.7882177 C18.3281796,11.1946953 17.2449817,8.85001769 15.5074429,7.18184005 Z M9.16731032,20.7505822 C5.32836273,20.7505822 2.2049939,17.6270211 2.2049939,13.7881696 C2.2049939,9.94907783 5.32836273,6.82570899 9.16731032,6.82570899 C13.006306,6.82570899 16.1297709,9.94907783 16.1297709,13.7881696 C16.1297709,17.6270211 13.006306,20.7505822 9.16731032,20.7505822 Z" id="Shape"></path>
                    <path d="M9.16731032,8.04700442 C9.15183263,8.04700442 9.13678755,8.04839837 9.12159826,8.04839837 L9.12159826,13.7422172 L14.9068893,13.7422172 C14.8823749,10.5976988 12.3174527,8.04700442 9.16731032,8.04700442 Z" id="Shape"></path>
                </g>
            </g>
        </g>
    </g>
</svg>